<svg width="63" height="57" viewBox="0 0 63 57" fill="none" xmlns="http://www.w3.org/2000/svg">
<path d="M21.8504 2.43034C34.3074 -0.633021 46.4846 -0.329436 57.9999 6.25077C62.0529 8.55871 63.3044 12.3457 61.8387 17.0587C60.163 22.4554 56.7412 26.8253 52.2831 30.033C47.1009 33.7562 41.6063 37.1636 35.9122 40.0267C30.0571 42.9679 23.7895 45.1002 17.6959 47.5805C16.2608 48.1676 14.8099 48.7426 13.4397 49.7705C19.4442 49.7693 25.412 49.8156 31.3228 48.7712C32.9744 48.4767 34.8044 47.8022 36.3608 50.3227C35.3667 51.009 34.5129 52.0051 33.4698 52.2628C29.4339 53.2473 25.3602 54.2153 21.2412 54.7828C16.3168 55.4628 11.346 55.8422 6.38432 56.1278C2.41336 56.355 -0.198196 54.436 0.170955 50.6081C0.606281 46.0869 2.22447 41.6677 3.50856 37.2565C3.71922 36.523 4.81896 36.0439 5.61922 35.3473C9.94221 38.6825 6.00876 42.6844 7.02123 46.5526C19.9787 40.2289 33.876 36.1285 45.8907 27.9955C49.6309 25.4594 53.0593 22.5577 55.4258 18.6253C58.4675 13.5848 57.8654 11.3815 52.6628 8.68201C44.8502 4.61963 36.4183 4.05418 27.8348 4.29301C25.8661 4.34381 23.8851 4.08245 21.9102 3.97716C21.8904 3.44489 21.8744 2.94066 21.8504 2.43034Z" fill="url(#paint0_linear_64_4028)"/>
<defs>
<linearGradient id="paint0_linear_64_4028" x1="-0.697631" y1="113.203" x2="-52.0648" y2="72.9339" gradientUnits="userSpaceOnUse">
<stop stop-color="#ED1E3A"/>
<stop offset="0.14404" stop-color="#9C5194"/>
<stop offset="0.463214" stop-color="#A62856"/>
<stop offset="0.642281" stop-color="#ED1E3A"/>
<stop offset="0.915944" stop-color="#ED1E3A"/>
</linearGradient>
</defs>
</svg>
