<?xml version="1.0" encoding="UTF-8"?> <svg xmlns="http://www.w3.org/2000/svg" width="104" height="17" viewBox="0 0 104 17" fill="none"><g id="]‘‘‘‘‘87 — копия 1" clip-path="url(#clip0_1868_9165)"><path id="logo a1" d="M0.460568 8.16188C0.82853 6.24421 2.48436 4.89056 4.83932 4.89056C7.56225 4.89056 9.65963 6.0562 9.65963 9.81633V16.8102H7.34147L7.0471 15.3061C6.23758 16.3214 5.17049 16.9982 3.51466 16.9982C1.56446 16.9982 0.0190125 15.7573 0.0190125 13.4261C0.0190125 11.0948 2.04281 9.59073 4.91292 9.59073H6.82632V9.06431C6.82632 7.74826 5.86962 7.33465 4.80253 7.33465C3.99301 7.33465 3.18349 7.59786 2.81553 8.68829L0.460568 8.16188ZM4.17699 14.5541C5.46486 14.5541 6.82632 13.6517 6.82632 12.1476V11.922H4.94971C3.73543 11.8844 2.99951 12.3732 2.99951 13.3885C2.99951 13.9525 3.40427 14.5541 4.17699 14.5541Z" fill="#191919"></path><path id="logo a2" d="M55.5812 8.16188C55.9492 6.24421 57.605 4.89056 59.96 4.89056C62.6829 4.89056 64.7803 6.0562 64.7803 9.81633V16.8102H62.4621L62.1677 15.3061C61.3582 16.3214 60.2911 16.9982 58.6353 16.9982C56.6851 16.9982 55.1396 15.7573 55.1396 13.4261C55.1396 11.0948 57.1634 9.59073 60.0336 9.59073H61.947V9.06431C61.947 7.74826 60.9903 7.33465 59.9232 7.33465C59.1137 7.33465 58.3041 7.59786 57.9362 8.68829L55.5812 8.16188ZM59.2976 14.5541C60.5855 14.5541 61.947 13.6517 61.947 12.1476V11.922H60.0704C58.8561 11.922 58.1201 12.3732 58.1201 13.4261C58.1201 13.9525 58.5249 14.5541 59.2976 14.5541Z" fill="#191919"></path><path id="logo r" d="M67.3562 16.8478V5.07857H70.1895V6.99624C70.9991 5.60499 72.2869 4.89056 73.5748 4.89056C74.0899 4.89056 74.4947 4.96577 74.973 5.11617L74.4579 7.78586C74.1267 7.56026 73.7588 7.44745 73.2804 7.44745C71.6246 7.44745 70.1895 8.8387 70.1895 12.6364V16.8102L67.3562 16.8478Z" fill="#191919"></path><path id="logo d" d="M81.0076 4.89058C82.1851 4.89058 83.289 5.4922 83.8041 6.13142V0.34082H86.6375V16.8478H83.8041V15.6445C83.473 16.2462 82.4427 17.0358 81.0076 17.0358C77.5488 17.0358 75.7826 14.5917 75.7826 10.982C75.7826 7.37226 77.5488 4.89058 81.0076 4.89058ZM81.4124 14.5541C82.8842 14.5541 84.0617 13.3133 84.0617 10.982C84.0617 8.65071 82.8842 7.40986 81.4124 7.40986C79.9405 7.40986 78.7631 8.65071 78.7631 10.982C78.7631 13.3133 79.9405 14.5541 81.4124 14.5541Z" fill="#191919"></path><path id="logo s" d="M96.8665 6.77063L95.1739 8.34989C94.6587 7.63546 93.886 7.33465 93.2605 7.33465C92.7085 7.33465 92.1934 7.67306 92.1934 8.31229C92.1934 8.8387 92.5981 9.21472 93.2972 9.44033C94.8795 10.0419 97.4552 10.5308 97.4552 13.05C97.4552 15.1933 95.873 16.9606 93.3708 16.9606C90.9791 16.9606 89.36 15.2309 88.8081 13.8021L91.0527 12.5612C91.4574 13.6893 92.2302 14.5165 93.3708 14.5165C94.254 14.5165 94.8059 14.1029 94.8059 13.2381C94.8059 12.2604 93.334 12.0348 91.9358 11.4332C90.6847 10.9068 89.6176 10.0795 89.6176 8.27468C89.6176 6.46982 91.0527 4.85297 93.2972 4.85297C94.8059 4.85297 96.1674 5.64259 96.8665 6.77063Z" fill="#191919"></path><path id="logo w2" d="M37.9191 5.07861L35.8953 13.1629L33.9451 5.07861H31.2958L29.3823 13.1629L27.7633 8.46273L27.5793 9.02675L26.6594 12.0349L28.1313 16.8478H30.6334L32.6204 9.25236L34.6074 16.8478H37.1096L40.7892 5.07861H37.9191Z" fill="#191919"></path><path id="logo w3" d="M51.6073 5.07861L49.5467 13.1629L47.5965 5.07861H44.9472L43.0338 13.1629L41.4148 8.46273L41.2308 9.02675L40.3109 12.0349L41.7827 16.8478H44.2849L46.2719 9.25236L48.2589 16.8478H50.761L54.4406 5.07861H51.6073Z" fill="#191919"></path><path id="logo w1" d="M27.1378 5.07861L23.4582 16.8102H20.9561L18.9691 9.21476L16.9821 16.8478H14.4799L10.8003 5.11621H13.6704L15.731 13.1629L17.6812 5.11621H20.2937L22.2439 13.1629L24.3045 5.11621L27.1378 5.07861Z" fill="#191919"></path><path id="logo p" d="M101.135 13.05C102.239 13.05 103.048 13.8773 103.048 15.0053C103.048 16.1334 102.239 16.9606 101.135 16.9606C100.031 16.9606 99.2216 16.1334 99.2216 15.0053C99.2216 13.8773 100.068 13.05 101.135 13.05Z" fill="#191919"></path></g><defs><clipPath id="clip0_1868_9165"><rect width="103.067" height="16.6574" fill="white" transform="translate(0 0.34082)"></rect></clipPath></defs></svg> 