<svg xmlns="http://www.w3.org/2000/svg" width="553" height="552" viewBox="0 0 553 552" fill="none"><path fill-rule="evenodd" clip-rule="evenodd" d="M172.331 369.416H157.994L149.515 360.326V190.428L157.319 182.064H172.331V369.416Z" fill="#161616"></path><path fill-rule="evenodd" clip-rule="evenodd" d="M125.013 348.092V369.41C124.715 369.414 124.415 369.416 124.114 369.416H81.7449V348.165H122.109C123.094 348.165 124.063 348.141 125.013 348.092ZM125.013 262.837V284.143C124.063 284.094 123.094 284.07 122.109 284.07H81.7449V262.819H124.114L125.013 262.837ZM121.327 263.22C121.252 263.221 121.177 263.223 121.103 263.224L121.296 263.22L121.327 263.22ZM125.013 202.495C123.441 202.349 121.813 202.274 120.133 202.274H81.7449V182.063H122.04C123.044 182.063 124.035 182.083 125.013 182.12V202.495Z" fill="#161616"></path><path fill-rule="evenodd" clip-rule="evenodd" d="M196.836 268.416V258.219L197.974 258.242C214.136 256.39 223.834 246.206 224.57 230.035C223.818 213.515 213.634 203.245 196.836 201.688V182.599C227.489 183.761 245.078 204.022 245.078 229.756C245.078 229.849 245.078 229.942 245.078 230.035C245.078 230.128 245.078 230.221 245.078 230.314C245.078 245.194 238.918 260.858 228.322 268.416H196.836Z" fill="#161616"></path><path fill-rule="evenodd" clip-rule="evenodd" d="M228.322 279.769C237.988 286.346 249.661 301.942 249.661 319.194C249.661 319.292 249.66 319.39 249.659 319.488C249.66 319.586 249.661 319.683 249.661 319.781C249.661 347.409 230.379 369.038 196.836 369.415V349.444C215.747 348.489 227.276 337.535 228.097 319.488C227.276 301.44 215.747 290.487 196.836 289.531V279.769H228.322Z" fill="#161616"></path><path fill-rule="evenodd" clip-rule="evenodd" d="M463.979 182.061L471.232 189.786V369.412H448.278V182.061H463.979Z" fill="#161616"></path><path fill-rule="evenodd" clip-rule="evenodd" d="M275.199 182.061H291.191L291.202 229.44V369.412H268.073V189.651L275.199 182.061Z" fill="#161616"></path><path fill-rule="evenodd" clip-rule="evenodd" d="M351.536 304.708L365.384 336.923L365.502 336.647V369.412H357.249L330.102 304.708H351.536ZM346.827 293.738H325.503L298.845 230.192V182.061L346.827 293.738Z" fill="#161616"></path><path fill-rule="evenodd" clip-rule="evenodd" d="M387.645 304.708H408.97L381.89 369.412H373.873V336.647L387.645 304.708ZM392.379 293.738L440.531 182.061L440.354 229.711L413.561 293.738H392.379Z" fill="#161616"></path><path fill-rule="evenodd" clip-rule="evenodd" d="M277.613 0.00172491C337.298 0.364861 396.589 20.3911 443.957 56.7254C498.41 98.4945 536.598 160.863 548.243 228.816C559.098 292.138 547.149 359.187 514.681 414.664C479.558 474.667 420.957 520.874 354.27 540.299C293.762 557.919 227.274 554.43 169.132 529.761C93.4485 497.655 33.4277 430.591 11.1386 350.662C-7.62662 283.369 -0.307605 209.311 32.4878 147.282C71.226 74.0135 144.171 19.714 226.257 4.57362C243.155 1.45686 260.306 -0.0584741 277.613 0.00172491ZM276.068 13.7828C219.289 13.9815 162.654 32.9727 117.434 67.646C67.0374 106.288 31.2793 163.44 19.2447 226.081C7.40367 287.712 18.5236 353.577 50.1959 407.692C83.2418 464.156 137.569 507.714 201.085 526.628C261.227 544.532 327.899 540.306 384.847 514.258C463.93 478.088 522.979 400.999 535.576 314.314C546.321 240.406 525.238 162.674 474.709 104.667C426.745 49.6044 355.362 15.5402 282.691 13.8559C280.85 13.8139 279.01 13.7912 277.169 13.7841C276.802 13.7828 276.435 13.7828 276.068 13.7828Z" fill="#161616"></path></svg>