<?xml version="1.0" encoding="UTF-8"?> <svg xmlns="http://www.w3.org/2000/svg" width="81" height="23" viewBox="0 0 81 23" fill="none"><path d="M21.0117 0H24.6938V22.7329H21.0117V0Z" fill="#17313B"></path><path d="M37.5012 15.5289C37.5012 19.0509 34.6196 19.3711 33.6591 19.3711C31.4178 19.3711 31.0976 17.2899 31.0976 16.1692V7.36426H27.4155V16.0092C27.4155 18.0903 28.0559 20.0114 29.3366 21.1321C30.4572 22.2527 31.8981 22.733 33.6591 22.733C34.9398 22.733 36.5407 22.4128 37.5012 21.4522V22.733H41.1833V7.36426H37.5012V15.5289Z" fill="#17313B"></path><path d="M48.3875 1.76123H44.7054V7.36441H41.9839V10.8864H44.7054V22.7331H48.3875V10.8864H51.1091V7.36441H48.3875V1.76123Z" fill="#17313B"></path><path d="M62.6357 18.0902C61.8352 18.7306 60.7146 19.2108 59.594 19.2108C57.0325 19.2108 55.2715 17.2897 55.2715 14.7283C55.2715 12.1668 57.0325 10.4058 59.594 10.4058C60.7146 10.4058 61.8352 10.726 62.6357 11.5265L63.116 12.0068L65.6774 9.60539L65.037 9.12512C63.5962 7.8444 61.6751 7.04395 59.594 7.04395C55.1114 7.04395 51.7495 10.4058 51.7495 14.8884C51.7495 19.3709 55.1114 22.7328 59.594 22.7328C61.6751 22.7328 63.5962 21.9324 65.037 20.6517L65.6774 20.1714L63.116 17.6099L62.6357 18.0902Z" fill="#17313B"></path><path d="M78.6448 8.6449C77.5242 7.52427 76.4036 7.044 74.6426 7.044C73.3618 7.044 72.0811 7.36417 71.1206 8.32472V0H67.4385V22.7329H71.1206V14.2481C71.1206 10.7261 73.5219 10.4059 74.4825 10.4059C76.7237 10.4059 76.5637 12.4871 76.5637 13.6077V22.5728H80.2457V13.7678C80.2457 11.6866 79.7655 9.76554 78.6448 8.6449Z" fill="#17313B"></path><path d="M59.4335 17.4501C60.8482 17.4501 61.995 16.3033 61.995 14.8886C61.995 13.474 60.8482 12.3271 59.4335 12.3271C58.0189 12.3271 56.8721 13.474 56.8721 14.8886C56.8721 16.3033 58.0189 17.4501 59.4335 17.4501Z" fill="#EF4335"></path><path d="M15.8891 17.1295C14.6084 18.4103 12.6873 19.2107 10.6061 19.2107C6.60383 19.2107 3.72219 16.0089 3.72219 11.6864C3.72219 7.364 6.60383 4.16218 10.7662 4.16218C12.6873 4.16218 14.6084 4.96264 16.0492 6.40345L16.5295 6.88373L18.9308 4.48236L18.4505 4.00209C16.3694 1.92091 13.6478 0.800275 10.7662 0.800275C4.68274 0.640184 0.200195 5.44291 0.200195 11.6864C0.200195 17.93 4.68274 22.7327 10.6061 22.7327C13.4877 22.7327 16.3694 21.6121 18.2905 19.5309L18.7707 19.0506L16.3694 16.6493L15.8891 17.1295Z" fill="#17313B"></path></svg> 