<svg xmlns="http://www.w3.org/2000/svg" width="831" height="362" viewBox="0 0 831 362" fill="none"><path d="M62.2265 361.798C20.8102 361.798 0 332.013 0 298.969C0 266.126 21.6263 236.548 62.6346 236.548C78.3442 236.548 89.5654 240.016 99.1544 246.135L87.3212 265.514C80.5885 261.231 73.2437 258.579 62.2265 258.579C39.9882 258.579 28.155 276.326 28.155 298.357C28.155 321.002 39.5802 339.767 62.6346 339.767C75.6919 339.767 83.4448 335.281 89.7694 330.587L100.583 349.153C94.4619 354.658 79.9764 361.798 62.2265 361.798ZM150.16 287.545C136.898 287.545 132.614 298.765 132.614 315.084C132.614 331.403 137.918 343.031 151.18 343.031C164.645 343.031 169.134 332.015 169.134 315.696C168.93 299.377 163.625 287.545 150.16 287.545ZM150.568 361.798C119.557 361.798 106.091 338.543 106.091 315.694C106.091 292.847 119.557 268.98 150.568 268.98C181.579 268.98 195.657 292.031 195.657 314.878C195.453 337.523 181.783 361.798 150.568 361.798ZM234.625 271.226V327.936C234.625 336.707 237.685 340.991 246.052 340.991C255.027 340.991 261.76 332.423 263.598 330.383V271.226H288.488V333.647C288.488 345.275 289.712 354.252 290.937 359.554H266.248C265.434 357.106 264.616 351.395 264.414 347.723C259.719 353.842 250.538 361.594 235.851 361.594C216.265 361.594 209.328 349.151 209.328 332.831V271.022H234.627V271.226H234.625ZM349.897 361.798C321.334 361.798 303.788 343.233 303.788 315.492C303.788 285.709 323.578 268.982 350.713 268.982C364.994 268.982 373.563 273.266 377.848 275.918L369.891 293.053C366.017 290.605 360.304 287.953 351.529 287.953C337.655 287.953 330.313 298.765 330.313 314.88C330.313 330.993 337.247 342.623 352.143 342.623C362.344 342.623 368.259 338.951 370.911 337.319L378.46 354.044C374.379 356.698 366.218 361.798 349.897 361.798ZM445.379 359.758V302.845C445.379 294.073 442.318 289.789 433.954 289.789C424.977 289.789 418.04 298.153 416.204 300.397V359.554H391.313V229H416.204V281.63C420.692 276.734 429.261 268.982 443.747 268.982C463.335 268.982 470.269 281.426 470.269 297.745V359.554H445.379V359.758ZM515.562 340.379C517.194 340.991 520.867 342.213 527.395 342.213C540.249 342.213 548.206 332.829 548.206 314.674C548.206 298.355 542.697 288.563 530.048 288.563C522.703 288.563 516.992 293.255 515.562 295.091V340.379ZM515.562 229.204V278.162C519.643 274.082 527.395 268.982 537.188 268.982C559.225 268.982 574.728 284.078 574.728 314.676C574.728 345.071 554.326 361.8 527.395 361.8C507.199 361.8 494.958 356.7 490.468 354.66V229H515.562V229.204ZM634.099 320.796H631.038C617.371 320.796 607.782 324.876 607.782 334.871C607.782 341.195 612.883 343.845 618.391 343.845C626.756 343.845 631.652 338.951 634.099 336.501V320.796ZM636.751 359.758C635.935 357.512 635.525 353.024 635.323 350.373C631.446 355.064 623.082 362 610.634 362C595.539 362.002 583.909 353.026 583.909 337.115C583.909 314.064 607.576 305.703 631.038 305.703H634.099V300.805C634.099 293.461 631.038 288.973 620.023 288.973C608.596 288.973 600.845 294.889 597.581 297.133L586.768 282.038C592.072 277.142 603.903 269.186 622.877 269.186C647.36 269.186 658.989 278.57 658.989 302.233V333.239C658.989 345.479 660.215 354.044 661.438 359.758H636.751ZM703.874 361.798C687.96 361.798 677.759 357.104 672.251 353.432L680.618 336.093C684.084 338.543 692.653 343.439 702.446 343.439C711.627 343.439 716.727 340.785 716.727 335.891C716.727 330.179 706.732 328.545 694.081 322.426C681.84 316.512 674.699 309.78 674.699 296.315C674.699 279.588 687.96 268.98 708.159 268.98C723.254 268.98 732.641 273.672 736.721 275.916L728.153 292.847C724.684 290.807 717.745 287.339 709.383 287.339C701.02 287.339 697.345 290.195 697.345 294.887C697.345 300.599 705.506 302.027 715.707 306.106C729.583 311.82 739.578 318.346 739.578 333.033C739.17 352.006 725.704 361.798 703.874 361.798ZM806.497 304.681C806.293 294.889 802.416 286.933 791.809 286.933C782.014 286.933 776.302 293.257 774.671 304.681H806.497ZM797.112 343.439C809.149 343.439 815.678 339.563 820.166 337.319L828.123 353.23C822.206 356.494 813.23 361.798 794.868 361.798C765.078 361.798 748.147 343.233 748.147 314.88C748.147 286.729 767.529 268.982 792.215 268.982C820.166 268.982 833.634 288.361 830.573 321.408H774.873C775.894 334.667 782.83 343.439 797.112 343.439Z" fill="black"></path><path d="M584.239 132.989C584.239 148.231 575.485 161.568 558.359 164.617C528.674 169.948 466.259 173 414.119 173C361.98 173 299.565 169.948 269.879 164.617C252.753 161.568 244 148.231 244 132.989V34.6762C244 19.4339 255.798 5.3348 269.879 3.04846C278.633 1.52423 299.184 0 315.169 0C321.258 0 326.205 4.57268 326.205 11.8128V80.7841L414.5 78.8788L502.795 80.7841V11.8128C502.795 4.57268 507.742 0 513.831 0C529.816 0 550.367 1.52423 559.121 3.04846C573.583 5.3348 585 19.4339 585 34.6762C584.239 67.0661 584.239 100.218 584.239 132.989Z" fill="#ED2226"></path></svg>