<svg width="40" height="41" viewBox="0 0 40 41" fill="none" xmlns="http://www.w3.org/2000/svg">
<g clip-path="url(#clip0_2172_28)">
<path d="M3.05273 18.6951L9.55274 21.4451C10.3861 19.7785 11.3027 18.1639 12.3027 16.6014C13.3027 15.0389 14.4069 13.5285 15.6152 12.0701L11.6777 11.3201C11.3444 11.2368 11.0215 11.2472 10.709 11.3514C10.3965 11.4555 10.1152 11.6326 9.86524 11.8826L3.05273 18.6951ZM10.9277 22.5701L17.9902 29.6326C20.0319 28.6743 22.0527 27.5076 24.0527 26.1326C26.0527 24.7576 27.9902 23.1326 29.8652 21.2576C32.4902 18.6326 34.4798 15.8722 35.834 12.9764C37.1882 10.0805 38.0111 6.48676 38.3027 2.19509C34.0111 2.48676 30.4277 3.30967 27.5527 4.66384C24.6777 6.01801 21.9277 8.00759 19.3027 10.6326C17.4277 12.5076 15.8027 14.4555 14.4277 16.4764C13.0527 18.4972 11.8861 20.5285 10.9277 22.5701ZM24.4277 16.0701C23.7611 15.4035 23.4277 14.6118 23.4277 13.6951C23.4277 12.7785 23.7611 11.9868 24.4277 11.3201C25.0944 10.6535 25.8965 10.3201 26.834 10.3201C27.7715 10.3201 28.5736 10.6535 29.2402 11.3201C29.9069 11.9868 30.2402 12.7785 30.2402 13.6951C30.2402 14.6118 29.9069 15.4035 29.2402 16.0701C28.5736 16.7368 27.7715 17.0701 26.834 17.0701C25.8965 17.0701 25.0944 16.7368 24.4277 16.0701ZM21.8027 37.5076L28.6152 30.6951C28.8652 30.4451 29.0423 30.1639 29.1465 29.8514C29.2507 29.5389 29.2611 29.216 29.1777 28.8826L28.4277 24.9451C26.9694 26.1535 25.459 27.2576 23.8965 28.2576C22.334 29.2576 20.7194 30.1743 19.0527 31.0076L21.8027 37.5076ZM39.9902 0.570087C40.1152 5.02843 39.4173 9.04926 37.8965 12.6326C36.3757 16.216 34.0944 19.5285 31.0527 22.5701L29.9277 23.6951L30.8652 28.5076C30.9902 29.1326 30.9694 29.7368 30.8027 30.3201C30.6361 30.9035 30.3236 31.4243 29.8652 31.8826L21.1777 40.5076L17.3652 31.5076L8.99024 23.1326L-0.00976562 19.2576L8.61524 10.6326C9.07357 10.1743 9.5944 9.85134 10.1777 9.66384C10.7611 9.47634 11.3652 9.44509 11.9902 9.57009L16.9277 10.5701C17.1361 10.3618 17.3132 10.1743 17.459 10.0076C17.6048 9.84092 17.7819 9.65343 17.9902 9.44509C21.0319 6.40343 24.3444 4.13259 27.9277 2.63259C31.5111 1.13259 35.5319 0.445087 39.9902 0.570087ZM4.11523 30.3201C4.94857 29.4868 5.95898 29.0805 7.14648 29.1014C8.33399 29.1222 9.3444 29.5493 10.1777 30.3826C11.0111 31.216 11.4277 32.2264 11.4277 33.4139C11.4277 34.6014 11.0111 35.6118 10.1777 36.4451C9.38607 37.2368 8.13607 37.9139 6.42774 38.4764C4.7194 39.0389 2.9069 39.3826 0.990234 39.5076C1.11523 37.591 1.4694 35.7785 2.05273 34.0701C2.63607 32.3618 3.32357 31.1118 4.11523 30.3201ZM5.36523 31.6326C4.86523 32.1326 4.4069 32.9243 3.99023 34.0076C3.57357 35.091 3.30273 36.216 3.17773 37.3826C4.3444 37.2576 5.4694 36.9764 6.55273 36.5389C7.63607 36.1014 8.42774 35.6326 8.92774 35.1326C9.42774 34.6326 9.67774 34.0389 9.67774 33.3514C9.67774 32.6639 9.42774 32.0701 8.92774 31.5701C8.42774 31.0701 7.83398 30.8305 7.14648 30.8514C6.45898 30.8722 5.86523 31.1326 5.36523 31.6326Z" fill="#ED1E3A"/>
</g>
<defs>
<clipPath id="clip0_2172_28">
<rect width="40" height="41" fill="white"/>
</clipPath>
</defs>
</svg>
