<svg width="43" height="43" viewBox="0 0 43 43" fill="none" xmlns="http://www.w3.org/2000/svg">
<g clip-path="url(#clip0_2171_19)">
<path d="M15.4277 21.1328L21.2402 15.3203L15.6152 9.69531L12.6777 12.6328L11.4277 11.3828L14.3652 8.44531L8.86524 2.94531L3.05273 8.75781L15.4277 21.1328ZM34.7402 40.4453L40.5527 34.6328L35.0527 29.1328L32.1152 32.0703L30.8652 30.8203L33.8027 27.8828L28.2402 22.3203L22.4277 28.1328L34.7402 40.4453ZM10.2402 40.3828H3.17773V33.3203L14.1777 22.3203L0.677734 8.75781L8.86524 0.570312L22.4902 14.1328L34.1777 2.44531C34.3861 2.23698 34.5944 2.09115 34.8027 2.00781C35.0111 1.92448 35.2402 1.88281 35.4902 1.88281C35.7402 1.88281 35.9694 1.92448 36.1777 2.00781C36.3861 2.09115 36.5944 2.23698 36.8027 2.44531L41.1152 6.94531C41.3236 7.15365 41.459 7.36198 41.5215 7.57031C41.584 7.77865 41.6152 8.00781 41.6152 8.25781C41.6152 8.50781 41.584 8.72656 41.5215 8.91406C41.459 9.10156 41.3236 9.29948 41.1152 9.50781L29.5527 21.1328L42.9902 34.6953L34.8027 42.8828L21.2402 29.3828L10.2402 40.3828ZM4.92773 38.6328H9.49024L34.0527 14.0703L29.4902 9.50781L4.92773 34.0703V38.6328ZM31.8027 11.7578L29.4902 9.50781L34.0527 14.0703L31.8027 11.7578Z" fill="#ED1E3A"/>
</g>
<defs>
<clipPath id="clip0_2171_19">
<rect width="43" height="43" fill="white"/>
</clipPath>
</defs>
</svg>
