<svg width="33" height="47" viewBox="0 0 33 47" fill="none" xmlns="http://www.w3.org/2000/svg">
<g clip-path="url(#clip0_2171_22)">
<path d="M0.552734 46.8828V15.1328H10.5527V6.00781L16.4277 0.507812L22.3027 6.00781V25.1328H32.3027V46.8828H0.552734ZM2.30273 45.1328H10.5527V36.8828H2.30273V45.1328ZM2.30273 35.1328H10.5527V26.8828H2.30273V35.1328ZM2.30273 25.1328H10.5527V16.8828H2.30273V25.1328ZM12.3027 45.1328H20.5527V36.8828H12.3027V45.1328ZM12.3027 35.1328H20.5527V26.8828H12.3027V35.1328ZM12.3027 25.1328H20.5527V16.8828H12.3027V25.1328ZM12.3027 15.1328H20.5527V6.88281H12.3027V15.1328ZM22.3027 45.1328H30.5527V36.8828H22.3027V45.1328ZM22.3027 35.1328H30.5527V26.8828H22.3027V35.1328Z" fill="#ED1E3A"/>
</g>
<defs>
<clipPath id="clip0_2171_22">
<rect width="33" height="47" fill="white"/>
</clipPath>
</defs>
</svg>
