<?xml version="1.0" encoding="UTF-8"?> <svg xmlns="http://www.w3.org/2000/svg" width="100" height="20" viewBox="0 0 100 20" fill="none"><g clip-path="url(#clip0_3342_4855)"><path d="M7.83302 3.05784C6.66041 3.05784 6.30863 3.57427 6.30863 4.72449V6.62588H9.45122L9.14634 9.72444H6.30863V19.0905H2.53283V9.72444H0V6.64935H2.53283V4.79491C2.53283 1.6494 3.79925 0.00622559 7.29362 0.00622559C8.02064 0.00622559 8.77111 0.0531735 9.49812 0.147069V3.05784" fill="#1877F2"></path><path d="M9.709 12.4707C9.709 8.99651 11.3507 6.36743 14.8216 6.36743C16.6977 6.36743 17.8469 7.32986 18.4098 8.55051V6.64912H22.0214V19.1138H18.3863V17.2359C17.8704 18.433 16.6743 19.372 14.7981 19.372C11.3507 19.372 9.68555 16.7664 9.68555 13.2688L9.709 12.4707ZM13.4848 13.3157C13.4848 15.1702 14.1649 16.4143 15.9238 16.4143C17.4717 16.4143 18.2456 15.2875 18.2456 13.5035V12.2359C18.2456 10.4519 17.4482 9.32515 15.9238 9.32515C14.1649 9.32515 13.4848 10.5458 13.4848 12.4237V13.3157Z" fill="#1877F2"></path><path d="M29.8546 6.36743C31.3086 6.36743 32.7158 6.67259 33.4662 7.21249L32.622 9.88852C31.848 9.51294 30.9803 9.32515 30.1126 9.32515C28.0722 9.32515 27.1811 10.4988 27.1811 12.5176V13.2453C27.1811 15.2641 28.0722 16.4378 30.1126 16.4378C30.9803 16.4378 31.848 16.2265 32.622 15.8509L33.4662 18.5269C32.7158 19.0434 31.3321 19.372 29.8546 19.372C25.4221 19.372 23.4287 17.0011 23.4287 13.1749V12.588C23.4287 8.76177 25.4221 6.36743 29.8546 6.36743Z" fill="#1877F2"></path><path d="M33.9585 13.3392V12.2359C33.9585 8.69135 35.9754 6.36743 40.0795 6.36743C43.9491 6.36743 45.6611 8.71483 45.6611 12.189V14.1843H37.7343C37.8046 15.8979 38.5786 16.649 40.6658 16.649C42.026 16.649 43.3863 16.3908 44.6761 15.8979L45.3562 18.48C44.3712 18.9964 42.3309 19.3955 40.5251 19.3955C35.7409 19.372 33.9585 17.0011 33.9585 13.3392ZM37.7343 11.696H42.284V11.3909C42.284 10.0294 41.7446 8.94956 40.0795 8.94956C38.3909 8.94956 37.7343 10.0294 37.7343 11.696Z" fill="#1877F2"></path><path d="M59.6386 13.2688C59.6386 16.743 57.9735 19.372 54.5026 19.372C52.6264 19.372 51.3131 18.4331 50.7972 17.2359V19.1138H47.2324V0.381614L51.0082 0.0529785V8.38623C51.5476 7.28295 52.7671 6.39094 54.5261 6.39094C57.9735 6.39094 59.6621 8.99655 59.6621 12.4942L59.6386 13.2688ZM55.8628 12.4003C55.8628 10.6397 55.1827 9.32519 53.3769 9.32519C51.8291 9.32519 51.0082 10.4285 51.0082 12.2125V13.527C51.0082 15.311 51.8525 16.4143 53.3769 16.4143C55.1827 16.4143 55.8628 15.0998 55.8628 13.3392V12.4003Z" fill="#1877F2"></path><path d="M60.8818 13.1749V12.5411C60.8818 8.94957 62.9222 6.36743 67.0732 6.36743C71.2243 6.36743 73.2646 8.94957 73.2646 12.5411V13.1749C73.2646 16.7664 71.2243 19.3485 67.0732 19.3485C62.9222 19.3485 60.8818 16.7899 60.8818 13.1749ZM69.5123 12.2829C69.5123 10.6397 68.8321 9.32515 67.0732 9.32515C65.3143 9.32515 64.6342 10.6397 64.6342 12.2829V13.4566C64.6342 15.0997 65.3143 16.4143 67.0732 16.4143C68.8321 16.4143 69.5123 15.0997 69.5123 13.4566V12.2829Z" fill="#1877F2"></path><path d="M74.5542 13.1749V12.5411C74.5542 8.94957 76.5945 6.36743 80.7456 6.36743C84.8966 6.36743 86.937 8.94957 86.937 12.5411V13.1749C86.937 16.7664 84.8966 19.3485 80.7456 19.3485C76.5945 19.3485 74.5542 16.7899 74.5542 13.1749ZM83.1846 12.2829C83.1846 10.6397 82.5045 9.32515 80.7456 9.32515C78.9867 9.32515 78.3066 10.6397 78.3066 12.2829V13.4566C78.3066 15.0997 78.9867 16.4143 80.7456 16.4143C82.5045 16.4143 83.1846 15.0997 83.1846 13.4566V12.2829Z" fill="#1877F2"></path><path d="M92.12 12.5881L95.8489 6.62572H99.8358L95.9427 12.7994L99.9999 19.1139H95.9896L92.12 13.0106V19.1139H88.3677V0.38165L92.12 0.029541" fill="#1877F2"></path></g><defs><clipPath id="clip0_3342_4855"><rect width="100" height="19.378" fill="white"></rect></clipPath></defs></svg> 