<svg xmlns="http://www.w3.org/2000/svg" width="763" height="150" viewBox="0 0 763 150" fill="none"><path d="M195.437 30H247.819V47.34H216.146V67.965H242.405V84.315H216.131V120H195.422L195.437 30Z" fill="black"></path><path d="M255.113 30H275.822V102.66H305.405V120H255.113V30Z" fill="black"></path><path d="M313.18 30H333.874V120H313.18V30Z" fill="black"></path><path d="M344.146 30H369.969C392.272 30 404.724 41.55 404.724 60.615C404.724 80.28 392.272 92.34 369.969 92.34H364.855V120H344.146V30ZM364.855 46.35V75.855H368.916C378.902 75.855 383.955 70.935 383.955 60.975C383.955 51.39 378.902 46.35 368.916 46.35H364.855Z" fill="black"></path><path d="M411.958 30H441.661C462.009 30 471.86 38.73 471.86 53.475C471.86 61.965 467.679 69.585 457.197 72.165C468.522 74.145 474.537 82.86 474.537 93.315C474.537 108.69 463.694 120 443.361 120H411.928L411.958 30ZM432.668 46.35V65.85H438.443C447.075 65.85 451.016 62.16 451.016 55.65C451.016 49.875 447.316 46.305 438.819 46.305L432.668 46.35ZM432.668 81.39V103.665H440.428C449.452 103.665 453.858 99.48 453.858 92.22C453.858 85.215 448.94 81.405 440.548 81.405L432.668 81.39Z" fill="black"></path><path d="M514.783 28.5C536.469 28.5 548.937 44.385 548.937 75C548.937 105.615 536.485 121.5 514.783 121.5C493.081 121.5 480.643 105.645 480.643 75C480.643 44.355 493.081 28.5 514.783 28.5ZM514.783 103.755C523.039 103.755 528.213 95.265 528.213 74.985C528.213 54.705 523.039 46.215 514.783 46.215C506.526 46.215 501.458 54.69 501.458 74.985C501.458 95.28 506.511 103.77 514.783 103.77V103.755Z" fill="black"></path><path d="M572.068 30H598.326L621.006 120H599.364L595.559 102H573.556L569.601 120H548.772L572.068 30ZM584.52 49.5L577 85.41H592.416L585.032 49.5H584.52Z" fill="black"></path><path d="M626.33 30H652.212C674.771 30 686.803 39.465 686.803 58.5C686.803 70.8 681.253 79.905 670.906 84.57L689.886 120H667.492L652.092 88.02H647.039V120H626.33V30ZM647.039 46.35V72H652.212C661.702 72 666.019 67.5 666.019 58.725C666.019 50.355 661.702 46.305 652.212 46.305L647.039 46.35Z" fill="black"></path><path d="M697.586 30H723.604C750.359 30 762.797 48.81 762.797 75C762.797 100.815 750.344 120 723.604 120H697.586V30ZM718.295 47.34V102.66H723.228C736.764 102.66 741.591 89.745 741.591 75C741.591 59.385 736.794 47.34 723.228 47.34H718.295Z" fill="black"></path><path d="M0 0V150H150.394V0H0ZM120.315 60H90.2362V90H60.1575V120H30.0787V30H120.315V60Z" fill="#F52828"></path></svg>