<svg width="59" height="52" viewBox="0 0 59 52" fill="none" xmlns="http://www.w3.org/2000/svg">
<g clip-path="url(#clip0_2170_38)">
<path d="M29.0886 39.3299C28.6848 39.3277 28.2854 39.2456 27.9134 39.0883C27.5414 38.9311 27.2042 38.7018 26.9212 38.4136C26.6383 38.1254 26.4151 37.7841 26.2646 37.4094C26.1142 37.0346 26.0393 36.6337 26.0444 36.2299C26.0408 35.8222 26.1183 35.4179 26.2726 35.0405C26.4268 34.6631 26.6547 34.3202 26.9429 34.0318C27.2311 33.7435 27.5738 33.5153 27.9511 33.3608C28.3284 33.2063 28.7327 33.1285 29.1404 33.1319C29.548 33.1353 29.951 33.2199 30.3256 33.3807C30.7003 33.5415 31.0392 33.7752 31.3225 34.0684C31.6058 34.3615 31.828 34.7082 31.9759 35.0881C32.1238 35.468 32.1946 35.8736 32.1841 36.2812C32.1823 36.685 32.1007 37.0845 31.944 37.4566C31.7872 37.8287 31.5584 38.1662 31.2707 38.4496C30.983 38.7329 30.6421 38.9566 30.2676 39.1077C29.8931 39.2588 29.4924 39.3343 29.0886 39.3299ZM30.4774 36.2538C30.4496 35.9128 30.2949 35.5946 30.0439 35.3621C29.7929 35.1296 29.4638 34.9997 29.1217 34.9979C28.7795 34.9962 28.4492 35.1229 28.1959 35.3528C27.9425 35.5828 27.7847 35.8994 27.7534 36.2402C27.7361 36.4289 27.7582 36.6191 27.8183 36.7988C27.8784 36.9785 27.9752 37.1437 28.1026 37.284C28.2299 37.4243 28.3851 37.5366 28.5582 37.6138C28.7313 37.6909 28.9185 37.7313 29.108 37.7322C29.2975 37.7332 29.4851 37.6947 29.6589 37.6193C29.8327 37.5439 29.989 37.4332 30.1178 37.2942C30.2466 37.1551 30.345 36.9909 30.407 36.8118C30.4689 36.6327 30.4929 36.4427 30.4774 36.2538Z" fill="#ED1E3A"/>
<path d="M45.9355 24.8721C46.6442 25.566 47.2582 26.155 47.8587 26.7588C48.3258 27.2282 48.3713 27.7375 48.0056 28.1066C47.6399 28.4757 47.1466 28.4484 46.6635 27.9756C46.046 27.3661 45.4388 26.7452 44.7609 26.0616C44.5649 26.7691 44.402 27.3809 44.2277 27.9893C44.0352 28.6592 43.6296 29.1286 42.9335 29.2881C42.2373 29.4476 41.6438 29.2311 41.1459 28.6854C40.9602 28.5182 40.719 28.426 40.4692 28.4268C36.5477 28.4108 32.6262 28.4176 28.7047 28.4142C27.6691 28.4142 27.0265 27.9277 26.916 27.0471C26.8864 26.8101 26.8807 26.5241 26.9844 26.3236C27.5836 25.1729 27.6269 23.9208 27.7158 22.6779C27.8742 20.4824 28.0496 18.287 28.1989 16.0904C28.2889 14.762 28.9291 14.124 30.2496 14.1046C30.4535 14.1046 30.6564 14.1046 30.899 14.1046C30.9936 13.1795 31.0961 12.317 31.1656 11.4523C31.3205 9.53145 32.5088 8.41492 34.4365 8.4172C34.8923 8.4172 35.3548 8.40013 35.7923 8.49583C37.0797 8.77838 37.9707 9.85616 38.1005 11.2028C38.178 12.014 38.2771 12.8252 38.3284 13.6386C38.3523 14.01 38.4981 14.1069 38.8547 14.1126C40.4395 14.1377 40.9465 14.6184 41.0878 16.1884C41.1322 16.6794 41.1801 17.1716 41.1926 17.6695C41.2017 18.0603 41.3578 18.2631 41.7326 18.4112C43.8426 19.2467 45.9458 20.1004 48.0421 20.9723C49.0492 21.3904 49.4673 22.2871 49.1312 23.219C49.0428 23.4812 48.8904 23.7172 48.6879 23.9057C48.4854 24.0943 48.2392 24.2295 47.9714 24.2991C47.338 24.4768 46.7034 24.6534 45.9355 24.8721ZM40.2641 26.6848C40.1501 26.3817 40.0601 26.1539 39.969 25.9283C39.2672 24.1897 38.554 22.4557 37.8681 20.7114C37.4363 19.612 37.8089 18.5467 38.7796 18.0227C39.0139 17.9099 39.2539 17.8092 39.4985 17.7208C39.4518 17.1089 39.4039 16.4926 39.3549 15.8523H29.9352C29.8121 17.4724 29.7312 19.0606 29.5637 20.6373C29.353 22.6231 29.5637 24.6716 28.7389 26.572C28.7298 26.5925 28.7651 26.6324 28.7879 26.6859L40.2641 26.6848ZM47.5556 22.6402C47.3437 22.5388 47.2298 22.4785 47.1113 22.4295C44.819 21.4953 42.529 20.5553 40.2299 19.6382C40.0168 19.5528 39.7457 19.6154 39.5008 19.6097C39.5213 19.8558 39.4825 20.1247 39.5691 20.3446C40.3484 22.3156 41.1493 24.2786 41.9445 26.2439C42.1177 26.6723 42.2863 27.1018 42.5324 27.6942C42.8161 26.6757 43.0804 25.8326 43.2809 24.9747C43.4906 24.0769 44.0272 23.5745 44.9067 23.3626C45.7601 23.1564 46.6054 22.9 47.5522 22.6402H47.5556ZM36.6719 14.0693C36.5648 13.0439 36.4953 12.0846 36.3528 11.1333C36.2628 10.5306 35.7638 10.1603 35.1441 10.1296C34.8228 10.1136 34.5003 10.1148 34.179 10.1296C33.5388 10.1569 33.0591 10.4873 32.9577 11.1094C32.7994 12.0755 32.7299 13.0564 32.6159 14.0716L36.6719 14.0693Z" fill="#ED1E3A"/>
<path d="M16.9152 17.0668C15.548 17.0668 14.1888 17.0668 12.8251 17.0668C11.082 17.0589 10.0372 16.0073 10.0281 14.2619C10.0281 13.6922 10.0144 13.1226 10.0281 12.5529C10.0691 11.1128 11.0364 10.0225 12.4708 9.99634C15.4429 9.94393 18.4153 9.94393 21.3881 9.99634C22.7484 10.018 23.702 10.9716 23.8159 12.3171C23.8823 13.1132 23.8823 13.9135 23.8159 14.7096C23.702 16.1326 22.6436 17.0532 21.1728 17.0691C19.7566 17.0794 18.3359 17.0668 16.9152 17.0668ZM16.9277 15.3579C18.3097 15.3579 19.6905 15.3636 21.0725 15.3579C21.8393 15.3579 22.1298 15.0548 22.1423 14.2824C22.1503 13.7321 22.1583 13.1818 22.1423 12.6326C22.1207 12.0129 21.8415 11.6927 21.2377 11.6893C18.3811 11.6734 15.5241 11.6734 12.6668 11.6893C12.0401 11.6893 11.7553 12.0311 11.7405 12.6703C11.728 13.2012 11.7325 13.7321 11.7405 14.2653C11.7485 15.0628 12.0378 15.3579 12.8467 15.3624C14.2036 15.3613 15.5628 15.3567 16.93 15.3567L16.9277 15.3579Z" fill="#ED1E3A"/>
<path d="M16.9163 24.9875C15.5161 24.9875 14.1148 24.9955 12.7135 24.9875C11.1002 24.975 10.0509 23.9246 10.0293 22.3159C10.0201 21.7269 10.0179 21.139 10.0293 20.5511C10.06 19.0119 11.1173 17.9204 12.6428 17.9113C15.5017 17.8916 18.361 17.8916 21.2206 17.9113C22.7108 17.9193 23.7613 18.9367 23.841 20.4246C23.8758 21.1078 23.8758 21.7922 23.841 22.4754C23.7681 23.9758 22.7348 24.9716 21.2354 24.9887C19.7954 25.0001 18.3564 24.9864 16.9163 24.9875ZM16.9015 23.2786C18.3211 23.2786 19.7407 23.2854 21.1591 23.2786C21.8131 23.2786 22.1127 22.996 22.1366 22.3603C22.1594 21.7542 22.1605 21.1458 22.1366 20.5374C22.1127 19.929 21.7948 19.626 21.2035 19.626C18.3644 19.6146 15.5256 19.6146 12.6873 19.626C12.0629 19.626 11.7564 19.9541 11.7371 20.5864C11.7211 21.098 11.7314 21.6118 11.7371 22.1222C11.7371 23.0188 11.9968 23.2831 12.8764 23.2865C14.2151 23.2809 15.5629 23.2775 16.9015 23.2775V23.2786Z" fill="#ED1E3A"/>
<path d="M52.9205 0H5.32622C5.1371 0 4.94683 0 4.75657 0C3.78304 0.0282869 2.84025 0.347178 2.04944 0.915669C1.25862 1.48416 0.655964 2.27625 0.318996 3.19004C0.194812 3.53184 0.105955 3.87363 0 4.21542V9.00048L0.00682858 9.00733V12.7408C0.00682858 12.775 0 12.8103 0 12.8456V37.4922C0.022786 37.5218 0.056959 37.548 0.0649341 37.5822C0.796366 40.3803 2.49849 41.6939 5.40029 41.6939C10.6517 41.6939 15.902 41.6939 21.1511 41.6939H21.8769C21.4633 43.4438 21.0691 45.1118 20.6669 46.8207H19.1471C18.8711 46.8196 18.5982 46.8777 18.3466 46.9911C18.095 47.1045 17.8707 47.2706 17.6888 47.4781C16.8992 48.3303 16.9164 50.5075 17.707 51.3517C18.2197 51.8986 18.8668 52 19.5743 52C25.9233 51.9916 32.273 51.9898 38.6235 51.9943C38.8126 51.9943 39.0028 51.9943 39.1931 51.9806C39.6904 51.9484 40.1579 51.7322 40.5046 51.3741C40.8512 51.0161 41.0522 50.5419 41.0684 50.0438C41.0855 49.6451 41.0832 49.2463 41.0684 48.8476C41.0354 47.6786 40.2139 46.8515 39.0507 46.8185C38.5608 46.8059 38.0709 46.8185 37.5571 46.8185C37.1526 45.1015 36.7596 43.4313 36.3517 41.6916H41.4512C41.4956 41.7003 41.5388 41.7141 41.58 41.7326H43.5224L43.5122 41.6916H46.4277C46.537 41.6916 46.6396 41.6871 46.7353 41.6779H50.9439C50.9838 41.6779 51.0259 41.6859 51.0692 41.687C51.6947 41.7041 52.3224 41.6927 52.9456 41.687C53.0846 41.687 53.2202 41.6871 53.3535 41.6734H53.5813C53.8939 41.6885 54.2057 41.6316 54.4928 41.507C56.8158 40.9374 58.2206 39.0689 58.2206 36.3802C58.2206 26.027 58.2206 15.6749 58.2206 5.32395C58.2286 2.02909 56.2074 0 52.9205 0ZM1.70895 4.9776C1.7249 3.0818 3.08749 1.71237 4.98443 1.71237C21.0736 1.70782 37.1625 1.70782 53.251 1.71237C55.1456 1.71237 56.5185 3.07953 56.5196 4.9833C56.528 13.4339 56.528 21.8845 56.5196 30.335C56.5196 30.4832 56.5037 30.6313 56.4934 30.8101H53.5574V30.1003C53.5574 22.5422 53.5574 14.9849 53.5574 7.42824C53.5574 5.60536 52.646 4.68254 50.8447 4.68254H7.41229C5.57232 4.68254 4.67112 5.59396 4.67112 7.45558V30.7999H1.70895V18.0625V8.87062C1.70895 8.73732 1.70895 8.60516 1.70895 8.47186C1.71813 8.34747 1.71813 8.22256 1.70895 8.09817C1.7006 7.05836 1.7006 6.01816 1.70895 4.9776ZM51.853 30.1756V30.7942H6.37668V7.51939C6.37668 6.53503 6.51681 6.39263 7.47952 6.39263H50.7365C51.7118 6.39263 51.853 6.53388 51.853 7.50571C51.8546 15.0616 51.8546 22.6182 51.853 30.1756ZM34.7475 42.284C35.0267 43.6193 35.3673 44.9409 35.6795 46.2716C35.7183 46.4311 35.7285 46.5986 35.7558 46.7911H22.4386C22.753 45.441 23.0538 44.1354 23.3625 42.8298C23.6314 41.6984 23.6348 41.6996 24.8026 41.6996H29.0317C29.0317 41.7121 29.0248 41.7247 29.0226 41.7372H31.079C31.1592 41.7158 31.2412 41.7021 31.324 41.6962C32.1921 41.6962 33.0606 41.6924 33.9295 41.6848H34.0435C34.4935 41.6905 34.6541 41.8374 34.7475 42.284ZM38.6052 48.54C38.8525 48.54 39.2979 48.671 39.3116 48.7826C39.3496 49.2465 39.3266 49.7135 39.2433 50.1714C39.2353 50.2307 38.9425 50.2854 38.7807 50.2854C32.3391 50.2899 25.8971 50.293 19.4547 50.2945C19.0183 50.2945 18.8555 50.1418 18.852 49.6952C18.8452 48.5308 18.8281 48.5308 19.9606 48.5308H29.1126C32.2764 48.5343 35.4414 48.524 38.6052 48.54ZM56.5219 36.6605C56.5116 38.5198 55.2687 39.8437 53.4458 39.9747H18.7529V39.9884H5.50852C5.28066 39.9884 5.0528 39.9883 4.82494 39.9804C3.01459 39.8835 1.72376 38.538 1.70781 36.7186C1.69756 35.4836 1.70781 34.2486 1.70781 33.0147C1.70781 32.87 1.73401 32.7265 1.74768 32.592H56.5219C56.523 33.9717 56.5299 35.3184 56.5219 36.6605Z" fill="#ED1E3A"/>
</g>
<defs>
<clipPath id="clip0_2170_38">
<rect width="59" height="52" fill="white"/>
</clipPath>
</defs>
</svg>
