<?xml version="1.0" encoding="UTF-8"?> <svg xmlns="http://www.w3.org/2000/svg" width="86" height="86" viewBox="0 0 86 86" fill="none"><g id="Frame" clip-path="url(#clip0_1868_9176)"><path id="Vector" d="M43.0067 85.9999C19.2055 85.9999 0 66.7406 0 42.8989C0 19.1515 19.3133 -0.0135314 43.1954 -5.39311e-05C66.8754 0.0134236 86.0135 19.3537 86 43.2358C85.9865 66.781 66.6598 85.9999 43.0067 85.9999ZM42.9663 83.4662C65.2581 83.5201 83.3854 65.4467 83.4662 43.0741C83.5606 20.7957 65.4737 2.62806 43.1011 2.53372C20.7823 2.43938 2.60116 20.5397 2.53377 42.9258C2.45291 65.2446 20.5802 83.4123 42.9663 83.4662Z" fill="#191919"></path><path id="Vector_2" d="M42.9663 81.5659C21.6583 81.5524 4.40714 64.2338 4.43409 42.8989C4.46105 21.6718 21.7931 4.40716 43.0337 4.43411C64.3281 4.46107 81.6063 21.7797 81.5659 43.0337C81.5255 64.3417 64.2608 81.5794 42.9663 81.5659ZM68.6275 51.6054C51.5784 52.4949 34.5833 53.371 17.5881 54.247C17.5881 57.3333 17.5881 60.3254 17.5881 63.3443C17.9116 63.3443 18.1812 63.3578 18.4372 63.3443C22.157 63.1556 25.8903 62.9669 29.6101 62.7648C36.9688 62.3739 44.3275 61.9831 51.6862 61.6057C57.1581 61.3227 62.63 61.0397 68.1019 60.7836C68.5331 60.7566 68.6814 60.6219 68.6814 60.1906C68.6679 57.4681 68.6679 54.7591 68.6679 52.0367C68.6679 51.9289 68.6544 51.8076 68.6275 51.6054ZM14.0705 44.6106C14.2457 44.8801 14.3131 45.0553 14.4344 45.1766C15.3239 46.174 16.5773 45.6753 17.6555 45.8775C17.6825 46.1874 17.696 46.4435 17.7094 46.6996C19.2459 47.0096 19.7041 46.6187 20.0141 44.8262C20.7149 44.8262 21.4158 44.8262 22.184 44.8262C22.184 45.5001 22.184 46.1201 22.184 46.7939C22.5209 46.7939 22.7905 46.7939 23.0465 46.7939C23.7474 46.7805 24.3943 46.1335 24.3943 45.4462C24.3943 43.4919 24.3943 41.5377 24.3943 39.5835C24.3943 39.4622 24.3404 39.3409 24.3269 39.2061C24.1786 39.1926 24.0708 39.1791 23.963 39.1791C22.6826 39.1522 22.184 39.6509 22.184 40.9177C22.184 41.4434 22.184 41.969 22.184 42.4946C21.3618 42.4946 20.6745 42.4946 19.9332 42.4946C19.9332 41.376 19.9332 40.3112 19.9332 39.26C19.0033 39.0039 18.2485 39.2061 17.8038 40.0013C17.5881 40.3921 17.359 40.4056 17.0086 40.4056C14.5827 40.4056 12.1567 40.4056 9.73075 40.4056C9.50164 40.4056 9.27252 40.4325 8.94906 40.446C9.39382 41.1873 9.94639 41.5242 10.7011 41.5242C12.7901 41.5242 14.8792 41.5242 16.9682 41.5242C17.1838 41.5242 17.4129 41.5512 17.6286 41.5781C17.6286 41.659 17.6151 41.7264 17.6151 41.8073C15.3374 41.8073 13.0597 41.8073 10.6337 41.8073C11.1594 42.6429 11.7524 42.9933 12.5476 42.9933C14.057 42.9933 15.553 42.9933 17.0625 42.9933C17.2377 42.9933 17.4129 43.0202 17.6016 43.0472C17.6016 43.1146 17.6016 43.182 17.5881 43.2493C15.9035 43.2493 14.2053 43.2493 12.4128 43.2493C12.9114 44.0176 13.4505 44.368 14.2322 44.368C15.2161 44.3545 16.2134 44.368 17.1973 44.368C17.3455 44.368 17.4938 44.4219 17.6421 44.4488C17.6421 44.5028 17.6286 44.5567 17.6286 44.6106C16.5099 44.6106 15.3778 44.6106 14.0705 44.6106ZM68.2636 44.6645C68.2636 44.5971 68.2636 44.5432 68.2636 44.4758C68.4657 44.4623 68.6679 44.4219 68.8701 44.4219C69.8135 44.4219 70.7569 44.4219 71.7003 44.4084C72.4955 44.3949 73.0751 44.0445 73.6007 43.182C71.7003 43.182 69.9752 43.182 68.2501 43.182C68.2501 43.128 68.2501 43.0607 68.2636 43.0068C68.4792 43.0068 68.7083 43.0068 68.924 43.0068C70.4335 43.0068 71.9295 43.0068 73.439 43.0068C74.2341 43.0068 74.8271 42.6429 75.3258 41.8342C72.5494 41.8342 69.9348 41.8342 67.3067 41.8342C67.3067 41.7668 67.3067 41.7129 67.2932 41.6455C67.5628 41.6186 67.8458 41.5647 68.1153 41.5647C70.4335 41.5647 72.7381 41.5512 75.0563 41.5647C75.8919 41.5647 76.5388 41.2547 77.0779 40.4191C76.687 40.4191 76.4444 40.4191 76.2153 40.4191C73.7489 40.4191 71.2691 40.4056 68.8027 40.4325C68.4118 40.4325 68.1692 40.3382 67.9132 40.0013C67.2123 39.0444 65.8915 38.9231 65.002 39.7048C64.6112 40.0417 64.2473 40.4056 63.9104 40.7964C63.0747 41.7533 63.3039 43.1415 64.3686 43.8289C64.5168 43.9232 64.6786 44.0176 64.7999 44.085C64.4899 44.341 64.2203 44.5836 63.9373 44.7858C63.3578 45.1901 63.4925 45.6214 63.8699 46.0796C64.5842 46.9557 65.8915 47.1039 66.7406 46.3222C67.1315 45.9718 67.5088 45.837 67.994 45.864C68.6679 45.8909 69.3418 45.8909 70.0157 45.864C70.7974 45.837 71.4038 45.4866 71.916 44.6914C70.6087 44.6645 69.4361 44.6645 68.2636 44.6645ZM68.6275 50.2442C51.5784 51.1337 34.5833 52.0097 17.5747 52.8858C17.5747 53.1957 17.5747 53.4114 17.5747 53.7214C34.6237 52.8319 51.6189 51.9558 68.6275 51.0798C68.6275 50.7698 68.6275 50.5542 68.6275 50.2442ZM17.5747 64.7055C17.8442 64.7055 18.0868 64.719 18.3294 64.7055C19.9467 64.6247 21.564 64.5303 23.1678 64.4495C29.6909 64.1125 36.2141 63.7891 42.7372 63.4521C51.1741 63.0209 59.5975 62.5626 68.0345 62.1448C68.6544 62.1179 68.7623 61.8753 68.5736 61.2688C51.5784 62.1448 34.5833 63.0343 17.5747 63.9104C17.5747 64.2069 17.5747 64.4225 17.5747 64.7055ZM60.8644 39.1926C59.2471 39.1926 57.6568 39.1118 56.0799 39.2465C55.7025 39.2735 55.1095 39.9878 55.0961 40.4056C54.9882 42.4407 55.0556 44.4893 55.0556 46.5244C55.0556 46.6052 55.1095 46.6861 55.15 46.7939C56.5112 46.7939 57.8455 46.7939 59.1932 46.7939C60.5814 46.7939 61.1744 45.9718 60.7836 44.5971C60.3658 44.5701 59.921 44.5567 59.6784 44.5432C59.8267 43.8828 59.948 43.2763 60.1097 42.535C59.0584 42.535 58.1959 42.535 57.3468 42.535C57.3468 42.1172 57.3468 41.7938 57.3468 41.4164C58.115 41.4164 58.8293 41.4434 59.5436 41.4029C59.7997 41.3895 60.0827 41.2412 60.3119 41.1064C61.0396 40.6617 60.9453 39.9608 60.8644 39.1926ZM48.8694 41.7399C48.1686 40.9851 47.4947 40.2304 46.7939 39.5161C46.6322 39.3543 46.2009 39.1926 46.147 39.2465C45.7966 39.6239 45.2979 40.0417 45.244 40.4865C45.0149 42.4272 44.9071 44.368 44.7588 46.3222C44.7453 46.4705 44.7858 46.6187 44.7992 46.7535C46.457 46.8883 46.9691 46.457 47.05 44.8666C47.0635 44.5432 47.1174 44.2332 47.1713 43.7076C47.5082 44.1389 47.7373 44.4219 48.0608 44.8397C48.6134 44.2062 49.0851 43.6671 49.6511 43.0337C49.759 44.3815 49.8533 45.5675 49.9476 46.767C50.1768 46.7805 50.3385 46.7939 50.4867 46.7939C51.6997 46.8074 52.2253 46.2548 52.131 45.0419C51.9962 43.3033 51.8749 41.5512 51.7267 39.8126C51.7132 39.6104 51.6054 39.4083 51.538 39.2196C51.3493 39.3274 51.1337 39.3813 50.9854 39.5295C50.2846 40.2304 49.5972 40.9716 48.8694 41.7399ZM27.4806 46.7939C29.0845 46.7939 30.5939 46.8074 32.0899 46.7805C32.2652 46.7805 32.4673 46.6726 32.629 46.5648C33.3568 46.0931 33.4107 45.3923 33.2355 44.5836C32.8043 44.5567 32.373 44.5432 31.7126 44.5028C32.6156 43.9367 32.4134 43.2493 32.3325 42.4946C31.4565 42.4946 30.6074 42.4946 29.7853 42.4946C29.7853 42.0903 29.7853 41.7668 29.7853 41.4029C30.54 41.4029 31.2274 41.4299 31.9147 41.3895C32.1978 41.376 32.4943 41.2277 32.7369 41.066C33.4512 40.6078 33.3434 39.9204 33.249 39.1791C31.6721 39.1791 30.1222 39.0983 28.5858 39.233C28.1949 39.26 27.548 39.9204 27.5345 40.3247C27.4267 42.4542 27.4806 44.5836 27.4806 46.7939ZM38.4109 22.5344C38.3974 22.3996 38.3839 22.2649 38.357 22.1436C37.9257 20.4724 37.4675 18.8146 37.0632 17.1299C36.9419 16.6313 36.7262 16.4426 36.2006 16.4695C35.7693 16.483 35.5806 16.6178 35.4593 17.0356C35.0146 18.6664 34.5429 20.2971 34.1116 21.8066C33.2086 21.8066 32.4134 21.8066 31.5508 21.8066C31.5508 19.9872 31.5508 18.2755 31.5508 16.5369C31.2004 16.5369 30.9309 16.5369 30.6344 16.5369C30.6344 18.572 30.6344 20.5532 30.6344 22.6153C31.8204 22.6153 32.966 22.5748 34.0981 22.6288C34.7315 22.6557 35.082 22.494 35.1089 21.8336C35.1493 20.9171 35.8367 21.1732 36.3893 21.1058C37.0362 21.0249 37.2384 21.3484 37.2788 21.8875C37.3192 22.6422 37.764 22.7231 38.4109 22.5344ZM58.8293 22.5748C58.8293 20.5128 58.8293 18.5316 58.8293 16.5234C58.6002 16.51 58.425 16.51 58.2498 16.483C57.6164 16.3887 57.2659 16.5774 57.1716 17.2782C57.0503 18.1407 56.8077 18.9898 56.6055 19.8389C56.5382 20.1489 56.4438 20.4454 56.309 20.9171C55.9182 19.3133 55.5812 17.9116 55.2308 16.483C54.9343 16.483 54.7052 16.51 54.4896 16.483C53.8426 16.3752 53.6944 16.6717 53.7214 17.2782C53.7618 18.599 53.7348 19.9333 53.7348 21.254C53.7348 21.6988 53.7348 22.1301 53.7348 22.5614C54.0987 22.5614 54.3548 22.5614 54.6783 22.5614C54.6783 21.0249 54.6783 19.5559 54.6783 18.0734C55.1365 19.4346 55.46 20.7958 55.8238 22.157C55.8778 22.3457 56.1473 22.5883 56.3225 22.5883C56.4977 22.5883 56.7673 22.3457 56.8212 22.157C57.0638 21.2945 57.2525 20.4184 57.4681 19.5424C57.5894 19.0303 57.7376 18.5181 57.8724 18.006C57.9263 18.0194 57.9668 18.0194 58.0207 18.0329C58.0207 19.5424 58.0207 21.0654 58.0207 22.5883C58.3037 22.5748 58.5463 22.5748 58.8293 22.5748ZM34.3811 31.0792C34.772 29.0845 35.1763 27.1168 35.5671 25.1356C34.6642 24.9199 34.6372 24.9334 34.5024 25.7825C34.462 26.0655 34.4081 26.362 34.3542 26.6451C34.1924 27.5615 34.0307 28.4645 33.869 29.381C33.8285 29.381 33.7881 29.3675 33.7477 29.3675C33.4916 27.9389 33.249 26.5103 32.9929 25.0682C32.629 25.0682 32.3191 25.0682 31.9686 25.0682C31.7261 26.4968 31.47 27.9254 31.2274 29.3406C30.8904 28.168 30.6748 26.982 30.4861 25.796C30.3513 24.9604 30.3513 24.9469 29.3944 25.1221C29.7179 26.8337 30.0414 28.5454 30.3783 30.257C30.567 31.2274 30.6209 31.2678 31.6991 31.0387C31.9417 29.664 32.1708 28.2758 32.4134 26.8876C32.5482 27.0898 32.6021 27.292 32.6425 27.5076C32.8043 28.4106 32.939 29.3271 33.1008 30.2301C33.249 31.1735 33.2625 31.1735 34.3811 31.0792ZM40.9581 43.7615C41.066 43.6671 41.1468 43.5863 41.2277 43.5189C42.0498 42.7372 42.2924 41.7399 41.9285 40.7695C41.5512 39.7856 40.7156 39.2196 39.57 39.1926C38.9365 39.1791 38.3166 39.1791 37.6831 39.1926C36.9014 39.1926 36.2545 39.8261 36.2545 40.6077C36.2545 42.2251 36.2545 43.8424 36.2545 45.4462C36.2545 45.8909 36.2545 46.3222 36.2545 46.8748C36.834 46.7805 37.427 46.8613 37.7505 46.5918C38.1818 46.2548 38.4109 45.6618 38.7478 45.1632C38.977 45.5001 39.2735 45.9583 39.5834 46.4031C39.6913 46.5513 39.853 46.7535 40.0147 46.767C40.9177 46.8613 41.8342 46.9018 42.2924 45.8236C41.8611 45.1632 41.4164 44.4623 40.9581 43.7615ZM44.2601 22.5614C44.5971 22.5614 44.8531 22.5614 45.1631 22.5614C45.1631 21.1058 45.1631 19.6907 45.1631 18.2755C45.7292 19.4211 46.1739 20.5802 46.6187 21.7392C46.9961 22.7366 47.0096 22.7501 48.0743 22.5209C48.0743 20.5263 48.0743 18.5181 48.0743 16.483C47.7508 16.4965 47.4947 16.51 47.1578 16.5369C47.1578 17.9521 47.1578 19.2863 47.1578 20.6341C46.6052 19.5155 46.1605 18.3968 45.7292 17.2647C45.3788 16.3887 45.2575 16.3213 44.2601 16.6178C44.2601 18.572 44.2601 20.5397 44.2601 22.5614ZM41.8746 31.0522C41.8746 29.071 41.8746 27.0898 41.8746 25.0817C41.5646 25.0817 41.2951 25.0817 40.9447 25.0817C40.9447 26.4833 40.9447 27.8446 40.9447 29.2058C40.419 28.1006 39.9743 26.9955 39.543 25.8903C39.1656 24.9334 39.1656 24.9334 38.0605 25.0817C38.0605 27.0763 38.0605 29.0845 38.0605 31.0657C38.3839 31.0657 38.64 31.0657 38.95 31.0657C38.95 29.6236 38.95 28.2354 38.95 26.8337C39.5026 27.9524 39.9473 29.098 40.3786 30.2435C40.7695 31.2139 40.7695 31.2139 41.8746 31.0522ZM43.8154 26.7933C43.8693 26.7798 43.9097 26.7798 43.9636 26.7664C44.4084 27.9389 44.8531 29.098 45.2979 30.2705C45.6618 31.2409 45.7157 31.2678 46.7535 31.0252C46.7535 29.0441 46.7535 27.0494 46.7535 25.0817C46.4435 25.0817 46.1874 25.0817 45.864 25.0817C45.864 26.4564 45.864 27.7906 45.864 29.1114C45.2979 28.0467 44.8666 26.9416 44.4488 25.8499C44.0849 24.9065 43.9906 24.8525 42.9663 25.1356C42.9663 27.1168 42.9663 29.098 42.9663 31.0657C43.2763 31.0657 43.5324 31.0657 43.8289 31.0657C43.8154 29.6101 43.8154 28.195 43.8154 26.7933ZM52.8588 31.1061C52.8588 30.2166 52.8588 29.3675 52.8588 28.5454C54.22 28.3028 54.53 28.5319 54.5704 29.7988C54.5704 29.9336 54.5839 30.0683 54.5839 30.2031C54.6243 31.1735 54.7052 31.2409 55.716 31.0252C55.2174 30.0953 56.0799 28.7745 54.813 28.0737C54.9613 27.9524 55.0961 27.8715 55.2039 27.7502C55.9317 26.9416 55.6217 25.2838 54.6513 25.1221C53.7753 24.9738 52.8453 25.0951 51.9558 25.0951C51.9558 27.1168 51.9558 29.1114 51.9558 31.1061C52.2523 31.1061 52.4949 31.1061 52.8588 31.1061ZM51.8075 16.51C51.8075 16.9143 51.8075 17.2512 51.8075 17.5882C51.8075 18.7607 51.8075 19.9198 51.7941 21.0923C51.7806 21.6045 51.5245 21.9414 50.9854 21.9684C50.4867 21.9953 50.1768 21.7258 50.0959 21.2406C50.0555 20.9306 50.042 20.6206 50.042 20.2971C50.042 19.0437 50.042 17.8038 50.042 16.5369C49.6781 16.5369 49.3951 16.5369 49.0716 16.5369C49.0716 17.9925 49.0581 19.4076 49.0716 20.8093C49.0851 22.1031 49.6511 22.6827 50.9046 22.7096C52.158 22.7231 52.7644 22.184 52.8049 20.8767C52.8453 19.6637 52.8184 18.4507 52.8184 17.2378C52.8184 17.0086 52.8184 16.766 52.8184 16.51C52.441 16.51 52.1714 16.51 51.8075 16.51ZM27.3863 20.068C27.8176 20.068 28.168 20.095 28.5184 20.068C29.4753 19.9737 30.0414 19.2729 30.0414 18.262C30.0414 17.2378 29.5292 16.6043 28.5588 16.5234C27.8715 16.4695 27.1841 16.51 26.4833 16.51C26.4833 18.572 26.4833 20.5667 26.4833 22.5748C26.7933 22.5748 27.0628 22.5748 27.3998 22.5748C27.3863 21.7392 27.3863 20.9441 27.3863 20.068ZM47.8452 31.0792C48.9503 31.0792 50.015 31.0792 51.1202 31.0792C51.1202 30.8231 51.1202 30.594 51.1202 30.284C50.3385 30.284 49.5838 30.284 48.8155 30.284C48.8155 29.6101 48.8155 29.0036 48.8155 28.3297C49.5298 28.3297 50.2172 28.3297 50.9046 28.3297C50.9046 28.0198 50.9046 27.7906 50.9046 27.4807C50.1768 27.4807 49.5029 27.4807 48.829 27.4807C48.829 26.9011 48.829 26.4025 48.829 25.8229C49.5972 25.8229 50.325 25.8229 51.0528 25.8229C51.0528 25.5264 51.0528 25.3108 51.0528 25.0817C49.9611 25.0817 48.8964 25.0817 47.8317 25.0817C47.8452 27.1168 47.8452 29.0845 47.8452 31.0792ZM38.0066 17.2917C38.4918 17.3186 38.9365 17.3456 39.4217 17.386C39.4217 19.1516 39.4217 20.8362 39.4217 22.5209C40.3786 22.6827 40.3921 22.6692 40.3921 21.8471C40.3921 21.0115 40.3921 20.1893 40.3921 19.3537C40.3921 18.6933 40.3921 18.0329 40.3921 17.359C40.9177 17.3321 41.3355 17.3186 41.7533 17.2917C41.7533 16.9952 41.7533 16.766 41.7533 16.5234C40.4864 16.5234 39.26 16.5234 38.0066 16.5234C38.0066 16.793 38.0066 17.0086 38.0066 17.2917ZM43.2358 22.5748C43.2358 20.5128 43.2358 18.5316 43.2358 16.5369C42.9124 16.5369 42.6294 16.5369 42.3598 16.5369C42.3598 18.572 42.3598 20.5667 42.3598 22.5748C42.6698 22.5748 42.9259 22.5748 43.2358 22.5748ZM36.1602 25.0682C36.1602 27.1033 36.1602 29.098 36.1602 31.0926C36.4836 31.0926 36.7397 31.0926 37.0227 31.0926C37.0227 29.0575 37.0227 27.0629 37.0227 25.0682C36.6993 25.0682 36.4297 25.0682 36.1602 25.0682Z" fill="#191919"></path><path id="Vector_3" d="M68.6275 51.6053C68.6544 51.8075 68.6679 51.9153 68.6679 52.0366C68.6679 54.7591 68.6679 57.4681 68.6814 60.1905C68.6814 60.6218 68.5331 60.7701 68.1019 60.7835C62.63 61.0531 57.1581 61.3226 51.6863 61.6057C44.3275 61.983 36.9688 62.3739 29.6101 62.7647C25.8903 62.9534 22.157 63.1556 18.4372 63.3443C18.1677 63.3577 17.8981 63.3443 17.5881 63.3443C17.5881 60.3253 17.5881 57.3333 17.5881 54.2469C34.5833 53.3709 51.565 52.4949 68.6275 51.6053ZM50.9315 60.4466C51.6054 60.6622 51.848 60.4062 51.8884 59.7997C51.9288 59.328 52.0232 58.8697 52.1041 58.398C52.3332 56.902 52.5623 55.406 52.8049 53.91C51.9828 53.8157 51.9962 53.8157 51.8884 54.53C51.7402 55.5543 51.5919 56.5786 51.4437 57.6163C51.2819 57.5085 51.2415 57.3872 51.228 57.2794C51.0932 56.3225 50.9719 55.3656 50.7967 54.4221C50.7698 54.2469 50.5137 53.9639 50.3924 53.9774C50.2037 54.0043 49.9611 54.193 49.8668 54.3817C49.759 54.5839 49.7724 54.8669 49.732 55.1095C49.5972 56.026 49.4625 56.929 49.3277 57.8454C49.2873 57.8454 49.2468 57.8454 49.2064 57.8454C49.0177 56.592 48.829 55.3386 48.6269 54.0583C48.3304 54.0852 48.1147 54.0987 47.8047 54.1256C48.1551 56.3225 48.5056 58.4789 48.8425 60.5949C49.4894 60.7566 49.7859 60.5814 49.7859 59.9749C49.7859 59.7727 49.8398 59.5706 49.8803 59.3819C50.0016 58.6137 50.1363 57.832 50.2576 57.0637C50.2981 57.0637 50.3385 57.0772 50.3789 57.0772C50.5676 58.1959 50.7563 59.3414 50.9315 60.4466ZM58.3981 60.0692C58.4654 58.8832 57.8455 57.7646 58.425 56.5246C58.735 55.8777 58.5328 54.9747 58.452 54.193C58.425 53.9639 58.0611 53.6 57.832 53.5865C57.239 53.5326 56.646 53.6405 56.026 53.6809C56.026 55.8912 56.026 58.0476 56.026 60.2579C56.2956 60.2444 56.5112 60.231 56.8751 60.2175C56.8751 59.2336 56.8751 58.2902 56.8751 57.3468C56.956 57.3333 57.0368 57.3333 57.1312 57.3198C57.1851 57.495 57.2659 57.6568 57.2929 57.832C57.3872 58.4115 57.5085 58.9776 57.5355 59.5571C57.5624 60.177 57.8455 60.2714 58.3981 60.0692ZM26.9954 61.7C26.9954 61.5922 26.9954 61.5113 26.9954 61.417C26.982 60.3657 26.4833 59.3684 27.0089 58.2363C27.3189 57.5759 27.0898 56.6459 27.0494 55.8373C27.0359 55.6351 26.8202 55.2982 26.672 55.2847C26.0251 55.2443 25.3781 55.2712 24.7312 55.3251C24.6638 55.3251 24.5695 55.6082 24.5695 55.7699C24.556 56.5786 24.556 57.3872 24.556 58.1959C24.556 59.4088 24.556 60.6083 24.556 61.8348C24.866 61.8348 25.0951 61.8348 25.3242 61.8348C25.5534 60.8779 25.1895 59.894 25.6612 58.991C25.9038 59.7188 26.0655 60.4601 26.1194 61.2013C26.1733 61.8617 26.4563 61.9291 26.9954 61.7ZM59.045 53.5326C59.045 55.7699 59.045 57.9263 59.045 60.1366C59.6919 60.0962 60.2849 60.1231 60.8375 59.9884C61.0936 59.921 61.4305 59.5301 61.444 59.2875C61.4979 57.5624 61.4709 55.8373 61.4709 54.1122C61.4709 53.6405 61.2014 53.4113 60.7566 53.4248C60.1906 53.4248 59.638 53.4787 59.045 53.5326ZM62.7917 58.2632C62.5087 58.2902 62.2661 58.3172 62.0505 58.3441C61.9292 59.5571 61.8618 60.1097 63.4252 59.8805C63.5195 59.8671 63.6004 59.8671 63.6947 59.8671C64.2203 59.8671 64.4899 59.5975 64.4899 59.0854C64.5034 58.3441 64.5034 57.6028 64.4899 56.8616C64.4899 56.3629 64.2203 56.1338 63.7217 56.1473C63.4386 56.1608 63.1691 56.1473 62.8591 56.1473C62.8591 55.4464 62.8591 54.84 62.8591 54.1661C63.1287 54.1661 63.3578 54.1661 63.5869 54.1661C63.6273 54.4221 63.6678 54.6378 63.7082 54.8939C63.9777 54.8669 64.2069 54.8534 64.436 54.8265C64.6247 53.3439 64.4629 53.1687 63.0748 53.2631C62.94 53.2766 62.8052 53.2766 62.6704 53.3035C62.2257 53.3709 61.9965 53.6135 61.9965 54.0717C61.9965 54.813 61.9965 55.5543 61.9965 56.2955C61.9965 56.8077 62.2526 57.0233 62.7513 57.0098C63.0343 57.0098 63.3173 57.0098 63.6139 57.0098C63.6139 57.7107 63.6139 58.3306 63.6139 58.991C63.3443 58.991 63.1152 58.991 62.8726 58.991C62.8456 58.7619 62.8187 58.5597 62.7917 58.2632ZM46.9691 54.0178C46.6187 54.2065 46.1739 54.3278 46.1335 54.5165C45.7292 56.5786 45.3923 58.6541 45.0284 60.7431C45.5944 60.9318 45.9179 60.824 45.9583 60.1905C45.9853 59.8536 46.0661 59.5301 46.12 59.1662C46.43 59.1528 46.7131 59.1393 46.9826 59.1258C47.1039 59.6919 47.2117 60.1905 47.333 60.7162C47.6295 60.6892 47.8586 60.6757 48.1282 60.6488C47.7508 58.4519 47.3869 56.336 46.9691 54.0178ZM30.2301 61.5383C30.8365 61.7 31.1465 61.5652 31.1465 60.9722C31.1465 60.7566 31.16 60.5005 31.2678 60.3253C31.3756 60.1366 31.6048 59.9345 31.7934 59.9075C31.9417 59.894 32.2112 60.1097 32.2652 60.2714C32.3999 60.6353 32.4269 61.0396 32.5078 61.4709C32.7908 61.4574 33.0199 61.4439 33.3299 61.4305C32.939 59.2067 32.5617 57.0637 32.1304 54.6917C31.753 54.9612 31.3352 55.0825 31.2948 55.2847C30.9309 57.3603 30.5939 59.4358 30.2301 61.5383ZM53.627 53.8022C53.2496 55.999 52.8858 58.1959 52.5084 60.3657C53.1283 60.5005 53.4114 60.3657 53.4249 59.7997C53.4249 59.5571 53.4383 59.2741 53.5596 59.0854C53.654 58.9236 53.8966 58.7619 54.0852 58.7484C54.2335 58.735 54.4626 58.9102 54.5435 59.0584C54.6513 59.2471 54.6648 59.4897 54.6783 59.7053C54.7052 60.3118 55.0017 60.4196 55.5947 60.1771C55.2174 58.0476 54.84 55.9047 54.4626 53.7483C54.1392 53.7752 53.9235 53.7887 53.627 53.8022ZM37.2384 54.6647C37.2384 54.84 37.2249 54.9747 37.2384 55.096C37.5349 56.9559 37.8314 58.8023 38.1548 60.6622C38.1953 60.8509 38.3974 61.107 38.5726 61.1609C38.977 61.2822 39.0848 60.9992 39.1387 60.6353C39.2869 59.5436 39.4756 58.4654 39.6374 57.3872C39.7856 56.4438 39.9339 55.5004 40.0821 54.4761C39.7317 54.5165 39.5026 54.5434 39.26 54.5704C39.0713 55.8777 38.8826 57.1177 38.6939 58.3711C38.6535 58.3711 38.6131 58.3576 38.5726 58.3576C38.3839 57.1042 38.1953 55.8642 37.9931 54.5839C37.6831 54.6108 37.4675 54.6378 37.2384 54.6647ZM23.99 56.9829C24.2056 55.7429 24.1113 55.2443 22.7905 55.3925C22.6287 55.406 22.4805 55.3925 22.3188 55.406C21.847 55.4464 21.5775 55.7025 21.5775 56.1877C21.5775 57.8993 21.564 59.5975 21.591 61.3092C21.591 61.5383 21.8201 61.9291 21.9414 61.9426C22.5479 61.9696 23.2487 62.0369 23.7339 61.7674C24.0439 61.6057 24.0304 60.8644 24.1652 60.3792C24.0574 60.3118 23.963 60.231 23.8552 60.1636C23.6395 60.3388 23.2757 60.487 23.2487 60.6757C23.1678 61.2957 22.8444 61.1879 22.3996 61.08C22.3996 59.638 22.4131 58.2363 22.3861 56.8211C22.3727 56.1742 22.6692 56.1203 23.1678 56.2686C23.2083 56.5112 23.2352 56.7403 23.2757 56.9694C23.5317 56.9829 23.7474 56.9829 23.99 56.9829ZM40.4864 54.4895C40.4864 56.7268 40.4864 58.8697 40.4864 61.0935C41.2951 61.0396 42.0633 60.9992 42.8585 60.9453C42.8315 60.6218 42.8181 60.4062 42.8046 60.1366C42.2789 60.1366 41.8072 60.1366 41.3355 60.1366C41.1334 58.3845 41.1738 58.2228 42.0498 58.0206C42.0498 57.7915 42.0498 57.5624 42.0498 57.3198C41.7803 57.2929 41.5646 57.2794 41.3086 57.2524C41.3086 56.592 41.3086 55.9586 41.3086 55.2982C41.8207 55.2443 42.3059 55.1904 42.8315 55.1365C42.818 54.8534 42.8046 54.6243 42.7911 54.3548C41.9959 54.3952 41.2681 54.4356 40.4864 54.4895ZM29.9066 55.0152C29.0845 55.0691 28.3567 55.123 27.6424 55.1634C27.6424 57.3872 27.6424 59.5436 27.6424 61.7539C28.4375 61.7 29.1653 61.6596 29.9066 61.6191C29.9066 61.3092 29.9066 61.08 29.9066 60.8105C29.4079 60.8105 28.9497 60.8105 28.4645 60.8105C28.4645 60.1366 28.4645 59.5032 28.4645 58.8428C28.734 58.8023 28.9632 58.7619 29.1923 58.7215C29.1923 58.4519 29.1923 58.2093 29.1923 57.9802C28.9227 57.9667 28.7071 57.9533 28.4645 57.9263C28.4645 57.2524 28.4645 56.619 28.4645 55.9451C28.9632 55.9047 29.4214 55.8642 29.9066 55.8103C29.9066 55.5543 29.9066 55.3251 29.9066 55.0152ZM33.8825 55.689C33.8825 57.6298 33.8825 59.5032 33.8825 61.3631C34.4889 61.5113 34.7315 61.39 34.7181 60.7701C34.6776 59.4088 34.7315 58.0341 34.6911 56.6729C34.6776 56.0125 34.6776 55.4464 35.5671 55.5408C35.5671 55.2443 35.5671 55.0152 35.5671 54.7321C34.6776 54.786 33.842 54.84 32.966 54.9073C32.9795 55.2173 32.9929 55.4464 33.0064 55.7025C33.3164 55.689 33.5455 55.689 33.8825 55.689ZM36.0119 61.2687C36.6319 61.417 36.8475 61.2283 36.8206 60.6353C36.7801 59.6784 36.8071 58.708 36.8071 57.7511C36.8071 56.7538 36.8071 55.7429 36.8071 54.6917C36.4836 54.7187 36.2545 54.7321 36.0119 54.7456C36.0119 56.9424 36.0119 59.0854 36.0119 61.2687Z" fill="white"></path><path id="Vector_4" d="M14.0705 44.6106C15.3643 44.6106 16.4965 44.6106 17.6286 44.6106C17.6286 44.5567 17.6421 44.5028 17.6421 44.4488C17.4938 44.4219 17.3455 44.368 17.1973 44.368C16.2134 44.3545 15.2161 44.3545 14.2322 44.368C13.464 44.3815 12.9114 44.031 12.4128 43.2493C14.2188 43.2493 15.9035 43.2493 17.5881 43.2493C17.5881 43.182 17.5881 43.1146 17.6016 43.0472C17.4264 43.0337 17.2512 42.9933 17.0625 42.9933C15.553 42.9933 14.057 42.9933 12.5475 42.9933C11.7524 42.9933 11.1459 42.6429 10.6337 41.8073C13.0597 41.8073 15.3374 41.8073 17.6151 41.8073C17.6151 41.7264 17.6286 41.659 17.6286 41.5781C17.4129 41.5647 17.1838 41.5242 16.9682 41.5242C14.8792 41.5242 12.7901 41.5242 10.7011 41.5242C9.94638 41.5242 9.3938 41.1873 8.94905 40.446C9.27251 40.4326 9.50162 40.4056 9.73074 40.4056C12.1567 40.4056 14.5827 40.4056 17.0086 40.4056C17.3455 40.4056 17.5881 40.3921 17.8038 40.0013C18.2485 39.2061 19.0033 39.0039 19.9332 39.26C19.9332 40.3113 19.9332 41.376 19.9332 42.4946C20.6745 42.4946 21.3618 42.4946 22.184 42.4946C22.184 41.969 22.184 41.4434 22.184 40.9177C22.184 39.6509 22.6826 39.1522 23.963 39.1791C24.0708 39.1791 24.1921 39.1926 24.3269 39.2061C24.3539 39.3274 24.3943 39.4487 24.3943 39.5835C24.3943 41.5377 24.4078 43.4919 24.3943 45.4462C24.3943 46.147 23.7339 46.7939 23.0465 46.7939C22.777 46.7939 22.5209 46.7939 22.184 46.7939C22.184 46.1066 22.184 45.5001 22.184 44.8262C21.4158 44.8262 20.7149 44.8262 20.0141 44.8262C19.7041 46.6322 19.2324 47.0096 17.7094 46.6996C17.696 46.4435 17.669 46.1874 17.6555 45.8775C16.5773 45.6618 15.3239 46.174 14.4344 45.1766C14.3266 45.0419 14.2457 44.8801 14.0705 44.6106ZM23.3026 43.6941C23.3026 44.341 23.3026 45.0014 23.3026 45.6618C23.6396 45.6618 23.8821 45.6618 24.1517 45.6618C24.1517 43.5728 24.1517 41.5242 24.1517 39.4487C23.8552 39.4487 23.6126 39.4487 23.2891 39.4487C23.2891 40.5673 23.2891 41.632 23.2891 42.7237C22.0762 42.7237 20.9171 42.7237 19.6772 42.7237C19.6772 41.6051 19.6772 40.5134 19.6772 39.3948C19.3402 39.4083 19.1111 39.4217 18.8955 39.4352C18.8955 41.5647 18.8955 43.6132 18.8955 45.7023C19.192 45.6888 19.4211 45.6753 19.7176 45.6618C19.7176 44.9745 19.7176 44.3545 19.7176 43.7076C20.9306 43.6941 22.0627 43.6941 23.3026 43.6941Z" fill="white"></path><path id="Vector_5" d="M68.2636 44.6645C69.4361 44.6645 70.6087 44.6645 71.9025 44.6645C71.3904 45.4596 70.7839 45.8101 70.0022 45.837C69.3283 45.864 68.6544 45.864 67.9805 45.837C67.4819 45.8101 67.1045 45.9448 66.7271 46.2953C65.878 47.0769 64.5707 46.9287 63.8564 46.0527C63.479 45.5944 63.3443 45.1766 63.9238 44.7588C64.2068 44.5567 64.4764 44.3141 64.7864 44.058C64.6785 43.9906 64.5168 43.8963 64.3551 43.8019C63.2769 43.1146 63.0612 41.7264 63.8968 40.7695C64.2338 40.3786 64.5977 40.0147 64.9885 39.6778C65.878 38.8961 67.2123 39.0174 67.8997 39.9743C68.1423 40.3112 68.3983 40.4191 68.7892 40.4056C71.2556 40.3921 73.7355 40.3921 76.2018 40.3921C76.4444 40.3921 76.687 40.3921 77.0644 40.3921C76.5253 41.2277 75.8919 41.5512 75.0428 41.5377C72.7246 41.5377 70.42 41.5377 68.1018 41.5377C67.8323 41.5377 67.5493 41.5916 67.2797 41.6186C67.2797 41.6859 67.2797 41.7399 67.2932 41.8072C69.9213 41.8072 72.536 41.8072 75.3123 41.8072C74.8137 42.6159 74.2206 42.9798 73.4255 42.9798C71.916 42.9798 70.42 42.9798 68.9105 42.9798C68.6949 42.9798 68.4657 42.9798 68.2501 42.9798C68.2501 43.0337 68.2501 43.1011 68.2366 43.155C69.9617 43.155 71.6869 43.155 73.5872 43.155C73.0616 44.0176 72.4686 44.368 71.6869 44.3814C70.7434 44.3949 69.8 44.3814 68.8566 44.3949C68.6544 44.3949 68.4523 44.4354 68.2501 44.4488C68.2636 44.5297 68.2636 44.5971 68.2636 44.6645ZM67.9536 40.5943C67.5088 39.6239 66.6867 39.233 65.7972 39.5026C64.9211 39.7587 64.409 40.6212 64.5572 41.5512C64.692 42.3598 65.2985 42.8046 66.3228 43.0337C66.6463 43.1011 67.0236 43.4515 67.1315 43.748C67.2123 43.9771 66.9697 44.5162 66.7406 44.6106C66.4441 44.7319 65.8915 44.6914 65.6759 44.4893C65.2176 44.0445 64.9885 44.4219 64.6651 44.5567C65.1368 45.4596 65.8915 45.8505 66.7137 45.6349C67.5762 45.4057 68.1153 44.6914 68.0749 43.8019C68.0345 42.9394 67.4414 42.2924 66.5115 42.1307C66.4037 42.1037 66.2554 42.1442 66.188 42.0903C65.9185 41.8611 65.5276 41.632 65.4602 41.3355C65.4063 41.0795 65.6489 40.5943 65.878 40.4864C66.1476 40.3651 66.5654 40.5134 66.9023 40.5943C66.9967 40.6212 67.0506 40.8503 67.091 40.9447C67.4954 40.7695 67.6975 40.6886 67.9536 40.5943Z" fill="white"></path><path id="Vector_6" d="M68.6275 50.2441C68.6275 50.5541 68.6275 50.7698 68.6275 51.0798C51.6189 51.9558 34.6237 52.8453 17.5747 53.7214C17.5747 53.4114 17.5747 53.1958 17.5747 52.8858C34.5833 52.0097 51.5784 51.1337 68.6275 50.2441Z" fill="white"></path><path id="Vector_7" d="M17.5747 64.7055C17.5747 64.436 17.5747 64.2203 17.5747 63.9238C34.5833 63.0478 51.5919 62.1583 68.5736 61.2822C68.7623 61.8887 68.6544 62.1313 68.0345 62.1583C59.5976 62.5761 51.1741 63.0343 42.7372 63.4656C36.2141 63.8025 29.691 64.126 23.1678 64.4629C21.5505 64.5438 19.9332 64.6381 18.3294 64.719C18.0868 64.7055 17.8442 64.7055 17.5747 64.7055Z" fill="white"></path><path id="Vector_8" d="M60.8644 39.1926C60.9453 39.9609 61.0397 40.6617 60.3119 41.1065C60.0828 41.2412 59.8132 41.3895 59.5437 41.403C58.8293 41.4434 58.115 41.4164 57.3468 41.4164C57.3468 41.7938 57.3468 42.1173 57.3468 42.5351C58.1959 42.5351 59.0585 42.5351 60.1097 42.5351C59.948 43.2763 59.8132 43.8828 59.6784 44.5432C59.9345 44.5567 60.3658 44.5837 60.7836 44.5971C61.1744 45.9853 60.5679 46.794 59.1932 46.794C57.8455 46.794 56.5112 46.794 55.15 46.794C55.1096 46.6727 55.0556 46.6053 55.0556 46.5244C55.0556 44.4893 54.9882 42.4407 55.0961 40.4056C55.123 39.9878 55.716 39.287 56.0799 39.2465C57.6568 39.1118 59.2471 39.1926 60.8644 39.1926ZM60.6353 44.7589C59.4224 44.7589 58.2768 44.7589 57.1177 44.7589C57.1177 44.3545 57.1177 44.0311 57.1177 43.6402C58.0207 43.6402 58.8563 43.6402 59.7458 43.6402C59.7323 43.3168 59.7189 43.0607 59.7054 42.7372C58.7889 42.7372 57.9533 42.7372 57.1177 42.7372C57.1177 41.8882 57.1177 41.1199 57.1177 40.2708C58.3307 40.2708 59.4763 40.2708 60.6219 40.2708C60.6219 39.9609 60.6219 39.7183 60.6219 39.4352C59.1528 39.4352 57.6972 39.4352 56.2282 39.4352C56.2282 41.5243 56.2282 43.5728 56.2282 45.6484C57.7107 45.6484 59.1528 45.6484 60.6219 45.6484C60.6353 45.3654 60.6353 45.1228 60.6353 44.7589Z" fill="white"></path><path id="Vector_9" d="M48.8695 41.7398C49.5972 40.9716 50.2846 40.2303 50.9989 39.516C51.1471 39.3678 51.3628 39.3139 51.5515 39.2061C51.6189 39.4082 51.7267 39.5969 51.7402 39.7991C51.8884 41.5377 52.0097 43.2897 52.1445 45.0283C52.2388 46.2413 51.7132 46.8074 50.5002 46.7804C50.352 46.7804 50.1902 46.7669 49.9611 46.7535C49.8668 45.554 49.7724 44.3679 49.6646 43.0202C49.0986 43.6671 48.6403 44.1927 48.0743 44.8262C47.7373 44.4084 47.5217 44.1254 47.1848 43.6941C47.1309 44.2197 47.077 44.5297 47.0635 44.8531C46.9691 46.4435 46.4705 46.8748 44.8127 46.74C44.7993 46.6052 44.7588 46.457 44.7723 46.3087C44.9206 44.3679 45.0149 42.4137 45.2575 40.4729C45.3114 40.0282 45.8101 39.6104 46.1605 39.233C46.2279 39.1656 46.6457 39.3408 46.8074 39.5026C47.4948 40.2303 48.1686 40.9851 48.8695 41.7398ZM50.7293 41.4972C50.8506 43.0067 50.9719 44.341 51.0798 45.6348C51.4167 45.6348 51.6458 45.6348 51.9558 45.6348C51.7941 43.5728 51.6458 41.5511 51.4706 39.3813C50.5541 40.3651 49.7455 41.2277 48.9099 42.1172C48.0608 41.2142 47.2656 40.3516 46.3492 39.3813C46.1874 41.5781 46.0257 43.5997 45.8775 45.6348C46.2144 45.6348 46.4705 45.6348 46.7535 45.6348C46.8613 44.2736 46.9826 42.9393 47.1039 41.4838C47.7643 42.1981 48.3304 42.8046 48.9099 43.4245C49.5029 42.8046 50.0555 42.225 50.7293 41.4972Z" fill="white"></path><path id="Vector_10" d="M27.4806 46.7939C27.4806 44.5835 27.4267 42.4541 27.5346 40.3247C27.548 39.9338 28.195 39.2734 28.5858 39.233C30.1222 39.1117 31.6722 39.1791 33.249 39.1791C33.3568 39.9203 33.4512 40.6077 32.7369 41.0659C32.4943 41.2276 32.1978 41.3624 31.9148 41.3894C31.2274 41.4298 30.5266 41.4029 29.7853 41.4029C29.7853 41.7667 29.7853 42.0902 29.7853 42.4945C30.6209 42.4945 31.4565 42.4945 32.3326 42.4945C32.4134 43.2493 32.6156 43.9366 31.7126 44.5027C32.373 44.5431 32.8043 44.5566 33.2355 44.5835C33.4108 45.3922 33.3568 46.0795 32.6291 46.5647C32.4673 46.6726 32.2786 46.7669 32.09 46.7804C30.594 46.8073 29.0845 46.7939 27.4806 46.7939ZM29.5427 44.7857C29.5427 44.3544 29.5427 44.031 29.5427 43.6266C30.4457 43.6266 31.3083 43.6266 32.1573 43.6266C32.1573 43.3032 32.1573 43.0606 32.1573 42.7371C31.2544 42.7371 30.4053 42.7371 29.5562 42.7371C29.5562 41.8746 29.5562 41.1063 29.5562 40.2707C30.7422 40.2707 31.8743 40.2707 33.0334 40.2707C33.0334 39.9608 33.0334 39.7047 33.0334 39.4217C31.5509 39.4217 30.1088 39.4217 28.6532 39.4217C28.6532 41.5242 28.6532 43.5727 28.6532 45.6078C30.1492 45.6078 31.5913 45.6078 33.0469 45.6078C33.0469 45.3113 33.0469 45.0687 33.0469 44.7722C31.8608 44.7857 30.7287 44.7857 29.5427 44.7857Z" fill="white"></path><path id="Vector_11" d="M38.4109 22.5344C37.764 22.7231 37.3327 22.6422 37.2653 21.8875C37.2249 21.3484 37.0227 21.0249 36.3758 21.1058C35.8367 21.1732 35.1493 20.9171 35.0954 21.8336C35.0685 22.4805 34.7181 22.6557 34.0846 22.6288C32.9525 22.5748 31.8069 22.6153 30.6209 22.6153C30.6209 20.5532 30.6209 18.572 30.6209 16.5369C30.9174 16.5369 31.187 16.5369 31.5374 16.5369C31.5374 18.2755 31.5374 19.9872 31.5374 21.8066C32.3999 21.8066 33.1951 21.8066 34.0981 21.8066C34.5294 20.2971 35.0011 18.6798 35.4459 17.0356C35.5537 16.6178 35.7424 16.483 36.1871 16.4695C36.7127 16.456 36.9284 16.6313 37.0497 17.1299C37.454 18.8011 37.9122 20.4724 38.3435 22.1436C38.384 22.2649 38.384 22.3996 38.4109 22.5344ZM36.888 20.2971C36.6588 19.3268 36.4567 18.4372 36.241 17.5343C36.2006 17.5343 36.1736 17.5343 36.1332 17.5477C35.9176 18.4507 35.7154 19.3537 35.4863 20.2971C35.985 20.2971 36.3758 20.2971 36.888 20.2971Z" fill="white"></path><path id="Vector_12" d="M58.8293 22.5748C58.5328 22.5748 58.3037 22.5748 57.9937 22.5748C57.9937 21.0519 57.9937 19.5424 57.9937 18.0194C57.9398 18.006 57.8994 18.006 57.8455 17.9925C57.7107 18.5046 57.5624 19.0168 57.4411 19.5289C57.2255 20.405 57.0368 21.281 56.7942 22.1436C56.7403 22.3322 56.4708 22.5748 56.2956 22.5748C56.1203 22.5748 55.8508 22.3322 55.7969 22.1436C55.433 20.7823 55.1095 19.4211 54.6513 18.0599C54.6513 19.5424 54.6513 21.0114 54.6513 22.5479C54.3278 22.5479 54.0852 22.5479 53.7079 22.5479C53.7079 22.1166 53.7079 21.6853 53.7079 21.2406C53.7079 19.9198 53.7348 18.5855 53.6944 17.2647C53.6809 16.6717 53.8157 16.3752 54.4626 16.4695C54.6783 16.51 54.9074 16.4695 55.2039 16.4695C55.5543 17.8847 55.8912 19.2998 56.2821 20.9036C56.4168 20.4319 56.5112 20.1354 56.5786 19.8254C56.7807 18.9763 57.0233 18.1273 57.1446 17.2647C57.239 16.5639 57.5894 16.3752 58.2228 16.4695C58.398 16.4965 58.5732 16.4965 58.8024 16.51C58.8293 18.5316 58.8293 20.5128 58.8293 22.5748Z" fill="white"></path><path id="Vector_13" d="M34.3811 31.0792C33.2625 31.1735 33.2625 31.1735 33.0873 30.2301C32.9255 29.3271 32.7773 28.4106 32.629 27.5076C32.5886 27.292 32.5347 27.0898 32.3999 26.8877C32.1573 28.2758 31.9282 29.664 31.6856 31.0387C30.6209 31.2678 30.5535 31.2409 30.3648 30.257C30.0414 28.5454 29.7179 26.8337 29.381 25.1221C30.3379 24.9469 30.3244 24.9469 30.4726 25.796C30.6748 26.982 30.877 28.1545 31.2139 29.3406C31.4565 27.9254 31.6991 26.5103 31.9552 25.0682C32.3191 25.0682 32.6156 25.0682 32.9795 25.0682C33.2355 26.5103 33.4781 27.9389 33.7342 29.3675C33.7746 29.3675 33.8151 29.381 33.8555 29.381C34.0172 28.4645 34.179 27.5615 34.3407 26.6451C34.3946 26.362 34.435 26.0655 34.4889 25.7825C34.6237 24.9334 34.6507 24.9199 35.5537 25.1356C35.1628 27.1033 34.772 29.0845 34.3811 31.0792Z" fill="white"></path><path id="Vector_14" d="M40.9582 43.7615C41.4164 44.4624 41.8612 45.1632 42.2924 45.8236C41.8342 46.9018 40.9312 46.8614 40.0147 46.767C39.8665 46.7535 39.6913 46.5514 39.5835 46.4031C39.26 45.9584 38.9635 45.4866 38.7479 45.1632C38.4244 45.6619 38.1953 46.2549 37.7505 46.5918C37.4136 46.8479 36.834 46.7805 36.2545 46.8748C36.2545 46.3223 36.2545 45.891 36.2545 45.4462C36.2545 43.8289 36.2545 42.2116 36.2545 40.6078C36.2545 39.8261 36.888 39.1926 37.6831 39.1926C38.3166 39.1926 38.9365 39.1792 39.57 39.1926C40.7156 39.2196 41.5512 39.7856 41.9285 40.7695C42.3059 41.7399 42.0498 42.7372 41.2277 43.5189C41.1468 43.5863 41.066 43.6672 40.9582 43.7615ZM37.4405 39.4083C37.4405 41.5647 37.4405 43.5998 37.4405 45.6484C37.737 45.6484 37.9796 45.6484 38.3031 45.6484C38.3031 45.0554 38.3031 44.4893 38.3031 43.9772C39.3004 43.6807 39.9608 43.9502 40.3247 44.8532C40.3652 44.961 40.446 45.0419 40.4999 45.1362C40.9312 45.7832 40.9582 45.7966 41.8342 45.5675C41.4299 44.9475 41.0256 44.3276 40.6212 43.6941C40.7425 43.5863 40.8234 43.5189 40.9177 43.4515C41.7399 42.8316 42.0094 41.996 41.7668 41.0121C41.5512 40.1226 40.756 39.4757 39.7452 39.4083C38.9904 39.3678 38.2357 39.4083 37.4405 39.4083Z" fill="white"></path><path id="Vector_15" d="M44.2602 22.5614C44.2602 20.5398 44.2602 18.572 44.2602 16.6043C45.2575 16.3213 45.3788 16.3752 45.7292 17.2512C46.174 18.3699 46.6052 19.502 47.1578 20.6206C47.1578 19.2863 47.1578 17.9386 47.1578 16.5234C47.4948 16.51 47.7508 16.4965 48.0743 16.4695C48.0743 18.5046 48.0743 20.5128 48.0743 22.5075C47.023 22.7366 46.9961 22.7231 46.6322 21.7258C46.1874 20.5667 45.7427 19.3942 45.1766 18.2621C45.1766 19.6772 45.1766 21.0923 45.1766 22.5479C44.8532 22.5614 44.5971 22.5614 44.2602 22.5614Z" fill="white"></path><path id="Vector_16" d="M41.8746 31.0522C40.756 31.2274 40.756 31.2274 40.3921 30.257C39.9608 29.1114 39.5161 27.9658 38.9635 26.8472C38.9635 28.2489 38.9635 29.6371 38.9635 31.0792C38.64 31.0792 38.384 31.0792 38.074 31.0792C38.074 29.098 38.074 27.1033 38.074 25.0951C39.1791 24.9334 39.1791 24.9334 39.5565 25.9038C39.9878 27.0089 40.4191 28.1141 40.9582 29.2193C40.9582 27.858 40.9582 26.4968 40.9582 25.0951C41.3086 25.0951 41.5781 25.0951 41.8881 25.0951C41.8746 27.0898 41.8746 29.071 41.8746 31.0522Z" fill="white"></path><path id="Vector_17" d="M43.8154 26.7933C43.8154 28.2084 43.8154 29.6101 43.8154 31.0791C43.5324 31.0791 43.2763 31.0791 42.9528 31.0791C42.9528 29.1114 42.9528 27.1302 42.9528 25.149C43.9637 24.8795 44.058 24.9199 44.4354 25.8633C44.8667 26.955 45.2845 28.0602 45.8505 29.1249C45.8505 27.7906 45.8505 26.4698 45.8505 25.0951C46.174 25.0951 46.4435 25.0951 46.74 25.0951C46.74 27.0628 46.74 29.0575 46.74 31.0387C45.7023 31.2813 45.6618 31.2543 45.2845 30.284C44.8397 29.1114 44.3949 27.9524 43.9502 26.7798C43.9097 26.7798 43.8558 26.7798 43.8154 26.7933Z" fill="white"></path><path id="Vector_18" d="M52.8588 31.1061C52.4949 31.1061 52.2388 31.1061 51.9423 31.1061C51.9423 29.1114 51.9423 27.1302 51.9423 25.0951C52.8318 25.0951 53.7483 24.9738 54.6378 25.1221C55.6082 25.2838 55.9182 26.9416 55.1904 27.7502C55.0826 27.858 54.9478 27.9524 54.7996 28.0737C56.0665 28.7745 55.2039 30.0953 55.7026 31.0253C54.6917 31.2409 54.5974 31.1735 54.5704 30.2031C54.5704 30.0683 54.557 29.9336 54.557 29.7988C54.5165 28.5319 54.2066 28.2893 52.8453 28.5454C52.8588 29.3675 52.8588 30.2166 52.8588 31.1061ZM52.9127 25.5668C52.9127 26.4564 52.9127 27.0629 52.9127 27.8985C53.4922 27.6828 54.0718 27.6154 54.4087 27.3055C54.6109 27.1168 54.6244 26.3485 54.4357 26.1599C54.0853 25.8499 53.5192 25.7825 52.9127 25.5668Z" fill="white"></path><path id="Vector_19" d="M51.8076 16.5099C52.1849 16.5099 52.441 16.5099 52.8184 16.5099C52.8184 16.766 52.8184 17.0086 52.8184 17.2377C52.8184 18.4507 52.8453 19.6637 52.8049 20.8767C52.7645 22.1705 52.158 22.7231 50.9046 22.7096C49.6646 22.6961 49.0851 22.1031 49.0716 20.8093C49.0581 19.3941 49.0716 17.9925 49.0716 16.5369C49.3951 16.5369 49.6646 16.5369 50.042 16.5369C50.042 17.8038 50.042 19.0437 50.042 20.2971C50.042 20.6071 50.042 20.9306 50.0959 21.2406C50.1633 21.7392 50.4733 21.9953 50.9854 21.9683C51.538 21.9414 51.7941 21.6044 51.7941 21.0923C51.8076 19.9198 51.8076 18.7607 51.8076 17.5881C51.8076 17.2512 51.8076 16.9278 51.8076 16.5099Z" fill="white"></path><path id="Vector_20" d="M27.3863 20.068C27.3863 20.9441 27.3863 21.7392 27.3863 22.5614C27.0494 22.5614 26.7933 22.5614 26.4698 22.5614C26.4698 20.5532 26.4698 18.5585 26.4698 16.4965C27.1707 16.4965 27.858 16.4561 28.5454 16.51C29.5157 16.5908 30.0279 17.2243 30.0279 18.2486C30.0279 19.2729 29.4618 19.9602 28.5049 20.0545C28.168 20.095 27.8176 20.068 27.3863 20.068ZM27.4267 17.076C27.4267 17.9925 27.4267 18.6259 27.4267 19.3133C27.9793 19.3133 28.5858 19.502 28.8419 18.9224C29.0036 18.5585 29.044 17.9251 28.8419 17.6825C28.5723 17.3456 27.9928 17.2917 27.4267 17.076Z" fill="white"></path><path id="Vector_21" d="M47.8452 31.0792C47.8452 29.071 47.8452 27.1033 47.8452 25.0817C48.9099 25.0817 49.9611 25.0817 51.0663 25.0817C51.0663 25.3108 51.0663 25.5264 51.0663 25.8229C50.3385 25.8229 49.6242 25.8229 48.8425 25.8229C48.8425 26.4025 48.8425 26.9011 48.8425 27.4807C49.5164 27.4807 50.1903 27.4807 50.918 27.4807C50.918 27.7906 50.918 28.0198 50.918 28.3297C50.2307 28.3297 49.5433 28.3297 48.829 28.3297C48.829 29.0036 48.829 29.5966 48.829 30.284C49.5972 30.284 50.3385 30.284 51.1337 30.284C51.1337 30.594 51.1337 30.8231 51.1337 31.0792C50.015 31.0792 48.9503 31.0792 47.8452 31.0792Z" fill="white"></path><path id="Vector_22" d="M38.0066 17.2917C38.0066 16.9952 38.0066 16.7795 38.0066 16.5234C39.26 16.5234 40.4864 16.5234 41.7533 16.5234C41.7533 16.766 41.7533 16.9952 41.7533 17.2917C41.3355 17.3186 40.9177 17.3321 40.3921 17.359C40.3921 18.0194 40.3921 18.6933 40.3921 19.3537C40.3921 20.1893 40.3921 21.0115 40.3921 21.8471C40.3921 22.6692 40.3786 22.6827 39.4217 22.5209C39.4217 20.8362 39.4217 19.1516 39.4217 17.386C38.9365 17.359 38.4918 17.3321 38.0066 17.2917Z" fill="white"></path><path id="Vector_23" d="M43.2358 22.5748C42.9259 22.5748 42.6698 22.5748 42.3598 22.5748C42.3598 20.5666 42.3598 18.572 42.3598 16.5369C42.6294 16.5369 42.9124 16.5369 43.2358 16.5369C43.2358 18.5315 43.2358 20.5127 43.2358 22.5748Z" fill="white"></path><path id="Vector_24" d="M36.1602 25.0682C36.4432 25.0682 36.6993 25.0682 37.0227 25.0682C37.0227 27.0628 37.0227 29.0575 37.0227 31.0926C36.7397 31.0926 36.4836 31.0926 36.1602 31.0926C36.1602 29.098 36.1602 27.1033 36.1602 25.0682Z" fill="white"></path><path id="Vector_25" d="M50.9315 60.4466C50.7563 59.328 50.5676 58.1824 50.3789 57.0368C50.3385 57.0368 50.2981 57.0233 50.2576 57.0233C50.1363 57.7915 50.0016 58.5732 49.8803 59.3415C49.8533 59.5436 49.7859 59.7458 49.7859 59.9345C49.7859 60.541 49.4894 60.7296 48.8425 60.5544C48.5056 58.4385 48.1551 56.2821 47.8047 54.0852C48.1147 54.0583 48.3303 54.0448 48.6269 54.0178C48.8155 55.2982 49.0177 56.5516 49.2064 57.805C49.2468 57.805 49.2873 57.805 49.3277 57.805C49.4625 56.8885 49.5972 55.9856 49.732 55.0691C49.7724 54.8265 49.7455 54.5569 49.8668 54.3413C49.9611 54.1526 50.2037 53.9639 50.3924 53.937C50.5137 53.9235 50.7698 54.2065 50.7967 54.3817C50.9719 55.3252 51.0932 56.2821 51.228 57.239C51.2415 57.3603 51.2819 57.4681 51.4437 57.5759C51.5919 56.5516 51.7536 55.5273 51.8884 54.4895C51.9828 53.7752 51.9828 53.7752 52.8049 53.8696C52.5758 55.3656 52.3466 56.8616 52.1041 58.3576C52.0367 58.8293 51.9288 59.2875 51.8884 59.7593C51.848 60.4062 51.6054 60.6623 50.9315 60.4466Z" fill="#191919"></path><path id="Vector_26" d="M58.3981 60.0693C57.8455 60.2714 57.5625 60.1771 57.522 59.5437C57.4951 58.9641 57.3738 58.3846 57.2794 57.8185C57.2525 57.6433 57.1716 57.4816 57.1177 57.3064C57.0368 57.3199 56.956 57.3199 56.8616 57.3334C56.8616 58.2768 56.8616 59.2337 56.8616 60.2041C56.4977 60.231 56.2821 60.231 56.0126 60.2445C56.0126 58.0477 56.0126 55.8778 56.0126 53.6675C56.6325 53.627 57.239 53.5192 57.8185 53.5731C58.0476 53.6001 58.425 53.9505 58.4385 54.1796C58.5194 54.9613 58.7215 55.8643 58.4115 56.5112C57.8455 57.7646 58.4789 58.8833 58.3981 60.0693ZM57.5625 56.4573C57.5625 55.743 57.5625 55.1096 57.5625 54.4357C57.2794 54.4627 57.0638 54.4896 56.8481 54.5166C56.8481 55.1904 56.8481 55.8104 56.8481 56.4573C57.0907 56.4573 57.3064 56.4573 57.5625 56.4573Z" fill="#191919"></path><path id="Vector_27" d="M26.9955 61.7C26.4564 61.9291 26.1733 61.8617 26.1194 61.1879C26.0655 60.4466 25.9038 59.7188 25.6612 58.9776C25.1895 59.8805 25.5399 60.8644 25.3243 61.8213C25.0951 61.8213 24.866 61.8213 24.556 61.8213C24.556 60.5949 24.556 59.3954 24.556 58.1824C24.556 57.3737 24.5426 56.5651 24.5695 55.7564C24.5695 55.5947 24.6639 55.3117 24.7313 55.3117C25.3782 55.2578 26.0251 55.2173 26.672 55.2712C26.8203 55.2847 27.0359 55.6217 27.0494 55.8238C27.0898 56.6325 27.3189 57.5624 27.009 58.2228C26.4699 59.3549 26.982 60.3523 26.9955 61.4035C26.9955 61.5113 26.9955 61.5922 26.9955 61.7ZM25.3916 58.0341C25.459 58.088 25.5129 58.1419 25.5803 58.1959C25.796 58.0746 26.1599 57.9667 26.1733 57.8185C26.2407 57.2524 26.2003 56.6729 26.2003 56.1338C25.5938 55.9721 25.3377 56.1338 25.3782 56.6999C25.4186 57.1446 25.3916 57.5894 25.3916 58.0341Z" fill="#191919"></path><path id="Vector_28" d="M59.045 53.5326C59.638 53.4922 60.1905 53.4383 60.7431 53.4113C61.2014 53.3979 61.4574 53.627 61.4574 54.0987C61.4574 55.8238 61.4844 57.5489 61.4305 59.2741C61.417 59.5301 61.0801 59.921 60.824 59.9749C60.2714 60.1097 59.6784 60.0827 59.0315 60.1231C59.045 57.9128 59.045 55.7564 59.045 53.5326ZM59.8671 59.3819C60.231 59.1528 60.6083 59.018 60.6083 58.8832C60.6488 57.3737 60.6353 55.8508 60.6353 54.2739C60.3253 54.2874 60.0962 54.3008 59.8671 54.3278C59.8671 55.9721 59.8671 57.5489 59.8671 59.3819Z" fill="#191919"></path><path id="Vector_29" d="M62.7917 58.2633C62.8187 58.5598 62.8456 58.762 62.8726 59.0046C63.1152 59.0046 63.3443 59.0046 63.6139 59.0046C63.6139 58.3442 63.6139 57.7242 63.6139 57.0234C63.3174 57.0234 63.0343 57.0234 62.7513 57.0234C62.2526 57.0368 61.9966 56.8077 61.9966 56.3091C61.9966 55.5678 61.9966 54.8265 61.9966 54.0853C61.9966 53.627 62.2257 53.3844 62.6704 53.317C62.8052 53.3036 62.94 53.2901 63.0748 53.2766C64.463 53.1823 64.6247 53.3575 64.436 54.84C64.2204 54.8535 63.9912 54.8804 63.7082 54.9074C63.6678 54.6513 63.6273 54.4357 63.5869 54.1796C63.3578 54.1796 63.1287 54.1796 62.8591 54.1796C62.8591 54.84 62.8591 55.46 62.8591 56.1608C63.1556 56.1608 63.4387 56.1743 63.7217 56.1608C64.2204 56.1473 64.4899 56.363 64.4899 56.8751C64.5034 57.6164 64.5034 58.3576 64.4899 59.0989C64.4764 59.611 64.2069 59.8806 63.6947 59.8806C63.6004 59.8806 63.5195 59.8806 63.4252 59.8941C61.8483 60.1232 61.9157 59.5706 62.0505 58.3576C62.2661 58.3172 62.5087 58.2902 62.7917 58.2633Z" fill="#191919"></path><path id="Vector_30" d="M46.9691 54.0179C47.3869 56.3495 47.7508 58.452 48.1417 60.6488C47.8721 60.6758 47.643 60.6893 47.3465 60.7162C47.2252 60.1906 47.1309 59.6919 46.9961 59.1259C46.713 59.1394 46.43 59.1528 46.1335 59.1663C46.0661 59.5302 45.9853 59.8671 45.9718 60.1906C45.9314 60.8241 45.6079 60.9319 45.0418 60.7432C45.4057 58.6542 45.7427 56.5786 46.147 54.5166C46.1739 54.3144 46.6322 54.2066 46.9691 54.0179ZM46.8748 58.2229C46.7804 57.6973 46.6996 57.266 46.6187 56.8347C46.5783 56.8347 46.5513 56.8347 46.5109 56.8347C46.4435 57.2795 46.3626 57.7242 46.2818 58.2094C46.4974 58.2229 46.6457 58.2229 46.8748 58.2229Z" fill="#191919"></path><path id="Vector_31" d="M30.2301 61.5383C30.5805 59.4358 30.9174 57.3603 31.3218 55.2982C31.3622 55.096 31.7665 54.9613 32.1574 54.7052C32.5752 57.0772 32.9525 59.2202 33.3569 61.444C33.0469 61.4574 32.8178 61.4709 32.5347 61.4844C32.4539 61.0531 32.4134 60.6488 32.2921 60.2849C32.2382 60.1232 31.9687 59.894 31.8204 59.921C31.6183 59.948 31.4026 60.1501 31.2948 60.3388C31.187 60.514 31.1735 60.7701 31.1735 60.9857C31.1466 61.5653 30.8501 61.7 30.2301 61.5383ZM31.7126 57.5894C31.6317 58.0881 31.5644 58.5328 31.497 58.991C32.1304 58.9776 32.1843 58.5463 31.7126 57.5894Z" fill="#191919"></path><path id="Vector_32" d="M53.627 53.8023C53.9235 53.7888 54.1392 53.7753 54.4626 53.7484C54.84 55.9047 55.2174 58.0477 55.5948 60.1771C55.0017 60.4197 54.7052 60.3254 54.6783 59.7054C54.6648 59.4898 54.6513 59.2337 54.5435 59.0585C54.4626 58.9102 54.2335 58.735 54.0853 58.7485C53.8966 58.762 53.654 58.9102 53.5596 59.0854C53.4383 59.2876 53.4249 59.5571 53.4249 59.7997C53.4249 60.3523 53.1284 60.5006 52.5084 60.3658C52.8858 58.1959 53.2496 55.9991 53.627 53.8023ZM54.1122 56.5517C54.0583 56.5517 54.0044 56.5517 53.9505 56.5517C53.8831 56.956 53.8292 57.3738 53.7483 57.8455C53.9774 57.832 54.1392 57.8186 54.3413 57.8051C54.2605 57.3468 54.1931 56.956 54.1122 56.5517Z" fill="#191919"></path><path id="Vector_33" d="M37.2384 54.6648C37.4675 54.6379 37.6831 54.6244 37.9931 54.584C38.1818 55.8643 38.384 57.1042 38.5726 58.3576C38.6131 58.3576 38.6535 58.3711 38.6939 58.3711C38.8826 57.1177 39.0713 55.8643 39.26 54.5705C39.5026 54.5435 39.7317 54.5166 40.0821 54.4761C39.9204 55.5004 39.7721 56.4438 39.6374 57.3873C39.4756 58.4655 39.2869 59.5571 39.1387 60.6353C39.0848 60.9992 38.977 61.2823 38.5726 61.161C38.3974 61.107 38.1818 60.851 38.1548 60.6623C37.8314 58.8159 37.5349 56.956 37.2384 55.0961C37.2249 54.9748 37.2384 54.84 37.2384 54.6648Z" fill="#191919"></path><path id="Vector_34" d="M23.99 56.983C23.7474 56.983 23.5317 56.983 23.2891 56.983C23.2487 56.7538 23.2217 56.5247 23.1813 56.2821C22.6826 56.1339 22.3861 56.1878 22.3996 56.8347C22.4266 58.2498 22.4131 59.6515 22.4131 61.0936C22.8579 61.2014 23.1813 61.3092 23.2622 60.6893C23.2891 60.5006 23.653 60.3388 23.8687 60.1771C23.9765 60.2445 24.0708 60.3254 24.1787 60.3928C24.0439 60.8779 24.0574 61.6192 23.7474 61.7809C23.2487 62.0505 22.5614 61.9696 21.9549 61.9561C21.8201 61.9561 21.6044 61.5518 21.6044 61.3227C21.5775 59.6245 21.5775 57.9129 21.591 56.2013C21.591 55.7161 21.8605 55.46 22.3322 55.4196C22.494 55.4061 22.6422 55.4196 22.8039 55.4061C24.1113 55.2309 24.2056 55.743 23.99 56.983Z" fill="#191919"></path><path id="Vector_35" d="M40.4864 54.4896C41.2681 54.4491 41.9959 54.3952 42.8046 54.3548C42.818 54.6243 42.8315 54.8535 42.845 55.1365C42.3194 55.1904 41.8342 55.2443 41.322 55.2982C41.322 55.9586 41.322 56.5921 41.322 57.2525C41.5781 57.2794 41.7938 57.2929 42.0633 57.3198C42.0633 57.5624 42.0633 57.7916 42.0633 58.0207C41.1873 58.2228 41.1334 58.3711 41.349 60.1366C41.8207 60.1366 42.2924 60.1366 42.8181 60.1366C42.8315 60.4062 42.845 60.6218 42.872 60.9453C42.0768 60.9992 41.3086 61.0396 40.4999 61.0935C40.4864 58.8563 40.4864 56.7268 40.4864 54.4896Z" fill="#191919"></path><path id="Vector_36" d="M29.9066 55.0152C29.9066 55.3252 29.9066 55.5543 29.9066 55.8238C29.4214 55.8643 28.9632 55.9047 28.4645 55.9586C28.4645 56.6325 28.4645 57.2659 28.4645 57.9398C28.7071 57.9533 28.9227 57.9668 29.1923 57.9937C29.1923 58.2228 29.1923 58.4654 29.1923 58.735C28.9767 58.7754 28.7341 58.8159 28.4645 58.8563C28.4645 59.5167 28.4645 60.1501 28.4645 60.824C28.9362 60.824 29.3945 60.824 29.9066 60.824C29.9066 61.0936 29.9066 61.3227 29.9066 61.6327C29.1653 61.6731 28.4376 61.727 27.6424 61.7674C27.6424 59.5571 27.6424 57.4007 27.6424 55.1769C28.3567 55.123 29.0845 55.0691 29.9066 55.0152Z" fill="#191919"></path><path id="Vector_37" d="M33.8824 55.6891C33.532 55.6891 33.3164 55.6891 33.0199 55.6891C33.0064 55.433 32.9929 55.2039 32.9795 54.8939C33.8555 54.84 34.6911 54.7861 35.5806 54.7187C35.5806 55.0152 35.5806 55.2443 35.5806 55.5273C34.6911 55.433 34.6911 55.9991 34.7046 56.6594C34.745 58.0207 34.6911 59.3954 34.7315 60.7566C34.745 61.3766 34.5024 61.4979 33.8959 61.3496C33.8824 59.4897 33.8824 57.6298 33.8824 55.6891Z" fill="#191919"></path><path id="Vector_38" d="M36.0119 61.2688C36.0119 59.0854 36.0119 56.9425 36.0119 54.7457C36.2545 54.7322 36.4971 54.7052 36.8071 54.6918C36.8071 55.743 36.8071 56.7538 36.8071 57.7512C36.8071 58.7081 36.7801 59.6785 36.8206 60.6354C36.861 61.2284 36.6319 61.4036 36.0119 61.2688Z" fill="#191919"></path><path id="Vector_39" d="M23.3026 43.6941C22.0627 43.6941 20.9306 43.6941 19.7311 43.6941C19.7311 44.341 19.7311 44.961 19.7311 45.6483C19.4346 45.6618 19.2055 45.6753 18.909 45.6888C18.909 43.5998 18.909 41.5512 18.909 39.4217C19.1246 39.4082 19.3537 39.3948 19.6907 39.3813C19.6907 40.4999 19.6907 41.5916 19.6907 42.7102C20.9441 42.7102 22.0897 42.7102 23.3026 42.7102C23.3026 41.6186 23.3026 40.5538 23.3026 39.4352C23.6126 39.4352 23.8687 39.4352 24.1652 39.4352C24.1652 41.5107 24.1652 43.5728 24.1652 45.6483C23.8822 45.6483 23.6531 45.6483 23.3161 45.6483C23.3026 45.0014 23.3026 44.341 23.3026 43.6941Z" fill="#191919"></path><path id="Vector_40" d="M67.9536 40.5943C67.6975 40.6886 67.4954 40.7695 67.118 40.9177C67.0775 40.8368 67.0236 40.5943 66.9293 40.5673C66.5924 40.473 66.1745 40.3247 65.905 40.4595C65.6624 40.5673 65.4198 41.066 65.4872 41.3086C65.5546 41.6051 65.9454 41.8207 66.215 42.0633C66.2824 42.1172 66.4306 42.0903 66.5384 42.1037C67.4549 42.2789 68.0614 42.9124 68.1018 43.7749C68.1423 44.6644 67.6032 45.3922 66.7406 45.6079C65.9185 45.8235 65.1772 45.4327 64.692 44.5297C65.029 44.3949 65.2446 44.0175 65.7028 44.4623C65.9185 44.6644 66.4711 44.7184 66.7676 44.5836C66.9967 44.4892 67.2393 43.9501 67.1584 43.721C67.0506 43.411 66.6732 43.0741 66.3498 43.0067C65.312 42.7776 64.719 42.3328 64.5842 41.5242C64.4225 40.5943 64.9481 39.7317 65.8241 39.4756C66.7002 39.2196 67.5088 39.6239 67.9536 40.5943Z" fill="#191919"></path><path id="Vector_41" d="M60.6353 44.7589C60.6353 45.1227 60.6353 45.3653 60.6353 45.6484C59.1663 45.6484 57.7242 45.6484 56.2417 45.6484C56.2417 43.5728 56.2417 41.5243 56.2417 39.4352C57.7107 39.4352 59.1663 39.4352 60.6353 39.4352C60.6353 39.7183 60.6353 39.9609 60.6353 40.2708C59.4898 40.2708 58.3307 40.2708 57.1312 40.2708C57.1312 41.1064 57.1312 41.8881 57.1312 42.7372C57.9668 42.7372 58.8024 42.7372 59.7189 42.7372C59.7323 43.0742 59.7458 43.3168 59.7593 43.6402C58.8698 43.6402 58.0207 43.6402 57.1312 43.6402C57.1312 44.0311 57.1312 44.3545 57.1312 44.7589C58.2768 44.7589 59.4358 44.7589 60.6353 44.7589Z" fill="#191919"></path><path id="Vector_42" d="M50.7294 41.4973C50.0555 42.2116 49.5029 42.8046 48.9099 43.438C48.3304 42.8046 47.7643 42.2116 47.1039 41.4973C46.9826 42.9529 46.8748 44.2871 46.7535 45.6484C46.4839 45.6484 46.2279 45.6484 45.8774 45.6484C46.0392 43.6133 46.1874 41.5916 46.3492 39.3948C47.2521 40.3652 48.0608 41.2277 48.9099 42.1307C49.7455 41.2277 50.5541 40.3786 51.4706 39.3948C51.6323 41.5647 51.7941 43.5728 51.9558 45.6484C51.6458 45.6484 51.4167 45.6484 51.0798 45.6484C50.9719 44.341 50.8506 43.0068 50.7294 41.4973Z" fill="#191919"></path><path id="Vector_43" d="M29.5427 44.7858C30.7287 44.7858 31.8608 44.7858 33.0334 44.7858C33.0334 45.0958 33.0334 45.3249 33.0334 45.6214C31.5778 45.6214 30.1357 45.6214 28.6397 45.6214C28.6397 43.5728 28.6397 41.5243 28.6397 39.4352C30.0818 39.4352 31.5239 39.4352 33.0199 39.4352C33.0199 39.7048 33.0199 39.9609 33.0199 40.2843C31.8608 40.2843 30.7287 40.2843 29.5427 40.2843C29.5427 41.1065 29.5427 41.8882 29.5427 42.7507C30.3918 42.7507 31.2543 42.7507 32.1439 42.7507C32.1439 43.0742 32.1439 43.3168 32.1439 43.6402C31.2948 43.6402 30.4322 43.6402 29.5292 43.6402C29.5427 44.0311 29.5427 44.3545 29.5427 44.7858Z" fill="#191919"></path><path id="Vector_44" d="M36.8879 20.2971C36.3623 20.2971 35.9715 20.2971 35.4863 20.2971C35.7154 19.3537 35.9176 18.4507 36.1332 17.5477C36.1736 17.5477 36.2006 17.5477 36.241 17.5342C36.4567 18.4372 36.6723 19.3267 36.8879 20.2971Z" fill="#191919"></path><path id="Vector_45" d="M37.4405 39.4082C38.2357 39.4082 38.9904 39.3678 39.7452 39.4217C40.756 39.4891 41.5377 40.136 41.7668 41.0255C42.0094 42.0094 41.7399 42.845 40.9177 43.465C40.8369 43.5324 40.756 43.5998 40.6212 43.7076C41.039 44.341 41.4299 44.9475 41.8342 45.581C40.9447 45.8101 40.9312 45.7966 40.4999 45.1497C40.4325 45.0553 40.3652 44.9745 40.3247 44.8666C39.9608 43.9771 39.3004 43.6941 38.3031 43.9906C38.3031 44.5027 38.3031 45.0688 38.3031 45.6618C37.9796 45.6618 37.737 45.6618 37.4405 45.6618C37.4405 43.5998 37.4405 41.5512 37.4405 39.4082ZM38.3031 43.0067C39.233 42.9124 40.2034 43.2898 40.7964 42.3059C41.0795 41.8207 41.066 41.3086 40.7156 40.8638C40.0687 40.0012 39.1522 40.3786 38.3031 40.3112C38.3031 41.2277 38.3031 42.0633 38.3031 43.0067Z" fill="#191919"></path><path id="Vector_46" d="M52.9127 25.5668C53.5192 25.7825 54.0853 25.8499 54.4222 26.1733C54.6244 26.362 54.6109 27.1167 54.3952 27.3189C54.0583 27.6424 53.4922 27.6963 52.8992 27.9119C52.9127 27.0628 52.9127 26.4563 52.9127 25.5668Z" fill="#191919"></path><path id="Vector_47" d="M27.4267 17.076C27.9928 17.2916 28.5723 17.359 28.8419 17.6825C29.0575 17.9251 29.0036 18.572 28.8419 18.9224C28.5858 19.5019 27.9658 19.3133 27.4267 19.3133C27.4267 18.6259 27.4267 17.979 27.4267 17.076Z" fill="#191919"></path><path id="Vector_48" d="M57.5625 56.4573C57.3064 56.4573 57.0907 56.4573 56.8481 56.4573C56.8481 55.8104 56.8481 55.1904 56.8481 54.5165C57.0773 54.4896 57.2794 54.4626 57.5625 54.4357C57.5625 55.0961 57.5625 55.7295 57.5625 56.4573Z" fill="white"></path><path id="Vector_49" d="M25.3916 58.0341C25.3916 57.5894 25.4186 57.1446 25.3781 56.6999C25.3377 56.1338 25.5803 55.9856 26.2003 56.1338C26.2003 56.6729 26.2407 57.2525 26.1733 57.8185C26.1599 57.9668 25.7825 58.0746 25.5803 58.1959C25.5129 58.142 25.459 58.0881 25.3916 58.0341Z" fill="white"></path><path id="Vector_50" d="M59.8671 59.3819C59.8671 57.549 59.8671 55.9721 59.8671 54.3144C60.1097 54.3009 60.3253 54.2875 60.6353 54.2605C60.6353 55.8508 60.6488 57.3603 60.6084 58.8698C60.6084 59.0315 60.231 59.1528 59.8671 59.3819Z" fill="white"></path><path id="Vector_51" d="M46.8748 58.2229C46.6457 58.2229 46.4974 58.2229 46.2818 58.2229C46.3627 57.7377 46.43 57.2929 46.5109 56.8481C46.5513 56.8481 46.5783 56.8481 46.6187 56.8481C46.6996 57.2659 46.7804 57.6972 46.8748 58.2229Z" fill="white"></path><path id="Vector_52" d="M31.7126 57.5894C32.1843 58.5463 32.1304 58.9776 31.4969 58.9911C31.5643 58.5328 31.6317 58.0881 31.7126 57.5894Z" fill="white"></path><path id="Vector_53" d="M54.1122 56.5516C54.1796 56.956 54.2605 57.3468 54.3414 57.8051C54.1392 57.8185 53.9775 57.832 53.7484 57.8455C53.8157 57.3738 53.8831 56.956 53.9505 56.5516C54.0179 56.5516 54.0718 56.5516 54.1122 56.5516Z" fill="white"></path><path id="Vector_54" d="M38.3031 43.0068C38.3031 42.0634 38.3031 41.2277 38.3031 40.3113C39.1522 40.3787 40.0687 40.0013 40.7156 40.8638C41.0525 41.3221 41.0795 41.8342 40.7964 42.3059C40.2034 43.2898 39.233 42.9259 38.3031 43.0068ZM39.7856 42.7103C39.7991 41.8208 39.4891 41.4973 38.5726 41.4569C38.5726 41.8747 38.5726 42.279 38.5726 42.7103C39.0039 42.7103 39.3948 42.7103 39.7856 42.7103Z" fill="white"></path><path id="Vector_55" d="M39.7856 42.7103C39.3948 42.7103 39.0039 42.7103 38.5727 42.7103C38.5727 42.279 38.5727 41.8747 38.5727 41.4568C39.4891 41.4973 39.7991 41.8207 39.7856 42.7103Z" fill="#191919"></path></g><defs><clipPath id="clip0_1868_9176"><rect width="86" height="86" fill="white"></rect></clipPath></defs></svg> 