<?xml version="1.0" encoding="UTF-8"?> <svg xmlns="http://www.w3.org/2000/svg" width="97" height="81" viewBox="0 0 97 81" fill="none"><g id="Frame" clip-path="url(#clip0_1868_9053)"><path id="Vector" d="M48.5899 80.1265C71.1543 80.1265 89.4463 62.3851 89.4463 40.5C89.4463 18.6149 71.1543 0.873474 48.5899 0.873474C26.0256 0.873474 7.73364 18.6149 7.73364 40.5C7.73364 62.3851 26.0256 80.1265 48.5899 80.1265Z" fill="white"></path><path id="Vector_2" d="M48.5899 1.74694C70.6217 1.74694 88.487 19.129 88.487 40.5291C88.487 61.9292 70.5917 79.3113 48.5599 79.2822C26.5281 79.2822 8.66284 61.9001 8.66284 40.5C8.66284 30.2221 12.8893 20.381 20.3532 13.1021C27.847 5.79403 38.0086 1.71783 48.5899 1.74694ZM48.6199 0C25.5389 0 6.86432 18.1391 6.86432 40.4709C6.86432 62.8027 25.5389 81 48.5899 81C71.6409 81 90.3455 62.89 90.3455 40.5291C90.3455 18.1682 71.6709 0 48.6199 0Z" fill="#4788F1"></path><path id="Vector_3" d="M48.56 78.0302C69.9323 78.0302 87.2281 61.2304 87.2281 40.5291C87.2281 19.8278 69.9323 3.02802 48.56 3.02802C27.1876 3.02802 9.89185 19.8278 9.89185 40.5291C9.89185 61.2304 27.2176 78.0302 48.56 78.0302Z" stroke="#4788F1" stroke-width="2" stroke-miterlimit="10" stroke-dasharray="3 3"></path><path id="Vector_4" d="M51.6474 40.8785H46.9113L47.7206 39.1898L48.4101 37.6467H50.1486L50.8381 39.1898L51.6474 40.8785Z" fill="#191919"></path><path id="Vector_5" d="M54.645 40.8785H43.8839C43.2843 40.8785 42.8047 41.3443 42.8047 41.9266V45.3041H55.6641V41.9266C55.6941 41.4026 55.2745 40.9367 54.7349 40.8785C54.7049 40.8785 54.6749 40.8785 54.645 40.8785Z" fill="#FDA73B"></path><g id="Group"><g id="Group_2"><path id="Vector_6" d="M52.3368 36.1327H46.2219V41.2862H52.3368V36.1327Z" fill="#FDA73B"></path></g></g><path id="Vector_7" d="M57.6724 20.2646H40.8863C40.5266 20.2646 40.2568 20.5557 40.2268 20.9051C40.1968 21.2545 40.4966 21.5748 40.8563 21.5748H57.6425C58.0022 21.5748 58.2719 21.2836 58.2719 20.9343C58.3319 20.5849 58.0621 20.2646 57.6724 20.2646ZM36.36 23.1179V25.2434C36.39 30.3095 39.5374 34.8807 44.3634 36.8314C47.5108 38.0834 51.0179 38.0834 54.1653 36.8314C58.9914 34.9098 62.1687 30.3386 62.1987 25.2434V23.0888L36.36 23.1179ZM60.0405 25.2725C60.0405 27.6891 59.1712 30.0475 57.5525 31.9109C55.5142 34.2984 52.4567 35.6959 49.2794 35.725C46.072 35.725 43.0145 34.3275 41.0062 31.9109C39.4175 30.0475 38.5482 27.6891 38.5182 25.2725V25.2143H59.9805V25.2725H60.0405Z" fill="#F7B556"></path><path id="Vector_8" d="M57.6724 21.5748V27.1941C57.6724 32.4349 54.3152 37.1517 49.2793 39.0442C44.2135 37.1226 40.8863 32.4058 40.8863 27.1359V21.5748H57.6724Z" fill="#FDA73B"></path><g id="Group_3"><path id="Vector_9" d="M57.6124 21.5748H40.8862V22.361H57.6124V21.5748Z" fill="#191919"></path><g id="Group_4"><path id="Vector_10" d="M59.1112 20.119H39.3875V23.8167H59.1112V20.119Z" fill="#F7B556"></path></g></g><path id="Vector_11" d="M48.53 27.5144C48.53 27.5144 48.0504 27.4561 48.0504 27.8929V29.7272H51.2277V30.2804C51.2277 30.4259 51.1078 30.5424 50.958 30.5715H50.928H48.0504V32.959H51.5275C51.5275 32.959 53.6258 32.6387 53.6557 30.5715V27.5144H48.53ZM53.4759 24.5446H47.301C45.0528 25.0686 45.0229 26.8738 45.0229 26.8738V32.959H47.4209V27.427C47.4209 27.165 47.6007 26.932 47.8705 26.8447H53.5059L53.4759 24.5446Z" fill="white"></path><path id="Vector_12" opacity="0.5" d="M29.106 69.4119L29.076 69.3828C29.076 69.3828 29.076 69.4119 29.106 69.4119ZM24.4898 65.7725C24.4599 65.7434 24.4898 65.7725 24.4898 65.7725V65.7725ZM15.1675 36.5403C15.1675 36.5112 15.1675 36.5112 15.1675 36.5403C15.1675 36.5112 15.1675 36.5112 15.1675 36.5403Z" fill="#4385F4"></path><g id="Group_5"><path id="Vector_13" d="M47.8405 70.7513C44.903 70.8678 41.9354 70.5475 39.1177 69.7323C40.1369 68.4512 38.4583 67.1992 36.8696 65.9763L33.5124 63.5306C33.4824 63.5597 35.4907 65.5105 35.3109 67.1992C35.2509 67.5777 35.2509 67.9853 35.3409 68.3638C34.8912 68.16 34.4416 67.9562 33.992 67.7233C35.161 66.6169 33.8421 65.0446 32.5532 63.5597C31.2043 62.0457 29.8254 60.5899 29.8254 60.5608C29.8254 60.5317 31.3242 62.8609 30.8146 64.5205C30.6947 64.899 30.6048 65.2775 30.6347 65.6852C30.2451 65.394 29.8554 65.132 29.4657 64.8117C30.7846 63.9091 29.8254 62.1039 28.8662 60.4152C27.847 58.6974 26.8279 57.0378 26.8279 57.0378C26.8279 57.0378 27.847 59.5417 27.0377 61.1431C26.8279 61.4925 26.708 61.871 26.648 62.2786C26.3183 61.9292 25.9886 61.5798 25.6888 61.2305C27.0976 60.5317 26.5581 58.61 25.9586 56.7757C25.2991 54.9123 24.5797 53.1945 24.5797 53.1654C24.5797 53.1363 25.1193 55.7567 24.0402 57.2416C23.7704 57.5619 23.5905 57.9113 23.4407 58.3189C23.1709 57.9404 22.9311 57.5328 22.6913 57.1543C24.19 56.6302 24.0102 54.6794 23.7404 52.816C23.4107 50.9235 23.021 49.1183 23.021 49.0892C23.021 49.0601 23.1109 51.7096 21.792 53.0198C21.4923 53.311 21.2225 53.6312 21.0426 53.9806C20.9227 53.7186 20.8028 53.4566 20.6829 53.1945C20.593 52.9907 20.5031 52.7869 20.4431 52.5831C21.9719 52.321 22.0918 50.4285 22.1517 48.6816C22.1517 46.8764 22.0318 45.1586 22.0318 45.1586C22.0318 45.1586 21.7321 47.5752 20.2933 48.6525C19.9635 48.8854 19.6638 49.1474 19.424 49.4677C19.2741 48.9145 19.1242 48.3613 19.0343 47.779C20.5331 47.7499 20.9527 46.032 21.2525 44.3724C21.5522 42.7128 21.6721 41.0824 21.6421 41.0824C21.6122 41.0824 21.0426 43.2952 19.5439 44.0813C19.1842 44.256 18.8544 44.4889 18.5847 44.7509C18.5247 44.1104 18.4648 43.4699 18.4348 42.8293C19.8736 43.004 20.5031 41.4609 20.9827 39.976C21.2824 38.986 21.5522 37.9961 21.762 36.977C21.7321 36.977 20.9227 38.9569 19.424 39.481C19.0643 39.5975 18.7345 39.7721 18.4048 40.0051C18.4348 39.4519 18.4648 38.8696 18.4947 38.3164C18.4947 38.1708 18.5247 38.0543 18.5247 37.9087C19.8436 38.2581 20.653 36.8897 21.2525 35.5795C21.852 34.2693 22.3316 32.8717 22.3316 32.8717C22.3316 32.8717 21.3124 34.6187 19.8436 34.9389C19.4839 34.9972 19.1542 35.1136 18.8544 35.2592C18.9743 34.5022 19.1242 33.7743 19.2741 33.0464C20.4132 33.5123 21.3124 32.3476 22.0318 31.2121C22.5114 30.426 22.9311 29.5816 23.3208 28.7664C23.3208 28.7664 22.1817 30.3095 20.8028 30.426C20.5031 30.426 20.2033 30.4842 19.9336 30.6007C20.1734 29.8437 20.4132 29.0576 20.6829 28.3005C21.6421 28.7955 22.6014 27.8347 23.3507 26.8448C23.8903 26.1169 24.3699 25.389 24.8195 24.6028C24.8195 24.6028 23.5905 26.0004 22.3016 25.9131C22.0618 25.8839 21.822 25.9131 21.5822 25.9422C21.9119 25.2143 22.2417 24.4573 22.6014 23.7003L22.6613 23.5547C23.4706 24.0496 24.3999 23.2635 25.2092 22.3901C25.8087 21.7204 26.3483 21.0216 26.8878 20.3228C26.8878 20.3228 25.5689 21.6039 24.3999 21.371C24.1601 21.3128 23.9203 21.2837 23.6805 21.3128C24.4898 19.6532 25.3891 18.0518 26.3782 16.4796C25.2392 18.0809 24.25 19.6532 23.3807 21.2254C23.2908 20.9343 23.1409 20.6722 22.9611 20.4393C22.6014 19.9443 22.5714 19.1873 22.7213 18.5177C22.8112 18.11 22.9311 17.7024 23.1109 17.2948C22.5114 18.2265 22.0318 19.2164 21.7021 20.2646C21.2525 21.7495 21.2525 23.1179 22.3016 23.2926C21.882 24.1079 21.4923 24.9231 21.1625 25.7384C21.0127 25.5054 20.8328 25.3016 20.653 25.1269C20.1734 24.6902 20.0535 23.9041 20.0834 23.2344C20.1134 22.7977 20.1734 22.39 20.2933 21.9824C19.8137 22.9724 19.454 24.0496 19.2441 25.1269C18.9743 26.6118 19.1842 28.0094 20.2333 28.1259C19.9635 28.8829 19.7237 29.6108 19.4839 30.3678C19.3041 30.164 19.0942 30.0184 18.8844 29.8728C17.7154 29.1449 17.9552 26.903 17.9852 26.7283C17.6255 27.8056 17.4156 28.912 17.3257 30.0475C17.2658 31.5906 17.6554 32.9882 18.7645 32.9882C18.7645 32.9882 18.7645 32.9882 18.7645 33.0173C18.6146 33.7161 18.4947 34.3857 18.3748 35.0845C18.165 34.9098 17.9252 34.7934 17.6854 34.6769C16.3665 34.0946 16.3065 31.7653 16.3365 31.5906C16.0967 32.7553 16.0068 33.9199 16.0967 35.1136C16.2466 36.715 16.8461 38.1417 18.0151 37.9961C17.9552 38.6366 17.9252 39.2772 17.8952 39.9468C17.6554 39.8013 17.3857 39.6848 17.0859 39.5975C15.6471 39.1607 15.2274 36.8606 15.2274 36.5985C15.1375 37.8214 15.2274 39.0734 15.4672 40.2671C15.8269 41.9267 16.7262 43.3825 17.9252 43.0331C17.9552 43.6154 18.0151 44.2269 18.0751 44.8092C17.7753 44.6636 17.4756 44.5762 17.1459 44.518C15.5572 44.256 14.8078 41.8394 14.7478 41.6064C14.8378 42.9166 15.1075 44.2269 15.5572 45.4788C16.1866 47.1967 17.3857 48.6525 18.6146 48.0119C18.7345 48.5651 18.8544 49.0892 19.0043 49.6424C18.6446 49.5259 18.2849 49.4677 17.9252 49.4677C16.1866 49.4095 15.0176 46.8764 14.9577 46.7017C15.2574 48.0993 15.737 49.4386 16.3965 50.6906C17.3557 52.4666 18.8544 53.8351 20.0535 52.9034C20.2333 53.3692 20.4431 53.8642 20.653 54.33C20.2633 54.2427 19.8436 54.2427 19.424 54.2718C17.5655 54.4756 15.8869 51.8552 15.8869 51.7678C16.3965 53.1945 17.1459 54.5338 18.0751 55.7567C19.394 57.5036 21.2525 58.7556 22.3316 57.5328C22.5714 57.9113 22.8112 58.3189 23.081 58.6974C22.6613 58.6683 22.2716 58.6974 21.852 58.8138C20.0235 59.2797 17.8653 56.8049 17.8952 56.7757C18.6446 58.1442 19.6038 59.3962 20.7429 60.4734C22.3616 62.0457 24.4598 63.0065 25.3291 61.6381C25.6289 61.9875 25.9586 62.3369 26.3183 62.6862C25.8986 62.7154 25.509 62.8027 25.1193 62.9483C23.4107 63.6471 21.0127 61.7836 20.8028 61.5507C21.792 62.8027 22.991 63.88 24.3399 64.7826C26.2883 66.0928 28.5664 66.7042 29.1959 65.2484C29.5856 65.5687 29.9753 65.8599 30.3949 66.1219C29.9753 66.2092 29.5556 66.3839 29.1959 66.5878C27.6372 67.4903 24.8495 66.0346 24.5797 65.8307C25.8387 66.908 27.2176 67.8106 28.7463 68.4803C30.9645 69.4702 33.3925 69.674 33.7821 68.1891C34.2318 68.422 34.6814 68.655 35.161 68.8588C34.7713 69.0044 34.3816 69.2373 34.0519 69.4993C32.6131 70.6348 29.5556 69.6449 29.1959 69.4993C30.6647 70.3728 32.2834 71.0133 33.962 71.3918C36.42 71.9742 38.9379 71.7704 39.0578 70.2563C41.9354 71.0716 44.903 71.421 47.9005 71.2754L47.8405 70.7513Z" fill="#A2C3F7"></path></g><path id="Vector_14" d="M60.2204 63.8217C60.3103 63.7344 60.3403 63.6179 60.3403 63.4723C60.3403 63.4432 60.3403 63.4141 60.3403 63.3267C60.3403 63.2394 60.3403 63.2103 60.3403 63.1812C60.3403 63.0647 60.3103 62.9482 60.2204 62.8318C60.1304 62.7444 60.0405 62.7153 59.9206 62.7153C59.8007 62.7153 59.7108 62.7444 59.6209 62.8318C59.5309 62.9191 59.501 63.0356 59.501 63.1812V63.3267V63.4723C59.501 63.5888 59.5309 63.7053 59.6209 63.8217C59.7108 63.9091 59.8007 63.9382 59.9206 63.9382C60.0405 63.9382 60.1604 63.8799 60.2204 63.8217ZM59.2911 64.0838C59.1413 63.9382 59.0513 63.7344 59.0513 63.5014V63.1812C59.0513 62.9482 59.1413 62.7444 59.2911 62.5989C59.6808 62.3077 60.1904 62.3077 60.5801 62.5989C60.7299 62.7444 60.8199 62.9482 60.8199 63.1812C60.8199 63.2103 60.8199 63.2685 60.8199 63.3267C60.8199 63.385 60.8199 63.4432 60.8199 63.4723C60.8199 63.7053 60.7299 63.9091 60.5801 64.0546C60.1904 64.3458 59.6808 64.3458 59.2911 64.0838ZM57.2228 64.0838C57.073 63.9382 56.983 63.7344 56.983 63.5014V63.3559V63.2103C56.983 62.9774 57.073 62.7736 57.2228 62.628C57.4027 62.4824 57.6125 62.395 57.8523 62.4242C58.0322 62.4242 58.182 62.4533 58.3319 62.5115C58.4518 62.5697 58.5418 62.6571 58.6317 62.7444C58.6916 62.8318 58.7216 62.9191 58.7216 63.0065C58.7216 63.0356 58.7216 63.0647 58.6916 63.0647C58.6617 63.0938 58.6617 63.0938 58.6317 63.0938H58.3019C58.272 63.0938 58.272 63.0938 58.242 63.0938C58.212 63.0647 58.212 63.0647 58.212 63.0356C58.182 62.9482 58.1221 62.89 58.0621 62.8318C58.0022 62.8027 57.9123 62.7736 57.8223 62.7736C57.7024 62.7736 57.6125 62.8027 57.5226 62.89C57.4327 62.9774 57.4027 63.1229 57.4027 63.2394V63.4723C57.4327 63.7635 57.5526 63.9382 57.7924 63.9382C57.8823 63.9382 57.9422 63.9091 58.0322 63.8799C58.0921 63.8217 58.1521 63.7635 58.182 63.6761C58.182 63.647 58.212 63.647 58.212 63.6179C58.242 63.6179 58.242 63.5888 58.272 63.5888H58.6017C58.6317 63.5888 58.6616 63.5888 58.6616 63.6179C58.6916 63.647 58.6916 63.647 58.6916 63.6761C58.6916 63.7635 58.6617 63.8508 58.6017 63.9382C58.5118 64.0546 58.4218 64.142 58.3019 64.1711C58.1521 64.2293 57.9722 64.2876 57.8223 64.2876C57.6125 64.3167 57.4027 64.2293 57.2228 64.0838ZM56.1138 64.2293C56.0838 64.2002 56.0838 64.2002 56.0838 64.1711V63.8217C56.0838 63.7926 56.1138 63.7344 56.1437 63.7344H56.5034C56.5334 63.7344 56.5334 63.7344 56.5634 63.7635C56.5934 63.7926 56.5934 63.7926 56.5934 63.8217V64.1711C56.5934 64.2002 56.5934 64.2002 56.5634 64.2293C56.5334 64.2585 56.5334 64.2585 56.5034 64.2585H56.1437C56.1737 64.2585 56.1437 64.2585 56.1138 64.2293ZM54.4651 64.2002C54.3752 64.1711 54.2553 64.0838 54.1953 64.0255C54.1354 63.9673 54.1054 63.9091 54.1054 63.8508C54.1054 63.8217 54.1054 63.8217 54.1354 63.7926C54.1654 63.7926 54.1654 63.7635 54.1953 63.7635H54.4951C54.5251 63.7635 54.5251 63.7635 54.555 63.7926L54.645 63.8508C54.7349 63.9382 54.8548 63.9673 54.9747 63.9673C55.0646 63.9673 55.1246 63.9382 55.2145 63.9091C55.2744 63.8799 55.3044 63.8217 55.3044 63.7635C55.3044 63.7344 55.3044 63.6761 55.2744 63.647C55.2445 63.6179 55.1845 63.5888 55.1246 63.5597C55.0047 63.5306 54.9147 63.5014 54.7948 63.4723C54.615 63.4432 54.4651 63.385 54.3452 63.2685C54.2553 63.1812 54.1953 63.0647 54.1953 62.9191C54.1953 62.8318 54.2253 62.7444 54.2853 62.6571C54.3452 62.5697 54.4351 62.5115 54.555 62.4533C54.6749 62.395 54.8248 62.3659 54.9747 62.3659C55.1246 62.3659 55.2744 62.395 55.3943 62.4533C55.4843 62.4824 55.5742 62.5697 55.6641 62.628C55.7241 62.6862 55.754 62.7444 55.754 62.8027C55.754 62.8318 55.754 62.8318 55.7241 62.8609C55.7241 62.89 55.6941 62.89 55.6641 62.89H55.3943C55.3644 62.89 55.3344 62.89 55.3344 62.8609C55.3044 62.8318 55.2744 62.8318 55.2445 62.8027C55.2145 62.7735 55.1545 62.7444 55.1246 62.7153C55.0646 62.6862 55.0047 62.6862 54.9447 62.6862C54.8848 62.6862 54.7948 62.6862 54.7349 62.7444C54.6749 62.7735 54.6749 62.8318 54.6749 62.89C54.6749 62.9191 54.6749 62.9774 54.7049 63.0065C54.7349 63.0356 54.7948 63.0647 54.8548 63.0938C54.9447 63.1229 55.0646 63.1521 55.1545 63.1812C55.5742 63.2685 55.814 63.4432 55.814 63.7344C55.814 63.9091 55.7241 64.0546 55.6042 64.142C55.4243 64.2585 55.2145 64.3167 54.9747 64.2876C54.7649 64.2876 54.585 64.2585 54.4651 64.2002ZM50.988 64.2293C50.958 64.2002 50.958 64.2002 50.958 64.1711V62.5115C50.958 62.4824 50.958 62.4533 50.988 62.4533C51.018 62.4533 51.018 62.4242 51.0479 62.4242H51.3177C51.3477 62.4242 51.3777 62.4242 51.3777 62.4533C51.4076 62.4824 51.4076 62.4824 51.4076 62.5115V62.628C51.5275 62.4824 51.7374 62.395 51.9172 62.395C52.157 62.3659 52.3668 62.5115 52.4867 62.7153C52.5467 62.628 52.6366 62.5406 52.7265 62.4824C52.8165 62.4242 52.9364 62.395 53.0563 62.395C53.2361 62.395 53.416 62.4533 53.5359 62.5989C53.6558 62.7444 53.7457 62.9482 53.7157 63.1521V64.142C53.7157 64.1711 53.7157 64.1711 53.6858 64.2002C53.6558 64.2293 53.6558 64.2293 53.6258 64.2293H53.326C53.2961 64.2293 53.2661 64.2293 53.2661 64.2002C53.2361 64.1711 53.2361 64.1711 53.2361 64.142V63.1521C53.2361 63.0356 53.2062 62.9191 53.1462 62.8318C53.0862 62.7735 52.9963 62.7153 52.9064 62.7444C52.8165 62.7444 52.7265 62.7735 52.6666 62.8318C52.6066 62.9191 52.5467 63.0356 52.5767 63.1521V64.142C52.5767 64.1711 52.5767 64.1711 52.5467 64.2002C52.5167 64.2293 52.5167 64.2293 52.4867 64.2293H52.187C52.127 64.2293 52.0971 64.2002 52.0971 64.142V63.1521C52.0971 63.0356 52.0671 62.9191 52.0071 62.8318C51.9472 62.7735 51.8573 62.7444 51.7673 62.7444C51.6774 62.7444 51.5875 62.7735 51.5275 62.8318C51.4676 62.9191 51.4076 63.0356 51.4376 63.1521V64.142C51.4376 64.1711 51.4376 64.1711 51.4076 64.2002C51.3777 64.2293 51.3777 64.2293 51.3477 64.2293H51.0479C51.018 64.2585 50.988 64.2585 50.988 64.2293ZM49.4892 64.2293C49.4592 64.2002 49.4592 64.2002 49.4592 64.1711V62.5406C49.4592 62.5115 49.4592 62.4824 49.4892 62.4824C49.5192 62.4533 49.5192 62.4533 49.5492 62.4533H49.8489C49.8789 62.4533 49.9089 62.4533 49.9089 62.4824C49.9388 62.5115 49.9388 62.5115 49.9388 62.5406V62.6862C50.0587 62.5406 50.2686 62.4533 50.4484 62.4533H50.5983C50.6283 62.4533 50.6583 62.4533 50.6583 62.4824C50.6882 62.5115 50.6882 62.5115 50.6882 62.5406V62.8027C50.6882 62.8318 50.6882 62.8318 50.6583 62.8609C50.6283 62.89 50.6283 62.89 50.5983 62.89H50.3285C50.2386 62.89 50.1487 62.9191 50.0587 62.9774C49.9988 63.0356 49.9688 63.1521 49.9688 63.2394V64.2002C49.9688 64.2293 49.9688 64.2293 49.9388 64.2585C49.9089 64.2876 49.9089 64.2876 49.8789 64.2876H49.5492C49.5192 64.2585 49.4892 64.2585 49.4892 64.2293ZM47.4809 64.2293C47.4509 64.2002 47.4509 64.2002 47.4509 64.1711V62.8027H47.1511C47.1212 62.8027 47.0612 62.7735 47.0612 62.7444V62.5406C47.0612 62.5115 47.0612 62.5115 47.0912 62.4824C47.1212 62.4533 47.1212 62.4533 47.1511 62.4533H47.4509V62.3077C47.4509 62.133 47.5108 61.9583 47.6307 61.8418C47.7806 61.7254 47.9605 61.6671 48.1703 61.6963H48.9197C48.9497 61.6963 48.9796 61.6963 48.9796 61.7254C49.0096 61.7545 49.0096 61.7545 49.0096 61.7836V61.9874C49.0096 62.0165 49.0096 62.0457 48.9796 62.0457C48.9497 62.0748 48.9497 62.0748 48.9197 62.0748H48.2003C48.1403 62.0748 48.0504 62.1039 47.9905 62.133C47.9605 62.1912 47.9305 62.2786 47.9305 62.3368V62.4533H48.9197C48.9497 62.4533 48.9796 62.4533 48.9796 62.4824C49.0096 62.5115 49.0096 62.5115 49.0096 62.5406V64.2002C49.0096 64.2293 49.0096 64.2293 48.9796 64.2585C48.9497 64.2876 48.9497 64.2876 48.9197 64.2876H48.6199C48.56 64.2876 48.53 64.2585 48.53 64.2002V62.8318H47.9305V64.2002C47.9305 64.2293 47.9305 64.2293 47.9005 64.2585C47.8706 64.2876 47.8706 64.2876 47.8406 64.2876H47.5408C47.5108 64.2585 47.4809 64.2585 47.4809 64.2293ZM46.132 63.7926C46.1919 63.7053 46.2519 63.5888 46.2519 63.4723C46.2519 63.4432 46.2519 63.385 46.2519 63.3267C46.2519 63.2685 46.2519 63.2103 46.2519 63.1812C46.2519 63.0647 46.2219 62.9774 46.132 62.89C46.0421 62.8027 45.9521 62.7736 45.8322 62.7736C45.5625 62.7736 45.4426 62.9191 45.4126 63.2394V63.4432C45.4426 63.7344 45.5625 63.9091 45.8322 63.9091C45.9521 63.9382 46.072 63.8799 46.132 63.7926ZM45.1428 64.0838C44.9929 63.9091 44.933 63.7053 44.933 63.4723V63.2394C44.933 63.0356 44.9929 62.8027 45.1428 62.628C45.2927 62.4824 45.5025 62.395 45.7123 62.395C45.9222 62.395 46.132 62.4824 46.2519 62.628V61.8418C46.2519 61.8127 46.2519 61.7836 46.2819 61.7836C46.3118 61.7836 46.3118 61.7545 46.3418 61.7545H46.6416C46.6715 61.7545 46.7015 61.7545 46.7015 61.7836C46.7315 61.8127 46.7315 61.8127 46.7315 61.8418V64.1711C46.7315 64.2002 46.7315 64.2002 46.7015 64.2293C46.6715 64.2585 46.6715 64.2585 46.6416 64.2585H46.3418C46.2819 64.2585 46.2519 64.2293 46.2519 64.1711V64.0546C45.9821 64.3749 45.4725 64.404 45.1728 64.1129C45.1428 64.1129 45.1428 64.0838 45.1428 64.0838ZM44.0037 63.8508C44.0937 63.7635 44.1236 63.647 44.1236 63.5014C44.1236 63.4723 44.1236 63.4432 44.1236 63.3559C44.1236 63.2685 44.1236 63.2394 44.1236 63.2103C44.1236 63.0938 44.0937 62.9774 44.0037 62.8609C43.9138 62.7735 43.8239 62.7444 43.704 62.7444C43.5841 62.7444 43.4942 62.7735 43.4042 62.8609C43.3143 62.9482 43.2843 63.0647 43.2843 63.2103V63.4723C43.2843 63.5888 43.3143 63.7053 43.4042 63.8217C43.4942 63.9091 43.5841 63.9382 43.704 63.9382C43.8239 63.9673 43.9438 63.9091 44.0037 63.8508ZM43.0445 64.0838C42.8947 63.9382 42.8047 63.7344 42.8047 63.5014V63.1812C42.8047 62.9482 42.8947 62.7444 43.0445 62.5989C43.2244 62.4533 43.4642 62.3659 43.704 62.395C43.9438 62.395 44.1836 62.4533 44.3634 62.5989C44.5133 62.7444 44.6032 62.9482 44.6032 63.1812C44.6032 63.2103 44.6032 63.2685 44.6032 63.3267C44.6032 63.385 44.6032 63.4432 44.6032 63.4723C44.6032 63.7053 44.5133 63.9091 44.3634 64.0546C43.9738 64.3749 43.4342 64.3749 43.0445 64.0838ZM41.8755 63.8508C41.9654 63.7635 41.9954 63.647 41.9954 63.5014C41.9954 63.4432 41.9954 63.4141 41.9954 63.3559C41.9954 63.2976 41.9954 63.2685 41.9954 63.2103C41.9954 63.0938 41.9654 62.9774 41.8755 62.8609C41.7856 62.7735 41.6956 62.7444 41.5757 62.7444C41.4558 62.7444 41.3659 62.7735 41.276 62.8609C41.1861 62.9482 41.1561 63.0647 41.1561 63.2103V63.4723C41.1561 63.5888 41.1861 63.7053 41.276 63.8217C41.4259 63.9964 41.6956 63.9964 41.8755 63.8508ZM40.9163 64.0838C40.7664 63.9382 40.6765 63.7344 40.6765 63.5014V63.1812C40.6765 62.9482 40.7664 62.7444 40.9163 62.5989C41.306 62.3077 41.8155 62.3077 42.2052 62.5989C42.3551 62.7444 42.445 62.9482 42.445 63.1812C42.445 63.2103 42.445 63.2685 42.445 63.3267C42.445 63.385 42.445 63.4432 42.445 63.4723C42.445 63.7053 42.3551 63.9091 42.2052 64.0546C41.8455 64.3749 41.306 64.3749 40.9163 64.0838ZM39.6573 63.7635C39.7173 63.6761 39.7772 63.5597 39.7772 63.4432C39.7772 63.4141 39.7772 63.3559 39.7772 63.3267C39.7772 63.2976 39.7772 63.2394 39.7772 63.2103C39.7772 63.0938 39.7473 62.9774 39.6573 62.89C39.5974 62.8027 39.4775 62.7736 39.3576 62.7736C39.0878 62.7736 38.9679 62.9191 38.9379 63.2394V63.3267C38.9379 63.7053 39.0878 63.8799 39.3576 63.8799C39.4775 63.8799 39.5974 63.8508 39.6573 63.7635ZM38.848 64.9281C38.7281 64.8699 38.6382 64.7825 38.5782 64.6952C38.5183 64.637 38.4883 64.5496 38.4883 64.4623C38.4883 64.4331 38.4883 64.4331 38.5183 64.404C38.5482 64.404 38.5482 64.3749 38.5782 64.3749H38.9079C38.9379 64.3749 38.9379 64.3749 38.9679 64.404C38.9979 64.4331 38.9979 64.4331 38.9979 64.4623C39.0278 64.5205 39.0578 64.5787 39.1178 64.6078C39.1777 64.6661 39.2676 64.6661 39.3576 64.6661C39.5374 64.6952 39.7472 64.5787 39.7772 64.404C39.7772 64.3458 39.7772 64.3167 39.7772 64.2585V64.0255C39.4775 64.3167 38.9679 64.3167 38.6681 64.0255C38.5482 63.8508 38.4583 63.647 38.4583 63.4141V63.3267V63.2394C38.4583 63.0356 38.5183 62.8027 38.6681 62.628C38.818 62.4824 39.0278 62.395 39.2377 62.395C39.3576 62.395 39.4775 62.4242 39.5674 62.4533C39.6573 62.5115 39.7473 62.5697 39.8072 62.628V62.4824C39.8072 62.4533 39.8072 62.4242 39.8372 62.4242C39.8671 62.395 39.8672 62.395 39.8971 62.395H40.1969C40.2269 62.395 40.2568 62.395 40.2568 62.4242C40.2868 62.4533 40.2868 62.4533 40.2868 62.4824V64.1711C40.3168 64.404 40.2269 64.6078 40.077 64.7825C39.8971 64.9281 39.6573 65.0155 39.4175 64.9863C39.2077 65.0446 39.0278 64.9863 38.848 64.9281Z" fill="#191919"></path><path id="Vector_15" d="M97 48.1574H86.089V64.3458H97L93.4929 56.7466L97 48.1574ZM0 48.1574H10.911V64.3458H0L3.50711 56.7466L0 48.1574Z" fill="#3174C4"></path><path id="Vector_16" d="M49.5491 70.955C52.5167 71.0715 55.4842 70.7512 58.3619 69.936C57.3427 68.6549 59.0213 67.3738 60.64 66.1509C62.3186 64.9281 64.0272 63.7052 64.0272 63.7052C64.0272 63.7052 62.0189 65.6851 62.2287 67.4029C62.2886 67.7814 62.2886 68.1891 62.1987 68.5676C62.6483 68.3637 63.1279 68.1599 63.5776 67.927C62.3786 66.8206 63.7274 65.2484 65.0164 63.7635C66.3952 62.2494 67.7741 60.7645 67.7741 60.7645C67.7741 60.7645 66.2454 63.0647 66.7549 64.7534C66.8748 65.1319 66.9648 65.5104 66.9348 65.918C67.3245 65.6269 67.7142 65.3648 68.1038 65.0445C66.7549 64.142 67.7441 62.3368 68.7033 60.6481C69.7225 58.9302 70.7716 57.2706 70.7716 57.2706C70.7716 57.2706 69.7525 59.7746 70.5618 61.376C70.7716 61.7254 70.8915 62.1039 70.9515 62.5115C71.2812 62.1621 71.6109 61.8127 71.9107 61.4633C70.4719 60.7645 71.0414 58.8138 71.6409 57.0086C72.3303 55.1452 73.0498 53.4274 73.0198 53.3983C73.0498 53.3983 72.4802 55.9896 73.5593 57.4745C73.8291 57.7947 74.009 58.1441 74.1588 58.5517C74.4286 58.1732 74.6684 57.7656 74.9082 57.3871C73.3795 56.863 73.5893 54.8832 73.8591 53.0197C74.1888 51.0981 74.5785 49.322 74.5785 49.2929C74.5785 49.2638 74.4886 51.9133 75.8075 53.2236C76.1072 53.5147 76.377 53.835 76.5868 54.2135C76.7067 53.9514 76.8266 53.6894 76.9465 53.3983C77.0365 53.1944 77.1264 52.9906 77.1863 52.7868C75.6576 52.4957 75.5077 50.6323 75.4778 48.8562C75.4778 47.051 75.5977 45.3332 75.5977 45.3041C75.5977 45.275 75.8974 47.7498 77.3362 48.798C77.666 49.0309 77.9657 49.2929 78.2055 49.6132C78.3554 49.06 78.5053 48.4777 78.6252 47.9245C77.0964 47.8954 76.6768 46.1484 76.407 44.5179C76.1372 42.8875 76.0173 41.2279 76.0173 41.2279C76.0173 41.2279 76.6468 43.4407 78.1456 44.2268C78.5053 44.4015 78.835 44.6344 79.1048 44.8965C79.1647 44.2559 79.2247 43.6154 79.2546 42.9748C77.7859 43.1495 77.1863 41.6064 76.6768 40.0924C76.377 39.1024 76.1072 38.1125 75.8974 37.0934C75.9274 37.0934 76.7367 39.0733 78.2655 39.6265C78.6252 39.743 78.9849 39.9177 79.2846 40.1506C79.2546 39.5683 79.2546 39.0151 79.1947 38.4328C79.1947 38.2872 79.1647 38.1707 79.1647 38.0251C77.8458 38.3745 77.0365 37.0061 76.407 35.6959C75.7775 34.3857 75.3279 32.9881 75.3279 32.9881C75.3279 32.9881 76.347 34.7351 77.8158 35.0553C78.1755 35.1136 78.5053 35.23 78.805 35.4047C78.6851 34.6477 78.5352 33.9198 78.3554 33.1628C77.1863 33.6287 76.2871 32.464 75.5677 31.2994C75.0881 30.5133 74.6384 29.6689 74.2488 28.8246C74.2787 28.8246 75.3878 30.3968 76.7967 30.4842C77.0964 30.4842 77.3962 30.5424 77.6959 30.6589C77.4561 29.8727 77.2163 29.1157 76.9465 28.3587C75.9574 28.8537 75.0281 27.8929 74.2488 26.9029C73.7092 26.175 73.1996 25.418 72.75 24.661C72.78 24.661 73.979 26.0586 75.2679 25.9712C75.5077 25.9421 75.7475 25.9712 75.9873 26.0003C75.6576 25.2433 75.3279 24.5154 74.9682 23.7584L74.9082 23.6128C74.0989 24.1078 73.1397 23.3217 72.3603 22.4482C71.7608 21.7786 71.1913 21.0798 70.6817 20.381C70.7117 20.381 72.0006 21.6621 73.1697 21.4292C73.4095 21.3709 73.6493 21.3709 73.919 21.4C73.1097 19.7404 72.2104 18.11 71.1913 16.5668C72.3303 18.1682 73.3195 19.7696 74.2188 21.3127C74.3087 21.0215 74.4586 20.7595 74.6684 20.5266C75.0281 20.0316 75.0581 19.2746 74.9082 18.5758C74.8183 18.1682 74.6984 17.7606 74.5185 17.353C75.1181 18.2847 75.5977 19.3037 75.9574 20.3519C76.407 21.8368 76.407 23.2343 75.3579 23.409C75.7775 24.2243 76.1672 25.0395 76.5269 25.8548C76.6768 25.6218 76.8566 25.418 77.0664 25.2433C77.5461 24.8066 77.666 24.0205 77.636 23.3508C77.606 22.9141 77.546 22.5064 77.4261 22.0988C77.9058 23.0888 78.2655 24.166 78.4753 25.2433C78.7451 26.7282 78.5352 28.1258 77.4561 28.2422C77.7259 28.9993 77.9657 29.7563 78.2055 30.4842C78.3854 30.3095 78.5952 30.1348 78.805 29.9892C79.974 29.2613 79.7342 27.0194 79.7043 26.8447C80.064 27.922 80.3038 29.0284 80.3637 30.1639C80.4237 31.707 80.034 33.1046 78.9249 33.1337C78.9249 33.1337 78.9249 33.1337 78.9249 33.1628C79.0748 33.8616 79.2247 34.5312 79.3146 35.23C79.5244 35.0553 79.7642 34.9098 80.004 34.7933C81.3229 34.1819 81.4129 31.8526 81.3829 31.6779C81.6227 32.8425 81.7126 34.0072 81.6227 35.2009C81.4728 36.8023 80.8733 38.2289 79.6743 38.0834C79.7342 38.7239 79.7642 39.3645 79.7942 40.0341C80.034 39.8885 80.3038 39.7721 80.6035 39.6847C82.0423 39.248 82.462 36.9479 82.492 36.6567C82.5819 37.9087 82.492 39.1315 82.2522 40.3544C81.8925 42.014 80.9932 43.4698 79.7642 43.1204C79.7342 43.7027 79.6743 44.3141 79.6143 44.8965C79.9141 44.7509 80.2438 44.6635 80.5436 44.6053C82.1323 44.3433 82.9116 41.8975 82.9416 41.6646C82.8517 42.9748 82.5819 44.285 82.1323 45.537C81.5028 47.2839 80.3038 48.7106 79.0748 48.0992C78.9549 48.6524 78.835 49.1765 78.6851 49.7297C79.0448 49.6132 79.4045 49.555 79.7942 49.555C81.5328 49.4967 82.7318 46.9346 82.7618 46.789C82.492 48.1865 81.9824 49.5259 81.293 50.7778C80.3338 52.5539 78.805 53.9515 77.606 52.9906C77.4261 53.4565 77.2163 53.9515 77.0065 54.4173C77.3962 54.33 77.8158 54.33 78.2355 54.3591C80.0939 54.5629 81.8025 51.9425 81.8025 51.8551C81.293 53.2818 80.5436 54.6502 79.6143 55.8731C78.2954 57.62 76.407 58.872 75.3279 57.6492C75.0881 58.0568 74.8183 58.4353 74.5785 58.8138C74.9982 58.7847 75.4178 58.8138 75.8075 58.9302C77.6659 59.3961 79.8242 56.9213 79.7942 56.8921C79.0148 58.2897 78.0556 59.5417 76.8566 60.619C75.208 62.1912 73.1097 63.1811 72.2404 61.7836C71.9107 62.133 71.6109 62.4824 71.2512 62.8318C71.6709 62.8609 72.0905 62.9773 72.4802 63.1229C74.1588 63.7926 76.6168 61.9 76.8266 61.6962C75.8075 62.9482 74.6085 64.0255 73.2896 64.9281C71.3112 66.2383 69.0331 66.8497 68.4036 65.3939C68.0139 65.7142 67.6242 66.0054 67.2046 66.2965C67.6242 66.3839 68.0139 66.5586 68.4036 66.7624C69.9923 67.665 72.78 66.1801 73.0797 66.0054C71.8208 67.0826 70.4119 67.9852 68.8832 68.6549C66.635 69.6448 64.1771 69.8486 63.8174 68.3637C63.3677 68.5967 62.8881 68.8296 62.4385 69.0334C62.8282 69.179 63.2179 69.4119 63.5476 69.6448C64.9864 70.7803 68.1038 69.7904 68.4336 69.6448C66.9348 70.5183 65.3461 71.1589 63.6675 71.5665C61.1795 72.1488 58.6616 71.945 58.5417 70.431C55.6641 71.2462 52.6366 71.5956 49.6391 71.45L49.5491 70.955Z" fill="#A2C3F7"></path><path id="Vector_17" d="M91.6044 42.5964L86.089 48.1284V64.3167L91.6044 58.9885V42.5964ZM5.51541 42.5964L11.0608 48.3613V64.3458L5.51541 58.9885V42.5964Z" fill="#3E5A79"></path><path id="Vector_18" d="M5.39557 58.9303H91.6045V42.5381H5.39557V58.9303Z" fill="#4788F1"></path><path id="Vector_19" d="M49.0396 4.94971L50.8081 8.41448L54.7649 8.96768L51.9172 11.6754L52.6067 15.4896L49.0696 13.6844L45.5325 15.4896L46.2219 11.6754L43.3443 8.96768L47.301 8.41448L49.0396 4.94971Z" fill="#FDA73B"></path><path id="Vector_20" d="M38.0686 11.7337L37.0195 9.63733L35.9704 11.7337L33.6023 12.0539L35.3109 13.6844L34.8913 15.9554L37.0195 14.8782L39.1477 15.9554L38.7281 13.6844L40.4667 12.0539L38.0686 11.7337Z" fill="#FDA73B"></path><path id="Vector_21" d="M64.5068 12.0539L62.1387 11.7337L61.0596 9.63733L60.0105 11.7337L57.6425 12.0539L59.351 13.6844L58.9314 15.9554L61.0596 14.8782L63.1879 15.9554L62.7682 13.6844L64.5068 12.0539Z" fill="#FDA73B"></path><path id="Vector_22" d="M32.1934 17.1492L31.5639 15.8972L30.9045 17.1492L29.4956 17.353L30.5148 18.3138L30.275 19.7114L31.5639 19.0417L32.8229 19.7114L32.5831 18.3138L33.6022 17.353L32.1934 17.1492Z" fill="#FDA73B"></path><path id="Vector_23" d="M68.5835 17.353L67.1746 17.1492L66.5452 15.8972L65.8857 17.1492L64.4769 17.353L65.496 18.3138L65.2562 19.7114L66.5452 19.0417L67.8041 19.7114L67.5643 18.3138L68.5835 17.353Z" fill="#FDA73B"></path><g id="Group_6"><path id="Vector_24" d="M13.4589 52.7571V49.8747H12.4098V49.2632H15.2874V49.8747H14.2383V52.7571H13.4589Z" fill="white"></path><path id="Vector_25" d="M18.8544 51.0108C18.8544 52.1172 18.195 52.816 17.1159 52.816C16.0367 52.816 15.3773 52.1172 15.3773 51.0108C15.3773 49.9044 16.0367 49.2056 17.1159 49.2056C18.195 49.2056 18.8544 49.9044 18.8544 51.0108ZM16.1566 51.0108C16.1566 51.7387 16.5463 52.2045 17.1159 52.2045C17.6854 52.2045 18.0751 51.7387 18.0751 51.0108C18.0751 50.2829 17.6854 49.8171 17.1159 49.8171C16.5463 49.8171 16.1566 50.2829 16.1566 51.0108Z" fill="white"></path><path id="Vector_26" d="M20.8328 49.2639C21.4923 49.2348 22.0318 49.7006 22.0618 50.3411C22.0618 50.3703 22.0618 50.4285 22.0618 50.4576C22.0918 51.0982 21.5522 51.6222 20.8928 51.6514C20.8628 51.6514 20.8029 51.6514 20.7729 51.6514H20.0835V52.7577H19.3341V49.2639H20.8328ZM20.0835 51.069H20.623C20.9827 51.069 21.2525 50.7779 21.2525 50.4576C21.2525 50.1082 20.9527 49.8462 20.623 49.8462H20.0835V51.069Z" fill="white"></path><path id="Vector_27" d="M24.19 51.7679C24.22 52.059 24.5197 52.2337 24.9394 52.2337C25.3591 52.2337 25.6288 52.059 25.6288 51.797C25.6288 51.5349 25.449 51.4476 25.0293 51.3602L24.5797 51.2729C23.9202 51.1273 23.5905 50.8071 23.5905 50.3121C23.5905 49.6715 24.16 49.2348 24.9694 49.2348C25.7787 49.2348 26.3183 49.6424 26.3482 50.283H25.6288C25.5989 49.9918 25.3291 49.8171 24.9694 49.8171C24.6097 49.8171 24.3399 49.9918 24.3399 50.2539C24.3399 50.4577 24.5197 50.6032 24.9394 50.6906L25.3591 50.7779C26.0785 50.9235 26.3782 51.2147 26.3782 51.7679C26.3782 52.4375 25.8087 52.8743 24.9094 52.8743C24.0102 52.8743 23.5006 52.4666 23.4706 51.8261H24.19V51.7679Z" fill="white"></path><path id="Vector_28" d="M29.1959 52.7577H26.8279V49.2638H29.1959V49.8752H27.5773V50.7196H29.106V51.2728H27.5773V52.1463H29.1959V52.7577Z" fill="white"></path><path id="Vector_29" d="M33.0927 51.0108C33.0927 52.1172 32.4332 52.816 31.3541 52.816C30.275 52.816 29.6155 52.1172 29.6155 51.0108C29.6155 49.9044 30.275 49.2056 31.3541 49.2056C32.4332 49.2056 33.0927 49.9044 33.0927 51.0108ZM30.3949 51.0108C30.3949 51.7387 30.7846 52.2045 31.3541 52.2045C31.9236 52.2045 32.3133 51.7387 32.3133 51.0108C32.3133 50.2829 31.9236 49.8171 31.3541 49.8171C30.7846 49.8171 30.3949 50.2829 30.3949 51.0108Z" fill="white"></path><path id="Vector_30" d="M35.2809 51.7679C35.3108 52.059 35.6106 52.2337 36.0302 52.2337C36.4499 52.2337 36.7197 52.059 36.7197 51.797C36.7197 51.5349 36.5398 51.4476 36.1202 51.3602L35.6406 51.2729C34.9811 51.1273 34.6514 50.8071 34.6514 50.3121C34.6514 49.6715 35.2209 49.2348 36.0302 49.2348C36.8396 49.2348 37.3791 49.6424 37.4091 50.283H36.7197C36.6897 49.9918 36.4199 49.8171 36.0602 49.8171C35.7005 49.8171 35.4307 49.9918 35.4307 50.2539C35.4307 50.4577 35.6106 50.6032 36.0302 50.6906L36.4499 50.7779C37.1693 50.9235 37.4691 51.2147 37.4691 51.7679C37.4691 52.4375 36.8995 52.8743 36.0003 52.8743C35.101 52.8743 34.5914 52.4666 34.5615 51.8261L35.2809 51.7679Z" fill="white"></path><path id="Vector_31" d="M40.2868 52.7577H37.9187V49.2638H40.2868V49.8752H38.6681V50.7196H40.1969V51.2728H38.6681V52.1463H40.2868V52.7577Z" fill="white"></path><path id="Vector_32" d="M41.5757 52.7577H40.8263V49.2638H42.2951C43.1344 49.2638 43.5841 49.6714 43.5841 50.3702C43.614 50.8069 43.3442 51.1854 42.9246 51.3601L43.674 52.7577H42.8047L42.1452 51.4766H41.5158L41.5757 52.7577ZM41.5757 50.9525H42.2651C42.5649 50.9816 42.8347 50.7778 42.8646 50.4867C42.8646 50.4575 42.8646 50.4284 42.8646 50.3993C42.8646 50.1082 42.6548 49.8461 42.3251 49.8461C42.2951 49.8461 42.2651 49.8461 42.2651 49.8461H41.6057L41.5757 50.9525Z" fill="white"></path><path id="Vector_33" d="M45.0229 52.7577L43.8239 49.2638H44.6632L45.4725 52.0007H45.5025L46.3118 49.2638H47.1211L45.9221 52.7577H45.0229Z" fill="white"></path><path id="Vector_34" d="M47.5108 52.7577V49.2638H48.2602V52.7577H47.5108Z" fill="white"></path><path id="Vector_35" d="M48.7398 51.0108C48.7398 49.8753 49.3993 49.2056 50.4484 49.2056C51.3177 49.2056 51.9771 49.7297 52.0371 50.5158H51.3177C51.2577 50.1082 50.898 49.7879 50.4784 49.8171C49.9088 49.8171 49.5491 50.2829 49.5491 51.0108C49.5491 51.7387 49.9088 52.2045 50.4784 52.2045C50.898 52.2337 51.2577 51.9425 51.3177 51.5349H52.0371C51.9472 52.321 51.3477 52.816 50.4484 52.816C49.3993 52.816 48.7398 52.1463 48.7398 51.0108Z" fill="white"></path><path id="Vector_36" d="M54.8548 52.7577H52.4867V49.2638H54.8548V49.8752H53.2361V50.7196H54.7648V51.2728H53.2361V52.1463H54.8548V52.7577Z" fill="white"></path><path id="Vector_37" d="M55.9938 51.7678C56.0238 52.059 56.3235 52.2337 56.7432 52.2337C57.1628 52.2337 57.4326 52.059 57.4326 51.7969C57.4326 51.5349 57.2528 51.4475 56.8331 51.3602L56.3535 51.2437C55.6941 51.0981 55.3643 50.7779 55.3643 50.2829C55.3643 49.6424 55.9339 49.2056 56.7432 49.2056C57.5525 49.2056 58.0921 49.6132 58.122 50.2538H57.4026C57.3727 49.9626 57.1029 49.7879 56.7432 49.7879C56.3835 49.7879 56.1137 49.9626 56.1137 50.2247C56.1137 50.4285 56.2936 50.5741 56.7132 50.6614L57.1628 50.7488C57.8822 50.8943 58.182 51.1855 58.182 51.7387C58.182 52.4084 57.6125 52.8451 56.7132 52.8451C55.814 52.8451 55.3044 52.4375 55.2744 51.7969L55.9938 51.7678Z" fill="white"></path><path id="Vector_38" d="M59.6208 51.0108C59.6208 49.8753 60.2803 49.2056 61.3294 49.2056C62.1987 49.2056 62.8582 49.7297 62.9181 50.5158H62.1987C62.1387 50.1082 61.779 49.7879 61.3594 49.8171C60.7898 49.8171 60.4301 50.2829 60.4301 51.0108C60.4301 51.7387 60.7898 52.2045 61.3594 52.2045C61.779 52.2337 62.1387 51.9425 62.1987 51.5349H62.9181C62.8282 52.321 62.2287 52.816 61.3294 52.816C60.2503 52.816 59.6208 52.1463 59.6208 51.0108Z" fill="white"></path><path id="Vector_39" d="M66.695 51.0108C66.695 52.1172 66.0355 52.816 64.9564 52.816C63.8773 52.816 63.2179 52.1172 63.2179 51.0108C63.2179 49.9044 63.8773 49.2056 64.9564 49.2056C66.0355 49.2056 66.695 49.9044 66.695 51.0108ZM63.9972 51.0108C63.9972 51.7387 64.3869 52.2045 64.9564 52.2045C65.526 52.2045 65.9156 51.7387 65.9156 51.0108C65.9156 50.2829 65.526 49.8171 64.9564 49.8171C64.3869 49.8171 63.9972 50.2829 63.9972 51.0108Z" fill="white"></path><path id="Vector_40" d="M70.9815 52.7577H70.322V50.3993H70.292L69.3028 52.7286H68.8232L67.8341 50.3993H67.8041V52.7577H67.1446V49.2638H68.0139L69.0331 51.7386H69.063L70.0822 49.2638H70.9515L70.9815 52.7577Z" fill="white"></path><path id="Vector_41" d="M73.0797 49.2639C73.7392 49.2348 74.2788 49.7006 74.3087 50.3411C74.3087 50.3703 74.3087 50.4285 74.3087 50.4576C74.3387 51.0982 73.7991 51.6222 73.1397 51.6514C73.1097 51.6514 73.0498 51.6514 73.0198 51.6514H72.3004V52.7577H71.551V49.2639H73.0797ZM72.3304 51.069H72.8699C73.2296 51.069 73.4994 50.7779 73.4994 50.4576C73.4994 50.1082 73.1996 49.8462 72.8699 49.8462H72.3304V51.069Z" fill="white"></path><path id="Vector_42" d="M76.5269 51.9133H75.2379L74.9682 52.7577H74.1888L75.4478 49.2638H76.3171L77.576 52.7577H76.7667L76.5269 51.9133ZM75.4178 51.3601H76.347L75.8974 49.9335H75.8674L75.4178 51.3601Z" fill="white"></path><path id="Vector_43" d="M77.9357 52.7577V49.2638H78.5652L80.2438 51.5348H80.2738V49.2638H80.9932V52.7577H80.3637L78.6851 50.4575H78.6551V52.7577H77.9357Z" fill="white"></path><path id="Vector_44" d="M82.6119 52.7577V51.4475L81.3529 49.2638H82.1622L82.9716 50.7487H83.0015L83.8109 49.2638H84.6202L83.3613 51.4475V52.7577H82.6119Z" fill="white"></path></g></g><defs><clipPath id="clip0_1868_9053"><rect width="97" height="81" fill="white"></rect></clipPath></defs></svg> 