<svg width="74" height="52" viewBox="0 0 74 52" fill="none" xmlns="http://www.w3.org/2000/svg">
<g clip-path="url(#clip0_2170_45)">
<path d="M73.9542 36.8118C73.4988 37.6261 72.6362 37.7477 71.8682 37.9329C70.9844 38.1452 70.4094 38.5369 70.257 39.4766C70.2082 39.7871 70.0887 40.0822 69.9077 40.3392C69.1706 41.3387 69.3288 42.2688 70.0081 43.2182C70.201 43.4883 70.421 43.8087 70.4422 44.1174C70.4692 44.5361 70.4615 45.0919 70.2184 45.3678C69.3307 46.379 68.3428 47.2975 67.3837 48.2488C67.2089 48.4359 66.9761 48.5586 66.723 48.5971C66.4699 48.6357 66.2111 48.5877 65.9886 48.461C65.2167 48.0906 64.4449 47.4403 63.6557 47.4152C62.8993 47.3901 62.1467 48.1098 61.3401 48.3144C60.5007 48.5305 60.1572 49.0091 59.9276 49.7867C59.231 52.1602 59.3294 51.9942 56.9752 51.9826C56.1571 51.9826 55.3389 51.9672 54.5207 51.9826C53.8145 51.9981 53.3919 51.6623 53.1835 51.0178C52.9906 50.4003 52.8226 49.7655 52.566 49.1731C52.4261 48.8946 52.1982 48.67 51.9177 48.5344C51.1387 48.1613 50.3407 47.8296 49.5268 47.5406C49.2292 47.4383 48.9059 47.4383 48.6083 47.5406C47.9869 47.7895 47.4023 48.133 46.8041 48.4398C46.5633 48.5831 46.2798 48.6374 46.0031 48.5933C45.7263 48.5493 45.4738 48.4096 45.2893 48.1986C44.3862 47.2975 43.4619 46.4176 42.5878 45.4817C42.3177 45.1865 42.2019 44.7426 41.9607 44.2293H35.122C35.234 44.5979 35.315 44.9086 35.4211 45.2096C35.8881 46.5218 36.386 47.8262 36.8221 49.1461C36.961 49.5552 37.1598 49.6999 37.5939 49.6844C38.6051 49.6536 39.6162 49.6671 40.6273 49.6844C41.4648 49.6844 42.0031 50.1514 42.007 50.8422C42.0109 51.533 41.4744 52 40.635 52C32.7158 52 24.7972 52 16.8792 52C16.0359 52 15.5285 51.5388 15.54 50.8306C15.5516 50.1225 16.063 49.7018 16.9216 49.6941C18.0987 49.6941 19.2777 49.6941 20.4973 49.6941C21.136 47.915 21.767 46.1571 22.4501 44.2486H21.5509C16.0642 44.2486 10.577 44.2486 5.08911 44.2486C2.39919 44.2486 0.490764 42.7049 0.0623838 40.2157C0.0124444 39.8584 -0.00757613 39.4976 0.0025536 39.137C0.0025536 27.801 0.0025536 16.465 0.0025536 5.129C0.0025536 1.98369 1.992 0.00192964 5.14889 0H52.3711C55.5454 0 57.5117 1.9528 57.5175 5.11548C57.5175 8.72649 57.5175 12.3368 57.5175 15.9466V16.7184C57.6159 16.7725 57.6815 16.8438 57.7374 16.8361C59.0284 16.6663 59.5899 17.3977 59.779 18.5284C59.972 19.7036 60.5393 20.487 61.7858 20.6684C62.0261 20.7045 62.2537 20.8 62.4477 20.9463C63.3469 21.6409 64.1535 21.3882 65.0624 20.8768C66.7566 19.9236 66.7836 19.9718 68.1768 21.3631C68.8059 21.9921 69.4273 22.6308 70.0698 23.2483C70.587 23.7462 70.7818 24.3367 70.3477 24.9252C69.3134 26.33 69.3578 27.6498 70.1547 29.2071C70.6159 30.1159 71.0153 30.7334 72.04 30.9553C72.7655 31.1116 73.5837 31.2506 73.9696 32.0629L73.9542 36.8118ZM55.2116 16.8091V16.0816C55.2116 12.423 55.2116 8.76507 55.2116 5.10776C55.2116 3.20127 54.2872 2.27892 52.375 2.27892H5.15855C3.25207 2.27892 2.3104 3.21864 2.3104 5.10776V32.7016H38.7498C38.9273 31.5689 39.0083 31.4763 40.0909 31.1213C40.3362 31.0233 40.5884 30.9433 40.8453 30.882C41.7677 30.7334 42.281 30.2471 42.5145 29.3035C42.7075 28.5317 43.4157 27.7926 43.3848 27.0632C43.352 26.2914 42.7094 25.5562 42.3312 24.8036C42.1959 24.5723 42.145 24.3013 42.1872 24.0367C42.2295 23.772 42.3622 23.5302 42.5628 23.3525C43.48 22.4327 44.3998 21.5149 45.3222 20.5989C45.4988 20.3976 45.7397 20.2637 46.0039 20.2201C46.2682 20.1765 46.5394 20.2258 46.7713 20.3597C47.3927 20.6742 48.0005 21.0215 48.6431 21.2898C48.9156 21.3906 49.2145 21.3954 49.4902 21.3033C50.3238 21.0003 51.1458 20.6607 51.9447 20.2786C52.224 20.1368 52.448 19.906 52.5814 19.6225C52.8342 19.0282 52.9982 18.3953 53.1951 17.7778C53.3919 17.1603 53.7971 16.813 54.4744 16.8361C54.6867 16.8458 54.899 16.8226 55.2116 16.8072V16.8091ZM55.1787 49.6285C57.4943 49.8485 57.4943 49.8485 58.1755 47.7915C58.1909 47.7452 58.2025 47.6988 58.2141 47.6525C58.3607 47.0254 58.7756 46.7224 59.3718 46.5063C60.5296 46.0818 61.6874 45.6032 62.8182 45.0764C63.3701 44.8179 63.8486 44.76 64.387 45.0514C65.018 45.3929 65.6664 45.7036 66.2896 46.0162C68.0726 44.54 68.09 44.5323 67.0615 42.5428C66.7257 41.8945 66.7836 41.3638 67.1059 40.7174C67.6287 39.6652 68.08 38.5789 68.4566 37.4659C68.6727 36.835 68.9854 36.4336 69.6279 36.2348C70.3052 36.0264 71.2276 35.9261 71.5576 35.4456C71.8875 34.9651 71.6347 34.0543 71.6367 33.3346C71.6278 33.291 71.6149 33.2484 71.5981 33.2072C70.9517 32.9949 70.2744 32.7538 69.5874 32.5512C68.9989 32.3775 68.6997 31.9973 68.4913 31.4262C68.0649 30.2684 67.5999 29.099 67.0654 27.9779C66.7894 27.399 66.7334 26.9069 67.0441 26.3473C67.3818 25.7376 67.6809 25.1085 67.9916 24.4987C66.583 22.6598 66.583 22.6598 64.6205 23.6497C64.5568 23.6825 64.4912 23.7115 64.4275 23.7481C63.8737 24.0665 63.3701 23.9893 62.7931 23.7114C61.7154 23.189 60.6085 22.729 59.478 22.3337C58.8296 22.1079 58.3819 21.8011 58.2063 21.1142C58.0675 20.5788 57.8928 20.0534 57.6834 19.5415C57.6448 19.4529 57.5876 19.3736 57.5157 19.309C57.4437 19.2445 57.3588 19.1961 57.2666 19.1672C55.4836 18.8777 55.2328 19.0378 54.6751 20.7359C54.623 20.8961 54.5593 21.0524 54.5188 21.2145C54.3664 21.8146 53.9611 22.0886 53.388 22.297C52.1994 22.7312 51.057 23.3024 49.8645 23.7288C49.4069 23.8873 48.9114 23.9002 48.4462 23.7655C47.7496 23.5378 47.1148 23.1248 46.3236 22.7293C45.9242 23.1712 45.5518 23.6401 45.1137 24.053C44.8224 24.3309 44.749 24.5528 44.9671 24.9155C45.2623 25.4076 45.5865 25.9132 45.7389 26.4593C45.8647 26.9253 45.8533 27.4178 45.7062 27.8775C45.272 29.0932 44.6989 30.2606 44.2473 31.4705C44.0544 31.9896 43.7996 32.3524 43.2651 32.5145C42.6862 32.6901 42.1074 32.8637 41.5574 33.0934C41.4579 33.1367 41.3687 33.2005 41.2956 33.2806C41.2224 33.3608 41.167 33.4554 41.1329 33.5584C40.8589 35.3665 40.9747 35.544 42.665 36.0978C42.858 36.1577 43.0316 36.2194 43.215 36.2753C43.4711 36.3434 43.7034 36.4812 43.8859 36.6733C44.0685 36.8654 44.1943 37.1044 44.2493 37.3637C44.4422 38.0815 44.5753 38.8804 44.9921 39.4573C46.1287 41.0261 46.0554 42.483 44.9516 43.9939C44.9085 44.0907 44.8899 44.1965 44.8973 44.3022C44.9047 44.4078 44.9379 44.51 44.9941 44.5998C45.4109 45.1247 45.8837 45.6071 46.3217 46.0914C47.1167 45.6901 47.7863 45.3678 48.4443 45.0186C48.9422 44.7561 49.384 44.8256 49.8838 45.0572C51.0416 45.5801 52.1994 46.076 53.3958 46.5179C53.9611 46.7282 54.3509 47.0138 54.5227 47.6081C54.7118 48.2912 54.9607 48.9685 55.1787 49.6266V49.6285ZM38.7768 35.1253H2.35864C2.33897 35.1882 2.32541 35.2528 2.31812 35.3183C2.31812 36.5699 2.31812 37.8216 2.31812 39.0733C2.31812 40.976 3.24627 41.9138 5.14889 41.9138C17.6658 41.9138 30.1841 41.9138 42.7036 41.9138C42.9506 41.9138 43.1996 41.8829 43.5392 41.8578C43.2131 41.1477 42.8136 40.5688 42.6824 39.9282C42.4142 38.6276 41.6481 38.0583 40.3977 37.7612C38.854 37.3946 38.8347 37.2479 38.8096 35.6694C38.8 35.5054 38.7884 35.3414 38.7748 35.1234L38.7768 35.1253ZM34.5663 49.6516C33.9431 47.8995 33.3603 46.2265 32.7389 44.5689C32.6821 44.4763 32.6043 44.3984 32.5118 44.3414C32.4193 44.2844 32.3146 44.25 32.2063 44.2409C29.9242 44.2178 27.6402 44.2178 25.3542 44.2409C25.1766 44.2409 24.8911 44.3567 24.8409 44.4879C24.2003 46.1879 23.5944 47.8995 22.9634 49.6555L34.5663 49.6516Z" fill="#ED1E3A"/>
<path d="M49.2451 34.4111C49.2451 32.9972 49.6649 31.6151 50.4513 30.4401C51.2378 29.2651 52.3554 28.35 53.6624 27.8109C54.9695 27.2718 56.4073 27.1329 57.7934 27.4119C59.1795 27.6908 60.4515 28.375 61.4483 29.3778C62.4451 30.3805 63.1217 31.6567 63.3924 33.0444C63.6631 34.4321 63.5156 35.8689 62.9687 37.1728C62.4218 38.4766 61.5001 39.5888 60.3204 40.3682C59.1407 41.1476 57.7562 41.5591 56.3423 41.5507C54.4561 41.5395 52.651 40.7824 51.3212 39.4447C49.9915 38.1069 49.2451 36.2973 49.2451 34.4111ZM51.5607 34.3513C51.5496 35.3064 51.8223 36.2431 52.3443 37.0431C52.8662 37.8431 53.6139 38.4702 54.4925 38.8448C55.3712 39.2194 56.3412 39.3246 57.2798 39.1473C58.2184 38.97 59.0832 38.5181 59.7647 37.8488C60.4462 37.1795 60.9136 36.323 61.1078 35.3878C61.302 34.4526 61.2142 33.4808 60.8555 32.5955C60.4968 31.7102 59.8834 30.9514 59.093 30.4151C58.3026 29.8788 57.3708 29.5892 56.4157 29.583C55.1409 29.5773 53.9154 30.075 53.0056 30.9678C52.0957 31.8607 51.5751 33.0766 51.5568 34.3513H51.5607Z" fill="#ED1E3A"/>
<path d="M23.9514 31.3803C23.4725 31.3216 23.0181 31.1357 22.6353 30.8419C22.5311 30.7725 22.4327 30.7088 22.3304 30.649C20.0959 29.3812 17.8286 28.0825 15.6346 26.8283L13.0662 25.3579V7.44498L18.203 4.47526C18.4271 4.34651 18.6815 4.2799 18.94 4.28229C19.2383 4.28707 19.53 4.37098 19.7853 4.52543C20.0888 4.6991 20.3931 4.87147 20.698 5.04256C21.601 5.55392 22.5331 6.08263 23.4419 6.63065C23.5172 6.67503 23.6079 6.71943 23.7044 6.76767C24.0556 6.93748 24.4762 7.1536 24.7367 7.63794L24.9297 8.02387L24.6788 8.27085C24.6788 8.28822 24.6788 8.30753 24.6788 8.33261C24.6788 8.3577 24.6788 8.41172 24.6788 8.45032C24.6788 11.4953 24.6788 14.5396 24.6788 17.5833L25.2789 17.236C26.0836 16.769 26.9095 16.2905 27.7354 15.837L27.7797 15.8119C27.7797 15.7965 27.7797 15.7695 27.7797 15.7232C27.7797 14.8818 27.7797 14.0425 27.7797 13.2031V13.1355C27.7797 12.446 27.7797 11.7584 27.7797 11.0727C27.7578 10.8287 27.8059 10.5835 27.9183 10.3658C28.0307 10.1481 28.2029 9.96687 28.4146 9.84351C29.7345 9.09481 31.172 8.26893 33.0766 7.16903C33.2739 7.0478 33.5028 6.98769 33.7342 6.99628C33.9657 7.00486 34.1894 7.08176 34.3772 7.21727C34.7245 7.44497 35.672 7.98913 36.3647 8.37506C36.7024 8.56802 36.9784 8.72433 37.098 8.79573L37.291 8.90957C38.1149 9.3669 39.0045 9.88404 39.3711 10.2604L39.4541 10.3433L39.4869 16.9427L39.3422 17.0276C39.3094 17.0469 35.8881 19.0614 34.8519 19.6384C34.6821 19.7349 34.6589 19.7523 34.6589 19.9742C34.6705 20.6013 34.6686 21.2381 34.6589 21.8536C34.6589 22.639 34.6589 23.4359 34.6763 24.2174C34.6937 24.999 34.4003 25.5142 33.6999 25.9097C31.3303 27.2605 28.9317 28.6325 26.6123 29.962L24.1038 31.4034L23.9514 31.3803ZM14.9052 24.0766C15.277 24.3612 15.6757 24.6087 16.0958 24.8156C16.3292 24.9391 16.5666 25.0665 16.7982 25.2016C17.0297 25.3366 17.3057 25.5122 17.5584 25.6685L17.5758 25.6801C18.1547 26.041 18.7529 26.4134 19.3549 26.7279C19.957 27.0424 20.4915 27.3531 21.0337 27.6696C21.464 27.9185 21.8963 28.1674 22.3246 28.4009C22.4792 28.4952 22.6287 28.5976 22.7723 28.7077L22.9248 28.8119V28.4144C22.9132 27.4496 22.8997 26.4597 22.9093 25.4891C22.9093 25.3386 22.9093 25.3386 22.7549 25.2517C21.5624 24.6034 20.3641 23.9222 19.2064 23.2623L18.7548 23.0056L18.6873 22.9728C18.5376 22.9165 18.403 22.8262 18.2942 22.709C18.1853 22.5918 18.1052 22.4509 18.0602 22.2975L17.9695 21.9559L18.0196 21.9096V21.761C18.0196 21.6066 18.0042 21.4542 18.0042 21.2998C18.0042 18.0542 18.0042 14.8079 18.0042 11.5609C18.0042 11.5069 18.0042 11.422 18.0042 11.3776L17.9849 11.366C17.213 10.9454 16.4199 10.4861 15.7195 10.0809L14.9341 9.62739C14.9341 14.3666 14.9341 19.1058 14.9341 23.845C14.9341 23.8991 14.9341 23.9531 14.9341 24.0071C14.9071 24.0168 14.9052 24.0534 14.9052 24.0766ZM24.6846 28.7907C27.3552 27.2624 30.0297 25.7277 32.7081 24.1866C32.7081 23.1754 32.7081 22.1662 32.7081 21.1185V20.8541L24.6865 25.4428L24.6846 28.7907ZM21.082 22.0736C21.2033 22.1624 21.3325 22.2399 21.4679 22.3052C22.2618 22.6615 23.0198 23.0932 23.7314 23.5942C23.7629 23.6177 23.7965 23.6384 23.8317 23.6559C23.8433 23.6559 23.8722 23.6366 23.9185 23.6096C24.6055 23.2082 25.3079 22.8107 25.9871 22.4267C25.9871 22.4267 26.6741 22.0408 26.9519 21.8768L31.7085 19.1637L31.5425 19.0692C30.5874 18.5212 29.6901 18.0059 28.7909 17.4753L28.7253 17.51C27.8647 18.0079 27.0021 18.5038 26.1376 18.9978L24.5051 19.9356C24.0022 20.225 23.4991 20.5151 22.9962 20.8059L22.8939 20.8637L20.9527 21.9829L21.082 22.0736ZM22.6836 9.803C21.7824 10.3221 20.9295 10.8122 20.0592 11.2966C19.9454 11.3602 19.9454 11.3602 19.9474 11.5069C19.9474 13.6295 19.9474 15.8158 19.9474 17.7493C19.9474 17.7493 19.9474 19.5651 19.9474 20.281L20.1654 20.1556C21.053 19.6423 21.9696 19.1116 22.8804 18.5945C22.8804 18.5945 22.8804 12.2517 22.8804 9.68529L22.6836 9.803ZM32.7081 17.4753V17.2592C32.7081 16.1921 32.7081 15.1829 32.7081 14.1717V14.1563L32.6424 14.1158C32.0963 13.809 31.5541 13.4964 31.0119 13.1838L29.7287 12.4505V15.8332L32.7081 17.4753ZM34.6821 14.1331C34.6821 15.206 34.6821 16.2905 34.6821 17.4135V17.4637L37.7521 15.6614C37.7946 14.6368 37.7984 13.5504 37.7676 12.3579L37.6962 12.3984L34.6821 14.1331ZM30.9212 10.8392C31.7293 11.2549 32.5076 11.7262 33.2503 12.2498C33.3537 12.3384 33.4815 12.3936 33.6169 12.408C33.8268 12.3707 34.0251 12.2848 34.1958 12.1572L34.219 12.1418L34.381 12.0472L36.6252 10.7543L36.5731 10.7254C35.591 10.16 34.6435 9.61388 33.6999 9.06586L30.8344 10.7157L30.7688 10.7524L30.9212 10.8392ZM16.4991 8.294C17.0876 8.63941 17.68 8.98482 18.2763 9.29164C18.4058 9.36207 18.5291 9.44341 18.6448 9.53477C18.719 9.59568 18.7985 9.64992 18.8822 9.69686C19.793 9.20287 20.6767 8.69151 21.6126 8.15314L21.8982 7.98913L21.7824 7.92353C20.8176 7.36393 19.8875 6.83713 18.9632 6.29683C17.9695 6.87572 16.9815 7.43917 15.9935 8.00456C16.1614 8.10683 16.3293 8.20525 16.4991 8.30173V8.294Z" fill="#ED1E3A"/>
</g>
<defs>
<clipPath id="clip0_2170_45">
<rect width="74" height="52" fill="white"/>
</clipPath>
</defs>
</svg>
