<svg width="56" height="53" viewBox="0 0 56 53" fill="none" xmlns="http://www.w3.org/2000/svg">
<g clip-path="url(#clip0_2170_28)">
<path d="M55.6042 40.5107C55.15 41.7541 54.3259 42.4868 52.9389 42.4752C52.8431 42.4752 52.7169 42.6203 52.6588 42.7233C52.5645 42.8945 52.5384 43.1049 52.4412 43.2761C52.0509 43.9638 51.9203 44.5268 52.5558 45.2566C53.229 46.0313 53.0274 47.2748 52.3208 48.0568C51.8029 48.6378 51.2521 49.1886 50.6711 49.7065C49.6337 50.6234 48.3323 50.4798 47.0656 49.3437C46.4621 49.5817 45.8396 49.8124 45.2361 50.0822C45.1389 50.1258 45.0794 50.3391 45.0707 50.4783C44.9676 52.0627 43.9897 52.9942 42.3996 53C41.8395 53 41.278 53 40.7165 53C39.2888 52.9869 38.2732 52.0642 38.1876 50.6379C38.1615 50.223 38.0425 49.9966 37.6319 49.943C37.5968 49.9341 37.5631 49.9204 37.5318 49.9023C36.757 49.4772 36.0969 49.261 35.2582 49.9995C34.5328 50.6423 33.3111 50.3826 32.5581 49.6992C31.9915 49.1901 31.4511 48.6526 30.9389 48.0887C30.5165 47.6424 30.2839 47.0494 30.2904 46.4349C30.2969 45.8204 30.5419 45.2325 30.9737 44.7952C31.248 44.505 31.2915 44.2917 31.0869 43.9624C30.9305 43.7178 30.8167 43.4485 30.7503 43.1658C30.6313 42.5855 30.3237 42.4404 29.7347 42.4404C26.9664 42.4766 24.1966 42.4592 21.4268 42.4549C20.6869 42.4549 20.224 42.0675 20.182 41.4393C20.1341 40.7457 20.5984 40.2785 21.3615 40.2785C23.2477 40.2698 25.1252 40.2785 27.0084 40.2785H27.6091C27.6091 39.5836 27.6091 38.9394 27.6091 38.2937C27.6193 36.6368 28.4869 35.7097 30.1279 35.5631C30.2918 35.5472 30.4558 35.3716 30.5907 35.2425C30.6603 35.1743 30.6589 35.0379 30.7068 34.9421C31.0913 34.1833 31.3292 33.5348 30.6067 32.715C29.948 31.9649 30.1917 30.7273 30.8968 29.967C31.409 29.407 31.9473 28.8672 32.5088 28.3551C33.4591 27.4845 34.8302 27.5048 35.8052 28.4029C36.078 28.6554 36.2681 28.6931 36.5974 28.519C37.0733 28.2666 37.5898 28.0838 38.0788 27.885C38.1296 27.5208 38.1325 27.1494 38.2355 26.8099C38.5373 25.8233 39.2061 25.1834 40.2435 25.0804C41.0724 25.0049 41.9059 24.9962 42.7362 25.0543C43.3235 25.0714 43.8825 25.3106 44.3003 25.7237C44.7182 26.1367 44.964 26.6929 44.9879 27.28C45.0228 27.7544 45.1693 28.0127 45.6351 28.0867C45.7247 28.1018 45.8104 28.1343 45.8875 28.1824C46.5752 28.5974 47.1788 28.741 47.8694 28.062C48.193 27.7428 48.8299 27.7413 49.3987 27.5745V16.7087H2.21116C2.20246 16.9017 2.18504 17.0918 2.18504 17.2891C2.18504 23.6237 2.18504 29.9593 2.18504 36.2958C2.18504 37.2592 2.37365 38.1646 2.92935 38.9684C3.52567 39.8288 4.32656 40.2959 5.39587 40.2887C7.42713 40.2756 19.606 40.2814 21.6329 40.2887C22.3177 40.2887 22.7704 40.7007 22.8037 41.3043C22.8357 41.8731 22.4396 42.4302 21.8607 42.4346C19.4551 42.4505 6.88014 42.5608 4.49051 42.3591C2.23872 42.1691 0.488952 40.1407 0.11317 37.7308C0.0421835 37.2845 0.00580269 36.8333 0.00435269 36.3814C-0.0014509 26.2813 -0.0014509 16.182 0.00435269 6.0838C0.00435269 4.10188 0.641287 2.39127 2.18939 1.09127C3.02295 0.377613 4.08677 -0.00998102 5.18405 0.000195413C18.9385 0.000195413 32.6935 0.000195413 46.449 0.000195413C48.8517 0.000195413 50.9178 1.81526 51.4618 4.39496C51.5903 5.05154 51.6516 5.7195 51.6447 6.38849C51.6563 13.8258 51.6447 21.2645 51.6621 28.7033C51.6548 28.9817 51.7412 29.2545 51.9073 29.4781C53.274 30.9768 53.3031 32.02 51.9668 33.5696C52.2033 34.1616 52.434 34.7637 52.6922 35.3571C52.7185 35.4093 52.7565 35.4547 52.8034 35.4897C52.8502 35.5247 52.9046 35.5484 52.9621 35.5588C54.3259 35.5341 55.1384 36.2712 55.6143 37.4652L55.6042 40.5107ZM2.21116 14.4308H49.4466V13.051C49.4466 10.5714 49.4799 8.09039 49.4175 5.61226C49.3639 3.45623 47.9826 2.18089 45.8527 2.18089H40.5293C28.8554 2.18089 17.1805 2.17847 5.50469 2.17364C4.48906 2.17364 3.67077 2.5204 3.05269 3.3184C2.43461 4.11639 2.18215 5.05222 2.18215 6.05769C2.18215 8.68188 2.18215 11.3065 2.18215 13.9317C2.18215 14.0899 2.19955 14.248 2.21116 14.4308ZM49.2028 48.2614C49.4335 47.9712 49.6265 47.6897 49.8644 47.4489C50.8278 46.4681 50.8322 46.4724 49.8978 45.5061C49.3697 44.962 49.3566 44.5877 49.6918 43.8971C50.0866 43.1078 50.4307 42.2941 50.7219 41.461C51.0541 40.4744 51.2457 40.28 52.2961 40.28C53.5555 40.28 53.4191 40.3714 53.422 39.1323C53.422 37.8135 53.422 37.8135 52.0901 37.7743C51.3414 37.7525 51.0454 37.4841 50.7988 36.7804C50.5007 35.9119 50.1519 35.0617 49.7542 34.2341C49.3377 33.3882 49.3377 33.0734 49.9921 32.406C50.8409 31.5499 50.8409 31.5499 49.9921 30.7012C49.0867 29.7958 49.0867 29.7958 48.1712 30.6852C47.5764 31.2656 47.2064 31.2656 46.4737 30.9217C45.6304 30.5167 44.7648 30.1602 43.8809 29.8538C43.0989 29.584 42.8348 29.3011 42.8247 28.4436C42.8102 27.2335 42.8102 27.2335 41.6204 27.2335C40.3277 27.2335 40.3277 27.2335 40.3146 28.5118C40.3059 29.3359 40.052 29.6043 39.2758 29.8713C38.4396 30.1521 37.6233 30.489 36.8325 30.8796C35.9619 31.3149 35.65 31.3149 34.9623 30.6359C34.009 29.7015 34.2499 29.703 33.2865 30.6576C32.3739 31.5615 32.3768 31.5645 33.2618 32.4756C33.8668 33.098 33.8726 33.4274 33.4939 34.2167C33.1043 35.0274 32.7623 35.8602 32.4696 36.7108C32.2027 37.4928 31.9096 37.7627 31.0593 37.7743C29.8217 37.7903 29.8159 37.7902 29.8232 39.0046C29.8232 40.4715 29.6592 40.2626 31.0884 40.2771C31.9458 40.2858 32.207 40.5324 32.4783 41.3435C32.7491 42.1645 33.0773 42.9654 33.4606 43.7404C33.9089 44.6356 33.9045 44.9461 33.2009 45.6512C32.2607 46.5928 32.2955 46.3447 33.2125 47.2762C34.1294 48.2077 34.1454 48.2106 35.1073 47.2849C35.6601 46.7524 36.0316 46.7379 36.7178 47.0673C37.5246 47.4669 38.3551 47.8167 39.2047 48.1148C40.1361 48.4311 40.3654 48.6662 40.3654 49.6615C40.3654 50.9673 40.2203 50.8222 41.5261 50.815C43.0525 50.815 42.8624 51.0123 42.8755 49.5091C42.8755 49.4729 42.8755 49.4366 42.8755 49.4003C42.8929 48.7053 43.1453 48.4094 43.8084 48.1903C44.5106 47.9581 45.2404 47.755 45.8803 47.4111C47.1353 46.7234 47.3703 46.4071 48.6906 47.8464C48.8525 47.9947 49.023 48.1333 49.2014 48.2614H49.2028Z" fill="#ED1E3A"/>
<path d="M24.494 28.4684C23.6308 27.4963 22.8023 26.5677 21.9782 25.6348C21.437 25.0225 21.4239 24.3609 21.9347 23.9184C22.4454 23.4759 23.0707 23.5832 23.5974 24.1694C24.5511 25.2334 25.5 26.2974 26.4441 27.3614C27.0767 28.0868 27.0824 28.8326 26.4557 29.5508C25.5039 30.638 24.5434 31.7174 23.5742 32.7892C23.0635 33.3565 22.3859 33.429 21.9057 32.985C21.4254 32.5411 21.4399 31.9027 21.9318 31.3455C22.766 30.4024 23.6104 29.4564 24.494 28.4684Z" fill="#ED1E3A"/>
<path d="M8.61687 28.467C9.43808 29.3883 10.2129 30.2661 10.9978 31.1439C11.1359 31.2876 11.2625 31.4418 11.3765 31.6053C11.5191 31.8281 11.5756 32.0954 11.5353 32.3569C11.4949 32.6184 11.3606 32.8562 11.1574 33.0257C10.7627 33.358 10.1272 33.4001 9.76887 33.0112C8.63862 31.791 7.52579 30.552 6.45213 29.281C6.02556 28.7761 6.0894 28.0448 6.54063 27.5225C7.55819 26.3444 8.5922 25.1812 9.64265 24.0331C9.73625 23.9217 9.85152 23.8306 9.98142 23.7651C10.1113 23.6997 10.2532 23.6613 10.3983 23.6524C10.5435 23.6434 10.689 23.6641 10.826 23.713C10.9629 23.762 11.0885 23.8383 11.1951 23.9373C11.3029 24.0351 11.3901 24.1535 11.4515 24.2855C11.5129 24.4175 11.5472 24.5605 11.5525 24.706C11.5577 24.8514 11.5339 24.9965 11.4822 25.1326C11.4305 25.2687 11.3522 25.3931 11.2517 25.4985C10.4 26.4822 9.52658 27.4456 8.61687 28.467Z" fill="#ED1E3A"/>
<path d="M18.718 24.1057C18.467 25.1677 18.1899 26.3458 17.9098 27.524C17.4746 29.3521 17.0393 31.1797 16.604 33.0069C16.5881 33.078 16.5649 33.152 16.5431 33.2158C16.3472 33.8658 15.8307 34.2111 15.246 34.0864C14.6323 33.9514 14.2783 33.3943 14.4335 32.7138C14.8383 30.935 15.2692 29.162 15.6914 27.3861C15.9715 26.208 16.2544 25.0313 16.53 23.8517C16.6461 23.3584 16.8928 22.9812 17.4136 22.8593C18.0999 22.6867 18.7514 23.2496 18.718 24.1057Z" fill="#ED1E3A"/>
<path d="M37.4157 12.0456C35.769 12.0456 34.1222 12.0702 32.4754 12.0383C31.7285 12.0218 31.0046 11.7764 30.4016 11.3353C29.7985 10.8942 29.3455 10.2787 29.1035 9.57178C28.8595 8.87509 28.833 8.12068 29.0276 7.4086C29.2222 6.69652 29.6287 6.06043 30.1932 5.58471C30.8719 4.99838 31.7426 4.68231 32.6394 4.69676C35.8226 4.68951 39.0074 4.6779 42.1921 4.69676C44.3423 4.70982 45.9499 6.30871 45.9484 8.37188C45.947 10.4351 44.338 12.0267 42.1921 12.0485C40.5961 12.063 39.0001 12.0485 37.4157 12.0485V12.0456ZM37.4549 6.89052C35.8444 6.89052 34.2339 6.87456 32.6249 6.89052C31.7137 6.90357 31.0753 7.55503 31.0884 8.37914C31.0895 8.57533 31.1297 8.76932 31.2067 8.94976C31.2838 9.1302 31.3961 9.29344 31.537 9.42992C31.6779 9.5664 31.8447 9.67338 32.0275 9.74458C32.2103 9.81577 32.4055 9.84976 32.6016 9.84454C35.8212 9.86485 39.0407 9.85905 42.2603 9.84454C42.5535 9.8544 42.8426 9.77396 43.0886 9.61411C43.3346 9.45427 43.5256 9.22272 43.6357 8.95079C44.0884 7.93516 43.3687 6.90357 42.1761 6.88471C40.6019 6.8731 39.0277 6.89052 37.4549 6.89197V6.89052Z" fill="#ED1E3A"/>
<path d="M23.3522 8.36076C23.3526 8.84489 23.2575 9.32435 23.0725 9.77172C22.8874 10.2191 22.616 10.6256 22.2737 10.968C21.9315 11.3104 21.5251 11.582 21.0778 11.7672C20.6305 11.9524 20.151 12.0477 19.6669 12.0475C18.6984 12.0384 17.7721 11.6494 17.0875 10.9643C16.4029 10.2791 16.0146 9.35252 16.0063 8.38397C16.0097 7.40623 16.3998 6.46954 17.0913 5.7783C17.7828 5.08706 18.7196 4.6974 19.6974 4.69434C20.6659 4.70346 21.5919 5.09304 22.2757 5.77898C22.9595 6.46493 23.3461 7.39224 23.3522 8.36076ZM19.6567 6.8997C19.4615 6.90207 19.2687 6.94355 19.0897 7.0217C18.9108 7.09985 18.7493 7.21308 18.6149 7.35469C18.4804 7.49631 18.3757 7.66344 18.307 7.84621C18.2382 8.02898 18.2068 8.22367 18.2146 8.41879C18.2251 8.80259 18.3842 9.16732 18.6584 9.43608C18.9326 9.70485 19.3004 9.85667 19.6843 9.85953C20.078 9.85273 20.4534 9.69234 20.7304 9.4126C21.0074 9.13285 21.1642 8.7559 21.1671 8.3622C21.1606 7.96802 20.9979 7.59254 20.7147 7.3183C20.4315 7.04406 20.0509 6.8935 19.6567 6.8997Z" fill="#ED1E3A"/>
<path d="M13.8184 8.3695C13.8197 8.85318 13.7253 9.33235 13.5407 9.7794C13.356 10.2265 13.0848 10.6326 12.7425 10.9743C12.4002 11.316 11.9937 11.5867 11.5463 11.7706C11.099 11.9546 10.6197 12.0482 10.136 12.0461C9.16775 12.038 8.24197 11.6475 7.56056 10.9595C6.87916 10.2716 6.49742 9.34213 6.4986 8.37385C6.49783 7.88934 6.59289 7.40946 6.77835 6.96185C6.9638 6.51423 7.23598 6.10772 7.57919 5.76573C7.9224 5.42373 8.32986 5.15301 8.77813 4.96914C9.2264 4.78527 9.70662 4.69189 10.1911 4.69438C11.1575 4.70697 12.08 5.09972 12.7589 5.78758C13.4378 6.47544 13.8184 7.40304 13.8184 8.3695ZM11.6261 8.3695C11.6265 8.17459 11.5881 7.98155 11.5131 7.80164C11.4381 7.62172 11.3281 7.45854 11.1894 7.32159C11.0507 7.18465 10.8861 7.0767 10.7052 7.00402C10.5244 6.93134 10.3309 6.8954 10.136 6.89829C9.75317 6.90464 9.3878 7.05954 9.11707 7.33027C8.84634 7.601 8.69144 7.96637 8.68509 8.34919C8.68309 8.74222 8.83557 9.12032 9.10967 9.40202C9.38376 9.68372 9.75755 9.84647 10.1505 9.85522C10.5433 9.85255 10.9192 9.69502 11.1966 9.41685C11.4739 9.13868 11.6304 8.76232 11.6319 8.3695H11.6261Z" fill="#ED1E3A"/>
<path d="M41.6465 32.338C43.421 32.3491 45.1188 33.0631 46.3679 34.3236C47.617 35.5841 48.3155 37.2883 48.3105 39.0629C48.2864 40.837 47.5632 42.53 46.2981 43.774C45.0329 45.018 43.328 45.7125 41.5537 45.7066C39.7886 45.6833 38.1037 44.9657 36.8638 43.7093C35.6238 42.4528 34.9287 40.7585 34.9289 38.9933C34.9313 38.1147 35.1072 37.2453 35.4465 36.4349C35.7857 35.6245 36.2816 34.889 36.9057 34.2707C37.5298 33.6524 38.2699 33.1634 39.0834 32.8317C39.897 32.5 40.768 32.3323 41.6465 32.338ZM41.6335 34.5274C41.0446 34.5226 40.4606 34.6342 39.9149 34.8556C39.3692 35.0771 38.8726 35.4042 38.4537 35.818C38.0347 36.2318 37.7016 36.7243 37.4734 37.2672C37.2453 37.8101 37.1265 38.3928 37.1241 38.9816C37.1189 39.5756 37.2314 40.1647 37.4551 40.7149C37.6788 41.2651 38.0093 41.7656 38.4275 42.1874C38.8457 42.6092 39.3433 42.944 39.8915 43.1725C40.4398 43.401 41.0279 43.5186 41.6219 43.5186C42.812 43.5099 43.951 43.0332 44.7926 42.1916C45.6342 41.35 46.1109 40.211 46.1196 39.0208C46.1166 37.832 45.6429 36.6927 44.8023 35.852C43.9616 35.0113 42.8223 34.5377 41.6335 34.5346V34.5274Z" fill="#ED1E3A"/>
</g>
<defs>
<clipPath id="clip0_2170_28">
<rect width="56" height="53" fill="white"/>
</clipPath>
</defs>
</svg>
