<?xml version="1.0" encoding="UTF-8"?> <svg xmlns="http://www.w3.org/2000/svg" width="68" height="79" viewBox="0 0 68 79" fill="none"><g id="Frame" clip-path="url(#clip0_1868_9106)"><g id="Group"><g id="Group_2"><path id="Vector" d="M34.0335 78.9978C33.7206 78.9978 33.3854 78.9532 33.0949 78.8863C25.9441 77.1243 18.2346 75.2284 10.391 73.2657C6.81557 72.3736 3.93289 70.4108 1.80999 67.4221C0.603283 65.727 -6.94621e-05 63.8981 0.0222769 61.8239C0.0446233 56.3594 0.0446233 50.8281 0.0446233 45.4529C0.0446233 43.4456 0.0446233 41.4382 0.0446233 39.4086C0.0446233 37.3343 0.0446233 35.2601 0.0446233 33.1858C0.0446233 28.0113 0.0669696 22.6584 -6.94613e-05 17.417C-0.0224158 14.7852 0.849093 12.4879 2.70384 10.369C4.78205 8.00484 7.39658 6.42127 10.4804 5.66295C17.9664 3.81173 25.5865 1.93821 33.0949 0.0870003C33.6759 -0.0468224 34.3686 -0.0468224 34.9496 0.0870003C41.5642 1.69287 48.715 3.45487 57.4748 5.64064C60.3128 6.35436 62.7932 7.78181 64.8267 9.90066C66.972 12.131 67.9999 14.696 67.9999 17.707C67.9329 33.2973 67.9329 47.5048 67.9999 61.1325C68.0223 64.3888 66.8379 67.1322 64.3798 69.4741C62.4357 71.3476 60.1564 72.6189 57.5865 73.2434L56.4916 73.511C49.4524 75.273 42.1452 77.0797 34.972 78.8417C34.6815 78.9532 34.3463 78.9978 34.0335 78.9978ZM34.0335 1.78209C33.8547 1.78209 33.6759 1.80439 33.5195 1.849C26.0111 3.67791 18.391 5.55143 10.905 7.40264C8.1787 8.07175 5.87703 9.47689 4.04462 11.5511C2.48038 13.3354 1.76529 15.1867 1.78764 17.3947C1.83233 22.6584 1.83233 28.0113 1.83233 33.1858C1.83233 35.2601 1.83233 37.3343 1.83233 39.4086C1.83233 41.4159 1.83233 43.4233 1.83233 45.4529C1.83233 50.8281 1.83233 56.3817 1.80999 61.8239C1.80999 63.4967 2.27926 64.991 3.2625 66.3738C5.1396 68.9834 7.68708 70.7231 10.8379 71.5037C18.6591 73.4887 26.3686 75.3846 33.5195 77.1466C33.8323 77.2135 34.2346 77.2135 34.5474 77.1466C41.7206 75.3846 49.0055 73.578 56.0446 71.816L57.1396 71.5483C59.3966 70.9907 61.4301 69.8532 63.1284 68.2251C65.229 66.1954 66.2122 63.9427 66.1899 61.1548C66.1228 47.5271 66.1228 33.2973 66.1899 17.707C66.1899 15.1644 65.3184 13.0232 63.5083 11.1274C61.7206 9.25385 59.5307 8.00484 57.0279 7.38034C48.2681 5.21687 41.1172 3.45487 34.5027 1.8267C34.391 1.80439 34.2122 1.78209 34.0335 1.78209ZM16.2234 50.895C16.2234 50.9173 16.2234 50.9173 16.2234 50.895C16.2234 50.9173 16.2234 50.9173 16.2234 50.895ZM26.324 43.4902H26.391C26.391 43.4679 26.391 43.4456 26.391 43.4232C26.3686 43.4456 26.3463 43.4679 26.324 43.4902Z" fill="#D27728"></path></g><path id="Vector_2" d="M41.8995 53.0608C41.5643 53.1054 41.2961 53.1054 41.0503 53.15C40.0224 53.3507 39.5531 52.9939 39.3073 51.9233C38.704 49.1353 37.9442 46.3919 37.2291 43.6263C37.1621 43.314 37.0503 43.0241 36.8269 42.7564C36.8269 46.1912 36.8269 49.6037 36.8269 53.1723C36.2012 53.2169 35.5978 53.2392 34.9051 53.2838C34.8604 52.86 34.7933 52.5478 34.7933 52.2132C34.7263 47.7748 34.6816 43.314 34.6369 38.8756C34.6369 38.3849 34.3911 37.5596 35.3073 37.6935C36.1565 37.805 37.3855 36.9797 37.7878 38.541C38.3911 40.9052 39.0392 43.2471 39.8213 45.5667C39.8213 43.3363 39.8213 41.1059 39.8213 38.8756C39.8213 37.6935 40.0224 37.515 41.1844 37.6935C41.4526 37.7381 41.8325 38.0949 41.8548 38.318C41.8995 43.1802 41.8995 48.0647 41.8995 53.0608Z" fill="#3A4053"></path><path id="Vector_3" d="M25.7207 44.2062C25.7207 46.3473 25.8324 48.4216 25.676 50.4735C25.5642 52.0125 24.5587 52.9493 23.2402 53.1277C21.5196 53.373 20.067 52.7039 19.419 51.2765C19.1508 50.6743 18.9721 50.0052 18.9497 49.3584C18.8827 46.5035 18.8603 43.6486 18.905 40.7937C18.9497 38.5633 20.1564 37.4258 22.324 37.4258C24.3799 37.4258 25.5866 38.5633 25.7207 40.6153C25.743 40.8829 25.743 41.1283 25.743 41.3959C25.743 42.5334 24.8268 43.1356 23.7989 42.6003C23.6648 42.5334 23.5307 42.3327 23.5084 42.1988C23.4637 41.9535 23.486 41.6859 23.4637 41.4182C23.4413 40.593 23.5307 39.6339 22.324 39.6562C21.229 39.6785 21.2514 40.593 21.2514 41.3959C21.2514 43.8493 21.2514 46.3027 21.2961 48.7339C21.2961 49.1799 21.2961 49.6929 21.5196 50.0275C21.7207 50.3397 22.2123 50.6297 22.5475 50.6074C22.8603 50.5851 23.352 50.139 23.3966 49.8267C23.5084 48.8677 23.4637 47.9086 23.4637 46.9496C23.4637 46.8157 23.3966 46.5704 23.3296 46.5481C21.8771 46.1912 22.6816 45.0983 22.5028 44.2285C23.5978 44.2062 24.581 44.2062 25.7207 44.2062Z" fill="#3A4053"></path><path id="Vector_4" d="M18.1676 52.6593C17.6313 52.6593 17.2291 52.637 16.8268 52.6593C16.0447 52.7039 15.6201 52.3916 15.6425 51.5664C15.6425 51.4995 15.6201 51.4102 15.6201 51.3433C15.419 49.849 14.4805 49.2245 13.0726 49.6929C12.8492 49.7598 12.6481 50.2281 12.581 50.5404C12.2682 52.5254 12.2235 52.5477 10.1229 51.9009C10.4805 49.6259 10.838 47.3287 11.1955 45.0314C11.5307 42.8679 11.933 40.7267 12.2235 38.5633C12.3352 37.8495 12.5587 37.5596 13.3185 37.5373C15.7766 37.4927 15.7766 37.4704 16.1788 39.8792C16.8045 43.7824 17.4302 47.7078 18.0559 51.6333C18.1229 51.9232 18.1453 52.2132 18.1676 52.6593ZM15.0391 47.4625C14.7263 45.3213 14.4134 43.2917 14.1006 41.262C13.7877 42.3103 13.6313 43.3363 13.4749 44.3622C13.3185 45.3659 13.1844 46.3919 13.0503 47.4848C13.743 47.4625 14.2793 47.4625 15.0391 47.4625Z" fill="#3A4053"></path><path id="Vector_5" d="M33.3184 37.5819C33.3184 38.3403 33.3184 38.9648 33.3184 39.7231C32.0894 39.7231 30.8827 39.7231 29.5866 39.7231C29.5866 41.1059 29.5866 42.3326 29.5866 43.6932C30.1452 43.7155 30.7039 43.827 31.2179 43.7601C32.3352 43.6263 32.8268 44.0277 32.6257 45.1652C32.581 45.4106 32.581 45.6782 32.5363 46.0574C31.5531 46.0574 30.6145 46.0574 29.5866 46.0574C29.5866 47.6186 29.5866 49.0238 29.5866 50.6743C30.5922 50.6743 31.5978 50.6966 32.581 50.6743C33.9665 50.6519 33.3855 51.7002 33.4972 52.3693C33.6313 53.1054 33.2737 53.3284 32.5587 53.3284C30.8156 53.2838 29.095 53.3061 27.3743 53.3061C27.2849 52.9269 27.2179 52.7931 27.2179 52.6593C27.1732 47.9086 27.1061 43.1579 27.1061 38.4072C27.1061 38.1395 27.419 37.6265 27.5978 37.6265C29.4972 37.5596 31.3743 37.5819 33.3184 37.5819Z" fill="#3A4053"></path><path id="Vector_6" d="M50.0336 42.4218C49.7207 42.4887 49.4972 42.5557 49.2961 42.5557C48.8939 42.578 48.4917 42.5557 47.9777 42.5557C47.933 41.9089 47.8883 41.329 47.866 40.7491C47.8213 40.0799 47.5308 39.5893 46.7933 39.567C46.0112 39.5446 45.609 40.0353 45.609 40.7491C45.609 43.6485 45.609 46.5257 45.6537 49.4252C45.6537 50.0943 45.9218 50.6965 46.7486 50.6742C47.5531 50.6742 47.8213 50.1166 47.9107 49.4475C47.9553 49.1576 47.9553 48.8453 47.9553 48.5554C47.9553 46.6596 47.9777 46.6373 49.9665 46.9718C49.9665 48.087 50.1006 49.2468 49.9442 50.362C49.676 52.124 48.3129 53.1277 46.5475 53.1277C44.8939 53.1277 43.8213 52.1909 43.4861 50.3397C43.3297 49.4698 43.352 48.5777 43.3297 47.6855C43.3073 45.3436 43.2626 43.0017 43.3297 40.6821C43.3743 38.6079 44.6034 37.4704 46.6593 37.4704C48.7375 37.4704 49.9218 38.5633 50.0336 40.6375C50.0559 41.2174 50.0336 41.8196 50.0336 42.4218Z" fill="#3A4053"></path><path id="Vector_7" d="M53.2961 52.2801C54.1005 47.1948 51.6871 42.6448 50.5922 37.8718C52.3799 37.2473 52.8491 37.4927 53.2961 39.1878C53.6983 40.6821 54.0782 42.1765 54.6815 43.7154C55.0838 42.1988 55.486 40.7044 55.8659 39.1878C56.3128 37.4481 56.3352 37.4481 58.3687 37.8049C58.2793 38.1618 58.2346 38.4963 58.1229 38.8309C57.5866 40.6375 57.095 42.4664 56.4916 44.2507C55.7989 46.3027 55.486 48.3992 55.5978 50.585C55.7095 52.4808 55.5084 52.5923 53.2961 52.2801Z" fill="#3A4053"></path><path id="Vector_8" d="M34.3017 58.2353C26.2793 58.2353 18.257 58.2353 10.2346 58.213C9.92179 58.213 9.58659 57.923 9.27374 57.7669C9.60894 57.6107 9.96648 57.2985 10.3017 57.2985C20.8045 57.2762 31.3073 57.2985 41.8324 57.3208C47.2626 57.3208 52.6704 57.3208 58.1006 57.3208C58.3687 57.3208 58.6369 57.2539 58.8827 57.3431C59.1508 57.4323 59.3743 57.633 59.5978 57.7892C59.3743 57.923 59.1732 58.1237 58.9274 58.1683C58.6369 58.2353 58.3464 58.1906 58.0335 58.1906C50.1229 58.1906 42.2123 58.1906 34.3017 58.1906C34.3017 58.2129 34.3017 58.2353 34.3017 58.2353Z" fill="#3A4053"></path><path id="Vector_9" d="M34.4358 21.2779C26.3687 21.2779 18.324 21.2779 10.257 21.2556C9.92179 21.2556 9.58659 20.9879 9.27374 20.8541C9.60894 20.6757 9.94413 20.3634 10.2793 20.3634C26.3911 20.3634 42.5028 20.3634 58.6145 20.408C58.9274 20.408 59.2626 20.6757 59.5754 20.8318C59.2402 20.9656 58.9274 21.2333 58.5922 21.2333C51.3966 21.2556 44.1788 21.2556 36.9832 21.2556C36.1341 21.2556 35.2849 21.2556 34.4134 21.2556C34.4358 21.2556 34.4358 21.2779 34.4358 21.2779Z" fill="#3A4053"></path><path id="Vector_10" d="M21.3408 29.9986C21.3408 30.9354 21.3855 31.8499 21.3185 32.7866C21.2291 34.1248 20.3799 34.8609 19.0391 34.8609C17.7207 34.8609 16.8045 34.1025 16.7598 32.7866C16.6928 30.9354 16.6928 29.0842 16.7598 27.233C16.8045 25.8948 17.676 25.181 19.0391 25.181C20.4023 25.181 21.2291 25.8724 21.3185 27.233C21.3855 28.1474 21.3408 29.0842 21.3408 29.9986ZM19.6872 30.0879C19.7095 30.0879 19.7095 30.0879 19.6872 30.0879C19.6872 29.2403 19.7542 28.3928 19.6648 27.5452C19.6425 27.2553 19.2626 26.9876 19.0391 26.6977C18.838 26.9653 18.4358 27.2107 18.4358 27.4783C18.3911 29.1734 18.3911 30.8685 18.4358 32.5636C18.4358 32.8089 18.8604 33.032 19.0838 33.2773C19.285 33.032 19.6425 32.7866 19.6648 32.519C19.7542 31.716 19.6872 30.8908 19.6872 30.0879Z" fill="#3A4053"></path><path id="Vector_11" d="M40.8268 30.0655C40.8268 30.913 40.8715 31.7606 40.8268 32.6081C40.7374 34.0356 39.9106 34.8162 38.5698 34.8162C37.2291 34.8162 36.3575 34.0579 36.3129 32.6081C36.2458 30.8684 36.2458 29.1287 36.3129 27.4114C36.3799 25.9393 37.1844 25.2256 38.5698 25.2256C39.9553 25.2256 40.7374 25.9393 40.8268 27.4114C40.8715 28.2812 40.8268 29.1734 40.8268 30.0655ZM37.8324 29.9763C37.8324 30.8238 37.7877 31.6714 37.8771 32.5189C37.8994 32.8089 38.324 33.0542 38.5698 33.3219C38.7933 33.0542 39.2179 32.7643 39.2402 32.4743C39.3073 30.8238 39.3073 29.1511 39.2402 27.5006C39.2179 27.2106 38.8156 26.9207 38.5922 26.6307C38.3464 26.9207 37.8994 27.2106 37.8548 27.5229C37.743 28.3481 37.8324 29.1734 37.8324 29.9763Z" fill="#3A4053"></path><path id="Vector_12" d="M52.9609 34.5486C52 34.7716 51.3073 34.8609 51.2626 33.7234C51.2402 33.032 50.7486 32.9204 50.257 33.0766C49.9218 33.1658 49.4302 33.478 49.4078 33.7457C49.2737 34.7717 48.7374 34.8386 47.8212 34.5263C48.1341 32.4744 48.4469 30.4447 48.7821 28.4151C48.8939 27.746 49.0726 27.0992 49.095 26.43C49.1397 25.5379 49.5196 25.2702 50.4134 25.2479C51.352 25.2256 51.5978 25.6048 51.7095 26.4523C52.0447 29.1288 52.514 31.8052 52.9609 34.5486ZM50.9274 31.6268C50.7486 30.3555 50.5698 29.218 50.4134 28.0805C50.3464 28.0805 50.257 28.0805 50.1899 28.0805C50.0112 29.2403 49.8547 30.4001 49.676 31.6268C50.1453 31.6268 50.4358 31.6268 50.9274 31.6268Z" fill="#3A4053"></path><path id="Vector_13" d="M24.4469 31.3814C24.4469 32.4743 24.4469 33.5226 24.4469 34.6824C23.8882 34.6824 23.419 34.6824 22.7933 34.6824C22.7933 33.2772 22.7933 31.9167 22.7933 30.5785C22.7933 29.1064 22.8156 27.6121 22.7933 26.14C22.7709 25.4486 23.0391 25.2033 23.7095 25.2479C24.1117 25.2702 24.5139 25.2479 24.9385 25.2479C26.5922 25.2925 27.3072 25.9839 27.3519 27.6344C27.3743 28.0359 27.3519 28.4373 27.3519 28.8611C27.3072 30.4447 26.7486 31.0692 25.2067 31.2922C24.9609 31.2922 24.7598 31.3368 24.4469 31.3814ZM24.5139 26.9207C24.5139 27.8128 24.5139 28.7273 24.5139 29.664C26.1005 29.8202 25.5866 28.6827 25.676 27.9689C25.743 27.1883 25.5642 26.5861 24.5139 26.9207Z" fill="#3A4053"></path><path id="Vector_14" d="M46.5922 28.4373C45.6537 28.705 45.1173 28.5935 45.1397 27.5229C45.1397 27.2329 44.7375 26.943 44.514 26.653C44.2682 26.9653 43.8213 27.2552 43.7989 27.5675C43.7319 29.1957 43.7319 30.8238 43.7989 32.452C43.8213 32.742 44.2011 33.0319 44.4246 33.3219C44.6704 33.0319 44.9833 32.742 45.1397 32.4074C45.2514 32.1621 45.095 31.7829 45.2291 31.5376C45.3408 31.3368 45.6537 31.1584 45.8995 31.1361C46.1453 31.1138 46.5252 31.2699 46.6146 31.4483C47.2403 32.742 46.2123 34.5932 44.8045 34.7716C43.3073 34.9723 42.2794 34.1248 42.2347 32.5635C42.19 30.8907 42.2123 29.218 42.2347 27.5675C42.257 25.9616 43.0391 25.181 44.5363 25.2033C45.9442 25.2256 46.6816 26.0508 46.6816 27.6121C46.6592 27.8797 46.6146 28.1251 46.5922 28.4373Z" fill="#3A4053"></path><path id="Vector_15" d="M9.34076 17.4863C9.89942 14.6983 13.676 12.4233 16.2011 13.2039C16.8044 13.3824 17.2514 13.2931 17.8324 13.137C18.7486 12.914 19.7765 13.1816 20.7374 13.2931C20.7821 13.2931 20.8715 13.9623 20.7374 14.2299C20.067 15.5681 18.1229 16.4826 16.5363 15.925C15.3072 15.5012 14.4581 15.8804 13.6313 16.5941C12.3799 17.7316 10.905 17.5086 9.34076 17.4863ZM14.4357 15.1221C13.162 13.9846 11.6648 14.5199 10.5698 16.7056C12.2681 17.1071 13.2514 15.9027 14.4357 15.1221ZM18.1676 15.1444C16.8938 14.4752 15.9106 13.3378 14.324 13.94C16.0894 15.3228 16.7374 15.5235 18.1676 15.1444ZM20.1564 13.8953C19.2179 13.8953 18.5698 13.8953 17.9218 13.8953C18.5922 14.5868 19.2849 14.8544 20.1564 13.8953Z" fill="#D27728"></path><path id="Vector_16" d="M9.31848 61.0901C10.7933 61.1124 12.2235 60.7778 13.4302 61.8261C14.3911 62.6513 15.3743 63.0305 16.7598 62.5621C18.19 62.0937 20 63.0082 20.7151 64.2126C21.095 64.8594 21.1621 65.3278 20.2012 65.417C19.2403 65.4839 18.257 65.9746 17.3185 65.1717C17.1621 65.0378 16.7598 65.1717 16.4917 65.2609C13.7878 66.1307 10.1006 64.1234 9.31848 61.0901ZM10.5028 61.893C11.5308 63.6327 13.0056 64.8148 14.4135 63.365C13.2068 62.6513 12.2235 61.4469 10.5028 61.893ZM14.2794 64.6141C15.9107 64.8594 16.4693 64.6587 18.0336 63.2981C16.5364 62.9636 15.4637 63.655 14.2794 64.6141ZM17.7654 64.4356C18.5252 65.1494 19.2403 64.7925 20.0894 64.5695C19.3073 63.7442 18.6146 63.9226 17.7654 64.4356Z" fill="#D27728"></path><path id="Vector_17" d="M12.5587 26.8761C12.0894 26.8315 11.7095 26.8985 11.5084 26.7646C11.2626 26.5862 11.0615 26.2293 11.0615 25.9394C11.0615 25.7164 11.3967 25.3149 11.5754 25.3149C12.8939 25.248 14.2346 25.2926 15.6425 25.2926C15.6425 25.8279 15.6425 26.2293 15.6425 26.72C15.1955 26.7869 14.771 26.8538 14.19 26.9431C14.19 29.2404 14.19 31.5153 14.19 33.8126C14.19 34.3033 14.257 34.794 13.4972 34.8163C12.7821 34.8386 12.514 34.6156 12.514 33.8795C12.581 31.5376 12.5587 29.2404 12.5587 26.8761Z" fill="#3A4053"></path><path id="Vector_18" d="M59.6648 61.3577C58.3687 63.5881 56.7821 65.1717 54.2347 65.3947C53.6313 65.4393 53.0056 65.2386 52.3799 65.1717C52.1118 65.1271 51.7095 64.9932 51.5531 65.1271C50.6369 65.9523 49.6313 65.3947 48.6704 65.3501C47.866 65.3055 47.8883 64.8594 48.2011 64.2795C48.9162 63.0082 50.7933 62.1384 52.3576 62.6513C53.5419 63.0528 54.3687 62.7629 55.1732 62.0491C56.3129 61.0232 57.676 61.0678 59.0615 61.1124C59.2626 61.1124 59.419 61.2462 59.6648 61.3577ZM58.4358 61.8484C56.6481 61.4023 55.6425 62.6513 54.3911 63.4097C55.7542 64.7479 57.3855 63.9004 58.4358 61.8484ZM54.7933 64.6141C52.581 63.0751 51.8436 62.8744 50.7933 63.4543C51.9777 64.1234 53.0726 65.2386 54.7933 64.6141ZM51.0838 64.7479C49.9889 63.6773 49.3408 63.7665 48.9833 64.8371C49.7207 64.8148 50.4134 64.7925 51.0838 64.7479Z" fill="#D27728"></path><path id="Vector_19" d="M59.5754 17.4193C58.0782 17.4416 56.6704 17.687 55.4637 16.661C54.4805 15.8135 53.4972 15.5012 52.1565 15.925C50.6593 16.3934 48.8939 15.4789 48.2235 14.2745C47.9107 13.7392 47.8436 13.2708 48.6704 13.2039C49.6313 13.137 50.6146 12.624 51.5308 13.4047C51.6648 13.5162 52.0224 13.4716 52.2458 13.4047C55.2626 12.5571 58.5699 14.2745 59.5754 17.4193ZM54.3464 15.122C55.6648 15.925 56.6928 17.1963 58.4358 16.7279C57.3632 14.5198 56.0671 13.9845 54.3464 15.122ZM54.7933 13.9176C52.9833 13.2931 51.933 14.4306 50.5922 15.2113C52.3352 15.7242 53.4972 14.899 54.7933 13.9176ZM51.0391 14.2522C51.0391 14.1184 51.0615 14.0069 51.0615 13.873C50.3688 13.873 49.6537 13.873 48.7598 13.873C49.5643 14.9436 50.3017 14.6091 51.0391 14.2522Z" fill="#D27728"></path><path id="Vector_20" d="M32.8715 33.255C33.5196 33.255 34.0559 33.1881 34.5475 33.2773C34.8157 33.3219 35.2179 33.7011 35.1955 33.9018C35.1732 34.1917 34.838 34.6824 34.6145 34.7047C33.5419 34.7939 32.4693 34.7493 31.2402 34.7493C31.2402 33.9687 31.2402 33.2773 31.2402 32.5859C31.2402 30.4447 31.2402 28.2812 31.2402 26.1401C31.2402 25.5825 31.352 25.2479 32.0224 25.2479C32.7374 25.2479 32.9162 25.5379 32.8939 26.1847C32.8715 27.3222 32.8939 28.482 32.8939 29.6195C32.8715 30.757 32.8715 31.8945 32.8715 33.255Z" fill="#3A4053"></path><path id="Vector_21" d="M55.8212 33.2773C56.4693 33.2773 56.9609 33.1881 57.4078 33.2996C57.6983 33.3665 57.9888 33.7234 58.0782 34.0133C58.1229 34.1694 57.676 34.4371 57.4525 34.6601C57.4078 34.7047 57.3184 34.6601 57.2291 34.6601C54.1899 34.8162 54.1899 34.8163 54.1899 31.8052C54.1899 29.9094 54.2123 28.0359 54.1899 26.1401C54.1899 25.5825 54.3017 25.2479 54.9721 25.2479C55.6648 25.2479 55.7542 25.6048 55.7542 26.1624C55.7318 28.0805 55.7542 29.9986 55.7542 31.9391C55.7765 32.3405 55.7989 32.742 55.8212 33.2773Z" fill="#3A4053"></path><path id="Vector_22" d="M42.5698 63.9673C42.1676 63.6773 41.9218 63.4989 41.5419 63.2089C41.4302 63.5881 41.3408 63.8558 41.2737 64.1011C41.4078 64.2126 41.4525 64.2572 41.5196 64.2795C41.9218 64.5026 42.5922 64.6364 42.6592 64.9263C42.838 65.6847 43.0614 66.5768 42.2123 67.1344C41.5642 67.5582 40.6704 67.179 40.6033 66.3984C40.514 65.417 40.4916 64.391 40.648 63.432C40.7151 63.0974 41.4078 62.696 41.8324 62.6514C42.4581 62.6067 42.7933 63.0751 42.5698 63.9673Z" fill="#3A4053"></path><path id="Vector_23" d="M33.2737 65.0378C33.2737 65.4839 33.4301 65.9969 33.229 66.3538C33.0056 66.7775 32.4916 67.2905 32.1117 67.2905C31.7318 67.2905 31.0838 66.7552 31.0167 66.3538C30.8603 65.4616 30.8603 64.5026 31.0167 63.5881C31.0838 63.1866 31.6424 62.6959 32.067 62.5844C32.7374 62.406 33.1843 62.8967 33.2737 63.5658C33.3184 64.0565 33.2737 64.5472 33.2737 65.0378ZM31.9553 66.4876C32.067 66.4876 32.1564 66.4876 32.2681 66.4876C32.2681 65.4616 32.2681 64.4133 32.2681 63.3874C32.1564 63.3874 32.067 63.3874 31.9553 63.3874C31.9553 64.4356 31.9553 65.4616 31.9553 66.4876Z" fill="#3A4053"></path><path id="Vector_24" d="M27.2849 63.142C27.1509 63.5658 27.1285 63.8111 26.9944 63.945C26.8827 64.0788 26.6592 64.1903 26.4805 64.168C26.3911 64.168 26.19 63.8334 26.2347 63.7665C26.5028 63.3428 26.7933 62.7183 27.1732 62.629C27.5308 62.5621 28.3129 63.0082 28.3799 63.3428C28.4916 63.8781 28.2235 64.5472 28 65.1048C27.8213 65.5285 27.4414 65.8631 27.1509 66.1976C27.2402 66.3315 27.2626 66.3984 27.3073 66.443C27.6648 66.6437 28.0447 66.8445 28.4023 67.0452C27.8436 67.1344 27.2849 67.3128 26.7486 67.2905C26.5699 67.2905 26.2347 66.666 26.3017 66.443C26.4581 65.93 26.7933 65.4616 27.1285 65.0379C27.6872 64.2572 27.7319 64.1457 27.2849 63.142Z" fill="#3A4053"></path><path id="Vector_25" d="M37.5419 62.4283C37.5419 64.0788 37.5642 65.4394 37.5195 66.7776C37.5195 66.9114 37.2737 67.0675 37.1397 67.2013C37.0279 67.0452 36.8492 66.8668 36.8268 66.7107C36.7821 66.0416 36.8492 65.3724 36.7821 64.7256C36.7374 64.3019 36.5587 63.8781 36.3799 63.2982C36.581 63.1644 36.9162 62.919 37.5419 62.4283Z" fill="#3A4053"></path><g id="Group_3"><path id="Vector_26" d="M26.838 15.3673C26.838 13.6946 26.838 12.0441 26.838 10.3936C27.1509 10.3936 27.4861 10.3936 27.7989 10.3936C27.7989 12.3563 27.7989 14.2968 27.7989 16.2818C27.6872 16.2372 27.5754 16.2149 27.4637 16.1703C27.3296 16.1257 27.1956 16.0365 27.0615 16.0365C26.8604 16.0365 26.6592 16.0811 26.4805 16.1034C26.2347 16.148 26.0112 16.2372 25.7877 16.2595C24.9162 16.3264 24.0894 15.8134 23.9553 14.8321C23.933 14.6982 23.933 14.5644 23.933 14.4306C23.933 13.2262 23.933 12.0218 23.933 10.8174C23.933 10.7282 23.933 10.6166 23.933 10.5274C23.933 10.4382 23.9553 10.4159 24.0447 10.3936C24.3129 10.3713 24.581 10.3267 24.8492 10.3044C24.9386 10.3044 24.9386 10.349 24.9386 10.4159C24.9386 11.7764 24.9386 13.137 24.9386 14.5198C24.9386 15.0105 25.1844 15.3227 25.7207 15.3673C26.0559 15.3896 26.4358 15.3673 26.838 15.3673Z" fill="#3A4053"></path><path id="Vector_27" d="M29.229 16.0142C29.229 16.5718 29.229 17.0848 29.229 17.5978C29.229 17.687 29.2067 17.7093 29.1397 17.7539C28.9162 17.8431 28.6927 17.9323 28.4916 18.0215C28.4469 18.0438 28.4022 18.0438 28.3352 18.0661C28.3352 17.91 28.3352 17.7985 28.3352 17.6647C28.3352 15.925 28.3352 14.163 28.3352 12.4233C28.3352 12.2895 28.3128 12.1556 28.3352 12.0441C28.3352 11.9995 28.3575 11.9103 28.4022 11.888C28.6704 11.7765 28.9385 11.665 29.229 11.5311C29.229 11.665 29.229 11.7988 29.229 11.9549C29.2961 11.9103 29.3184 11.9103 29.3408 11.8657C29.4972 11.7096 29.6983 11.6203 29.9218 11.598C30.324 11.5534 30.7262 11.598 31.1061 11.7765C31.5754 11.9995 31.8212 12.3787 31.9106 12.8694C32 13.4493 31.933 14.0292 31.9553 14.6091C31.9553 14.899 31.933 15.1889 31.7989 15.4789C31.5978 15.9027 31.2626 16.1034 30.838 16.2149C30.4134 16.3264 30.0335 16.2149 29.6313 16.1034C29.5195 16.0811 29.3855 16.0365 29.229 16.0142ZM29.2514 14.2076C29.2514 14.5644 29.2514 14.899 29.2514 15.2559C29.2514 15.3897 29.2961 15.4343 29.4302 15.4343C29.7207 15.4343 30.0112 15.412 30.3017 15.4343C30.7933 15.4343 31.0838 15.0997 31.0838 14.6537C31.0838 14.1853 31.0838 13.6946 31.0838 13.2262C31.0838 12.9363 30.9721 12.6686 30.5922 12.5571C30.4357 12.5125 30.2346 12.4902 30.0782 12.4902C29.5866 12.4679 29.2737 12.8024 29.2737 13.2931C29.2514 13.5608 29.2514 13.873 29.2514 14.2076Z" fill="#3A4053"></path><path id="Vector_28" d="M42.4805 17.174C42.838 17.174 43.1956 17.174 43.5308 17.174C43.9107 17.174 44.0671 17.0401 44.0894 16.6387C44.1118 16.4379 44.0894 16.2149 44.0894 15.9919C43.8213 16.0588 43.5755 16.148 43.3297 16.1926C42.6369 16.3487 41.4973 15.9919 41.4302 14.8321C41.3855 13.9845 41.4079 13.1593 41.4079 12.3117C41.4079 12.1333 41.4079 11.9549 41.4079 11.7764C41.4079 11.7318 41.4526 11.6649 41.4749 11.6649C41.7431 11.6203 42.0112 11.598 42.2794 11.5534C42.2794 11.6203 42.2794 11.6872 42.2794 11.7541C42.2794 12.6909 42.2794 13.6277 42.2794 14.5644C42.2794 14.899 42.3688 15.1889 42.704 15.3451C42.771 15.3674 42.8604 15.412 42.9274 15.412C43.3073 15.412 43.6872 15.412 44.0671 15.412C44.0671 14.1629 44.0671 12.9362 44.0671 11.6649C44.3576 11.6649 44.6481 11.6649 44.9386 11.6649C44.9386 11.7095 44.9386 11.7541 44.9386 11.7987C44.9386 13.3823 44.9386 14.9659 44.9386 16.5272C44.9386 16.8171 44.8939 17.107 44.7598 17.3524C44.4917 17.8654 43.9107 17.9992 43.4637 17.9546C43.1509 17.91 42.8157 17.8208 42.5028 17.7539C42.4581 17.7539 42.4135 17.6869 42.4135 17.6646C42.4582 17.5085 42.4805 17.3524 42.4805 17.174Z" fill="#3A4053"></path><path id="Vector_29" d="M36.7151 11.5088C36.4916 11.598 36.2905 11.6872 36.067 11.7764C35.9106 11.5311 35.7095 11.3527 35.419 11.2412C34.9274 11.0627 34.4357 11.085 33.9441 11.2635C33.6983 11.3527 33.5419 11.5311 33.4972 11.7988C33.4525 11.9995 33.4525 12.2002 33.4525 12.3786C33.4525 13.0478 33.4749 13.7169 33.4525 14.386C33.4525 14.8544 33.7207 15.1443 34.0782 15.2558C34.2793 15.3227 34.5028 15.3674 34.7263 15.3674C35.2402 15.3897 35.7542 15.3674 36.2681 15.3674C36.3128 15.3674 36.3799 15.3674 36.4469 15.3674C36.4469 15.5681 36.4469 15.7242 36.4469 15.925C35.9553 16.0142 35.4637 16.0811 34.9721 16.1926C34.4357 16.3041 33.9218 16.2149 33.4078 16.0588C33.0056 15.925 32.7598 15.6573 32.648 15.2781C32.581 15.0551 32.5363 14.8321 32.5363 14.5867C32.5363 13.7838 32.5363 12.9809 32.5363 12.1779C32.5363 11.2858 33.0726 10.639 33.9218 10.3936C34.6369 10.2152 35.3296 10.2152 35.9776 10.5943C36.2905 10.7728 36.514 11.0404 36.6927 11.3527C36.6927 11.4196 36.6927 11.4642 36.7151 11.5088Z" fill="#3A4053"></path><path id="Vector_30" d="M40.0671 11.6649C40.3799 11.6649 40.6704 11.6649 40.9833 11.6649C40.9833 11.8434 40.9833 11.9995 40.9833 12.1779C40.9833 12.2002 40.9162 12.2448 40.8715 12.2448C40.6034 12.2894 40.3352 12.334 40.0671 12.3787C40.0671 12.4233 40.0671 12.4679 40.0671 12.5125C40.0671 13.2708 40.0671 14.0068 40.0671 14.7652C40.0671 14.9213 40.0894 15.0551 40.1341 15.1889C40.1788 15.3451 40.3129 15.4343 40.4917 15.4343C40.7375 15.4343 40.9833 15.4343 41.2514 15.4343C41.2514 15.6127 41.2514 15.7911 41.2514 15.9696C41.2514 15.9919 41.2067 16.0365 41.1844 16.0365C40.9833 16.1034 40.7822 16.1926 40.581 16.2372C40.3352 16.2818 40.0894 16.2149 39.8883 16.1034C39.352 15.8357 39.1732 15.3451 39.1732 14.7875C39.1732 14.0514 39.1732 13.2931 39.1732 12.5571C39.1732 12.5125 39.1732 12.4456 39.1732 12.3787C39.0391 12.3787 38.9274 12.3787 38.8157 12.3787C38.771 12.3787 38.7039 12.3564 38.7039 12.334C38.6146 12.1333 38.5475 11.9103 38.4358 11.6872C38.6816 11.6872 38.9274 11.6872 39.1732 11.6872C39.1732 11.3081 39.1732 10.9512 39.1732 10.5497C39.4637 10.6613 39.7542 10.7505 40.0224 10.862C40.0447 10.8843 40.0671 10.9512 40.0671 10.9735C40.0671 11.1742 40.0671 11.3973 40.0671 11.6649Z" fill="#3A4053"></path><path id="Vector_31" d="M38.9721 8.76544C38.9721 9.23382 38.771 9.63529 38.5252 10.0145C38.324 10.3267 38.0782 10.6167 37.8548 10.9289C37.7207 11.1073 37.5196 11.1296 37.3855 10.9735C36.8939 10.4382 36.4693 9.88063 36.2458 9.18921C36.0894 8.67623 36.2682 8.07402 36.6704 7.71716C37.2514 7.20418 38.2347 7.27109 38.7263 7.9402C38.8827 8.18554 38.9721 8.47549 38.9721 8.76544ZM37.5643 9.63529C38.0559 9.6799 38.4805 9.18921 38.4581 8.76544C38.4358 8.25246 38.0559 7.8956 37.5866 7.8956C37.095 7.8956 36.7375 8.23015 36.7151 8.78775C36.6704 9.21152 37.095 9.65759 37.5643 9.63529Z" fill="#3A4053"></path><path id="Vector_32" d="M38.0112 16.1703C37.7207 16.1703 37.4302 16.1703 37.1397 16.1703C37.1397 14.676 37.1397 13.1816 37.1397 11.6873C37.4302 11.6873 37.7207 11.6873 38.0112 11.6873C38.0112 13.1816 38.0112 14.676 38.0112 16.1703Z" fill="#3A4053"></path><path id="Vector_33" d="M45.9442 11.8211C45.8995 11.888 45.8772 11.9326 45.8325 11.9772C45.7878 11.9326 45.7654 11.888 45.7207 11.8434C45.7207 11.9326 45.6984 11.9995 45.6984 12.0664H45.676C45.676 11.9326 45.676 11.7988 45.676 11.6426C45.7431 11.7319 45.7878 11.7988 45.8325 11.888C45.8772 11.8211 45.9218 11.7542 45.9889 11.6426C45.9889 11.8211 45.9889 11.9549 45.9889 12.0887H45.9665C45.9665 11.9772 45.9442 11.9103 45.9442 11.8211Z" fill="#3A4053"></path><path id="Vector_34" d="M45.4302 12.0441C45.3185 11.9326 45.4749 11.7318 45.2738 11.6649C45.3632 11.6649 45.4749 11.6649 45.609 11.6649C45.542 11.6872 45.4973 11.7095 45.4526 11.7318C45.4302 11.8433 45.4302 11.9326 45.4302 12.0441Z" fill="#3A4053"></path><path id="Vector_35" d="M37.5643 9.25616C37.2961 9.25616 37.095 9.05542 37.095 8.78778C37.095 8.52013 37.2961 8.3194 37.5643 8.3194C37.8325 8.3194 38.0559 8.52013 38.0559 8.78778C38.0559 8.98851 37.8772 9.27846 37.5643 9.25616Z" fill="#3A4053"></path></g></g></g><defs><clipPath id="clip0_1868_9106"><rect width="68" height="79" fill="white"></rect></clipPath></defs></svg> 