<svg width="66" height="53" viewBox="0 0 66 53" fill="none" xmlns="http://www.w3.org/2000/svg">
<g clip-path="url(#clip0_2170_74)">
<path d="M65.4918 5.29935C64.8089 2.49536 62.9149 1.00168 60.015 1C51.8828 1 43.7529 1 35.6252 1C28.1198 1 13.8879 1 6.38258 1C6.21438 1 6.04617 1.00002 5.87797 1.0202C4.81234 1.08646 3.79319 1.48001 2.95958 2.14713C2.12597 2.81426 1.51856 3.72243 1.22036 4.74763C1.14971 4.98648 1.07401 5.22365 1 5.46082V47.5122C1.31623 48.2574 1.52649 49.0749 1.97055 49.7342C3.11267 51.4314 4.81997 52.0017 6.81993 52C24.4714 51.9843 42.123 51.9804 59.7745 51.9882C60.1109 51.9882 60.4473 51.9731 60.7837 51.9478C61.8268 51.8697 62.8219 51.4777 63.6381 50.8236C64.4544 50.1694 65.0537 49.2837 65.3572 48.2826L65.5944 47.5122V5.46082C65.5532 5.4117 65.5188 5.35742 65.4918 5.29935ZM2.90915 5.93685C2.94279 4.89566 3.48614 4.07146 4.34399 3.46761C5.02859 2.98317 5.80398 2.88394 6.61978 2.88394C14.0006 2.88394 28.0391 2.88394 35.4906 2.88394C43.5757 2.88394 51.6614 2.88394 59.7476 2.88394C59.9982 2.88394 60.2521 2.88394 60.5028 2.88394C62.1243 2.97645 63.5086 4.11518 63.628 5.71986C63.7592 7.46752 63.6583 9.232 63.6583 11.0183H52.4626V9.03014C52.4626 8.37918 52.4777 7.72825 52.4626 7.07898C52.4392 6.33878 52.127 5.63711 51.5929 5.12416C51.0587 4.61121 50.345 4.32771 49.6045 4.3343C48.8639 4.34089 48.1554 4.63709 47.6304 5.15948C47.1055 5.68186 46.8059 6.38895 46.7957 7.12945C46.7806 8.42127 46.7957 9.71309 46.7957 10.9982H2.89404C2.89404 9.29089 2.85196 7.61218 2.90915 5.93685ZM48.7065 32.372V23.5143H50.5298V32.372H48.7065ZM50.1901 34.3182L49.6233 36.0087L49.053 34.3182H50.1901ZM48.7234 21.548V9.72485H50.5248V21.548H48.7234ZM48.7234 7.76358C48.6477 7.23374 48.5854 6.69211 49.1035 6.41794C49.256 6.34622 49.4214 6.3057 49.5898 6.29877C49.7582 6.29183 49.9262 6.31863 50.0841 6.37757C50.656 6.63661 50.614 7.20006 50.5366 7.76859L48.7234 7.76358ZM63.6937 46.688C63.6937 48.2944 62.6844 49.6249 61.1874 49.9798C60.693 50.0773 60.189 50.1185 59.6853 50.1026C42.091 50.1026 24.4972 50.1026 6.90404 50.1026C6.65173 50.1026 6.39942 50.1026 6.14711 50.0858C4.18751 49.9462 2.90409 48.582 2.89231 46.6241C2.88559 45.5857 2.88559 44.549 2.89231 43.514C2.89736 43.4199 2.89736 43.3255 2.89231 43.2314C2.89231 43.1456 2.89231 43.0632 2.89231 42.9724C2.89231 42.8815 2.89231 42.8042 2.89231 42.715V12.9931H46.794C46.794 13.2723 46.794 13.5196 46.794 13.7652C46.794 20.0818 46.794 26.3974 46.794 32.7118C46.7838 33.1091 46.8315 33.5057 46.9353 33.8893C47.2903 35.0499 47.6855 36.2004 48.0757 37.3493C48.3466 38.1449 48.9167 38.5772 49.6468 38.5721C50.3768 38.5671 50.9218 38.1398 51.1994 37.3257C51.5089 36.4141 51.8519 35.5091 52.0958 34.5772C52.3112 33.8395 52.4339 33.0779 52.4609 32.3098C52.4895 26.1199 52.4743 19.9299 52.4727 13.7416V12.9914H63.702V13.9687C63.702 14.0057 63.702 14.0427 63.702 14.0797C63.6961 14.1828 63.6961 14.2861 63.702 14.3892V37.5023C63.6903 40.562 63.697 43.625 63.6869 46.688H63.6937Z" fill="#ED1E3A" stroke="#ED1E3A" stroke-width="0.2"/>
<path d="M33.2871 43.2463H11.5987C11.389 43.2567 11.1788 43.2527 10.9696 43.2345C10.7567 43.2205 10.5567 43.1282 10.4079 42.9754C10.2591 42.8226 10.1721 42.62 10.1639 42.4069C10.125 42.1961 10.1682 41.9784 10.2845 41.7983C10.4008 41.6182 10.5815 41.4894 10.7896 41.438C11.0322 41.3755 11.2829 41.35 11.5331 41.3624C26.0761 41.3624 40.6187 41.3624 55.1606 41.3624C55.4114 41.3507 55.6625 41.3762 55.9058 41.438C56.1139 41.489 56.2946 41.6175 56.4112 41.7972C56.5278 41.977 56.5715 42.1944 56.5332 42.4052C56.5258 42.6184 56.4397 42.8213 56.2916 42.9747C56.1434 43.1282 55.9436 43.2213 55.7309 43.2362C55.5217 43.2552 55.3114 43.2592 55.1017 43.2479L33.2871 43.2463Z" fill="#ED1E3A" stroke="#ED1E3A" stroke-width="0.2"/>
<path d="M25.4066 33.6706H11.602C11.3922 33.6833 11.1818 33.6783 10.9729 33.6555C10.4766 33.5731 10.1772 33.2737 10.1604 32.764C10.1419 32.2224 10.4447 31.9045 10.9628 31.8002C11.1507 31.776 11.3406 31.7704 11.5296 31.7834H39.3273C39.4954 31.774 39.6639 31.774 39.832 31.7834C40.3669 31.8439 40.7554 32.2527 40.7167 32.7472C40.716 32.9819 40.6246 33.2074 40.4616 33.3764C40.2986 33.5453 40.0766 33.6447 39.8421 33.6538C39.6535 33.669 39.4642 33.6724 39.2752 33.6639L25.4066 33.6706Z" fill="#ED1E3A" stroke="#ED1E3A" stroke-width="0.2"/>
<path d="M25.3932 38.4611H11.5886C11.3787 38.4727 11.1683 38.4665 10.9595 38.4426C10.736 38.4241 10.5282 38.3204 10.3791 38.1528C10.23 37.9853 10.1512 37.7668 10.1588 37.5427C10.1454 37.0381 10.4314 36.7151 10.9141 36.5991C11.1222 36.567 11.3332 36.5585 11.5432 36.5738H39.3425C39.5522 36.559 39.7629 36.5698 39.9699 36.6058C40.4544 36.7252 40.7387 37.0549 40.7151 37.5578C40.7161 37.7824 40.6316 37.9989 40.4789 38.1635C40.3262 38.3281 40.1166 38.4285 39.8926 38.4443C39.6836 38.4659 39.4732 38.4716 39.2634 38.4611H25.3932Z" fill="#ED1E3A" stroke="#ED1E3A" stroke-width="0.2"/>
<path d="M16.2984 18.4264C17.3295 18.4264 18.3589 18.4264 19.3883 18.4264C20.4177 18.4264 20.9728 18.9596 20.9845 19.9689C21.0081 22.0883 21.0081 24.2071 20.9845 26.3254C20.9728 27.3346 20.3942 27.8594 19.3816 27.8645C17.3014 27.8723 15.2208 27.8723 13.1395 27.8645C12.1303 27.8645 11.5533 27.3195 11.5432 26.3169C11.5196 24.1987 11.5196 22.0804 11.5432 19.9621C11.5549 18.9529 12.1319 18.4365 13.1479 18.4281C14.1907 18.4197 15.242 18.4264 16.2984 18.4264ZM13.4389 25.9284H19.0519V20.3608H13.4389V25.9284Z" fill="#ED1E3A" stroke="#ED1E3A" stroke-width="0.2"/>
<path d="M32.5286 28.8819C30.2814 28.8819 28.0358 28.8819 25.7885 28.8819C25.5228 28.8819 25.1645 28.8819 25.0165 28.7288C24.786 28.4866 24.5455 28.0812 24.5943 27.7936C24.643 27.506 25.0216 27.2503 25.2957 27.0316C25.4017 26.9475 25.622 27.0013 25.7885 27.0013H39.4603C39.5444 27.0013 39.6285 27.0013 39.7109 27.0013C40.303 27.0333 40.7033 27.3949 40.7201 27.913C40.737 28.4311 40.3282 28.8751 39.7109 28.8836C38.3249 28.8987 36.9389 28.8836 35.5529 28.8836L32.5286 28.8819Z" fill="#ED1E3A" stroke="#ED1E3A" stroke-width="0.2"/>
<path d="M32.6631 22.2107C34.9523 22.2107 37.2399 22.199 39.5292 22.2242C39.8387 22.2242 40.2509 22.3201 40.4275 22.5303C40.6041 22.7406 40.7234 23.2318 40.6091 23.4757C40.5203 23.6297 40.3991 23.7626 40.2539 23.8651C40.1087 23.9676 39.9429 24.0373 39.768 24.0694C38.9573 24.1518 38.1331 24.0997 37.3139 24.0997H25.9702C25.802 24.0997 25.6337 24.0997 25.4655 24.0997C24.8869 24.0492 24.5169 23.6523 24.537 23.1174C24.5385 22.9962 24.5643 22.8766 24.6128 22.7655C24.6614 22.6545 24.7318 22.5544 24.8198 22.4711C24.9078 22.3878 25.0117 22.323 25.1252 22.2806C25.2387 22.2382 25.3596 22.219 25.4807 22.2242C26.2157 22.2023 26.9508 22.2158 27.6859 22.2158L32.6631 22.2107Z" fill="#ED1E3A" stroke="#ED1E3A" stroke-width="0.2"/>
<path d="M32.5925 17.3682H39.3308C39.5405 17.3594 39.7505 17.3701 39.9582 17.4002C40.1701 17.426 40.3648 17.53 40.5041 17.6918C40.6435 17.8535 40.7175 18.0614 40.7118 18.2749C40.734 18.4878 40.6741 18.7012 40.5444 18.8715C40.4147 19.0418 40.2249 19.1563 40.0137 19.1916C39.7462 19.2436 39.4736 19.2645 39.2013 19.2538C34.8145 19.2538 30.4276 19.2538 26.0408 19.2538C25.768 19.2642 25.495 19.2439 25.2267 19.1933C25.0244 19.1404 24.846 19.0202 24.7211 18.8524C24.5962 18.6846 24.5323 18.4793 24.5397 18.2703C24.5472 18.0612 24.6255 17.861 24.762 17.7025C24.8985 17.5441 25.085 17.4368 25.2906 17.3985C25.4985 17.3698 25.7084 17.3597 25.918 17.3682H32.5925Z" fill="#ED1E3A" stroke="#ED1E3A" stroke-width="0.2"/>
<path d="M9.06553 9.87752C8.48073 9.87719 7.9092 9.70336 7.42323 9.37804C6.93726 9.05272 6.55874 8.59055 6.33556 8.05001C6.11238 7.50947 6.05458 6.91487 6.16949 6.34147C6.2844 5.76806 6.56681 5.24166 6.98103 4.82885C7.39526 4.41604 7.92265 4.13538 8.49644 4.02244C9.07024 3.90949 9.66468 3.96932 10.2045 4.19434C10.7442 4.41936 11.2051 4.79945 11.5287 5.28653C11.8524 5.7736 12.0243 6.34576 12.0226 6.93056C12.0237 7.31872 11.948 7.7033 11.7996 8.062C11.6513 8.42071 11.4333 8.74647 11.1583 9.02048C10.8834 9.29449 10.5569 9.51129 10.1977 9.6584C9.83851 9.8055 9.45369 9.87997 9.06553 9.87752ZM10.1218 6.95918C10.1298 6.81815 10.1094 6.67693 10.0619 6.54392C10.0143 6.41091 9.94055 6.28881 9.84496 6.1848C9.74938 6.0808 9.63388 5.997 9.50535 5.93841C9.37682 5.87981 9.23787 5.84761 9.09666 5.84367C8.95546 5.83973 8.81489 5.86415 8.68329 5.91549C8.55169 5.96683 8.43177 6.04403 8.33054 6.14254C8.2293 6.24106 8.14882 6.3589 8.09392 6.48906C8.03902 6.61921 8.01079 6.75903 8.01088 6.90029C8.01107 7.17523 8.11842 7.43924 8.31017 7.63627C8.50191 7.83331 8.76295 7.94785 9.03777 7.95552C9.3126 7.96318 9.57962 7.86338 9.78205 7.67734C9.98448 7.4913 10.1063 7.23368 10.1218 6.95918Z" fill="#ED1E3A" stroke="#ED1E3A" stroke-width="0.2"/>
<path d="M16.2646 9.87752C15.6798 9.87918 15.1077 9.70731 14.6206 9.38366C14.1335 9.06001 13.7534 8.59915 13.5284 8.05937C13.3034 7.51959 13.2435 6.92519 13.3565 6.3514C13.4694 5.77761 13.75 5.25021 14.1629 4.83599C14.5757 4.42176 15.1022 4.13931 15.6756 4.0244C16.249 3.9095 16.8435 3.9673 17.3841 4.19047C17.9246 4.41365 18.3868 4.79218 18.7121 5.27814C19.0374 5.76411 19.2112 6.33569 19.2116 6.92049C19.214 7.30865 19.1396 7.69342 18.9924 8.05263C18.8453 8.41185 18.6285 8.73834 18.3545 9.01329C18.0805 9.28823 17.7548 9.5062 17.3961 9.65453C17.0373 9.80287 16.6528 9.87864 16.2646 9.87752ZM17.3109 6.95581C17.3188 6.81458 17.2983 6.67317 17.2506 6.54002C17.2029 6.40686 17.1289 6.28467 17.033 6.18065C16.9372 6.07663 16.8214 5.99293 16.6926 5.9345C16.5638 5.87607 16.4246 5.84406 16.2832 5.84046C16.1418 5.83685 16.001 5.86168 15.8694 5.91347C15.7378 5.96527 15.6179 6.043 15.5169 6.14201C15.4159 6.24101 15.3358 6.35928 15.2813 6.48983C15.2269 6.62038 15.1992 6.76052 15.1999 6.90197C15.192 7.0432 15.2125 7.18457 15.2602 7.31772C15.3079 7.45087 15.3819 7.57311 15.4778 7.67713C15.5736 7.78115 15.6893 7.86484 15.8181 7.92328C15.947 7.98171 16.0862 8.01367 16.2276 8.01728C16.3691 8.02088 16.5097 7.99606 16.6413 7.94426C16.773 7.89247 16.8928 7.81477 16.9939 7.71577C17.0949 7.61677 17.175 7.49849 17.2295 7.36794C17.2839 7.2374 17.3116 7.09725 17.3109 6.95581Z" fill="#ED1E3A" stroke="#ED1E3A" stroke-width="0.2"/>
<path d="M23.4033 9.87818C22.8186 9.86978 22.2494 9.68807 21.7679 9.35603C21.2865 9.024 20.9143 8.5566 20.6987 8.01297C20.483 7.46935 20.4335 6.87392 20.5564 6.30213C20.6793 5.73034 20.9691 5.2079 21.3891 4.80089C21.809 4.39387 22.3403 4.12061 22.9156 4.01571C23.491 3.9108 24.0846 3.97895 24.6212 4.21155C25.1578 4.44415 25.6133 4.83072 25.93 5.32234C26.2468 5.81396 26.4107 6.38851 26.4007 6.97327C26.3959 7.3612 26.3144 7.74434 26.1609 8.10065C26.0074 8.45696 25.785 8.7794 25.5064 9.04939C25.2278 9.31939 24.8986 9.53164 24.5377 9.67388C24.1767 9.81612 23.7912 9.88553 23.4033 9.87818ZM24.5033 6.89927C24.5032 6.75808 24.4748 6.61837 24.4197 6.48836C24.3647 6.35835 24.2842 6.24069 24.1829 6.14234C24.0816 6.044 23.9615 5.96696 23.8299 5.91578C23.6984 5.8646 23.5579 5.84032 23.4167 5.84437C23.2756 5.84842 23.1367 5.88071 23.0083 5.93935C22.8799 5.998 22.7645 6.08176 22.669 6.18575C22.5735 6.28974 22.4998 6.41184 22.4523 6.54479C22.4048 6.67774 22.3844 6.81888 22.3924 6.95984C22.3925 7.10103 22.4209 7.24073 22.476 7.37075C22.531 7.50076 22.6116 7.61842 22.7129 7.71677C22.8142 7.81511 22.9342 7.89214 23.0658 7.94333C23.1974 7.99451 23.3379 8.01879 23.479 8.01474C23.6201 8.01069 23.759 7.9784 23.8874 7.91975C24.0159 7.86111 24.1313 7.77735 24.2268 7.67336C24.3223 7.56937 24.3959 7.44727 24.4435 7.31432C24.491 7.18137 24.5113 7.04023 24.5033 6.89927Z" fill="#ED1E3A" stroke="#ED1E3A" stroke-width="0.2"/>
</g>
<defs>
<clipPath id="clip0_2170_74">
<rect width="66" height="53" fill="white"/>
</clipPath>
</defs>
</svg>
