<svg width="64" height="54" viewBox="0 0 64 54" fill="none" xmlns="http://www.w3.org/2000/svg">
<g clip-path="url(#clip0_2170_16)">
<path d="M34.88 47.4113H4.3827C3.03784 47.4113 2.4301 46.805 2.4301 45.4632C2.4301 34.3178 2.4301 23.1721 2.4301 12.0261V11.4249H4.20519C4.97138 11.4249 5.73657 11.4349 6.50277 11.4249C7.04331 11.4148 7.32913 11.1513 7.34017 10.7023C7.35019 10.2364 7.04933 9.94475 6.49174 9.93774C5.35949 9.92471 4.22725 9.93774 3.09501 9.93774H2.52137C2.48025 9.87962 2.44415 9.85256 2.44415 9.8245C2.44415 7.89546 2.41907 5.96541 2.44415 4.03637C2.45417 3.22166 3.13914 2.5723 3.94845 2.51317C4.11393 2.50115 4.28141 2.50716 4.44989 2.50716H48.5502C50.0063 2.50716 50.583 3.07836 50.583 4.52138V9.93774H9.92557C9.70921 9.92946 9.49254 9.93885 9.27771 9.9658C9.09998 9.9831 8.93617 10.0695 8.82155 10.2063C8.70694 10.3431 8.65071 10.5195 8.66496 10.6973C8.67098 11.0861 8.89061 11.3567 9.29777 11.4108C9.51303 11.432 9.7294 11.4397 9.94563 11.4339H50.583V14.9142H52.0813V4.47428C52.0813 2.26465 50.8217 1 48.6214 1H4.52009C4.31952 1 4.11894 1 3.91837 1C2.31377 1.04209 0.995997 2.55326 1.00001 4.0063C1.04815 18.0137 1.05483 32.0207 1.02007 46.0274C1.01224 46.7146 1.27394 47.3775 1.74915 47.8743C2.44314 48.6399 3.32968 48.9134 4.3486 48.9134C14.5244 48.9088 24.7009 48.9071 34.878 48.9084L34.88 47.4113Z" fill="#ED1E3A" stroke="#ED1E3A" stroke-width="0.2"/>
<path d="M23.9247 25.076C23.6614 24.9862 23.4219 24.8378 23.2244 24.642C23.0268 24.4461 22.8764 24.2081 22.7844 23.9457C20.903 23.9457 19.0507 23.9457 17.1984 23.9457C16.4081 23.9457 15.6169 23.9567 14.8266 23.9537C14.61 23.9537 14.4917 24.0208 14.3533 24.2132C14.1346 24.5189 13.8147 24.7504 13.551 25.0229C13.46 25.1112 13.3913 25.2197 13.3504 25.3396C13.3153 25.4588 13.3454 25.5971 13.3394 25.7264C13.2932 26.7385 12.6033 27.43 11.5893 27.4199C11.2153 27.4199 10.9766 27.4781 10.7871 27.8488C10.6527 28.1084 10.3267 28.2657 10.1001 28.4842C10.0048 28.5764 9.88747 28.7056 9.88346 28.8209C9.8624 29.4452 9.86341 30.0715 9.87845 30.6958C9.89349 31.3201 10.2716 31.6979 10.9094 31.6979C12.4669 31.6979 14.0253 31.6979 15.5828 31.6979C15.7523 31.6979 15.8305 31.6338 15.9398 31.4975C16.1905 31.1838 16.5074 30.9233 16.7872 30.6307C16.8791 30.5456 16.9454 30.4366 16.9788 30.316C17.0119 30.1326 16.9788 29.9392 16.9948 29.7518C17.0244 29.3408 17.2082 28.9561 17.5094 28.6746C17.8106 28.3931 18.2071 28.2356 18.6195 28.2337C20.2007 28.2176 21.7822 28.2176 23.3641 28.2337C24.2987 28.2447 24.9757 28.9562 24.9897 29.8911C24.9967 30.328 24.9957 30.764 24.9897 31.2009C24.9847 31.5636 24.7891 31.7911 24.4783 31.8021C24.1674 31.8132 23.9387 31.5717 23.9317 31.2009C23.9237 30.788 23.9317 30.3751 23.9317 29.9623C23.9257 29.5274 23.7131 29.2999 23.2818 29.2979C21.7595 29.2905 20.2371 29.2905 18.7148 29.2979C18.2815 29.2979 18.0759 29.5264 18.0519 29.9573C18.0318 30.308 18.0519 30.5675 18.453 30.769C19.0407 31.0696 19.2984 31.6348 19.2764 32.3032C19.2782 32.619 19.1879 32.9284 19.0166 33.1938C18.8452 33.4591 18.6003 33.6688 18.3116 33.7973C17.8673 34.0108 18.0819 34.3605 18.0739 34.6471C18.0659 34.9337 18.2675 35.1271 18.5653 35.1582C18.7884 35.1807 19.0132 35.1807 19.2362 35.1582C19.2832 35.1476 19.3275 35.1273 19.366 35.0984C19.4046 35.0696 19.4365 35.0329 19.4599 34.9908C19.7938 34.3385 20.3284 34.0048 21.0524 34.0027C21.7765 34.0007 22.303 34.3435 22.644 34.9898C22.8396 35.3586 23.1966 35.1481 23.4694 35.1421C23.7421 35.1361 23.9217 34.9016 23.9297 34.607C23.9417 34.1831 23.9297 33.7582 23.9357 33.3333C23.9417 32.9085 24.1273 32.68 24.4602 32.674C24.7932 32.6679 24.9937 32.8984 24.9967 33.3153C24.9998 33.7322 25.0018 34.141 24.9967 34.5529C24.9847 35.532 24.2947 36.2164 23.3209 36.2284C23.1444 36.2284 22.9669 36.2284 22.7623 36.2284C22.6728 36.503 22.5222 36.7537 22.322 36.962C22.1217 37.1702 21.877 37.3305 21.606 37.4309C21.5388 37.456 21.4977 37.5732 21.4636 37.6564C21.1136 38.5052 20.4357 38.9702 19.515 38.9722C17.7219 38.9722 15.9278 38.9722 14.1336 38.9722C13.919 38.9722 13.8167 39.0523 13.6833 39.2137C13.4717 39.4712 13.1819 39.6636 12.9412 39.8971C12.8487 39.9829 12.7797 40.0909 12.7406 40.2108C12.722 40.3389 12.719 40.4687 12.7316 40.5976C12.7086 41.5576 12.0136 42.2851 11.0518 42.3011C9.50672 42.3199 7.96062 42.3199 6.41352 42.3011C5.43272 42.2911 4.73472 41.5636 4.73071 40.5785C4.72335 39.0573 4.72335 37.5362 4.73071 36.015C4.73071 35.0249 5.43272 34.3194 6.42456 34.3114C7.95828 34.2987 9.49234 34.2987 11.0267 34.3114C12.0296 34.3194 12.7316 35.0359 12.7256 36.048C12.7256 36.4108 12.7637 36.6493 13.1428 36.8497C13.4356 37.006 13.6352 37.3678 13.8247 37.6694C13.925 37.8238 13.9752 37.922 14.1798 37.921C15.9619 37.9119 17.744 37.916 19.5261 37.915C19.7057 37.9225 19.8839 37.879 20.0397 37.7894C20.1956 37.6998 20.3228 37.5679 20.4066 37.4089C20.1703 37.3048 19.9572 37.1548 19.7795 36.9677C19.6018 36.7805 19.4632 36.5598 19.3716 36.3186C19.3536 36.2705 19.2342 36.2434 19.161 36.2384C18.9725 36.2274 18.7829 36.2384 18.5944 36.2334C18.1823 36.2258 17.7882 36.0633 17.4908 35.7781C17.1934 35.493 17.0145 35.1063 16.9898 34.6952C16.9758 34.578 16.9758 34.4596 16.9898 34.3425C17.041 34.0418 16.8895 33.9146 16.6549 33.7462C16.3129 33.5027 16.0481 33.1449 15.6761 32.7672C14.2319 32.7672 12.6494 32.7251 11.0709 32.7812C9.81527 32.8243 8.72615 31.9224 8.80537 30.5194C8.83446 29.9673 8.80537 29.4111 8.8134 28.857C8.8134 28.6706 8.73818 28.5894 8.58976 28.4742C8.28288 28.2337 8.03116 27.923 7.74634 27.6524C7.65293 27.5515 7.53361 27.478 7.40135 27.44C7.1366 27.3929 6.85679 27.423 6.59906 27.3658C5.9151 27.2175 5.36753 26.6113 5.3555 25.9098C5.32741 24.2593 5.3214 22.6079 5.3555 20.9584C5.37355 20.1126 6.08659 19.4552 6.93502 19.4482C8.52825 19.4295 10.1215 19.4295 11.7147 19.4482C12.6323 19.4583 13.3113 20.1597 13.3253 21.1217C13.3313 21.5276 13.3755 21.8092 13.7957 22.0116C14.0454 22.1319 14.1888 22.4626 14.3974 22.682C14.4876 22.7822 14.62 22.8945 14.7333 22.8945C17.3294 22.8945 19.9259 22.8811 22.5227 22.8544C22.637 22.8544 22.7654 22.7381 22.8616 22.6489C23.1578 22.3724 23.446 22.0881 23.7261 21.7962C23.8177 21.7102 23.8831 21.6001 23.9146 21.4785C23.9507 21.26 23.9146 21.0285 23.9517 20.8101C24.0932 19.9924 24.74 19.4071 25.5734 19.4011C27.1429 19.3821 28.7134 19.3791 30.2869 19.4011C31.2306 19.4142 31.9226 20.1457 31.9276 21.0917C31.9363 22.6282 31.9363 24.1611 31.9276 25.6903C31.9226 26.6754 31.2145 27.3829 30.2227 27.3889C28.7124 27.3979 27.2011 27.3959 25.6907 27.3889C24.6227 27.3889 23.9297 26.6814 23.9217 25.6071C23.9237 25.4398 23.9247 25.2744 23.9247 25.076ZM30.8686 23.3815C30.8686 22.6867 30.8686 21.9919 30.8686 21.2971C30.8686 20.6467 30.674 20.4493 30.0302 20.4483C28.7097 20.4483 27.3896 20.4483 26.0698 20.4483C25.905 20.4418 25.7399 20.4448 25.5754 20.4574C25.2585 20.4934 25.0228 20.6758 25.0098 20.9915C24.9987 21.2921 24.8192 21.6418 25.2816 21.8583C25.9073 22.1519 26.2142 22.7091 26.2102 23.4035C26.2102 24.115 25.8632 24.6321 25.2394 24.9678C25.1582 25.0109 25.0479 25.042 25.0088 25.1111C24.726 25.6202 25.1251 26.3216 25.7008 26.3236C27.1857 26.329 28.6709 26.329 30.1565 26.3236C30.6459 26.3236 30.8645 26.1002 30.8676 25.6081C30.8686 24.8656 30.8686 24.124 30.8686 23.3815ZM5.78372 38.2968C5.78372 39.0042 5.78372 39.7114 5.78372 40.4182C5.78372 41.0385 5.98429 41.2379 6.6141 41.2389C7.91048 41.2389 9.20753 41.2389 10.5052 41.2389C10.6697 41.2389 10.8352 41.2389 11.0007 41.2389C11.3326 41.2259 11.5613 41.0676 11.6445 40.7379C11.7588 40.2929 11.6545 40.0144 11.3356 39.836C10.7269 39.4893 10.433 38.9551 10.4431 38.2617C10.4531 37.5682 10.767 37.0712 11.3677 36.7425C11.459 36.6934 11.5873 36.6683 11.6365 36.5912C11.9373 36.1232 11.5292 35.3716 10.9626 35.3686C9.4656 35.3619 7.96831 35.3619 6.47069 35.3686C6.00435 35.3686 5.78773 35.6011 5.78472 36.0701C5.78071 36.8126 5.78372 37.5542 5.78372 38.2968ZM9.34091 20.4984C8.62185 20.4984 7.90279 20.4984 7.18373 20.4984C6.59705 20.4984 6.39948 20.6989 6.39648 21.2841C6.39648 22.1669 6.39648 23.0508 6.39648 23.9346C6.39648 24.5229 6.39648 25.1121 6.39648 25.7013C6.39648 26.035 6.55292 26.2625 6.88488 26.3477C7.34118 26.4629 7.61296 26.3697 7.79247 26.0471C8.4313 24.8886 10.0991 24.8445 10.8201 25.9589C10.9204 26.1122 11.0388 26.3056 11.1902 26.3597C11.3767 26.4219 11.6124 26.3798 11.816 26.3357C11.9535 26.312 12.0766 26.2363 12.1597 26.1244C12.2428 26.0124 12.2795 25.8727 12.2623 25.7344C12.2482 25.4969 12.4448 25.1933 12.0737 25.0329C11.3878 24.7323 11.0528 24.1631 11.0488 23.4356C11.0448 22.7081 11.4148 22.1649 12.0767 21.8322C12.1518 21.805 12.2163 21.7548 12.2613 21.6889C12.516 21.0917 12.1319 20.4984 11.4981 20.4984C10.779 20.4984 10.06 20.4984 9.34091 20.4984ZM12.1078 23.3915C12.0992 23.5304 12.1322 23.6686 12.2024 23.7887C12.2727 23.9088 12.3771 24.0053 12.5024 24.066C12.6277 24.1267 12.7682 24.1487 12.906 24.1294C13.0439 24.1101 13.1729 24.0502 13.2767 23.9575C13.3804 23.8647 13.4542 23.7432 13.4887 23.6084C13.5231 23.4736 13.5167 23.3316 13.4702 23.2005C13.4237 23.0694 13.3393 22.955 13.2276 22.872C13.1159 22.7889 12.982 22.7409 12.8429 22.7341C12.6595 22.7276 12.4806 22.7922 12.3436 22.9143C12.2067 23.0364 12.1222 23.2066 12.1078 23.3895V23.3915ZM9.33088 27.5893C9.515 27.5893 9.69176 27.5171 9.82307 27.3881C9.95438 27.2592 10.0297 27.0838 10.0329 26.8999C10.0353 26.7606 9.99615 26.6238 9.92048 26.5069C9.8448 26.39 9.73602 26.2982 9.60797 26.2433C9.47992 26.1883 9.33841 26.1727 9.20145 26.1984C9.06449 26.2241 8.93828 26.2899 8.8389 26.3875C8.73951 26.4852 8.67145 26.6101 8.64337 26.7465C8.61529 26.8829 8.62847 27.0245 8.68123 27.1534C8.73399 27.2823 8.82395 27.3926 8.93964 27.4702C9.05533 27.5478 9.19153 27.5893 9.33088 27.5893ZM17.5193 31.5506C17.3828 31.5492 17.249 31.5883 17.1347 31.6628C17.0204 31.7374 16.9308 31.8441 16.8771 31.9695C16.8234 32.0949 16.8081 32.2333 16.8331 32.3674C16.8581 32.5015 16.9222 32.6252 17.0175 32.7228C17.1127 32.8205 17.2348 32.8878 17.3683 32.9163C17.5018 32.9447 17.6407 32.933 17.7675 32.8827C17.8944 32.8323 18.0034 32.7456 18.081 32.6333C18.1585 32.5211 18.2011 32.3884 18.2033 32.2521C18.2067 32.1606 18.1915 32.0693 18.1585 31.9839C18.1256 31.8984 18.0756 31.8205 18.0117 31.755C17.9477 31.6894 17.8711 31.6374 17.7865 31.6023C17.7019 31.5672 17.611 31.5496 17.5193 31.5506ZM12.175 38.9862C12.2663 38.9889 12.3573 38.9732 12.4424 38.9401C12.5275 38.907 12.6051 38.8571 12.6706 38.7935C12.7361 38.7298 12.7881 38.6537 12.8236 38.5696C12.859 38.4854 12.8772 38.395 12.877 38.3038C12.8814 38.1214 12.8131 37.9448 12.6872 37.8128C12.5613 37.6808 12.3881 37.6042 12.2056 37.5998C12.0232 37.5954 11.8464 37.6636 11.7143 37.7894C11.5822 37.9153 11.5055 38.0884 11.5011 38.2707C11.4965 38.3623 11.5105 38.454 11.5422 38.5401C11.5739 38.6262 11.6227 38.705 11.6856 38.7718C11.7485 38.8386 11.8243 38.8921 11.9084 38.9289C11.9925 38.9657 12.0832 38.9852 12.175 38.9862ZM23.7702 23.3725C23.7668 23.5079 23.8035 23.6414 23.8757 23.7561C23.9479 23.8707 24.0525 23.9615 24.1762 24.017C24.2999 24.0725 24.4372 24.0903 24.571 24.068C24.7048 24.0458 24.829 23.9845 24.928 23.8919C25.027 23.7993 25.0965 23.6796 25.1276 23.5477C25.1587 23.4158 25.1501 23.2777 25.1029 23.1507C25.0557 23.0236 24.972 22.9134 24.8623 22.8337C24.7526 22.7541 24.6218 22.7086 24.4863 22.7031C24.3951 22.6992 24.304 22.7135 24.2184 22.7452C24.1328 22.7769 24.0543 22.8253 23.9877 22.8876C23.921 22.9499 23.8674 23.0249 23.8301 23.1082C23.7928 23.1914 23.7724 23.2813 23.7702 23.3725ZM20.9933 36.4419C21.0843 36.4492 21.1759 36.4382 21.2626 36.4095C21.3493 36.3809 21.4294 36.3351 21.498 36.2749C21.5667 36.2147 21.6225 36.1413 21.6623 36.0591C21.702 35.977 21.7248 35.8877 21.7294 35.7965C21.7366 35.6124 21.6717 35.4327 21.5485 35.2955C21.4253 35.1584 21.2535 35.0746 21.0695 35.062C20.8903 35.0586 20.7169 35.1248 20.5855 35.2466C20.4542 35.3684 20.3753 35.5364 20.3655 35.7152C20.3556 35.894 20.4155 36.0696 20.5326 36.2051C20.6497 36.3407 20.8148 36.4255 20.9933 36.4419Z" fill="#ED1E3A" stroke="#ED1E3A" stroke-width="0.2"/>
<path d="M37.0472 5.47355H45.7301C45.8974 5.46703 46.0649 5.47171 46.2315 5.48758C46.6136 5.53968 46.8814 5.79923 46.8443 6.14996C46.8172 6.41251 46.5976 6.70413 46.38 6.87949C46.2285 7.00175 45.9357 6.96668 45.706 6.96768C39.9007 6.96768 34.0951 6.96768 28.2892 6.96768C28.0595 6.96768 27.7657 7.00075 27.6152 6.87949C27.3986 6.70312 27.179 6.40951 27.1529 6.14796C27.1178 5.79823 27.3846 5.53768 27.7687 5.48758C27.9353 5.47171 28.1028 5.46703 28.2701 5.47355H37.0472Z" fill="#ED1E3A" stroke="#ED1E3A" stroke-width="0.2"/>
<path d="M7.64505 8.71266C6.98044 8.71532 6.34198 8.45421 5.86997 7.98669C5.39795 7.51918 5.13102 6.88352 5.12784 6.21943C5.12967 5.55445 5.39402 4.91705 5.86347 4.44571C6.33292 3.97437 6.96954 3.70717 7.63502 3.70216C7.96449 3.70136 8.29087 3.76562 8.59541 3.89124C8.89995 4.01686 9.17666 4.20137 9.40963 4.43416C9.6426 4.66695 9.82725 4.94344 9.95297 5.24775C10.0787 5.55206 10.143 5.87819 10.1422 6.20741C10.1461 6.53663 10.0842 6.86332 9.96021 7.16837C9.83622 7.47341 9.65258 7.75068 9.42006 7.98396C9.18754 8.21724 8.91079 8.40184 8.60601 8.52696C8.30123 8.65208 7.97454 8.71521 7.64505 8.71266ZM8.63889 6.20741C8.63983 6.07429 8.61422 5.94232 8.56355 5.8192C8.51288 5.69608 8.43817 5.58428 8.34378 5.49034C8.24938 5.39639 8.13721 5.32218 8.01379 5.27204C7.89038 5.22189 7.75821 5.19683 7.62499 5.19829C7.35622 5.20616 7.10129 5.31914 6.91504 5.51292C6.7288 5.70671 6.62613 5.96581 6.62914 6.23447C6.63517 6.4948 6.74299 6.74243 6.9295 6.9243C7.11601 7.10618 7.36639 7.20784 7.62699 7.20751C7.75994 7.21246 7.89249 7.19019 8.0165 7.14208C8.14052 7.09397 8.25338 7.02103 8.34815 6.92774C8.44292 6.83445 8.5176 6.72278 8.56759 6.5996C8.61759 6.47641 8.64186 6.34431 8.63889 6.21142V6.20741Z" fill="#ED1E3A" stroke="#ED1E3A" stroke-width="0.2"/>
<path d="M19.5652 8.71372C19.2357 8.71361 18.9095 8.64817 18.6056 8.52119C18.3016 8.39421 18.0258 8.20821 17.7943 7.97398C17.5628 7.73975 17.3801 7.46193 17.2568 7.15664C17.1335 6.85134 17.0721 6.52463 17.076 6.19544C17.0775 5.86619 17.1439 5.54045 17.2714 5.23685C17.3989 4.93326 17.5851 4.65776 17.8192 4.42611C18.0534 4.19446 18.331 4.0112 18.636 3.88682C18.9411 3.76243 19.2678 3.69936 19.5973 3.70121C20.2624 3.71067 20.8973 3.98088 21.3649 4.45363C21.8326 4.92637 22.0957 5.56378 22.0974 6.2285C22.0948 6.55793 22.0272 6.8836 21.8984 7.18688C21.7697 7.49016 21.5824 7.76508 21.3472 7.99592C21.112 8.22677 20.8335 8.40899 20.5277 8.53215C20.2219 8.65532 19.8948 8.71702 19.5652 8.71372ZM19.5712 7.21056C19.7046 7.21282 19.837 7.1886 19.961 7.13931C20.0849 7.09003 20.1978 7.01665 20.2931 6.92344C20.3885 6.83023 20.4644 6.71903 20.5164 6.5963C20.5684 6.47357 20.5955 6.34174 20.5961 6.20846C20.5886 5.93965 20.4771 5.68421 20.285 5.49584C20.093 5.30747 19.8353 5.20083 19.5662 5.19835C19.3054 5.20276 19.0566 5.3085 18.8726 5.49315C18.6885 5.6778 18.5837 5.92683 18.5804 6.18742C18.5745 6.3206 18.5958 6.45357 18.6431 6.57822C18.6904 6.70288 18.7626 6.8166 18.8553 6.91244C18.9481 7.00828 19.0594 7.08424 19.1824 7.13566C19.3055 7.18709 19.4378 7.21292 19.5712 7.21157V7.21056Z" fill="#ED1E3A" stroke="#ED1E3A" stroke-width="0.2"/>
<path d="M13.5961 8.71267C13.267 8.71337 12.941 8.64858 12.6372 8.52208C12.3334 8.39557 12.0578 8.20987 11.8266 7.97583C11.5954 7.7418 11.4131 7.4641 11.2904 7.15894C11.1677 6.85377 11.107 6.52723 11.112 6.19839C11.1132 5.86939 11.1792 5.54385 11.3063 5.24035C11.4334 4.93686 11.619 4.66134 11.8527 4.42955C12.0863 4.19775 12.3634 4.01421 12.668 3.8894C12.9727 3.76459 13.2989 3.70097 13.6282 3.70216C14.2933 3.70824 14.9291 3.97717 15.3964 4.45016C15.8638 4.92316 16.1247 5.56177 16.1223 6.22645C16.1216 6.55594 16.0554 6.88201 15.9277 7.1858C15.8 7.48958 15.6133 7.76504 15.3784 7.99625C15.1434 8.22746 14.8649 8.40983 14.559 8.5328C14.2531 8.65577 13.9258 8.71691 13.5961 8.71267ZM13.5961 7.20952C13.7297 7.21344 13.8627 7.19033 13.9872 7.14159C14.1116 7.09285 14.2249 7.01948 14.3203 6.92588C14.4156 6.83228 14.4911 6.72039 14.5421 6.59692C14.5931 6.47346 14.6186 6.34097 14.617 6.20742C14.6144 5.93876 14.506 5.68193 14.3153 5.49252C14.1246 5.30311 13.867 5.19633 13.5981 5.19529C13.3371 5.19864 13.0878 5.30353 12.9029 5.48764C12.7181 5.67176 12.6124 5.92061 12.6083 6.18135C12.6013 6.31493 12.6217 6.44851 12.6684 6.57387C12.7151 6.69922 12.7869 6.8137 12.8796 6.91023C12.9723 7.00675 13.0837 7.0833 13.2071 7.13512C13.3305 7.18693 13.4632 7.21293 13.5971 7.21151L13.5961 7.20952Z" fill="#ED1E3A" stroke="#ED1E3A" stroke-width="0.2"/>
<path d="M37.4203 52.9989C35.2892 52.9989 33.9102 51.623 33.9102 49.4916C33.9102 40.7546 33.9102 32.0169 33.9102 23.2786V17.761C33.9102 15.8571 34.7637 14.7407 36.5929 14.2417L36.617 14.2226L36.6701 14.1855H55.2383L55.2694 14.1956L55.47 14.2577C55.6174 14.3038 55.7708 14.3509 55.9153 14.408C57.231 14.9151 58.0213 16.1176 58.0213 17.6248C58.0213 20.6805 58.0213 23.7356 58.0213 26.79V31.1331C58.0213 31.9815 58.0213 32.8303 58.0213 33.6794C58.0213 33.7025 58.0213 33.7285 58.0213 33.7536C58.0213 33.9149 58.0293 34.1133 57.909 34.2466C57.7886 34.3799 57.5209 34.6314 57.236 34.6655C57.2097 34.6669 57.1832 34.6669 57.1568 34.6655C56.8229 34.6655 56.5631 34.4119 56.511 34.0342C56.4962 33.9064 56.4909 33.7778 56.4949 33.6493V27.8642C56.4949 24.4631 56.4949 21.0613 56.4949 17.6588C56.4949 16.5926 55.9403 15.8631 55.0488 15.7548C54.7028 15.7163 54.3549 15.6985 54.0068 15.7017C53.7731 15.7017 53.5324 15.7067 53.3048 15.7117C53.1193 15.7168 52.9367 15.7208 52.7542 15.7218C52.7395 15.7381 52.727 15.7563 52.7171 15.7759C52.67 15.9763 52.6299 16.1887 52.5917 16.3932V16.4032C52.5586 16.5806 52.5246 16.764 52.4834 16.9463C52.3557 17.5677 52.019 18.1266 51.5293 18.5302C51.0396 18.9338 50.4265 19.1578 49.7917 19.165C48.5361 19.175 47.2595 19.18 45.9959 19.18C44.7102 19.18 43.4094 19.18 42.1298 19.165C40.8501 19.15 39.761 18.2561 39.4642 16.9784C39.3909 16.6637 39.3318 16.3551 39.2636 16.0284L39.2044 15.7278C39.0038 15.7278 38.8033 15.7218 38.6027 15.7178C38.354 15.7127 38.1012 15.7077 37.8586 15.7077C37.5015 15.7077 37.2087 15.7188 36.9369 15.7408C36.1346 15.8069 35.4888 16.5114 35.4376 17.3782C35.4376 17.4384 35.4376 17.4975 35.4376 17.5576V21.1451C35.4376 30.625 35.4376 40.1052 35.4376 49.5858C35.4376 50.5588 35.9902 51.2703 36.8798 51.4426C37.0149 51.465 37.1519 51.4747 37.2889 51.4717H54.6366C55.7297 51.4717 56.4729 50.7572 56.4849 49.695C56.4999 48.4834 56.4959 47.2519 56.4929 46.0614V45.9612C56.4929 45.5075 56.4929 45.0533 56.4929 44.5983H54.436C54.0459 44.5983 53.6558 44.5983 53.2647 44.5983H53.2536C52.4162 44.5983 51.7724 44.2446 51.3392 43.5471C51.301 43.5027 51.2491 43.4724 51.1917 43.4609C49.6874 43.4609 48.128 43.4539 46.5525 43.4539C45.1331 43.4539 43.714 43.4556 42.2953 43.4589C42.2506 43.4625 42.2074 43.4762 42.1689 43.499C41.7677 44.2887 41.1209 44.7015 40.1762 44.7576C40.1762 44.8578 40.1762 44.9651 40.1762 45.0693C40.1762 45.4521 40.1682 45.8489 40.1882 46.2337C40.2043 46.5344 40.5051 46.5835 40.6836 46.5855C40.8963 46.5855 41.1089 46.5855 41.3225 46.5855H42.1348H42.56C42.6867 46.5789 42.8135 46.5979 42.9327 46.6413C43.0519 46.6847 43.1612 46.7516 43.254 46.838C43.3209 46.906 43.3731 46.987 43.4076 47.0759C43.4421 47.1648 43.4581 47.2598 43.4546 47.3551C43.4456 47.809 43.0895 48.1057 42.547 48.1087H42.3915C42.0776 48.1087 41.7637 48.1087 41.4508 48.1087C41.1379 48.1087 40.8682 48.1087 40.6215 48.1026C39.4752 48.0836 38.6629 47.2679 38.6448 46.1185C38.6448 45.7688 38.6448 45.412 38.6448 45.0683C38.6448 45.0683 38.6448 44.8358 38.6448 44.7546L38.5786 44.7466C38.4097 44.7302 38.2422 44.702 38.0772 44.6624C37.0743 44.3989 36.4104 43.492 36.5057 42.5059C36.606 41.4447 37.3842 40.6881 38.4372 40.625C38.7381 40.6069 39.061 40.5979 39.3889 40.5979C39.6998 40.5979 40.0308 40.6059 40.3728 40.623C41.148 40.66 41.7367 41.0459 42.1238 41.7684C42.153 41.8217 42.1926 41.8687 42.2401 41.9067C42.6954 41.9177 43.1427 41.9197 43.5117 41.9197H44.7222V40.0468C44.7222 39.8574 44.7222 39.668 44.7222 39.4786C44.7332 38.276 45.5426 37.4643 46.736 37.4553C47.2896 37.4513 47.8431 37.4496 48.3967 37.4503H51.1506L51.1998 37.3241C51.5277 36.4713 52.2538 35.9612 53.1413 35.9582C54.7269 35.9582 56.1309 35.9502 57.4336 35.9502C58.8266 35.9502 60.1123 35.9502 61.3659 35.9592C61.6405 35.9523 61.9137 36.0002 62.1695 36.1002C62.4253 36.2003 62.6585 36.3503 62.8555 36.5416C63.0525 36.7329 63.2093 36.9616 63.3166 37.2142C63.424 37.4668 63.4798 37.7384 63.4807 38.0128C63.4817 38.2873 63.4277 38.5592 63.3221 38.8126C63.2165 39.0659 63.0612 39.2957 62.8656 39.4883C62.6699 39.6809 62.4377 39.8326 62.1826 39.9343C61.9274 40.0361 61.6546 40.0859 61.3799 40.0808C61.0018 40.0878 60.5937 40.0919 60.0972 40.0919H59.2117H59.1425H58.3222H58.0403V40.4727H60.0932C60.4823 40.4727 60.8725 40.4727 61.2626 40.4727C62.5071 40.4807 63.4428 41.3695 63.4388 42.54C63.4388 43.7275 62.5162 44.5923 61.2535 44.5973C60.8153 44.5973 60.377 44.5973 59.9348 44.5973H58.0193V46.2648C58.0193 47.3481 58.0193 48.4243 58.0193 49.5006C58.0193 51.626 56.6353 52.9999 54.5042 52.9999L37.4203 52.9989ZM38.9166 42.1442C38.8163 42.1442 38.716 42.1442 38.6157 42.1442C38.2527 42.1602 38.027 42.3646 38.027 42.6793C38.027 42.9939 38.2637 43.2064 38.6127 43.2134C38.8785 43.2134 39.1452 43.2204 39.406 43.2204C39.6667 43.2204 39.9485 43.2204 40.2173 43.2134C40.5593 43.2064 40.807 42.9819 40.807 42.6783C40.807 42.3746 40.5763 42.1652 40.2454 42.1462C40.1561 42.1412 40.0599 42.1391 39.9445 42.1391H39.6918H39.6727C39.5935 42.1391 39.5133 42.1391 39.4331 42.1391H39.2325H39.1753L38.9166 42.1442ZM59.5356 43.0721C60.132 43.0721 60.7284 43.0704 61.3248 43.0671C61.4051 43.0689 61.4851 43.0548 61.56 43.0256C61.6348 42.9964 61.7032 42.9526 61.761 42.8967C61.8084 42.8482 61.8457 42.7909 61.8708 42.7279C61.8959 42.665 61.9084 42.5977 61.9074 42.53C61.9074 42.2414 61.6707 42.0229 61.3368 41.9989C61.3017 41.9989 61.2666 41.9989 61.2365 41.9989H53.37C53.2647 41.9961 53.1593 42.0025 53.0551 42.0179C52.9867 42.0268 52.9208 42.0496 52.8614 42.0847C52.8021 42.1199 52.7505 42.1667 52.7098 42.2223C52.6691 42.278 52.6402 42.3413 52.6247 42.4085C52.6092 42.4757 52.6076 42.5453 52.6198 42.6131C52.667 43.014 53.038 43.0711 53.2546 43.0721H54.8713H57.234H59.5356ZM46.7671 41.9197C47.5473 41.9197 48.3275 41.9197 49.1078 41.9197C49.7763 41.9197 50.4419 41.918 51.1045 41.9147C51.1369 41.8997 51.1651 41.877 51.1867 41.8485C51.5678 40.9186 52.2628 40.4646 53.3128 40.4646H53.3439C53.733 40.4646 54.1218 40.4646 54.5102 40.4646H55.6395H56.2693C56.3325 40.4646 56.3986 40.4646 56.4638 40.4566V40.0858H54.6516H53.3018H53.2918C52.4283 40.0858 51.7975 39.7511 51.3612 39.0637C51.3381 39.0305 51.308 39.0028 51.273 38.9825C50.4994 38.9785 49.7262 38.9762 48.9533 38.9755C48.1129 38.9755 47.3547 38.9755 46.6337 38.9865C46.402 38.9865 46.2556 39.1489 46.2526 39.4044C46.2446 40.0317 46.2466 40.6721 46.2526 41.2914C46.2526 41.2914 46.2526 41.7493 46.2526 41.9137L46.7671 41.9197ZM57.928 37.4834C56.4037 37.4834 54.8796 37.4834 53.3559 37.4834C53.2167 37.4783 53.0775 37.4956 52.9438 37.5345C52.8489 37.573 52.7675 37.6385 52.7095 37.7227C52.6515 37.807 52.6195 37.9065 52.6175 38.0087C52.6154 38.111 52.6435 38.2116 52.6981 38.2981C52.7527 38.3846 52.8315 38.4533 52.9247 38.4955C53.0676 38.5408 53.2171 38.5618 53.367 38.5576C54.0456 38.5576 54.7249 38.5576 55.4048 38.5576H61.2375C61.2951 38.5585 61.3528 38.5555 61.41 38.5486C61.5458 38.5393 61.673 38.4786 61.7655 38.3788C61.8581 38.2791 61.909 38.1478 61.908 38.0117C61.907 37.8757 61.8541 37.7452 61.76 37.6468C61.666 37.5484 61.5379 37.4896 61.402 37.4824C61.3624 37.4775 61.3225 37.4755 61.2826 37.4764H57.928V37.4834ZM40.7649 15.7278C40.7779 15.7969 40.791 15.8641 40.803 15.9282C40.8494 16.2317 40.9215 16.5308 41.0186 16.8221C41.2112 17.3432 41.6123 17.6328 42.1498 17.6358C43.3603 17.6428 44.5948 17.6468 45.9267 17.6468C47.093 17.6468 48.3496 17.6468 49.7697 17.6378C50.0303 17.6368 50.2839 17.5526 50.4932 17.3973C50.7025 17.2421 50.8566 17.024 50.933 16.775C51.0126 16.4909 51.0772 16.203 51.1265 15.9122C51.1265 15.9122 51.1506 15.7829 51.1616 15.7278H40.7649Z" fill="#ED1E3A" stroke="#ED1E3A" stroke-width="0.2"/>
<path d="M50.5018 49.4069H49.7737H47.5924C47.2889 49.4069 46.9854 49.4069 46.6818 49.4069C45.5135 49.3938 44.6139 48.523 44.5898 47.3816C44.5833 47.1139 44.6302 46.8475 44.7281 46.5982C44.8259 46.3488 44.9726 46.1215 45.1595 45.9296C45.35 45.7324 45.578 45.5752 45.8301 45.4674C46.0822 45.3595 46.3534 45.303 46.6277 45.3013C47.4581 45.2892 48.2784 45.2842 49.0647 45.2842C49.883 45.2842 50.6923 45.2902 51.4715 45.3023C51.7395 45.3033 52.0046 45.3577 52.2513 45.4621C52.498 45.5665 52.7215 45.719 52.9087 45.9105C53.0973 46.1094 53.2445 46.3437 53.3417 46.5998C53.439 46.856 53.4844 47.1288 53.4753 47.4027C53.4512 48.53 52.5637 49.3908 51.4124 49.4069C51.1085 49.4059 50.8046 49.4069 50.5018 49.4069ZM50.4015 47.8787C50.7104 47.8787 51.0193 47.8787 51.3291 47.8787C51.7132 47.8787 51.9419 47.6782 51.9419 47.3485C51.9419 47.0189 51.7173 46.8224 51.3271 46.8204C50.5683 46.8204 49.8095 46.8188 49.0506 46.8154C48.2918 46.8121 47.5273 46.8138 46.757 46.8204C46.6638 46.8152 46.5704 46.8287 46.4824 46.86C46.3944 46.8913 46.3136 46.9399 46.2446 47.0028C46.1999 47.0508 46.1655 47.1073 46.1434 47.169C46.1213 47.2307 46.1121 47.2962 46.1162 47.3616C46.1272 47.6792 46.374 47.8767 46.7601 47.8797C47.0609 47.8797 47.3528 47.8797 47.6486 47.8797L50.4015 47.8787Z" fill="#ED1E3A" stroke="#ED1E3A" stroke-width="0.2"/>
<path d="M54.2355 18.0743C54.1368 18.073 54.0394 18.0521 53.9489 18.0127C53.8584 17.9733 53.7767 17.9164 53.7085 17.8451C53.6404 17.7738 53.5871 17.6896 53.5519 17.5975C53.5167 17.5054 53.5002 17.4072 53.5034 17.3087C53.5073 17.113 53.5883 16.9268 53.7287 16.7905C53.8691 16.6541 54.0577 16.5785 54.2535 16.5801H54.2676C54.3674 16.5823 54.4659 16.6041 54.5572 16.6443C54.6486 16.6845 54.7312 16.7424 54.8001 16.8146C54.8679 16.8847 54.9211 16.9676 54.9566 17.0585C54.992 17.1493 55.0091 17.2463 55.0067 17.3437C54.9975 17.5387 54.9143 17.7228 54.774 17.8585C54.6337 17.9943 54.4468 18.0714 54.2515 18.0743H54.2355Z" fill="#ED1E3A" stroke="#ED1E3A" stroke-width="0.2"/>
<path d="M45.2909 17.5312C45.1535 17.5312 45.0151 17.5312 44.8777 17.5262C44.4184 17.5111 44.0994 17.2175 44.0854 16.7956C44.0808 16.6961 44.0961 16.5967 44.1306 16.5033C44.165 16.4098 44.2179 16.3242 44.286 16.2515C44.3648 16.1727 44.4587 16.1107 44.5621 16.069C44.6655 16.0273 44.7762 16.0069 44.8877 16.009C45.2598 16.003 45.6258 16 45.9758 16C46.3489 16 46.7169 16 47.072 16.01C47.5263 16.019 47.8442 16.3327 47.8442 16.7706C47.8442 17.2085 47.5433 17.5081 47.074 17.5242C46.9406 17.5242 46.7972 17.5312 46.6237 17.5312H45.9417H45.6328H45.2969H45.2909Z" fill="#ED1E3A" stroke="#ED1E3A" stroke-width="0.2"/>
</g>
<defs>
<clipPath id="clip0_2170_16">
<rect width="64" height="54" fill="white"/>
</clipPath>
</defs>
</svg>
