<svg width="67" height="54" viewBox="0 0 67 54" fill="none" xmlns="http://www.w3.org/2000/svg">
<g clip-path="url(#clip0_2170_50)">
<path d="M1.00239 4.14307C1.26331 3.35015 1.55761 2.58226 2.20398 1.99844C3.03443 1.24842 4.02215 1 5.10876 1C13.5204 1.00357 21.9321 1.00357 30.3438 1C35.311 1 40.2782 1 45.2454 1C47.057 1 48.4302 1.85904 49.0033 3.34061C49.4006 4.36825 49.2827 5.43639 49.2761 6.53432H47.4329C47.4329 6.03212 47.4359 5.5323 47.4329 5.03249C47.4234 3.58427 46.7014 2.85629 45.2537 2.85629C31.8387 2.85629 18.4235 2.85629 5.00807 2.85629C3.5944 2.85629 2.8569 3.59559 2.8569 5.00091C2.8569 17.2014 2.8569 29.4018 2.8569 41.6019C2.8569 42.9721 3.59916 43.7126 4.9753 43.7257C5.47988 43.7305 5.98506 43.7257 6.52419 43.7257V45.5623C5.02296 45.5921 3.53423 45.7452 2.2832 44.6538C1.59514 44.0539 1.26748 43.2688 1 42.4383L1.00239 4.14307Z" fill="#ED1E3A" stroke="#ED1E3A" stroke-width="0.2"/>
<path d="M54.8557 41.7398C54.8557 44.1676 54.8557 46.595 54.8557 49.022C54.8557 50.4059 54.1218 51.1458 52.748 51.1458C39.2965 51.1458 25.8451 51.1458 12.3939 51.1458C10.9821 51.1458 10.2803 50.4029 10.2803 48.9136C10.2803 39.1968 10.2803 29.4799 10.2803 19.7628C10.2803 17.352 10.2803 14.9409 10.2803 12.5294C10.2803 10.9912 10.969 10.2996 12.5041 10.299C19.1934 10.2958 25.8826 10.2958 32.5719 10.299C39.2611 10.3022 45.9506 10.3022 52.6402 10.299C53.8674 10.299 54.5892 10.7907 54.8057 11.774C54.8454 11.9875 54.8622 12.2046 54.8557 12.4216C54.8557 16.1389 54.8557 19.8565 54.8557 23.5742H56.7108V12.564C56.7108 9.96544 55.1959 8.4362 52.5967 8.43561C39.2524 8.43203 25.908 8.43323 12.5637 8.43919C12.1324 8.43919 11.6862 8.45825 11.2716 8.56429C9.45282 9.02836 8.424 10.4563 8.4234 12.4877C8.42022 24.635 8.42182 36.7825 8.42817 48.9303C8.4215 49.3646 8.47015 49.798 8.57293 50.22C9.03224 51.9697 10.4483 52.9973 12.379 52.9985C19.1239 53.0024 25.8685 53.0024 32.613 52.9985C39.2665 52.9985 45.9202 52.9985 52.5741 52.9985C55.2108 52.9985 56.7102 51.4913 56.7102 48.8421V41.7398H54.8557Z" fill="#ED1E3A" stroke="#ED1E3A" stroke-width="0.2"/>
<path d="M4.7406 6.53212V4.75684H6.53256V6.53212H4.7406Z" fill="#ED1E3A" stroke="#ED1E3A" stroke-width="0.2"/>
<path d="M10.2439 4.76074V6.52886H8.45673V4.76074H10.2439Z" fill="#ED1E3A" stroke="#ED1E3A" stroke-width="0.2"/>
<path d="M12.1717 4.74707H13.9619V6.53009H12.1717V4.74707Z" fill="#ED1E3A" stroke="#ED1E3A" stroke-width="0.2"/>
<path d="M52.9762 15.9131V17.6931H12.1878V15.9131H52.9762Z" fill="#ED1E3A" stroke="#ED1E3A" stroke-width="0.2"/>
<path d="M19.5772 20.501C19.5772 21.0705 19.5969 21.5733 19.5611 22.0714C19.5534 22.1756 19.3407 22.3472 19.2221 22.3484C16.9774 22.365 14.7335 22.3641 12.4904 22.3454C12.3713 22.3454 12.1675 22.1363 12.1544 22.0094C11.9989 20.5016 12.0067 20.501 13.5031 20.501H19.5796H19.5772Z" fill="#ED1E3A" stroke="#ED1E3A" stroke-width="0.2"/>
<path d="M12.1389 24.2607H17.7191C17.7191 24.7968 17.7388 25.2978 17.7031 25.7964C17.6953 25.9007 17.485 26.0735 17.3665 26.0746C15.7381 26.0929 14.1116 26.0929 12.4868 26.0746C12.3677 26.0746 12.1622 25.8959 12.155 25.7923C12.1193 25.2901 12.1389 24.7873 12.1389 24.2607Z" fill="#ED1E3A" stroke="#ED1E3A" stroke-width="0.2"/>
<path d="M52.9886 47.4727V49.2938H47.4764V47.4727H52.9886Z" fill="#ED1E3A" stroke="#ED1E3A" stroke-width="0.2"/>
<path d="M12.1973 12.1904H13.9928C13.9928 12.7218 14.0089 13.2222 13.9791 13.7202C13.9732 13.8233 13.8004 13.9192 13.6974 14.0115C13.6771 14.0294 13.6277 14.0115 13.5913 14.0157C12.0561 14.0943 11.9352 13.9406 12.1973 12.1904Z" fill="#ED1E3A" stroke="#ED1E3A" stroke-width="0.2"/>
<path d="M17.6798 14.0139C17.1502 14.0139 16.6492 14.0335 16.1518 13.9978C16.0475 13.99 15.8837 13.7839 15.8748 13.6606C15.842 13.1947 15.8617 12.7253 15.8617 12.207H17.6798V14.0139Z" fill="#ED1E3A" stroke="#ED1E3A" stroke-width="0.2"/>
<path d="M21.4013 13.9854H19.6141V12.1982H21.4013V13.9854Z" fill="#ED1E3A" stroke="#ED1E3A" stroke-width="0.2"/>
<path d="M60.7981 39.6656C60.4287 39.8151 60.0957 39.9337 59.7794 40.0874C59.6936 40.1291 59.6138 40.275 59.609 40.3769C59.5893 40.7891 59.6054 41.2032 59.5994 41.6166C59.5917 42.1146 59.3778 42.3404 58.8899 42.3434C57.7561 42.3506 56.6222 42.3506 55.4883 42.3434C54.9986 42.3404 54.7764 42.1111 54.7687 41.622C54.7621 41.2085 54.7586 40.7945 54.7687 40.3817C54.7746 40.1964 54.7162 40.0957 54.5339 40.054C54.4202 40.023 54.3091 39.9832 54.2016 39.9349C53.5844 39.6865 53.5844 39.6859 53.1006 40.1732C52.9088 40.3656 52.7223 40.5634 52.5228 40.748C52.2249 41.0245 51.8907 41.0489 51.6077 40.7725C50.7555 39.9384 49.9125 39.0945 49.0789 38.2406C48.7935 37.9469 48.8185 37.6389 49.1122 37.3292C49.3964 37.0313 49.6877 36.7334 49.9897 36.4534C50.1405 36.3128 50.2024 36.1865 50.0791 35.9989C50.02 35.8966 49.9703 35.7891 49.9307 35.6778C49.6865 35.0928 49.6871 35.0928 49.0306 35.0922C48.7327 35.0922 48.4391 35.1035 48.1454 35.0844C47.7403 35.0576 47.524 34.8557 47.5198 34.4613C47.5071 33.2698 47.5071 32.0768 47.5198 30.8822C47.5246 30.4652 47.7665 30.2632 48.2145 30.2501C48.6273 30.2376 49.0419 30.2358 49.4542 30.2501C49.6549 30.2578 49.752 30.1905 49.8116 30.0005C49.9117 29.6895 50.1649 29.3625 50.1137 29.086C50.0654 28.8251 49.7115 28.619 49.4869 28.3932C48.6702 27.5741 48.6702 27.4996 49.4988 26.6721C50.1665 26.0037 50.8347 25.3355 51.5035 24.6675C51.9008 24.2726 52.1969 24.272 52.5966 24.6622C52.8838 24.9427 53.1537 25.243 53.4569 25.5045C53.5415 25.5778 53.7672 25.6094 53.8411 25.551C54.1306 25.3198 54.7067 25.4956 54.758 24.9553C54.7967 24.5454 54.7579 24.129 54.7669 23.7156C54.774 23.2253 54.9951 23.0007 55.4877 23.0007C56.6216 22.9959 57.7555 22.9959 58.8893 23.0007C59.3814 23.0007 59.5899 23.2205 59.5976 23.7233C59.6036 24.1367 59.5851 24.5508 59.6084 24.963C59.6143 25.069 59.7228 25.1846 59.8109 25.2662C59.8747 25.3258 59.9974 25.3169 60.0701 25.3705C60.6062 25.7666 60.9988 25.5629 61.3533 25.0905C61.5104 24.898 61.6864 24.7218 61.8787 24.5645C62.1646 24.3113 62.4679 24.2916 62.736 24.5531C63.5978 25.3943 64.4501 26.2456 65.2928 27.107C65.5639 27.384 65.5484 27.7028 65.2767 27.9917C64.9789 28.311 64.6685 28.6196 64.351 28.9192C64.2187 29.0443 64.1794 29.154 64.2765 29.3142C64.3338 29.4173 64.3836 29.5244 64.4254 29.6347C64.6864 30.2465 64.6858 30.2465 65.3399 30.2465C65.6235 30.2465 65.9076 30.2358 66.19 30.2513C66.6207 30.2745 66.8542 30.4896 66.8596 30.9173C66.8747 32.0869 66.8747 33.2563 66.8596 34.4256C66.8536 34.8575 66.6249 35.0684 66.1894 35.0862C65.7766 35.1035 65.3625 35.1053 64.9497 35.0862C64.718 35.0761 64.6006 35.1619 64.5488 35.3781C64.5199 35.4801 64.4832 35.5796 64.4391 35.676C64.1979 36.261 64.1973 36.2604 64.6566 36.7203C64.8657 36.9294 65.0825 37.1308 65.2797 37.35C65.5556 37.6556 65.5591 37.9666 65.269 38.2627C64.4501 39.0967 63.6234 39.9237 62.789 40.7439C62.4786 41.0489 62.1426 41.0376 61.8233 40.7242C61.4724 40.3745 61.1335 40.0117 60.7981 39.6656ZM62.251 39.4916L63.9923 37.7497C63.7207 37.4817 63.4252 37.1969 63.1369 36.9056C62.7842 36.5481 62.7687 36.3808 62.9683 35.928C63.1823 35.4443 63.3833 34.9548 63.5712 34.4595C63.7451 34.0026 63.8893 33.8817 64.3778 33.8751C64.7888 33.8697 65.1999 33.8751 65.6288 33.8751V31.4987C65.6007 31.4821 65.5704 31.4693 65.5388 31.4606C65.1492 31.4565 64.7596 31.4559 64.3706 31.4511C63.8774 31.4457 63.7433 31.3355 63.567 30.8703C63.3835 30.3865 63.1899 29.9064 62.9784 29.434C62.7669 28.9615 62.7765 28.7858 63.1381 28.4254C63.4282 28.1359 63.7284 27.8565 64.0066 27.5914C63.4026 26.9903 62.845 26.4345 62.2826 25.8739C62.291 25.8679 62.2683 25.878 62.2522 25.8941C61.9752 26.1688 61.7006 26.4446 61.423 26.718C61.0655 27.0719 60.8952 27.0921 60.4448 26.8914C59.9616 26.6763 59.4738 26.469 58.9799 26.2796C58.5033 26.0961 58.3907 25.9579 58.3883 25.4455C58.3883 25.0375 58.3883 24.6294 58.3883 24.2338H55.9727C55.9727 24.6765 55.9727 25.0893 55.9727 25.5021C55.9697 25.9489 55.8476 26.1026 55.4365 26.2641C54.9202 26.4654 54.4093 26.6765 53.9037 26.8973C53.4718 27.0868 53.305 27.0695 52.9571 26.724C52.6592 26.4261 52.3679 26.1217 52.126 25.8733L50.3775 27.6045C50.6611 27.8761 50.9733 28.1645 51.2711 28.4641C51.569 28.7638 51.5935 28.9884 51.4153 29.3899C51.1961 29.8837 50.9858 30.3829 50.7957 30.8893C50.6331 31.3224 50.4878 31.4487 50.0171 31.4529C49.596 31.4576 49.1748 31.4529 48.756 31.4529V33.8757C49.1992 33.8757 49.612 33.8811 50.0249 33.8757C50.4204 33.8686 50.6546 34.0485 50.791 34.422C50.981 34.9403 51.2015 35.4484 51.4219 35.9554C51.5964 36.3575 51.5756 36.5708 51.2658 36.88C50.9679 37.1778 50.6546 37.4656 50.3674 37.739L52.1219 39.4833L52.9898 38.5754C53.2507 38.302 53.5343 38.2609 53.8834 38.4259C54.394 38.6642 54.9176 38.881 55.4472 39.0758C55.8046 39.2087 55.9834 39.4267 55.9762 39.8122C55.9661 40.2446 55.9762 40.6777 55.9762 41.1156H58.3919C58.3919 40.6664 58.3919 40.2423 58.3919 39.8181C58.3889 39.441 58.5587 39.2105 58.9209 39.0776C59.4505 38.8828 59.9694 38.657 60.4871 38.4318C60.8987 38.2531 61.0786 38.2722 61.4039 38.5998C61.7 38.8977 61.9859 39.2134 62.251 39.4916Z" fill="#ED1E3A" stroke="#ED1E3A" stroke-width="0.2"/>
<path d="M57.1916 28.4404C59.5346 28.4494 61.4337 30.3533 61.4212 32.682C61.4201 33.5198 61.1705 34.3383 60.7041 35.0342C60.2377 35.7301 59.5754 36.2721 58.801 36.5916C58.0266 36.9111 57.1748 36.9937 56.3534 36.8291C55.532 36.6646 54.7779 36.2601 54.1864 35.6669C53.5948 35.0737 53.1925 34.3184 53.0302 33.4966C52.8679 32.6747 52.953 31.8232 53.2747 31.0497C53.5963 30.2761 54.1401 29.6154 54.8373 29.151C55.5345 28.6865 56.3538 28.4393 57.1916 28.4404ZM57.179 29.6527C55.5176 29.6563 54.1593 31.0199 54.1688 32.6743C54.1783 34.3286 55.5438 35.6917 57.1945 35.6845C58.8453 35.6774 60.225 34.2917 60.2125 32.6576C60.2037 31.8584 59.8804 31.0949 59.3126 30.5325C58.7448 29.97 57.9783 29.654 57.179 29.6527Z" fill="#ED1E3A" stroke="#ED1E3A" stroke-width="0.2"/>
<path d="M25.133 36.3771C25.133 33.9299 25.133 31.4822 25.133 29.0342C25.133 28.1114 25.3612 27.8904 26.3018 27.8898C27.3539 27.8898 28.4054 27.885 29.4592 27.8898C30.1633 27.8939 30.429 28.1555 30.429 28.8608C30.4326 33.8602 30.4326 38.8593 30.429 43.8583C30.429 44.5648 30.1627 44.8365 29.4657 44.8418C28.3458 44.8502 27.2254 44.8502 26.1046 44.8418C25.3898 44.8371 25.1378 44.5845 25.1366 43.8738C25.1298 41.3757 25.1286 38.8768 25.133 36.3771ZM26.7534 29.5358V43.1923H28.7711V29.5358H26.7534Z" fill="#ED1E3A" stroke="#ED1E3A" stroke-width="0.2"/>
<path d="M18.8117 38.3941C18.8117 36.5652 18.8117 34.7363 18.8117 32.9074C18.8117 32.1621 19.0577 31.9191 19.8048 31.9167C20.926 31.9131 22.0477 31.9107 23.1695 31.9167C23.8075 31.9209 24.0994 32.1967 24.1 32.8234C24.1056 36.5328 24.1056 40.2424 24.1 43.9522C24.1 44.5652 23.8307 44.8339 23.2064 44.841C22.0507 44.8541 20.8948 44.8541 19.7387 44.841C19.0697 44.8351 18.8117 44.5622 18.8099 43.8795C18.8087 42.0518 18.8117 40.2253 18.8117 38.3941ZM22.4725 43.2022V33.5407H20.4619V43.204L22.4725 43.2022Z" fill="#ED1E3A" stroke="#ED1E3A" stroke-width="0.2"/>
<path d="M12.4213 40.3596C12.4213 39.2223 12.4154 38.0857 12.4213 36.949C12.4267 36.1514 12.6435 35.9399 13.4394 35.9363C14.5594 35.9327 15.6788 35.9303 16.7982 35.9363C17.4535 35.9411 17.7209 36.1901 17.7239 36.8388C17.7334 39.1987 17.7334 41.5584 17.7239 43.9179C17.7239 44.5583 17.4398 44.8341 16.8035 44.8407C15.6498 44.8518 14.4959 44.8518 13.3417 44.8407C12.6978 44.8347 12.4321 44.572 12.4243 43.9221C12.4118 42.7366 12.4219 41.5481 12.4213 40.3596ZM16.0618 43.2072V37.5525H14.0578V43.2048L16.0618 43.2072Z" fill="#ED1E3A" stroke="#ED1E3A" stroke-width="0.2"/>
<path d="M39.642 41.2338C37.539 41.2338 35.4363 41.2338 33.3338 41.2338C32.8912 41.2338 32.5033 41.1528 32.3627 40.653C32.2257 40.1663 32.4747 39.7367 32.9686 39.6402C33.1559 39.6129 33.3454 39.6031 33.5345 39.611C37.603 39.611 41.6708 39.611 45.7381 39.611C45.9786 39.6032 46.219 39.6278 46.4529 39.6843C46.8539 39.7951 47.0326 40.0906 47.0046 40.5064C46.9772 40.9097 46.7389 41.1313 46.363 41.207C46.1924 41.2313 46.0198 41.2389 45.8477 41.2296C43.7789 41.2332 41.7103 41.2346 39.642 41.2338Z" fill="#ED1E3A" stroke="#ED1E3A" stroke-width="0.2"/>
<path d="M39.6985 44.8462C37.6302 44.8462 35.5618 44.8462 33.4934 44.8462C33.3386 44.8528 33.1835 44.848 33.0293 44.8319C32.5825 44.7658 32.3026 44.4477 32.3258 44.0181C32.3508 43.5576 32.6034 43.2902 33.0651 43.2359C33.2024 43.2256 33.3403 43.223 33.4779 43.2282H45.7851C45.9228 43.2232 46.0606 43.226 46.1979 43.2365C46.7162 43.2961 47.0141 43.6041 47.0063 44.067C46.9986 44.5436 46.7085 44.8313 46.1622 44.8414C45.2489 44.8581 44.3351 44.8468 43.4218 44.8468L39.6985 44.8462Z" fill="#ED1E3A" stroke="#ED1E3A" stroke-width="0.2"/>
<path d="M39.4472 34.1391C37.3442 34.1391 35.2413 34.1391 33.1384 34.1391C32.6958 34.1391 32.308 34.0581 32.1674 33.5583C32.0304 33.0716 32.2794 32.6421 32.7732 32.5456C32.9607 32.5182 33.1504 32.5084 33.3397 32.5164C37.4074 32.5164 41.4752 32.5164 45.5433 32.5164C45.7838 32.5085 46.0242 32.5332 46.2581 32.5896C46.6585 32.7011 46.8372 32.9959 46.8092 33.4118C46.7818 33.8151 46.5441 34.0367 46.1676 34.1123C45.9972 34.1366 45.8248 34.1442 45.6529 34.135C43.5841 34.1389 41.5155 34.1403 39.4472 34.1391Z" fill="#ED1E3A" stroke="#ED1E3A" stroke-width="0.2"/>
<path d="M39.5032 37.7515C37.4348 37.7515 35.3664 37.7515 33.2981 37.7515C33.1432 37.7581 32.9881 37.7533 32.834 37.7372C32.3872 37.6711 32.1072 37.353 32.1304 36.9234C32.1555 36.4635 32.4086 36.1955 32.8697 36.1418C33.0073 36.131 33.1453 36.1282 33.2832 36.1335H45.5897C45.7276 36.1285 45.8656 36.1313 46.0032 36.1418C46.5209 36.2014 46.8187 36.5094 46.811 36.9723C46.8032 37.4489 46.5131 37.7366 45.9668 37.7467C45.0536 37.7634 44.1403 37.7521 43.2265 37.7521L39.5032 37.7515Z" fill="#ED1E3A" stroke="#ED1E3A" stroke-width="0.2"/>
<path d="M36.6264 22.8209C35.7042 23.6919 34.8261 24.5003 33.9736 25.3361C33.6412 25.6619 33.2885 25.8204 32.8184 25.8067C31.9529 25.7823 31.0855 25.8067 30.2193 25.7972C29.5747 25.7906 29.2346 25.4779 29.2286 24.9167C29.2226 24.3758 29.5318 24.0982 30.1901 24.0868C30.9002 24.0749 31.6121 24.066 32.3216 24.091C32.4919 24.1038 32.6628 24.0783 32.822 24.0165C32.9811 23.9546 33.1245 23.858 33.2414 23.7336C34.2035 22.7846 35.1907 21.8606 36.1683 20.9271C37.0255 20.1098 37.6683 20.2962 37.9727 21.4549C38.3849 23.0252 38.7924 24.5968 39.2237 26.2553C39.4096 26.095 39.549 25.9813 39.6813 25.8597C40.5105 25.0978 41.3213 24.3138 42.1774 23.5828C42.4389 23.3722 42.7591 23.2473 43.0942 23.2254C44.0474 23.1801 45.0005 23.2046 45.9537 23.2111C46.581 23.2153 46.883 23.4792 46.8872 24.0028C46.8914 24.5265 46.5959 24.8011 45.9698 24.8101C45.2072 24.8202 44.4429 24.7844 43.6828 24.8279C43.4028 24.844 43.0716 24.9614 42.8684 25.1472C41.7699 26.1534 40.7059 27.1977 39.6258 28.2254C38.8937 28.9224 38.1961 28.7335 37.9411 27.7631C37.5414 26.2583 37.1548 24.7499 36.761 23.2433C36.7312 23.1283 36.6901 23.0145 36.6264 22.8209Z" fill="#ED1E3A" stroke="#ED1E3A" stroke-width="0.2"/>
</g>
<defs>
<clipPath id="clip0_2170_50">
<rect width="67" height="54" fill="white"/>
</clipPath>
</defs>
</svg>
