<?xml version="1.0" encoding="UTF-8"?> <svg xmlns="http://www.w3.org/2000/svg" width="87" height="58" viewBox="0 0 87 58" fill="none"><g id="Frame" clip-path="url(#clip0_1868_9232)"><g id="Group"><path id="Vector" d="M87 58H3.65669L6.26117 50.9819L3.65669 44.4102H87L83.8746 51.2051L87 58Z" fill="#517AA5"></path><path id="Vector_2" d="M65.8412 51.1138C65.6745 51.0327 65.5079 50.9617 65.3412 50.8704C64.4244 50.4039 64.2994 49.3492 65.1432 48.7711C65.7162 48.3756 66.3517 48.0409 66.9976 47.7671C70.8627 46.1039 73.4671 43.2744 75.1236 39.5422C75.9987 37.5646 76.405 35.4856 76.6863 33.366C76.8113 32.362 76.9571 31.3579 77.0717 30.3539C77.1134 29.9685 77.1238 29.573 77.0926 29.1876C77.0197 28.3966 76.7592 28.2242 75.9674 28.3864C74.2068 28.7414 72.6337 28.072 71.6961 26.5914C71.4982 26.277 71.3002 25.9524 71.0606 25.6685C70.6856 25.2222 70.3314 25.1715 69.8417 25.4961C69.3 25.8612 68.7374 26.2161 68.2686 26.6522C65.3724 29.3397 59.8093 28.6603 57.7569 24.9687C57.4027 24.3298 57.1319 23.6503 56.8089 23.0012C56.2359 21.8349 55.6733 20.6484 55.0587 19.5024C54.9233 19.2488 54.5795 18.904 54.3711 18.9344C54.1002 18.9649 53.7669 19.2691 53.6314 19.5429C52.9126 20.912 52.2563 22.3015 51.5687 23.6807C50.9749 24.8876 50.3915 26.1046 49.3288 26.997C48.8913 27.3621 48.3704 27.6562 47.8391 27.8895C47.0265 28.2343 46.5368 28.1126 46.0368 27.3824C45.5367 26.6421 45.1304 25.8307 44.7033 25.0397C44.5262 24.7152 44.3803 24.3805 44.2241 24.056C44.1615 24.056 44.1095 24.0661 44.0469 24.0661C43.9532 24.5428 43.8594 25.0194 43.7552 25.4961C43.6406 25.993 43.5573 26.4899 43.3906 26.9767C42.6926 28.9746 40.7549 29.4412 39.1818 27.9706C38.7963 27.6157 38.5359 27.139 38.2025 26.7333C37.8587 26.3175 37.5253 25.8815 37.1399 25.5062C36.8586 25.2425 36.5356 25.2527 36.2439 25.5873C34.0353 28.1025 31.2017 28.498 28.0971 27.7475C26.3782 27.3317 25.6906 25.8713 26.2427 23.9951C27.2012 20.7194 29.3369 18.549 32.7227 17.6059C33.3998 17.4132 34.0666 17.1698 34.7542 16.9974C35.4001 16.8351 35.9939 16.9771 36.4419 17.4943C36.9003 18.0115 36.7544 18.5896 36.0877 18.8127C35.8168 18.904 35.5147 18.9344 35.223 18.975C33.4623 19.2488 32.0351 20.0602 30.9412 21.4394C30.8579 21.5408 30.7849 21.6625 30.7224 21.7842C29.9723 23.1331 30.5662 24.3602 32.108 24.634C33.0352 24.7963 33.8999 24.6543 34.6708 24.0762C35.7647 23.2446 36.6919 22.271 37.3691 21.0946C37.4941 20.8715 37.6399 20.6585 37.7962 20.4658C38.0046 20.2123 38.2754 20.0602 38.6192 20.2123C38.9734 20.3745 39.088 20.6788 38.9838 21.0135C38.7546 21.8248 38.8172 22.6361 39.0776 23.4069C39.3068 24.1067 39.5777 24.8166 39.9735 25.4352C40.4424 26.1958 41.1403 26.206 41.7133 25.5265C41.9738 25.2121 42.1926 24.8166 42.2967 24.4211C42.7135 22.839 42.6926 21.3279 41.5571 19.9689C41.0153 19.3198 40.5778 18.5795 40.1402 17.8493C39.5672 16.896 39.8381 15.2632 40.7341 14.5938C41.0153 14.3808 41.5154 14.32 41.9009 14.3606C42.8906 14.462 43.6094 15.0603 44.1928 15.8108C45.1512 17.0684 46.0784 18.3564 47.0473 19.6139C47.6932 20.4658 48.3808 21.2873 49.1205 22.2102C49.5476 21.551 49.9643 20.9729 50.3081 20.3644C51.527 18.2651 52.7147 16.1455 53.9336 14.036C54.1627 13.6405 54.4649 13.2855 54.7774 12.9509C54.9545 12.7582 55.215 12.6061 55.465 12.5148C55.9442 12.3322 56.4651 12.2511 56.8922 12.6162C57.3194 12.9914 57.2985 13.5087 57.1319 13.9853C56.9235 14.5938 56.6422 15.1719 56.3713 15.7601C56.1213 16.2976 56.2359 16.7743 56.5901 17.2306C57.1735 17.971 57.8611 18.042 58.5174 17.3726C59.1842 16.6931 59.7884 15.9426 60.4239 15.2327C60.5802 15.0502 60.7469 14.8778 60.9344 14.7257C62.0908 13.7521 63.3722 14.036 64.0077 15.4051C64.8515 17.1901 64.5494 19.0561 63.2576 20.1007C62.3721 20.8106 61.2157 21.3076 60.0489 21.4597C60.1426 21.7031 60.1947 21.9566 60.3302 22.1493C61.6116 24.0864 63.4659 24.9484 65.7996 24.8571C66.6955 24.8267 67.3414 24.2994 67.8936 23.6604C68.5916 22.8491 68.9874 21.9059 69.102 20.8512C69.1437 20.4455 69.2166 20.05 69.3208 19.6545C69.5813 18.7519 70.6335 18.3766 71.4252 18.9141C72.0399 19.33 72.3524 19.9385 72.4045 20.6687C72.467 21.5915 72.5087 22.5246 72.6441 23.4373C72.8317 24.6645 73.5609 25.3642 74.7069 25.5468C75.8633 25.7293 77.0405 25.1817 77.6031 24.1777C78.3219 22.8998 78.5928 21.4901 78.8636 20.0703C78.9782 19.4415 79.1345 18.8127 79.3533 18.2144C79.8533 16.8351 81.4369 16.2165 82.7703 16.8858C83.0204 17.0075 83.1662 17.3219 83.3642 17.545C83.3642 17.9811 83.3642 18.4273 83.3642 18.8634C83.2808 19.4821 83.2392 20.1007 83.0933 20.7092C82.6557 22.5854 82.1453 24.4413 81.7494 26.3277C81.4681 27.6765 81.3743 29.0659 81.1139 30.4249C80.7493 32.3518 80.27 34.2483 79.9263 36.1752C79.3637 39.3394 77.9573 42.1385 76.1654 44.7753C74.759 46.8544 72.6754 48.2235 70.6022 49.5825C69.9146 50.0287 69.1854 50.4141 68.4457 50.7792C68.1019 50.9516 67.6956 51.0023 67.3102 51.1037C66.8101 51.1138 66.3309 51.1138 65.8412 51.1138ZM60.1635 19.33C61.2157 19.6139 62.5492 18.7519 62.5804 17.9101C62.5908 17.7073 62.4762 17.4233 62.32 17.3118C62.2158 17.2306 61.8616 17.3321 61.7366 17.4538C61.2053 18.0318 60.7156 18.6505 60.1635 19.33Z" fill="#517AA5"></path><path id="Vector_3" d="M7.5009 0C8.23015 0.111558 8.98024 0.162266 9.68866 0.354957C12.2098 1.01416 14.7518 1.6328 17.2312 2.42385C19.0648 3.01206 20.8879 3.71184 22.5965 4.58402C25.8989 6.26753 27.8783 9.00577 28.3888 12.5959C29.0035 16.967 27.545 20.6889 24.0237 23.4982C20.9817 25.9322 17.4813 27.4737 13.5641 28.0416C12.0327 28.2647 10.5221 28.1735 9.04275 27.6765C8.54269 27.5142 8.39684 27.1491 8.7823 26.855C10.4179 25.6279 9.89702 24.0154 9.64699 22.4739C9.15735 19.4111 8.58436 16.3585 8.11556 13.2855C7.77176 11.0544 7.5009 8.80294 7.26129 6.55149C7.17794 5.74016 7.30296 4.90855 7.33421 4.08708C7.34463 3.92481 7.36547 3.76255 7.39672 3.509C6.56329 3.509 5.79236 3.509 5.01102 3.509C3.96923 3.51915 2.92743 3.55971 1.89606 3.52929C1.09388 3.509 0.416717 3.17433 0 2.43399C0 2.20073 0 1.95734 0 1.72408C0.458388 0.699773 1.34391 0.37524 2.39612 0.283966C3.16705 0.223116 3.92755 0.101416 4.68806 0C5.62567 0 6.56329 0 7.5009 0ZM9.09484 3.61042C9.46988 4.34062 9.85535 4.9694 10.095 5.63875C10.345 6.31824 10.5221 7.03829 10.6054 7.74821C10.918 10.4459 11.1368 13.1537 11.4597 15.8514C11.7618 18.3766 12.1265 20.9019 12.5223 23.4272C12.689 24.5022 13.3974 24.9079 14.4809 24.6746C15.7206 24.4008 16.7728 23.772 17.8459 23.1331C19.6482 22.0581 21.2942 20.8005 22.8048 19.3807C23.5236 18.7113 24.1696 17.9405 24.7113 17.1191C26.1906 14.8676 26.0135 12.4438 24.3571 10.3242C23.4716 9.18832 22.3568 8.29586 21.0963 7.61637C18.273 6.10526 15.2831 4.99983 12.1473 4.25949C11.1472 4.02623 10.1366 3.83354 9.09484 3.61042Z" fill="#517AA5"></path><path id="Vector_4" d="M26.0865 37.7877C26.4094 36.8547 26.7324 35.9115 27.0449 34.9785C27.1387 34.6945 27.1907 34.4309 27.6387 34.441C28.045 34.4511 28.2534 34.5323 28.3784 34.9379C28.6701 35.9014 29.0243 36.8446 29.3993 37.9399C29.7015 37.0068 29.9619 36.2158 30.2015 35.4146C30.5141 34.3903 30.5036 34.3903 31.6705 34.512C31.0662 36.2259 30.4724 37.9196 29.8786 39.6132C29.7952 39.6234 29.7431 39.6437 29.691 39.6437C28.868 39.664 28.868 39.664 28.6076 38.9236C28.3055 38.0819 28.0138 37.2401 27.6804 36.2868C27.3053 37.3517 26.9616 38.2847 26.649 39.238C26.5448 39.5727 26.3677 39.6741 26.0135 39.6538C25.6697 39.6437 25.4614 39.6031 25.3364 39.2177C24.8467 37.737 24.3154 36.2766 23.8049 34.8061C23.7737 34.7148 23.7633 34.6134 23.7528 34.5221C23.8049 34.5018 23.8362 34.4816 23.8674 34.4714C24.8988 34.3903 24.8988 34.3903 25.2113 35.3537C25.4718 36.1651 25.7218 36.9764 25.9719 37.7877C26.0135 37.7877 26.0552 37.7877 26.0865 37.7877Z" fill="#517AA5"></path><path id="Vector_5" d="M48.4954 39.5219C47.5578 39.7146 46.9327 39.5118 46.5577 38.6802C46.3076 38.1224 45.9222 37.7066 45.1304 37.9906C45.1304 38.4774 45.1304 38.9844 45.1304 39.5321C44.7345 39.5321 44.3907 39.5321 44.0053 39.5321C44.0053 37.8587 44.0053 36.1752 44.0053 34.37C45.0679 34.4308 46.1409 34.4207 47.1827 34.5627C47.8078 34.654 48.2454 35.1306 48.3391 35.7898C48.4433 36.52 48.3079 37.1691 47.589 37.5849C47.5161 37.6255 47.4432 37.6762 47.3703 37.7167C47.3598 37.7269 47.3494 37.7472 47.3077 37.808C47.6828 38.3455 48.0682 38.9033 48.4954 39.5219ZM45.1825 36.9257C45.6513 36.9257 46.0888 36.946 46.516 36.9257C46.9327 36.9054 47.1827 36.6823 47.2036 36.2563C47.214 35.8101 46.9952 35.5363 46.5577 35.4957C46.1201 35.4552 45.6721 35.4856 45.1929 35.4856C45.1825 35.9724 45.1825 36.4186 45.1825 36.9257Z" fill="#517AA5"></path><path id="Vector_6" d="M52.7355 39.5524C52.7355 37.879 52.7355 36.1955 52.7355 34.512C53.6523 34.512 54.5586 34.4106 55.4441 34.5323C56.7568 34.7148 57.6215 35.8202 57.5798 37.0677C57.5486 38.3354 56.6526 39.38 55.34 39.5321C54.4857 39.6335 53.621 39.5524 52.7355 39.5524ZM53.8814 35.5058C53.8814 36.5403 53.8814 37.5342 53.8814 38.5585C54.6836 38.5991 55.4858 38.7512 56.0484 38.021C56.4755 37.453 56.5172 36.8243 56.163 36.2056C55.6525 35.3233 54.767 35.4856 53.8814 35.5058Z" fill="#517AA5"></path><path id="Vector_7" d="M15.0956 39.5929C15.8352 37.9195 16.5228 36.3171 17.2416 34.7249C17.3041 34.5829 17.5333 34.4207 17.6792 34.4308C17.9605 34.441 18.4084 34.4815 18.4814 34.6438C19.2419 36.2462 19.9295 37.8891 20.6483 39.5219C19.7211 39.7653 19.4919 39.674 19.1794 38.8627C19.0648 38.5483 18.8981 38.4367 18.5751 38.457C18.3147 38.4773 18.0542 38.4976 17.7938 38.457C17.0645 38.3455 16.5645 38.5483 16.3874 39.3089C16.3561 39.4306 16.1373 39.5625 15.9811 39.5929C15.731 39.6233 15.4498 39.5929 15.0956 39.5929ZM18.5751 37.4327C18.3355 36.8648 18.1376 36.378 17.8771 35.7594C17.6167 36.3983 17.4187 36.8952 17.2 37.4327C17.6792 37.4327 18.0855 37.4327 18.5751 37.4327Z" fill="#517AA5"></path><path id="Vector_8" d="M39.8485 39.5827C39.6089 39.5929 39.4735 39.5929 39.338 39.6132C38.8276 39.6842 38.5046 39.4915 38.4004 38.9945C38.3067 38.5483 38.0358 38.386 37.5774 38.457C37.3899 38.4875 37.1919 38.4773 37.0044 38.457C36.2856 38.3658 35.723 38.4773 35.5563 39.3089C35.5355 39.4306 35.3063 39.5625 35.15 39.5929C34.8792 39.6436 34.5979 39.603 34.2541 39.603C34.8271 38.2948 35.3688 37.0474 35.921 35.7999C36.0251 35.5565 36.1502 35.303 36.2543 35.0596C36.5356 34.3801 36.5773 34.3396 37.317 34.441C37.442 34.4613 37.6191 34.5525 37.6712 34.6641C38.4004 36.2563 39.1088 37.8891 39.8485 39.5827ZM37.7754 37.4226C37.5462 36.8749 37.3274 36.378 37.0669 35.7594C36.8169 36.378 36.6085 36.8851 36.3793 37.4226C36.869 37.4226 37.2961 37.4226 37.7754 37.4226Z" fill="#517AA5"></path><path id="Vector_9" d="M65.4662 35.0799C65.2474 35.3841 65.0495 35.6377 64.9244 35.8202C64.3931 35.6782 63.9452 35.5058 63.4764 35.4653C63.2784 35.445 63.0492 35.6985 62.8304 35.8202C62.9867 35.9926 63.1013 36.236 63.2992 36.3273C63.6743 36.4997 64.091 36.5606 64.4869 36.6924C65.3516 36.9865 65.685 37.453 65.6329 38.2238C65.5808 38.9134 65.0495 39.4814 64.2681 39.6233C63.2367 39.8059 62.3095 39.5523 61.4657 38.8729C61.6845 38.6193 61.8824 38.3759 62.0178 38.2238C62.6638 38.4063 63.2263 38.6092 63.7993 38.7005C64.0077 38.7309 64.3827 38.5078 64.4661 38.3049C64.6015 37.9703 64.2681 37.808 63.9868 37.7167C63.5389 37.5747 63.0909 37.453 62.6533 37.3009C61.9553 37.0474 61.6845 36.6518 61.6949 35.9622C61.7053 35.303 62.0699 34.7959 62.7158 34.583C63.6847 34.2584 64.5702 34.4613 65.4662 35.0799Z" fill="#517AA5"></path><g id="Group_2"><path id="Vector_10" d="M18.2001 52.5032C18.2001 52.2902 18.1272 52.128 17.9709 52.0164C17.8146 51.9049 17.5438 51.7832 17.1375 51.6615C16.7312 51.5398 16.4186 51.4079 16.1894 51.2862C15.554 50.9515 15.231 50.5053 15.231 49.9374C15.231 49.6433 15.3143 49.3796 15.4914 49.1463C15.6581 48.9131 15.9082 48.7305 16.2207 48.6088C16.5437 48.477 16.8979 48.4161 17.2937 48.4161C17.6896 48.4161 18.0543 48.4871 18.3668 48.6291C18.6793 48.7711 18.9189 48.9739 19.096 49.2275C19.2731 49.481 19.3565 49.7751 19.3565 50.0996H18.2001C18.2001 49.8461 18.1168 49.6534 17.9605 49.5216C17.7938 49.3796 17.575 49.3187 17.2833 49.3187C17.002 49.3187 16.7833 49.3796 16.627 49.4911C16.4707 49.6027 16.3874 49.765 16.3874 49.9475C16.3874 50.1199 16.4811 50.2721 16.6583 50.3938C16.8458 50.5155 17.1062 50.627 17.4708 50.7284C18.1272 50.9211 18.6064 51.1544 18.9085 51.4383C19.2106 51.7223 19.3565 52.0773 19.3565 52.5032C19.3565 52.9697 19.169 53.345 18.8043 53.6086C18.4397 53.8723 17.9397 54.0143 17.325 54.0143C16.8979 54.0143 16.502 53.9332 16.1478 53.781C15.7936 53.6289 15.5227 53.416 15.3352 53.1523C15.1477 52.8886 15.0539 52.5742 15.0539 52.2192H16.2103C16.2103 52.8176 16.5749 53.1218 17.3146 53.1218C17.5854 53.1218 17.8042 53.0711 17.9605 52.9596C18.1168 52.848 18.2001 52.6959 18.2001 52.5032Z" fill="white"></path><path id="Vector_11" d="M21.7005 53.9332H20.5441V48.477H21.7005V53.9332Z" fill="white"></path><path id="Vector_12" d="M24.2633 53.0306H26.7115V53.9332H23.1069V48.477H24.2633V53.0306Z" fill="white"></path><path id="Vector_13" d="M28.9827 52.5742L30.2536 48.477H31.535L29.5869 53.9332H28.3888L26.4407 48.477H27.7221L28.9827 52.5742Z" fill="white"></path><path id="Vector_14" d="M35.7647 51.5702H33.5457V53.0306H36.1502V53.9332H32.3997V48.477H36.1502V49.3897H33.5561V50.6879H35.7751V51.5702H35.7647Z" fill="white"></path><path id="Vector_15" d="M39.2443 51.9353H38.3275V53.9332H37.1711V48.477H39.2547C39.911 48.477 40.4215 48.619 40.7861 48.9029C41.1404 49.1869 41.3279 49.5926 41.3279 50.1199C41.3279 50.4952 41.2445 50.7994 41.0778 51.053C40.9112 51.2964 40.6611 51.4992 40.3278 51.6412L41.5362 53.8723V53.923H40.2965L39.2443 51.9353ZM38.3171 51.0225H39.2443C39.536 51.0225 39.7548 50.9515 39.9215 50.8096C40.0777 50.6676 40.1611 50.4648 40.1611 50.2214C40.1611 49.9678 40.0881 49.765 39.9319 49.6129C39.786 49.4607 39.5568 49.3897 39.2443 49.3897H38.3171V51.0225Z" fill="white"></path><path id="Vector_16" d="M49.1934 52.3612L49.9435 48.4871H51.0895L49.8497 53.9332H48.6933L47.787 50.2923L46.8806 53.9332H45.7242L44.4637 48.477H45.6096L46.3701 52.3511L47.2973 48.477H48.2766L49.1934 52.3612Z" fill="white"></path><path id="Vector_17" d="M53.2772 53.9332H52.1208V48.477H53.2772V53.9332Z" fill="white"></path><path id="Vector_18" d="M59.2363 53.9332H58.0799L55.84 50.3431V53.923H54.6837V48.477H55.84L58.0903 52.0671V48.477H59.2363V53.9332Z" fill="white"></path><path id="Vector_19" d="M65.1328 53.9332H63.9764L61.7366 50.3532V53.9332H60.5802V48.477H61.7366L63.9868 52.0671V48.477H65.1328V53.9332Z" fill="white"></path><path id="Vector_20" d="M69.8417 51.5702H67.6227V53.0306H70.2167V53.9332H66.4663V48.477H70.2063V49.3897H67.6123V50.6879H69.8313V51.5702H69.8417Z" fill="white"></path><path id="Vector_21" d="M73.3213 51.9353H72.4045V53.9332H71.2481V48.477H73.3317C73.9881 48.477 74.4985 48.619 74.8632 48.9029C75.2174 49.1869 75.4049 49.5926 75.4049 50.1199C75.4049 50.4952 75.3215 50.7994 75.1549 51.053C74.9882 51.2964 74.7381 51.4992 74.4048 51.6412L75.6132 53.8723V53.923H74.3735L73.3213 51.9353ZM72.3941 51.0225H73.3213C73.613 51.0225 73.8318 50.9515 73.9985 50.8096C74.1547 50.6676 74.2381 50.4648 74.2381 50.2214C74.2381 49.9678 74.1652 49.765 74.0089 49.6129C73.863 49.4607 73.6338 49.3897 73.3213 49.3897H72.3941V51.0225Z" fill="white"></path></g></g></g><defs><clipPath id="clip0_1868_9232"><rect width="87" height="58" fill="white"></rect></clipPath></defs></svg> 