<?xml version="1.0" encoding="UTF-8"?> <svg xmlns="http://www.w3.org/2000/svg" width="100" height="33" viewBox="0 0 100 33" fill="none"><g clip-path="url(#clip0_3342_4898)"><path d="M12.3154 0.0032959H13.2047C16.2919 0.0699578 19.3289 1.3032 21.5101 3.48638C20.7047 4.30299 19.8826 5.08627 19.094 5.90288C17.8691 4.80296 16.3926 3.95302 14.7819 3.65304C12.3993 3.15307 9.83222 3.60304 7.83557 4.95294C5.65436 6.36951 4.17785 8.76934 3.85906 11.3358C3.50671 13.869 4.22819 16.5355 5.88926 18.502C7.48322 20.4185 9.91611 21.6184 12.4329 21.7018C14.7819 21.8351 17.2315 21.1185 18.943 19.4852C20.2852 18.3353 20.906 16.5855 21.1074 14.8856C18.3221 14.8856 15.5369 14.9022 12.7517 14.8856V11.4525H24.4799C25.0839 15.1356 24.2114 19.2853 21.3926 21.9184C19.5134 23.7849 16.9128 24.8849 14.2617 25.1015C11.6946 25.3515 9.04362 24.8682 6.76174 23.635C4.02685 22.1851 1.84564 19.7352 0.771812 16.8521C-0.234899 14.2023 -0.251678 11.2025 0.687919 8.53602C1.54362 6.10286 3.18792 3.95302 5.30201 2.45312C7.33222 0.969894 9.79866 0.153285 12.3154 0.0032959Z" fill="#4285F4"></path><path d="M79.5972 0.869507H83.1878V24.6678C81.9965 24.6678 80.7884 24.6845 79.5972 24.6511C79.6139 16.735 79.5972 8.80228 79.5972 0.869507Z" fill="#34A853"></path><path d="M32.4662 9.1189C34.681 8.70227 37.0803 9.1689 38.9092 10.4855C40.5702 11.6521 41.728 13.4853 42.0803 15.4851C42.5333 17.8016 41.9629 20.3348 40.4528 22.168C38.8253 24.2178 36.1575 25.3177 33.5568 25.1511C31.1743 25.0178 28.8588 23.8345 27.4494 21.9013C25.8555 19.7681 25.4696 16.835 26.342 14.3352C27.2145 11.6521 29.681 9.6022 32.4662 9.1189ZM32.9696 12.2853C32.0635 12.5187 31.2246 13.0353 30.6206 13.7686C28.993 15.7018 29.0937 18.8515 30.889 20.6514C31.9125 21.6847 33.4561 22.168 34.8823 21.8847C36.2078 21.6513 37.3655 20.7681 38.0031 19.6015C39.1105 17.6183 38.7917 14.8852 37.0971 13.3353C36.0065 12.3353 34.4125 11.9187 32.9696 12.2853Z" fill="#EA4335"></path><path d="M50.2515 9.11891C52.785 8.63561 55.5535 9.33556 57.4495 11.1021C60.5367 13.8519 60.8723 19.0015 58.2381 22.168C56.6441 24.1678 54.0602 25.2678 51.5099 25.1511C49.077 25.0844 46.6776 23.8845 45.2347 21.9013C43.6072 19.7182 43.2548 16.7184 44.1776 14.1686C45.1004 11.5687 47.5166 9.58554 50.2515 9.11891ZM50.7548 12.2854C49.8488 12.5187 49.0099 13.0353 48.4058 13.7519C46.7951 15.6518 46.8622 18.7516 48.5904 20.5681C49.6139 21.6514 51.2078 22.1846 52.6844 21.8847C53.9931 21.6347 55.1676 20.7681 55.8052 19.6015C56.8958 17.6016 56.577 14.8685 54.8656 13.3186C53.775 12.3187 52.181 11.9187 50.7548 12.2854Z" fill="#FBBC05"></path><path d="M65.3355 10.0854C67.265 8.8855 69.8322 8.55219 71.9127 9.58545C72.5671 9.86877 73.104 10.3521 73.6241 10.8354C73.6409 10.3854 73.6241 9.91876 73.6409 9.45213C74.765 9.46879 75.8892 9.45213 77.0301 9.46879V24.1677C77.0134 26.3843 76.4429 28.7341 74.8322 30.3506C73.0704 32.1338 70.3691 32.6838 67.9362 32.3172C65.3355 31.9339 63.0704 30.0507 62.0637 27.6675C63.0704 27.1842 64.1275 26.8009 65.1677 26.3509C65.755 27.7175 66.9463 28.8841 68.4395 29.1507C69.9328 29.4174 71.661 29.0507 72.6342 27.8175C73.6744 26.5509 73.6744 24.8177 73.6241 23.2678C72.8523 24.0178 71.963 24.6844 70.8892 24.9344C68.557 25.5843 65.9899 24.7844 64.1946 23.2178C62.3825 21.6513 61.3087 19.2348 61.4093 16.8349C61.4597 14.1185 63.0033 11.502 65.3355 10.0854ZM68.8087 12.2186C67.7852 12.3853 66.8288 12.9519 66.1744 13.7352C64.5973 15.6017 64.5973 18.5848 66.1912 20.418C67.0973 21.5013 68.557 22.1012 69.9664 21.9512C71.2919 21.8179 72.5167 20.9846 73.1711 19.8347C74.2785 17.8849 74.0939 15.235 72.6006 13.5352C71.6778 12.4852 70.2013 11.9686 68.8087 12.2186Z" fill="#4285F4"></path><path d="M87.5 10.9354C89.5135 9.06885 92.6175 8.43556 95.2014 9.41882C97.6511 10.3354 99.2115 12.6519 100 15.0351C96.3591 16.535 92.7349 18.0182 89.094 19.5181C89.5974 20.468 90.3692 21.3346 91.4094 21.6846C92.8692 22.2013 94.6141 22.0179 95.839 21.0513C96.3256 20.6847 96.7115 20.2014 97.0806 19.7348C98.0034 20.3514 98.9262 20.9513 99.849 21.568C98.5403 23.5178 96.3423 24.8844 93.9766 25.101C91.3591 25.4177 88.5739 24.4178 86.8792 22.3846C84.094 19.1848 84.3624 13.8185 87.5 10.9354ZM89.2953 14.0185C88.7249 14.8351 88.49 15.835 88.5067 16.8183C90.9396 15.8184 93.3725 14.8184 95.8054 13.8018C95.4027 12.8686 94.4296 12.302 93.4396 12.152C91.8457 11.8687 90.1846 12.7186 89.2953 14.0185Z" fill="#EA4335"></path></g><defs><clipPath id="clip0_3342_4898"><rect width="100" height="32.4201" fill="white"></rect></clipPath></defs></svg> 