<?xml version="1.0" encoding="UTF-8"?> <svg xmlns="http://www.w3.org/2000/svg" width="80" height="87" viewBox="0 0 80 87" fill="none"><g id="Group"><path id="Vector" d="M0 21.7086C0.717417 21.3278 1.43483 20.9525 2.14686 20.5609C7.99946 17.3735 13.8521 14.1862 19.7047 10.9988C26.3664 7.36541 33.0389 3.73203 39.7006 0.0932017C39.9272 -0.0319 40.0998 -0.0264608 40.321 0.0932017C45.8284 3.10108 51.3411 6.10352 56.8539 9.10596C61.7086 11.7494 66.5633 14.3929 71.418 17.0363C74.1906 18.5484 76.9578 20.0605 79.7357 21.5672C79.9245 21.6705 80.0054 21.7793 80.0054 22.0077C80 36.3455 80 50.6832 80.0054 65.0264C80.0054 65.2548 79.9245 65.3636 79.7357 65.467C74.8163 68.143 69.8969 70.8246 64.9828 73.5007C56.8108 77.9554 48.6387 82.4046 40.472 86.8648C40.1376 87.0443 39.8948 87.0497 39.5604 86.8648C31.685 82.5624 23.8042 78.2708 15.9288 73.9793C10.7127 71.1346 5.4912 68.2899 0.2751 65.4506C0.188794 65.4017 0.097094 65.369 0.00539411 65.3255C0 50.7866 0 36.2476 0 21.7086ZM0.625717 43.5143C0.625717 50.52 0.631111 57.5257 0.614928 64.5314C0.614928 64.8632 0.722811 65.0264 1.0033 65.1787C5.57751 67.659 10.1463 70.1501 14.7151 72.6413C23.0544 77.183 31.3937 81.7302 39.7276 86.2773C39.938 86.3916 40.0944 86.3861 40.2994 86.2719C41.8205 85.4288 43.3525 84.6021 44.879 83.7699C51.2063 80.3214 57.5336 76.873 63.8609 73.4245C68.9151 70.6723 73.964 67.92 79.0237 65.1787C79.3096 65.0209 79.4013 64.8523 79.4013 64.526C79.3905 50.5146 79.3905 36.5032 79.4013 22.4918C79.4013 22.1709 79.2934 22.0132 79.0237 21.8663C76.715 20.6207 74.4117 19.3643 72.1085 18.1078C65.409 14.4581 58.7095 10.8084 52.01 7.15872C48.1155 5.03744 44.2155 2.91615 40.3264 0.78398C40.1052 0.664318 39.9326 0.648 39.706 0.773102C38.8646 1.24631 38.0123 1.70321 37.1654 2.16554C30.7734 5.64663 24.3868 9.13315 17.9947 12.6142C12.2986 15.7146 6.60778 18.8204 0.911604 21.9153C0.690446 22.0349 0.614928 22.1709 0.614928 22.4211C0.625717 29.4486 0.625717 36.4815 0.625717 43.5143Z" fill="#191919"></path><path id="Vector_2" d="M77.8477 43.5245C77.8477 47.3156 77.8477 51.1013 77.8477 54.8924C77.8477 57.8187 77.8369 60.745 77.8369 63.6713C77.8369 63.8671 77.7776 63.9813 77.605 64.0738C71.0026 67.6365 64.4002 71.1992 57.7978 74.7673C52.0045 77.8948 46.2167 81.0224 40.4288 84.1608C40.1213 84.3294 39.8948 84.324 39.5927 84.1608C31.1078 79.5647 22.6175 74.9794 14.1325 70.3942C10.2434 68.2946 6.35962 66.1951 2.46508 64.101C2.24932 63.9868 2.17919 63.8562 2.18459 63.6169C2.20077 62.5454 2.18998 61.4739 2.18998 60.4023C2.18459 50.9599 2.17919 41.5229 2.1738 32.0804C2.1738 29.1705 2.18459 26.2659 2.18459 23.3559C2.18459 23.1493 2.2601 23.0514 2.42732 22.9589C7.50857 20.2175 12.5844 17.4762 17.6603 14.7348C23.9606 11.3244 30.2609 7.92494 36.5612 4.52C37.6239 3.94344 38.6919 3.37776 39.7491 2.79577C39.9379 2.69243 40.0836 2.69243 40.2724 2.79577C44.7764 5.23253 49.2859 7.66929 53.79 10.1006C61.0019 13.9951 68.2138 17.8896 75.4258 21.784C76.1378 22.1702 76.8498 22.5618 77.5672 22.9371C77.756 23.035 77.8369 23.1493 77.8369 23.3777C77.8315 30.0897 77.8315 36.8071 77.8315 43.5191C77.8369 43.5245 77.8423 43.5245 77.8477 43.5245ZM6.26792 53.3368C6.26792 53.4239 6.26792 53.4782 6.26792 53.5326C6.26792 56.3501 6.26792 59.1676 6.26253 61.9852C6.26253 62.181 6.35423 62.2517 6.49448 62.3278C17.4337 68.3653 28.373 74.4028 39.3014 80.4621C39.911 80.7993 40.3371 80.7939 40.9412 80.4567C51.8589 74.3974 62.7928 68.3653 73.7266 62.3333C73.9046 62.2354 73.9801 62.132 73.9747 61.9199C73.964 59.1568 73.9693 56.3937 73.9693 53.6305C73.9693 53.5326 73.9693 53.4347 73.9693 53.3314C51.3896 53.3368 28.8423 53.3368 6.26792 53.3368ZM73.9585 33.6959C73.9639 33.6143 73.9693 33.5599 73.9693 33.5055C73.9693 30.6771 73.9693 27.8542 73.9747 25.0258C73.9747 24.8409 73.8884 24.7756 73.7536 24.7049C71.8171 23.6388 69.886 22.5727 67.9495 21.5066C58.7526 16.4264 49.5502 11.3462 40.3479 6.26054C40.1753 6.16807 40.0512 6.16807 39.8786 6.26598C28.756 12.4123 17.6279 18.5586 6.49448 24.6994C6.32187 24.7973 6.25714 24.8952 6.25714 25.0965C6.26253 27.8705 6.26253 30.639 6.26253 33.413C6.26253 33.5109 6.26253 33.6034 6.26253 33.7013C28.8477 33.6959 51.3896 33.6959 73.9585 33.6959ZM28.4701 45.8253C27.6987 46.6575 26.8249 47.1089 25.7784 47.147C24.7212 47.1851 23.7934 46.8533 23.0706 46.0429C21.9216 44.7483 21.9594 42.5944 23.1083 41.2944C24.1548 40.1087 26.7062 39.6246 28.4377 41.4848C28.8315 41.1149 29.2198 40.7451 29.619 40.3698C29.5812 40.3208 29.5651 40.2882 29.5381 40.261C28.2165 38.9284 26.6091 38.4008 24.7751 38.6836C22.8602 38.9773 21.4739 40.0434 20.8266 41.9036C20.1685 43.7965 20.449 45.586 21.7814 47.1253C23.2809 48.8549 26.0211 49.2846 28.1572 48.1696C28.7128 47.8813 29.1983 47.506 29.5759 47.0872C29.2091 46.6575 28.853 46.2604 28.4701 45.8253ZM53.0079 38.2866C53.0079 41.7133 53.0079 45.1128 53.0079 48.5231C53.5958 48.5231 54.1568 48.5231 54.7555 48.5231C54.7555 48.4035 54.7555 48.2947 54.7555 48.1913C54.7555 47.1579 54.7555 46.119 54.7555 45.0856C54.7555 43.9324 55.3705 43.2961 56.5086 43.2634C57.0804 43.2471 57.5011 43.5463 57.6522 44.1065C57.7115 44.3295 57.7385 44.5688 57.7385 44.8027C57.7493 45.945 57.7439 47.0926 57.7439 48.2403C57.7439 48.3382 57.7439 48.4307 57.7439 48.5286C58.3534 48.5286 58.9144 48.5286 59.4754 48.5286C59.4916 48.4959 59.5023 48.4796 59.5023 48.4633C59.4916 47.011 59.5185 45.5533 59.4538 44.1065C59.416 43.2797 59.0385 42.5563 58.2941 42.1212C57.2152 41.4902 56.1041 41.5066 54.9875 42.045C54.9174 42.0777 54.8526 42.1103 54.7448 42.1647C54.7448 40.8539 54.7448 39.5865 54.7448 38.3029C54.1568 38.2866 53.5904 38.2866 53.0079 38.2866ZM40.2454 48.5286C40.2454 46.2604 40.2454 44.0195 40.2454 41.7894C39.652 41.7894 39.0803 41.7894 38.4977 41.7894C38.4977 43.0187 38.4977 44.2262 38.4977 45.4337C38.4977 46.4127 37.9745 47.0165 37.0143 47.1579C36.0919 47.2939 35.5256 46.9512 35.3368 46.1299C35.299 45.9613 35.2936 45.7872 35.2936 45.6186C35.2882 44.4492 35.2936 43.2743 35.2936 42.1049C35.2936 41.9961 35.2936 41.8927 35.2936 41.784C34.7542 41.784 34.2579 41.784 33.7401 41.784C33.7401 42.7576 33.7347 43.7094 33.7401 44.6613C33.7455 45.2161 33.7347 45.7709 33.794 46.3203C33.9181 47.5658 34.7488 48.4796 35.9463 48.7353C36.75 48.9093 37.5214 48.7951 38.2496 48.4035C38.3197 48.3654 38.3952 48.3382 38.4761 48.2947C38.4923 48.3763 38.5085 48.447 38.5193 48.5177C39.0911 48.5286 39.6574 48.5286 40.2454 48.5286ZM51.0929 43.8835C51.5083 43.4864 51.9021 43.1166 52.2904 42.7467C51.3357 41.7676 49.9979 41.3651 48.5415 41.6045C47.0258 41.8492 45.8607 42.9643 45.5856 44.4329C45.2997 45.9613 45.9631 47.4407 47.2847 48.224C48.0992 48.7081 48.9946 48.8386 49.917 48.7353C50.8394 48.6319 51.6324 48.2349 52.3066 47.5441C51.9992 47.2558 51.7025 46.9784 51.4112 46.7064C51.3087 46.6085 51.1954 46.5161 51.0983 46.429C51.0606 46.4399 51.0444 46.4454 51.0282 46.4562C50.9851 46.4889 50.9419 46.5215 50.9041 46.5596C50.3378 47.06 49.6851 47.2286 48.9461 47.1198C48.0938 46.9893 47.398 46.3257 47.2685 45.4989C47.1229 44.5906 47.522 43.753 48.3204 43.4048C49.1834 43.0241 50.0195 43.0894 50.7963 43.6605C50.8934 43.7203 50.9797 43.7965 51.0929 43.8835ZM45.2188 43.0839C45.2188 42.6216 45.2188 42.2028 45.2188 41.7513C44.7872 41.7513 44.3773 41.7513 43.9404 41.7513C43.9404 40.9463 43.9404 40.1685 43.9404 39.3798C43.2715 39.3798 42.6296 39.3798 41.9499 39.3798C41.9499 40.1794 41.9499 40.9626 41.9499 41.7731C41.5777 41.7731 41.2379 41.7731 40.9035 41.7731C40.9035 42.2191 40.9035 42.6434 40.9035 43.0894C41.2649 43.0894 41.5993 43.0894 41.9715 43.0894C41.9715 44.9169 41.9715 46.7173 41.9715 48.5177C42.6404 48.5177 43.2769 48.5177 43.9511 48.5177C43.9511 46.701 43.9511 44.9006 43.9511 43.0839C44.3881 43.0839 44.7926 43.0839 45.2188 43.0839ZM32.2405 48.5231C32.2405 45.0964 32.2405 41.6969 32.2405 38.2974C31.5771 38.2974 30.9352 38.2974 30.2933 38.2974C30.2933 41.7187 30.2933 45.1128 30.2933 48.5231C30.946 48.5231 31.5825 48.5231 32.2405 48.5231Z" fill="#17313B"></path><path id="Vector_3" d="M28.4701 45.8252C28.8531 46.2604 29.2037 46.6629 29.5759 47.0817C29.1983 47.5005 28.7128 47.8758 28.1572 48.1641C26.0212 49.2846 23.2756 48.8549 21.7814 47.1198C20.4491 45.5805 20.1686 43.791 20.8266 41.8981C21.4739 40.0379 22.8602 38.9773 24.7751 38.6781C26.6037 38.3953 28.2112 38.9229 29.5381 40.2555C29.5597 40.2773 29.5813 40.3099 29.619 40.3643C29.2199 40.7396 28.8315 41.1094 28.4377 41.4793C26.7062 39.6191 24.1548 40.1032 23.1084 41.2889C21.9594 42.5943 21.927 44.7483 23.0706 46.0374C23.7934 46.8532 24.7212 47.1796 25.7784 47.1415C26.8249 47.1034 27.7041 46.6574 28.4701 45.8252Z" fill="white"></path><path id="Vector_4" d="M53.0079 38.2865C53.5905 38.2865 54.1568 38.2865 54.7502 38.2865C54.7502 39.5702 54.7502 40.8375 54.7502 42.1483C54.8581 42.0994 54.9228 42.0613 54.9929 42.0287C56.1095 41.4902 57.2207 41.4793 58.2995 42.1048C59.0439 42.54 59.4215 43.2634 59.4593 44.0901C59.524 45.5424 59.497 46.9947 59.5078 48.4469C59.5078 48.4632 59.4916 48.4796 59.4808 48.5122C58.9252 48.5122 58.3589 48.5122 57.7493 48.5122C57.7493 48.4143 57.7493 48.3218 57.7493 48.2239C57.7493 47.0762 57.7547 45.934 57.7439 44.7863C57.7439 44.5525 57.717 44.3131 57.6576 44.0901C57.5066 43.5299 57.0858 43.2362 56.5141 43.247C55.3759 43.2742 54.761 43.9161 54.761 45.0692C54.761 46.1026 54.761 47.1415 54.761 48.175C54.761 48.2838 54.761 48.3871 54.761 48.5068C54.1622 48.5068 53.6013 48.5068 53.0133 48.5068C53.0079 45.1181 53.0079 41.7132 53.0079 38.2865Z" fill="white"></path><path id="Vector_5" d="M40.2454 48.5286C39.6629 48.5286 39.0965 48.5286 38.5193 48.5286C38.5031 48.4524 38.4923 48.3872 38.4762 48.3056C38.3898 48.3436 38.3197 48.3763 38.2496 48.4144C37.5214 48.806 36.75 48.9148 35.9463 48.7462C34.7488 48.4905 33.9181 47.5767 33.7941 46.3311C33.7401 45.7818 33.7455 45.227 33.7401 44.6722C33.7347 43.7203 33.7401 42.7685 33.7401 41.7949C34.258 41.7949 34.7542 41.7949 35.2936 41.7949C35.2936 41.9036 35.2936 42.007 35.2936 42.1158C35.2936 43.2852 35.2936 44.4601 35.2936 45.6295C35.2936 45.8035 35.299 45.9776 35.3368 46.1408C35.5256 46.9621 36.092 47.3048 37.0144 47.1688C37.9745 47.0274 38.4923 46.4236 38.4977 45.4446C38.4977 44.2371 38.4977 43.0296 38.4977 41.8003C39.0803 41.8003 39.6521 41.8003 40.2454 41.8003C40.2454 44.0195 40.2454 46.2604 40.2454 48.5286Z" fill="white"></path><path id="Vector_6" d="M51.093 43.8835C50.9797 43.791 50.888 43.7149 50.7963 43.6496C50.0196 43.0785 49.1835 43.0132 48.3204 43.394C47.5221 43.7475 47.1229 44.5852 47.2686 45.4881C47.4034 46.3148 48.0993 46.9838 48.9461 47.1089C49.6851 47.2177 50.3378 47.0491 50.9042 46.5487C50.9473 46.5106 50.9851 46.478 51.0283 46.4454C51.039 46.4345 51.0606 46.4345 51.0984 46.4182C51.1955 46.5052 51.3088 46.5977 51.4112 46.6956C51.7079 46.973 51.9992 47.2449 52.3067 47.5332C51.6324 48.224 50.8341 48.6156 49.9171 48.7244C48.9947 48.8277 48.1047 48.6972 47.2848 48.2131C45.9632 47.4353 45.2997 45.9504 45.5856 44.422C45.8607 42.9534 47.0258 41.8384 48.5416 41.5936C49.998 41.3543 51.3357 41.7568 52.2905 42.7358C51.9021 43.122 51.5137 43.4919 51.093 43.8835Z" fill="white"></path><path id="Vector_7" d="M45.2188 43.0839C44.7927 43.0839 44.3935 43.0839 43.9512 43.0839C43.9512 44.9006 43.9512 46.7064 43.9512 48.5177C43.2769 48.5177 42.6404 48.5177 41.9715 48.5177C41.9715 46.7173 41.9715 44.9169 41.9715 43.0894C41.5993 43.0894 41.2595 43.0894 40.9035 43.0894C40.9035 42.6433 40.9035 42.2245 40.9035 41.7731C41.2433 41.7731 41.5778 41.7731 41.95 41.7731C41.95 40.9626 41.95 40.1794 41.95 39.3798C42.6296 39.3798 43.2715 39.3798 43.9404 39.3798C43.9404 40.1685 43.9404 40.9463 43.9404 41.7513C44.3773 41.7513 44.7873 41.7513 45.2188 41.7513C45.2188 42.2028 45.2188 42.6216 45.2188 43.0839Z" fill="white"></path><path id="Vector_8" d="M32.2406 48.5231C31.5825 48.5231 30.946 48.5231 30.2933 48.5231C30.2933 45.1127 30.2933 41.7187 30.2933 38.2974C30.9352 38.2974 31.5771 38.2974 32.2406 38.2974C32.2406 41.6969 32.2406 45.0964 32.2406 48.5231Z" fill="white"></path><path id="Vector_9" d="M68.6508 55.6049C49.5502 55.6049 30.4713 55.6049 11.3977 55.6049C11.3815 55.5886 11.36 55.5669 11.3438 55.5506C11.3923 55.5016 11.4355 55.4363 11.4948 55.4091C11.5488 55.3874 11.6189 55.4037 11.6836 55.4037C30.5684 55.4037 49.4585 55.4037 68.3433 55.4091C68.4512 55.4146 68.6777 55.2949 68.6508 55.6049Z" fill="#191919"></path><path id="Vector_10" d="M11.3708 31.4223C30.4713 31.4223 49.5503 31.4223 68.6238 31.4223C68.64 31.4386 68.6616 31.4604 68.6778 31.4767C68.6292 31.5256 68.5861 31.5909 68.5267 31.6181C68.4728 31.6399 68.4027 31.6236 68.3379 31.6236C49.4532 31.6236 30.563 31.6235 11.6782 31.6181C11.5704 31.6181 11.3438 31.7378 11.3708 31.4223Z" fill="#191919"></path><path id="Vector_11" d="M49.383 46.0918C49.8984 46.0918 50.3162 45.6705 50.3162 45.1508C50.3162 44.6311 49.8984 44.2098 49.383 44.2098C48.8677 44.2098 48.4499 44.6311 48.4499 45.1508C48.4499 45.6705 48.8677 46.0918 49.383 46.0918Z" fill="#EF4335"></path></g></svg> 