<?xml version="1.0" encoding="UTF-8"?> <svg xmlns="http://www.w3.org/2000/svg" width="94" height="76" viewBox="0 0 94 76" fill="none"><g id="Group 23"><path id="Vector (Stroke)" fill-rule="evenodd" clip-rule="evenodd" d="M13.6622 19.8456C13.8427 19.9165 13.9315 20.1202 13.8606 20.3007C12.3317 24.1924 11.4976 28.4086 11.4976 32.8578C11.4976 48.1479 21.5056 61.1227 35.3609 65.5713C35.5455 65.6305 35.6471 65.8282 35.5879 66.0129C35.5286 66.1975 35.3309 66.2991 35.1463 66.2398C21.0093 61.7008 10.7955 48.4621 10.7955 32.8578C10.7955 28.3196 11.6465 24.0164 13.2071 20.044C13.278 19.8635 13.4818 19.7747 13.6622 19.8456ZM80.718 19.8456C80.8984 19.7747 81.1022 19.8635 81.1731 20.044C82.7337 24.0164 83.5847 28.3196 83.5847 32.8578C83.5847 48.4621 73.3709 61.7008 59.2339 66.2398C59.0493 66.2991 58.8516 66.1975 58.7923 66.0129C58.7331 65.8282 58.8347 65.6305 59.0193 65.5713C72.8745 61.1227 82.8826 48.1479 82.8826 32.8578C82.8826 28.4086 82.0485 24.1924 80.5196 20.3007C80.4487 20.1202 80.5375 19.9165 80.718 19.8456Z" fill="#D6E2E0"></path><path id="Vector" d="M13.8148 18.5808L16.2489 15.5382L15.9212 11.6061L13.4871 14.6956L13.8148 18.5808ZM11.053 23.0745L12.0828 19.6106L10.4445 17.4574C9.97637 18.4872 9.60189 19.6106 9.22741 20.6872L11.053 23.0745ZM14.8914 20.4532L13.8616 23.9171L16.2021 23.1214C16.5297 21.9043 16.951 20.7341 17.3723 19.6106L14.8914 20.4532ZM9.55508 30.5173L10.0232 26.9129L8.01036 25.0406C7.77631 26.2108 7.58907 27.3342 7.44864 28.5513L9.55508 30.5173ZM12.9722 27.2874L12.5041 30.8918L15.1723 29.4407C15.2659 28.2236 15.4063 27.0534 15.5935 25.8363L12.9722 27.2874ZM9.6487 33.794L7.16778 32.0152C7.16778 32.4833 7.12097 32.9046 7.12097 33.3727C7.12097 34.1217 7.16778 34.8706 7.16778 35.6196L9.6487 37.3983V33.794ZM12.5977 33.794L12.6445 37.4452L15.3127 35.4791C15.1723 34.3557 15.0786 33.1855 15.0786 32.0152L12.5977 33.794ZM11.2402 44.373L10.4913 40.8155L7.58907 39.5048C7.77631 40.7218 8.01036 41.8921 8.29122 43.0623L11.2402 44.373ZM13.3935 40.2069L14.1424 43.7645L16.5297 41.1899C16.2021 40.0665 15.9212 38.9431 15.6872 37.7728L13.3935 40.2069ZM14.2829 50.7391L12.8318 47.4156L9.46146 46.7135C9.83594 47.8369 10.304 48.9136 10.7721 49.9902L14.2829 50.7391ZM15.4999 46.2454L16.951 49.5689L18.7298 46.5263C18.1681 45.4496 17.7 44.3262 17.2319 43.2028L15.4999 46.2454ZM18.5426 56.6372L16.4829 53.6414L12.5977 53.5945C13.2062 54.6244 13.8148 55.6074 14.5169 56.5904L18.5426 56.6372ZM18.8702 51.9562L20.9299 54.952L22.1001 51.6753C21.3512 50.7391 20.649 49.7561 19.9937 48.7263L18.8702 51.9562ZM19.8532 62.6756L24.0661 61.8331L21.398 59.3521L17.3723 60.1947C18.1681 61.0373 19.0107 61.8799 19.8532 62.6756ZM23.8321 53.6414L23.4108 57.1989L26.0789 59.6798L26.5002 56.2159C25.564 55.3733 24.6747 54.5307 23.8321 53.6414ZM27.7641 64.3608L24.2534 66.2332C24.9555 66.7013 25.6577 67.2162 26.4066 67.6375L27.2024 68.012L31.0876 65.9523L27.7641 64.3608ZM29.028 61.6926L32.3047 63.2842L31.6961 59.7266C30.5259 59.0713 29.4024 58.3691 28.3258 57.5734L29.028 61.6926ZM80.8932 14.6956L78.4591 11.6061L78.1315 15.5382L80.5656 18.5808L80.8932 14.6956ZM82.2975 19.6106L83.3274 23.0745L85.1529 20.6872C84.7785 19.6106 84.3572 18.534 83.9359 17.4574L82.2975 19.6106ZM80.5188 23.9639L79.489 20.5L77.008 19.6574C77.4761 20.7809 77.8506 21.9979 78.1783 23.1682L80.5188 23.9639ZM86.9317 28.5045C86.7913 27.3342 86.604 26.164 86.37 24.9937L84.3572 26.8661L84.8253 30.4705L86.9317 28.5045ZM81.8763 30.8918L81.4082 27.2874L78.7868 25.8831C79.0209 27.0534 79.1613 28.2704 79.2081 29.4875L81.8763 30.8918ZM84.6848 37.4452L87.1658 35.6664C87.2126 34.9174 87.2126 34.1685 87.2126 33.4195C87.2126 32.9514 87.2126 32.4833 87.1658 32.062L84.6848 33.8408V37.4452ZM81.7358 37.3983L81.7826 33.7472L79.3017 31.9216C79.3017 33.0918 79.2081 34.2621 79.0677 35.3855L81.7358 37.3983ZM83.8891 40.8155L83.1401 44.373L86.0891 43.0623C86.37 41.8921 86.604 40.7218 86.7913 39.5048L83.8891 40.8155ZM80.2379 43.7645L80.9869 40.2069L78.74 37.726C78.5059 38.8963 78.2251 40.0197 77.8974 41.1431L80.2379 43.7645ZM81.5954 47.4156L80.1443 50.7391L83.7018 49.9902C84.1699 48.9136 84.638 47.8369 85.0125 46.7135L81.5954 47.4156ZM77.4293 49.5221L78.8804 46.1986L77.1485 43.2028C76.7272 44.3262 76.2123 45.4496 75.6506 46.4795L77.4293 49.5221ZM77.8974 53.6414L75.8378 56.6372L79.8634 56.5904C80.5656 55.6074 81.1741 54.6244 81.7826 53.5945L77.8974 53.6414ZM73.4037 54.952L75.4633 51.9562L74.3399 48.7263C73.6845 49.7561 72.9824 50.7391 72.2334 51.6753L73.4037 54.952ZM77.008 60.1479L72.9824 59.3053L70.3142 61.7863L74.5271 62.6288C75.3697 61.8799 76.2123 61.0373 77.008 60.1479ZM67.8801 56.1691L68.3014 59.633L70.9696 57.1521L70.5483 53.5945C69.7057 54.5307 68.8163 55.3733 67.8801 56.1691ZM66.6162 64.3608L63.3396 65.9523L67.2248 68.012L68.0205 67.6375C68.7695 67.2162 69.4717 66.7013 70.1738 66.2332L66.6162 64.3608ZM62.0757 63.2842L65.3524 61.6926L66.0545 57.5734C64.9779 58.3691 63.8545 59.0713 62.6842 59.7266L62.0757 63.2842Z" fill="#01CFA7"></path><path id="Vector_2" d="M54.0711 23.9171H52.9009V25.181H52.1051V26.2576H52.9009V28.4577C52.9009 29.6747 53.2754 30.2833 54.6797 30.2833H55.1946V29.0662H54.7733C54.2116 29.0662 54.0711 28.8321 54.0711 28.3172V26.2108H55.335V25.1342H54.0711V23.9171ZM56.4116 23.2618H57.6755V24.432H56.4116V23.2618ZM56.4116 25.181H57.6755V30.2833H56.4116V25.181ZM61.4671 27.2874C60.1564 26.9129 59.9224 26.8193 59.9224 26.5385C59.9224 26.3044 60.2032 26.0704 60.7181 26.0704C61.4203 26.0704 61.6543 26.4448 61.7948 26.8661L62.8246 26.5385C62.5905 25.6959 61.9352 25.0406 60.6713 25.0406C59.4075 25.0406 58.7521 25.7895 58.7521 26.5853C58.7521 27.381 59.3607 27.7555 60.4373 28.0832C61.4671 28.364 61.7948 28.4577 61.7948 28.7853C61.7948 29.113 61.4203 29.3471 60.7649 29.3471C60.1096 29.3471 59.6883 28.9726 59.6415 28.2704L58.5181 28.5513C58.6585 29.4407 59.3138 30.3769 60.8118 30.3769C62.2629 30.3769 62.8714 29.4875 62.8714 28.7853C63.0118 28.13 62.731 27.6151 61.4671 27.2874ZM65.9608 25.0406C64.6502 25.0406 63.6203 26.0704 63.6203 27.7087C63.6203 29.3471 64.6502 30.3769 66.0076 30.3769C67.0843 30.3769 67.6928 29.862 68.1141 29.2534L67.2247 28.5045C66.9907 28.879 66.6162 29.3002 65.9608 29.3002C65.2587 29.3002 64.8842 28.879 64.8374 28.0832H68.2545V27.7087C68.3013 26.0704 67.3183 25.0406 65.9608 25.0406ZM64.8374 27.147C64.8842 26.5853 65.3055 26.1172 65.914 26.1172C66.5694 26.1172 66.9906 26.4917 67.0375 27.147H64.8374ZM26.9214 30.2833H31.1811V29.0662H28.1853V27.4279H30.9003V26.2576H28.1853V24.7597H31.1811V23.5426H26.9214V30.2833ZM36.7983 25.181H35.5345L34.3642 26.9129L33.2408 25.181H31.9301L33.5684 27.6619L31.8365 30.2833H33.1472L34.3642 28.4577L35.5813 30.2833H36.9387L35.16 27.6619L36.7983 25.181ZM40.2154 25.0406C39.2324 25.0406 38.8579 25.6959 38.8579 25.6959V25.2278H37.6877V32.4365H38.9516V29.7683C38.9516 29.7683 39.326 30.4237 40.2622 30.4237C41.4325 30.4237 42.5091 29.4875 42.5091 27.7555C42.4623 25.9767 41.3389 25.0406 40.2154 25.0406ZM39.9814 29.3002C39.2792 29.3002 38.7643 28.7853 38.7643 27.7555C38.7643 26.6789 39.2792 26.2108 39.9814 26.2108C40.6835 26.2108 41.1984 26.7257 41.1984 27.7555C41.1984 28.7853 40.6835 29.3002 39.9814 29.3002ZM45.4113 25.0406C44.1006 25.0406 43.0708 26.0704 43.0708 27.7087C43.0708 29.3471 44.1007 30.3769 45.4581 30.3769C46.5348 30.3769 47.1433 29.862 47.5646 29.2534L46.6752 28.5045C46.4411 28.879 46.0667 29.3002 45.4113 29.3002C44.7092 29.3002 44.3347 28.879 44.2879 28.0832H47.705V27.7087C47.7518 26.0704 46.722 25.0406 45.4113 25.0406ZM44.3347 27.147C44.3815 26.5853 44.8028 26.1172 45.4113 26.1172C46.0667 26.1172 46.4879 26.4917 46.5348 27.147H44.3347ZM50.8413 25.0874C50.3732 25.0874 49.9987 25.3682 49.8114 25.7427V25.2278H48.5944V30.3301H49.8583V27.5215C49.8583 26.7257 50.1859 26.3512 50.7476 26.3512C50.8881 26.3512 51.0285 26.398 51.1221 26.4448L51.3094 25.2278C51.1221 25.1342 50.9817 25.0874 50.8413 25.0874Z" fill="#074873"></path><g id="Group"><path id="Vector_3" d="M61.9353 12.7761L53.6499 4.49072L50.1392 8.04827L51.3094 9.21851L53.6499 6.87802L59.548 12.7761L53.6499 18.6741L51.3094 16.2868L50.1392 15.1166L47.7519 12.7761L50.1392 10.4356L48.9221 9.21851L46.5816 11.559L44.2412 9.21851L43.0241 8.04827L39.5134 4.49072L31.228 12.7761L39.5134 21.0146L43.0241 17.5038L41.8539 16.2868L39.5134 18.6741L33.6153 12.7761L39.5134 6.87802L41.8539 9.21851L43.0241 10.4356L45.4114 12.7761L43.0241 15.1166L44.2412 16.2868L46.5816 13.9463L48.9221 16.2868L50.1392 17.5038L53.6499 21.0146L61.9353 12.7761Z" fill="#01CFA7"></path><path id="Vector_4" d="M46.5815 6.87802L48.922 9.21851L50.1391 10.4356L52.4796 12.7761L50.1391 15.1166L51.3093 16.2868L54.8669 12.7761L51.3093 9.21851L50.1391 8.04827L46.5815 4.49072L43.024 8.04827L44.2411 9.21851L46.5815 6.87802ZM48.922 16.2868L46.5815 18.6741L44.2411 16.2868L43.024 15.1166L40.6835 12.7761L43.024 10.4356L41.8538 9.21851L38.343 12.7761L41.8538 16.2868L43.024 17.5038L46.5815 21.0146L50.1391 17.5038L48.922 16.2868Z" fill="#074873"></path></g><path id="Vector (Stroke)_2" fill-rule="evenodd" clip-rule="evenodd" d="M21.6085 36.0408C21.6085 35.8469 21.7657 35.6897 21.9596 35.6897H72.6546C72.8485 35.6897 73.0057 35.8469 73.0057 36.0408C73.0057 36.2347 72.8485 36.3918 72.6546 36.3918H21.9596C21.7657 36.3918 21.6085 36.2347 21.6085 36.0408Z" fill="#D6E2E0"></path><g id="Best Pey-Per-Click"><path d="M29.3682 43.0315V39.8084H30.4218C30.7716 39.8084 31.0343 39.8807 31.2099 40.0254C31.387 40.17 31.4755 40.384 31.4755 40.6673C31.4755 40.8178 31.4327 40.9514 31.3471 41.068C31.2615 41.1831 31.145 41.2724 30.9974 41.3358C31.1715 41.3845 31.3088 41.4775 31.4091 41.6147C31.5109 41.7505 31.5619 41.9128 31.5619 42.1017C31.5619 42.391 31.4681 42.6183 31.2807 42.7835C31.0933 42.9488 30.8284 43.0315 30.486 43.0315H29.3682ZM29.7932 41.524V42.6839H30.4949C30.6926 42.6839 30.8483 42.633 30.962 42.5312C31.0771 42.4279 31.1346 42.2862 31.1346 42.1062C31.1346 41.7181 30.9236 41.524 30.5015 41.524H29.7932ZM29.7932 41.1831H30.4351C30.6211 41.1831 30.7694 41.1366 30.8801 41.0436C30.9922 40.9507 31.0483 40.8245 31.0483 40.6651C31.0483 40.488 30.9966 40.3596 30.8933 40.2799C30.79 40.1988 30.6329 40.1582 30.4218 40.1582H29.7932V41.1831Z" fill="#01CFA7"></path><path d="M33.1225 43.0757C32.7978 43.0757 32.5336 42.9695 32.33 42.757C32.1263 42.543 32.0245 42.2574 32.0245 41.9003V41.825C32.0245 41.5874 32.0695 41.3757 32.1595 41.1897C32.251 41.0023 32.3779 40.8562 32.5403 40.7514C32.7041 40.6452 32.8812 40.5921 33.0715 40.5921C33.3829 40.5921 33.625 40.6946 33.7976 40.8998C33.9703 41.1049 34.0566 41.3986 34.0566 41.7808V41.9512H32.434C32.4399 42.1873 32.5086 42.3784 32.6399 42.5245C32.7727 42.6692 32.9409 42.7415 33.1446 42.7415C33.2892 42.7415 33.4117 42.712 33.5121 42.6529C33.6124 42.5939 33.7002 42.5157 33.7755 42.4183L34.0256 42.6131C33.8249 42.9215 33.5239 43.0757 33.1225 43.0757ZM33.0715 40.9285C32.9063 40.9285 32.7675 40.989 32.6554 41.11C32.5432 41.2296 32.4739 41.3978 32.4473 41.6147H33.6471V41.5838C33.6353 41.3757 33.5792 41.2148 33.4789 41.1012C33.3785 40.9861 33.2427 40.9285 33.0715 40.9285Z" fill="#01CFA7"></path><path d="M35.9271 42.3962C35.9271 42.2855 35.8851 42.1999 35.8009 42.1394C35.7183 42.0774 35.5729 42.0243 35.3649 41.98C35.1583 41.9357 34.9937 41.8826 34.8712 41.8206C34.7502 41.7586 34.6602 41.6848 34.6012 41.5993C34.5436 41.5137 34.5148 41.4118 34.5148 41.2938C34.5148 41.0975 34.5975 40.9315 34.7628 40.7957C34.9295 40.6599 35.142 40.5921 35.4003 40.5921C35.6718 40.5921 35.8917 40.6622 36.0599 40.8024C36.2296 40.9425 36.3145 41.1219 36.3145 41.3403H35.9028C35.9028 41.2281 35.8548 41.1314 35.7589 41.0503C35.6644 40.9691 35.5449 40.9285 35.4003 40.9285C35.2512 40.9285 35.1346 40.961 35.0505 41.0259C34.9664 41.0909 34.9243 41.1757 34.9243 41.2805C34.9243 41.3794 34.9635 41.4539 35.0417 41.5041C35.1199 41.5542 35.2608 41.6022 35.4645 41.648C35.6696 41.6937 35.8356 41.7483 35.9625 41.8118C36.0894 41.8752 36.1832 41.952 36.2437 42.042C36.3056 42.1305 36.3366 42.239 36.3366 42.3674C36.3366 42.5814 36.251 42.7533 36.0799 42.8832C35.9087 43.0115 35.6866 43.0757 35.4136 43.0757C35.2217 43.0757 35.052 43.0418 34.9044 42.9739C34.7568 42.906 34.641 42.8116 34.5569 42.6906C34.4742 42.5681 34.4329 42.436 34.4329 42.2943H34.8424C34.8498 42.4316 34.9044 42.5408 35.0062 42.6219C35.1096 42.7016 35.2453 42.7415 35.4136 42.7415C35.5685 42.7415 35.6925 42.7105 35.7854 42.6485C35.8799 42.5851 35.9271 42.5009 35.9271 42.3962Z" fill="#01CFA7"></path><path d="M37.4257 40.0564V40.6363H37.8729V40.9529H37.4257V42.4382C37.4257 42.5341 37.4457 42.6064 37.4855 42.6551C37.5253 42.7024 37.5932 42.726 37.6892 42.726C37.7364 42.726 37.8013 42.7171 37.884 42.6994V43.0315C37.7762 43.061 37.6714 43.0757 37.5696 43.0757C37.3866 43.0757 37.2486 43.0204 37.1557 42.9097C37.0627 42.799 37.0162 42.6419 37.0162 42.4382V40.9529H36.5801V40.6363H37.0162V40.0564H37.4257Z" fill="#01CFA7"></path><path d="M39.967 41.7697V43.0315H39.542V39.8084H40.7307C41.0834 39.8084 41.3593 39.8985 41.5586 40.0785C41.7593 40.2585 41.8596 40.4969 41.8596 40.7935C41.8596 41.1064 41.7615 41.3476 41.5652 41.5173C41.3704 41.6856 41.0907 41.7697 40.7262 41.7697H39.967ZM39.967 41.4222H40.7307C40.9579 41.4222 41.1321 41.369 41.2531 41.2628C41.3741 41.1551 41.4346 41.0001 41.4346 40.7979C41.4346 40.6061 41.3741 40.4526 41.2531 40.3375C41.1321 40.2224 40.966 40.1626 40.755 40.1582H39.967V41.4222Z" fill="#01CFA7"></path><path d="M43.3007 43.0757C42.976 43.0757 42.7119 42.9695 42.5082 42.757C42.3045 42.543 42.2027 42.2574 42.2027 41.9003V41.825C42.2027 41.5874 42.2477 41.3757 42.3378 41.1897C42.4292 41.0023 42.5562 40.8562 42.7185 40.7514C42.8823 40.6452 43.0594 40.5921 43.2498 40.5921C43.5611 40.5921 43.8032 40.6946 43.9758 40.8998C44.1485 41.1049 44.2348 41.3986 44.2348 41.7808V41.9512H42.6122C42.6181 42.1873 42.6868 42.3784 42.8181 42.5245C42.9509 42.6692 43.1192 42.7415 43.3228 42.7415C43.4674 42.7415 43.5899 42.712 43.6903 42.6529C43.7906 42.5939 43.8784 42.5157 43.9537 42.4183L44.2038 42.6131C44.0031 42.9215 43.7021 43.0757 43.3007 43.0757ZM43.2498 40.9285C43.0845 40.9285 42.9458 40.989 42.8336 41.11C42.7214 41.2296 42.6521 41.3978 42.6255 41.6147H43.8253V41.5838C43.8135 41.3757 43.7574 41.2148 43.6571 41.1012C43.5567 40.9861 43.4209 40.9285 43.2498 40.9285Z" fill="#01CFA7"></path><path d="M45.4634 42.4316L46.0212 40.6363H46.4595L45.4966 43.4011C45.3475 43.7996 45.1107 43.9988 44.786 43.9988L44.7085 43.9922L44.5558 43.9634V43.6314L44.6665 43.6402C44.8052 43.6402 44.9129 43.6122 44.9897 43.5561C45.0679 43.5 45.1321 43.3974 45.1823 43.2484L45.273 43.0049L44.4186 40.6363H44.8657L45.4634 42.4316Z" fill="#01CFA7"></path><path d="M47.6792 41.8295H46.599V41.4952H47.6792V41.8295Z" fill="#01CFA7"></path><path d="M48.5691 41.7697V43.0315H48.1441V39.8084H49.3328C49.6855 39.8084 49.9615 39.8985 50.1607 40.0785C50.3614 40.2585 50.4617 40.4969 50.4617 40.7935C50.4617 41.1064 50.3636 41.3476 50.1673 41.5173C49.9725 41.6856 49.6929 41.7697 49.3284 41.7697H48.5691ZM48.5691 41.4222H49.3328C49.56 41.4222 49.7342 41.369 49.8552 41.2628C49.9762 41.1551 50.0367 41.0001 50.0367 40.7979C50.0367 40.6061 49.9762 40.4526 49.8552 40.3375C49.7342 40.2224 49.5682 40.1626 49.3571 40.1582H48.5691V41.4222Z" fill="#01CFA7"></path><path d="M51.9028 43.0757C51.5781 43.0757 51.314 42.9695 51.1103 42.757C50.9067 42.543 50.8048 42.2574 50.8048 41.9003V41.825C50.8048 41.5874 50.8499 41.3757 50.9399 41.1897C51.0314 41.0023 51.1583 40.8562 51.3206 40.7514C51.4844 40.6452 51.6615 40.5921 51.8519 40.5921C52.1633 40.5921 52.4053 40.6946 52.5779 40.8998C52.7506 41.1049 52.8369 41.3986 52.8369 41.7808V41.9512H51.2144C51.2203 42.1873 51.2889 42.3784 51.4202 42.5245C51.553 42.6692 51.7213 42.7415 51.9249 42.7415C52.0696 42.7415 52.192 42.712 52.2924 42.6529C52.3927 42.5939 52.4806 42.5157 52.5558 42.4183L52.806 42.6131C52.6053 42.9215 52.3042 43.0757 51.9028 43.0757ZM51.8519 40.9285C51.6866 40.9285 51.5479 40.989 51.4357 41.11C51.3236 41.2296 51.2542 41.3978 51.2276 41.6147H52.4274V41.5838C52.4156 41.3757 52.3595 41.2148 52.2592 41.1012C52.1588 40.9861 52.0231 40.9285 51.8519 40.9285Z" fill="#01CFA7"></path><path d="M54.4706 41.0038C54.4086 40.9935 54.3415 40.9883 54.2692 40.9883C54.0006 40.9883 53.8183 41.1027 53.7224 41.3314V43.0315H53.3129V40.6363H53.7113L53.718 40.913C53.8523 40.699 54.0426 40.5921 54.2891 40.5921C54.3688 40.5921 54.4293 40.6024 54.4706 40.623V41.0038Z" fill="#01CFA7"></path><path d="M55.7014 41.8295H54.6211V41.4952H55.7014V41.8295Z" fill="#01CFA7"></path><path d="M58.537 42.0088C58.4972 42.3497 58.371 42.6131 58.1585 42.799C57.9474 42.9835 57.6663 43.0757 57.3151 43.0757C56.9343 43.0757 56.6289 42.9392 56.3987 42.6662C56.1699 42.3932 56.0555 42.028 56.0555 41.5705V41.2606C56.0555 40.961 56.1087 40.6976 56.2149 40.4703C56.3227 40.243 56.4747 40.0689 56.6709 39.9479C56.8672 39.8254 57.0945 39.7642 57.3527 39.7642C57.6951 39.7642 57.9696 39.8601 58.1762 40.0519C58.3828 40.2423 58.5031 40.5065 58.537 40.8444H58.1098C58.0729 40.5876 57.9925 40.4017 57.8685 40.2866C57.746 40.1715 57.5741 40.1139 57.3527 40.1139C57.0812 40.1139 56.8679 40.2143 56.713 40.415C56.5595 40.6157 56.4828 40.9012 56.4828 41.2716V41.5838C56.4828 41.9335 56.5558 42.2117 56.7019 42.4183C56.848 42.6249 57.0524 42.7282 57.3151 42.7282C57.5512 42.7282 57.732 42.6751 57.8574 42.5688C57.9843 42.4611 58.0685 42.2744 58.1098 42.0088H58.537Z" fill="#01CFA7"></path><path d="M59.4999 43.0315H59.0904V39.6313H59.4999V43.0315Z" fill="#01CFA7"></path><path d="M60.6023 43.0315H60.1928V40.6363H60.6023V43.0315ZM60.1596 40.001C60.1596 39.9346 60.1795 39.8785 60.2194 39.8328C60.2607 39.787 60.3212 39.7642 60.4009 39.7642C60.4806 39.7642 60.5411 39.787 60.5824 39.8328C60.6237 39.8785 60.6444 39.9346 60.6444 40.001C60.6444 40.0674 60.6237 40.1228 60.5824 40.167C60.5411 40.2113 60.4806 40.2335 60.4009 40.2335C60.3212 40.2335 60.2607 40.2113 60.2194 40.167C60.1795 40.1228 60.1596 40.0674 60.1596 40.001Z" fill="#01CFA7"></path><path d="M62.2205 42.7415C62.3666 42.7415 62.4942 42.6972 62.6034 42.6087C62.7126 42.5201 62.7731 42.4094 62.7849 42.2766H63.1723C63.1649 42.4139 63.1177 42.5445 63.0307 42.6684C62.9436 42.7924 62.827 42.8913 62.6809 42.9651C62.5363 43.0388 62.3828 43.0757 62.2205 43.0757C61.8943 43.0757 61.6346 42.9673 61.4413 42.7503C61.2494 42.5319 61.1535 42.2338 61.1535 41.856V41.7874C61.1535 41.5542 61.1963 41.3469 61.2819 41.1654C61.3675 40.9839 61.49 40.8429 61.6494 40.7426C61.8102 40.6422 61.9998 40.5921 62.2183 40.5921C62.4868 40.5921 62.7097 40.6725 62.8868 40.8333C63.0653 40.9942 63.1605 41.203 63.1723 41.4598H62.7849C62.7731 41.3048 62.7141 41.1779 62.6079 41.0791C62.5031 40.9787 62.3732 40.9285 62.2183 40.9285C62.0102 40.9285 61.8486 41.0038 61.7335 41.1543C61.6198 41.3034 61.563 41.5196 61.563 41.8029V41.8804C61.563 42.1563 61.6198 42.3689 61.7335 42.5179C61.8471 42.667 62.0094 42.7415 62.2205 42.7415Z" fill="#01CFA7"></path><path d="M64.3013 41.9224L64.0445 42.1903V43.0315H63.635V39.6313H64.0445V41.6878L64.2636 41.4244L65.0096 40.6363H65.5077L64.5758 41.6369L65.6162 43.0315H65.1358L64.3013 41.9224Z" fill="#01CFA7"></path></g><g id="(PPC) Agencies in Chicago"><path d="M31.8561 47.4903C31.8561 47.1568 31.9004 46.8366 31.9889 46.5296C32.0789 46.2227 32.2125 45.9438 32.3896 45.6929C32.5667 45.442 32.7504 45.2649 32.9408 45.1616L33.0249 45.4317C32.8094 45.597 32.6323 45.8493 32.4936 46.1887C32.3564 46.5282 32.2811 46.9082 32.2678 47.3288L32.2656 47.5169C32.2656 48.0865 32.3696 48.5809 32.5777 49C32.7032 49.2509 32.8522 49.4472 33.0249 49.5889L32.9408 49.839C32.7445 49.7298 32.5571 49.5468 32.3785 49.29C32.0302 48.7883 31.8561 48.1884 31.8561 47.4903Z" fill="#01CFA7"></path><path d="M33.9103 47.5368V48.7986H33.4853V45.5756H34.674C35.0267 45.5756 35.3027 45.6656 35.5019 45.8456C35.7026 46.0257 35.803 46.264 35.803 46.5606C35.803 46.8735 35.7048 47.1148 35.5085 47.2845C35.3137 47.4527 35.0341 47.5368 34.6696 47.5368H33.9103ZM33.9103 47.1893H34.674C34.9013 47.1893 35.0754 47.1362 35.1964 47.0299C35.3174 46.9222 35.3779 46.7672 35.3779 46.5651C35.3779 46.3732 35.3174 46.2197 35.1964 46.1046C35.0754 45.9895 34.9094 45.9297 34.6984 45.9253H33.9103V47.1893Z" fill="#01CFA7"></path><path d="M36.7703 47.5368V48.7986H36.3453V45.5756H37.534C37.8867 45.5756 38.1627 45.6656 38.3619 45.8456C38.5626 46.0257 38.663 46.264 38.663 46.5606C38.663 46.8735 38.5648 47.1148 38.3685 47.2845C38.1737 47.4527 37.8941 47.5368 37.5296 47.5368H36.7703ZM36.7703 47.1893H37.534C37.7613 47.1893 37.9354 47.1362 38.0564 47.0299C38.1774 46.9222 38.2379 46.7672 38.2379 46.5651C38.2379 46.3732 38.1774 46.2197 38.0564 46.1046C37.9354 45.9895 37.7694 45.9297 37.5584 45.9253H36.7703V47.1893Z" fill="#01CFA7"></path><path d="M41.5761 47.7759C41.5362 48.1168 41.4101 48.3802 41.1975 48.5662C40.9865 48.7506 40.7054 48.8429 40.3542 48.8429C39.9734 48.8429 39.6679 48.7064 39.4377 48.4333C39.209 48.1603 39.0946 47.7951 39.0946 47.3376V47.0277C39.0946 46.7281 39.1477 46.4647 39.254 46.2374C39.3617 46.0102 39.5137 45.836 39.71 45.715C39.9063 45.5925 40.1335 45.5313 40.3918 45.5313C40.7342 45.5313 41.0086 45.6272 41.2153 45.8191C41.4219 46.0094 41.5421 46.2736 41.5761 46.6115H41.1488C41.112 46.3548 41.0315 46.1688 40.9076 46.0537C40.7851 45.9386 40.6132 45.881 40.3918 45.881C40.1203 45.881 39.907 45.9814 39.7521 46.1821C39.5986 46.3828 39.5218 46.6684 39.5218 47.0388V47.3509C39.5218 47.7006 39.5949 47.9788 39.741 48.1854C39.8871 48.392 40.0915 48.4953 40.3542 48.4953C40.5903 48.4953 40.7711 48.4422 40.8965 48.3359C41.0234 48.2282 41.1075 48.0415 41.1488 47.7759H41.5761Z" fill="#01CFA7"></path><path d="M42.9817 47.5125C42.9817 47.8416 42.9382 48.1574 42.8511 48.4599C42.7655 48.761 42.6334 49.0391 42.4549 49.2944C42.2778 49.5497 42.0918 49.7313 41.897 49.839L41.8107 49.5889C42.038 49.4147 42.2202 49.1447 42.3575 48.7787C42.4962 48.4112 42.567 48.0039 42.57 47.5568V47.4859C42.57 47.176 42.5375 46.8882 42.4726 46.6226C42.4077 46.3555 42.3169 46.1164 42.2003 45.9054C42.0852 45.6944 41.9553 45.5298 41.8107 45.4118L41.897 45.1616C42.0918 45.2694 42.2771 45.4494 42.4527 45.7017C42.6298 45.9541 42.7618 46.2323 42.8489 46.5363C42.9374 46.8403 42.9817 47.1657 42.9817 47.5125Z" fill="#01CFA7"></path><path d="M46.5811 47.9574H45.2308L44.9275 48.7986H44.4892L45.72 45.5756H46.0919L47.3248 48.7986H46.8888L46.5811 47.9574ZM45.3591 47.6077H46.4549L45.9059 46.1002L45.3591 47.6077Z" fill="#01CFA7"></path><path d="M47.5971 47.5811C47.5971 47.2077 47.6834 46.9111 47.8561 46.6912C48.0288 46.4699 48.2575 46.3592 48.5423 46.3592C48.8345 46.3592 49.0625 46.4625 49.2263 46.6691L49.2463 46.4035H49.6204V48.741C49.6204 49.0509 49.5281 49.2952 49.3437 49.4737C49.1607 49.6523 48.9142 49.7416 48.6043 49.7416C48.4316 49.7416 48.2627 49.7047 48.0974 49.6309C47.9321 49.5571 47.8059 49.456 47.7189 49.3277L47.9314 49.0819C48.107 49.2989 48.3217 49.4073 48.5755 49.4073C48.7748 49.4073 48.9297 49.3513 49.0404 49.2391C49.1525 49.1269 49.2086 48.969 49.2086 48.7654V48.5595C49.0448 48.7484 48.8212 48.8429 48.5379 48.8429C48.2575 48.8429 48.0302 48.73 47.8561 48.5042C47.6834 48.2784 47.5971 47.9707 47.5971 47.5811ZM48.0088 47.6276C48.0088 47.8977 48.0642 48.1102 48.1749 48.2651C48.2856 48.4186 48.4405 48.4953 48.6397 48.4953C48.898 48.4953 49.0876 48.378 49.2086 48.1434V47.0498C49.0832 46.8211 48.895 46.7067 48.6442 46.7067C48.4449 46.7067 48.2892 46.7842 48.1771 46.9392C48.0649 47.0941 48.0088 47.3236 48.0088 47.6276Z" fill="#01CFA7"></path><path d="M51.2341 48.8429C50.9094 48.8429 50.6453 48.7366 50.4416 48.5241C50.238 48.3101 50.1361 48.0246 50.1361 47.6674V47.5922C50.1361 47.3546 50.1811 47.1428 50.2712 46.9569C50.3627 46.7694 50.4896 46.6233 50.6519 46.5186C50.8157 46.4123 50.9928 46.3592 51.1832 46.3592C51.4946 46.3592 51.7366 46.4618 51.9092 46.6669C52.0819 46.872 52.1682 47.1657 52.1682 47.5479V47.7183H50.5457C50.5516 47.9545 50.6202 48.1456 50.7515 48.2917C50.8843 48.4363 51.0526 48.5086 51.2562 48.5086C51.4008 48.5086 51.5233 48.4791 51.6237 48.4201C51.724 48.361 51.8118 48.2828 51.8871 48.1854L52.1372 48.3802C51.9365 48.6887 51.6355 48.8429 51.2341 48.8429ZM51.1832 46.6957C51.0179 46.6957 50.8792 46.7562 50.767 46.8772C50.6549 46.9967 50.5855 47.1649 50.5589 47.3819H51.7587V47.3509C51.7469 47.1428 51.6908 46.982 51.5905 46.8683C51.4901 46.7532 51.3544 46.6957 51.1832 46.6957Z" fill="#01CFA7"></path><path d="M53.0315 46.4035L53.0448 46.7045C53.2278 46.4743 53.4669 46.3592 53.762 46.3592C54.2682 46.3592 54.5235 46.6447 54.528 47.2159V48.7986H54.1184V47.2136C54.117 47.041 54.0771 46.9133 53.9989 46.8307C53.9222 46.748 53.8019 46.7067 53.6381 46.7067C53.5053 46.7067 53.3887 46.7421 53.2883 46.813C53.188 46.8838 53.1098 46.9768 53.0537 47.0919V48.7986H52.6442V46.4035H53.0315Z" fill="#01CFA7"></path><path d="M56.1063 48.5086C56.2524 48.5086 56.38 48.4643 56.4892 48.3758C56.5984 48.2872 56.6589 48.1766 56.6707 48.0438H57.0581C57.0507 48.181 57.0035 48.3116 56.9164 48.4356C56.8294 48.5595 56.7128 48.6584 56.5667 48.7322C56.4221 48.806 56.2686 48.8429 56.1063 48.8429C55.7801 48.8429 55.5204 48.7344 55.3271 48.5175C55.1352 48.2991 55.0393 48.001 55.0393 47.6232V47.5545C55.0393 47.3214 55.0821 47.114 55.1677 46.9325C55.2533 46.751 55.3758 46.6101 55.5351 46.5097C55.696 46.4094 55.8856 46.3592 56.104 46.3592C56.3726 46.3592 56.5955 46.4396 56.7726 46.6005C56.9511 46.7613 57.0463 46.9701 57.0581 47.2269H56.6707C56.6589 47.072 56.5999 46.9451 56.4936 46.8462C56.3889 46.7458 56.259 46.6957 56.104 46.6957C55.896 46.6957 55.7344 46.7709 55.6193 46.9214C55.5056 47.0705 55.4488 47.2867 55.4488 47.57V47.6475C55.4488 47.9235 55.5056 48.136 55.6193 48.285C55.7329 48.4341 55.8952 48.5086 56.1063 48.5086Z" fill="#01CFA7"></path><path d="M57.9635 48.7986H57.554V46.4035H57.9635V48.7986ZM57.5208 45.7682C57.5208 45.7017 57.5407 45.6457 57.5805 45.5999C57.6219 45.5542 57.6824 45.5313 57.762 45.5313C57.8417 45.5313 57.9022 45.5542 57.9436 45.5999C57.9849 45.6457 58.0055 45.7017 58.0055 45.7682C58.0055 45.8346 57.9849 45.8899 57.9436 45.9342C57.9022 45.9784 57.8417 46.0006 57.762 46.0006C57.6824 46.0006 57.6219 45.9784 57.5805 45.9342C57.5407 45.8899 57.5208 45.8346 57.5208 45.7682Z" fill="#01CFA7"></path><path d="M59.6148 48.8429C59.2902 48.8429 59.026 48.7366 58.8224 48.5241C58.6187 48.3101 58.5169 48.0246 58.5169 47.6674V47.5922C58.5169 47.3546 58.5619 47.1428 58.6519 46.9569C58.7434 46.7694 58.8703 46.6233 59.0327 46.5186C59.1965 46.4123 59.3736 46.3592 59.5639 46.3592C59.8753 46.3592 60.1173 46.4618 60.29 46.6669C60.4627 46.872 60.549 47.1657 60.549 47.5479V47.7183H58.9264C58.9323 47.9545 59.0009 48.1456 59.1323 48.2917C59.2651 48.4363 59.4333 48.5086 59.637 48.5086C59.7816 48.5086 59.9041 48.4791 60.0044 48.4201C60.1048 48.361 60.1926 48.2828 60.2679 48.1854L60.518 48.3802C60.3173 48.6887 60.0162 48.8429 59.6148 48.8429ZM59.5639 46.6957C59.3986 46.6957 59.2599 46.7562 59.1478 46.8772C59.0356 46.9967 58.9663 47.1649 58.9397 47.3819H60.1395V47.3509C60.1277 47.1428 60.0716 46.982 59.9712 46.8683C59.8709 46.7532 59.7351 46.6957 59.5639 46.6957Z" fill="#01CFA7"></path><path d="M62.4195 48.1633C62.4195 48.0526 62.3774 47.967 62.2933 47.9065C62.2107 47.8445 62.0653 47.7914 61.8572 47.7471C61.6506 47.7029 61.4861 47.6497 61.3636 47.5877C61.2426 47.5258 61.1526 47.452 61.0935 47.3664C61.036 47.2808 61.0072 47.179 61.0072 47.0609C61.0072 46.8646 61.0899 46.6986 61.2551 46.5628C61.4219 46.4271 61.6344 46.3592 61.8927 46.3592C62.1642 46.3592 62.3841 46.4293 62.5523 46.5695C62.722 46.7097 62.8069 46.889 62.8069 47.1074H62.3952C62.3952 46.9952 62.3472 46.8986 62.2513 46.8174C62.1568 46.7362 62.0373 46.6957 61.8927 46.6957C61.7436 46.6957 61.627 46.7281 61.5429 46.7931C61.4588 46.858 61.4167 46.9428 61.4167 47.0476C61.4167 47.1465 61.4558 47.221 61.5341 47.2712C61.6123 47.3214 61.7532 47.3693 61.9569 47.4151C62.162 47.4608 62.328 47.5154 62.4549 47.5789C62.5818 47.6423 62.6755 47.7191 62.736 47.8091C62.798 47.8977 62.829 48.0061 62.829 48.1345C62.829 48.3485 62.7434 48.5204 62.5722 48.6503C62.4011 48.7787 62.179 48.8429 61.9059 48.8429C61.7141 48.8429 61.5444 48.8089 61.3968 48.741C61.2492 48.6732 61.1334 48.5787 61.0493 48.4577C60.9666 48.3352 60.9253 48.2031 60.9253 48.0615H61.3348C61.3422 48.1987 61.3968 48.3079 61.4986 48.3891C61.6019 48.4688 61.7377 48.5086 61.9059 48.5086C62.0609 48.5086 62.1849 48.4776 62.2778 48.4156C62.3723 48.3522 62.4195 48.2681 62.4195 48.1633Z" fill="#01CFA7"></path><path d="M37.4366 54.1817H37.0271V51.7866H37.4366V54.1817ZM36.9939 51.1513C36.9939 51.0849 37.0138 51.0288 37.0537 50.983C37.095 50.9373 37.1555 50.9144 37.2352 50.9144C37.3149 50.9144 37.3754 50.9373 37.4167 50.983C37.458 51.0288 37.4787 51.0849 37.4787 51.1513C37.4787 51.2177 37.458 51.273 37.4167 51.3173C37.3754 51.3616 37.3149 51.3837 37.2352 51.3837C37.1555 51.3837 37.095 51.3616 37.0537 51.3173C37.0138 51.273 36.9939 51.2177 36.9939 51.1513Z" fill="#01CFA7"></path><path d="M38.4814 51.7866L38.4947 52.0876C38.6777 51.8574 38.9168 51.7423 39.2119 51.7423C39.7181 51.7423 39.9734 52.0279 39.9778 52.599V54.1817H39.5683V52.5968C39.5668 52.4241 39.527 52.2965 39.4488 52.2138C39.3721 52.1312 39.2518 52.0899 39.088 52.0899C38.9552 52.0899 38.8386 52.1253 38.7382 52.1961C38.6379 52.2669 38.5597 52.3599 38.5036 52.475V54.1817H38.0941V51.7866H38.4814Z" fill="#01CFA7"></path><path d="M44.1549 53.159C44.1151 53.4999 43.9889 53.7634 43.7764 53.9493C43.5654 54.1338 43.2843 54.226 42.933 54.226C42.5523 54.226 42.2468 54.0895 42.0166 53.8165C41.7878 53.5435 41.6735 53.1782 41.6735 52.7207V52.4108C41.6735 52.1113 41.7266 51.8478 41.8329 51.6206C41.9406 51.3933 42.0926 51.2192 42.2889 51.0982C42.4851 50.9757 42.7124 50.9144 42.9707 50.9144C43.313 50.9144 43.5875 51.0103 43.7941 51.2022C44.0007 51.3926 44.121 51.6567 44.1549 51.9947H43.7277C43.6908 51.7379 43.6104 51.5519 43.4864 51.4368C43.3639 51.3217 43.192 51.2642 42.9707 51.2642C42.6991 51.2642 42.4859 51.3645 42.3309 51.5652C42.1774 51.7659 42.1007 52.0515 42.1007 52.4219V52.734C42.1007 53.0838 42.1738 53.3619 42.3199 53.5686C42.466 53.7752 42.6703 53.8785 42.933 53.8785C43.1691 53.8785 43.3499 53.8253 43.4754 53.7191C43.6023 53.6113 43.6864 53.4247 43.7277 53.159H44.1549Z" fill="#01CFA7"></path><path d="M45.0824 52.0766C45.264 51.8537 45.5001 51.7423 45.7908 51.7423C46.297 51.7423 46.5523 52.0279 46.5567 52.599V54.1817H46.1472V52.5968C46.1457 52.4241 46.1059 52.2965 46.0277 52.2138C45.9509 52.1312 45.8306 52.0899 45.6668 52.0899C45.534 52.0899 45.4174 52.1253 45.3171 52.1961C45.2167 52.2669 45.1385 52.3599 45.0824 52.475V54.1817H44.6729V50.7816H45.0824V52.0766Z" fill="#01CFA7"></path><path d="M47.6148 54.1817H47.2053V51.7866H47.6148V54.1817ZM47.1721 51.1513C47.1721 51.0849 47.192 51.0288 47.2319 50.983C47.2732 50.9373 47.3337 50.9144 47.4134 50.9144C47.4931 50.9144 47.5536 50.9373 47.5949 50.983C47.6362 51.0288 47.6569 51.0849 47.6569 51.1513C47.6569 51.2177 47.6362 51.273 47.5949 51.3173C47.5536 51.3616 47.4931 51.3837 47.4134 51.3837C47.3337 51.3837 47.2732 51.3616 47.2319 51.3173C47.192 51.273 47.1721 51.2177 47.1721 51.1513Z" fill="#01CFA7"></path><path d="M49.233 53.8917C49.3791 53.8917 49.5067 53.8475 49.6159 53.7589C49.7251 53.6704 49.7856 53.5597 49.7975 53.4269H50.1848C50.1775 53.5641 50.1302 53.6947 50.0432 53.8187C49.9561 53.9427 49.8395 54.0415 49.6934 54.1153C49.5488 54.1891 49.3953 54.226 49.233 54.226C48.9068 54.226 48.6471 54.1175 48.4538 53.9006C48.2619 53.6822 48.166 53.3841 48.166 53.0063V52.9377C48.166 52.7045 48.2088 52.4972 48.2944 52.3156C48.38 52.1341 48.5025 51.9932 48.6619 51.8928C48.8227 51.7925 49.0124 51.7423 49.2308 51.7423C49.4994 51.7423 49.7222 51.8227 49.8993 51.9836C50.0778 52.1445 50.173 52.3533 50.1848 52.6101H49.7975C49.7856 52.4551 49.7266 52.3282 49.6204 52.2293C49.5156 52.129 49.3857 52.0788 49.2308 52.0788C49.0227 52.0788 48.8611 52.1541 48.746 52.3046C48.6324 52.4536 48.5755 52.6698 48.5755 52.9532V53.0306C48.5755 53.3066 48.6324 53.5191 48.746 53.6682C48.8596 53.8172 49.0219 53.8917 49.233 53.8917Z" fill="#01CFA7"></path><path d="M52.124 54.1817C52.1004 54.1345 52.0812 54.0504 52.0664 53.9294C51.876 54.1271 51.6488 54.226 51.3846 54.226C51.1485 54.226 50.9544 54.1596 50.8024 54.0268C50.6519 53.8925 50.5766 53.7228 50.5766 53.5176C50.5766 53.2682 50.6711 53.0749 50.86 52.9377C51.0504 52.799 51.3175 52.7296 51.6613 52.7296H52.0598V52.5414C52.0598 52.3983 52.017 52.2847 51.9314 52.2005C51.8458 52.1149 51.7196 52.0721 51.5529 52.0721C51.4068 52.0721 51.2843 52.109 51.1854 52.1828C51.0865 52.2566 51.0371 52.3459 51.0371 52.4507H50.6253C50.6253 52.3311 50.6674 52.216 50.7515 52.1054C50.8371 51.9932 50.9522 51.9046 51.0968 51.8397C51.2429 51.7748 51.4031 51.7423 51.5772 51.7423C51.8532 51.7423 52.0694 51.8117 52.2258 51.9504C52.3822 52.0876 52.4634 52.2773 52.4693 52.5193V53.6217C52.4693 53.8416 52.4973 54.0164 52.5534 54.1463V54.1817H52.124ZM51.4444 53.8696C51.5728 53.8696 51.6945 53.8364 51.8096 53.77C51.9247 53.7036 52.0081 53.6173 52.0598 53.511V53.0196H51.7388C51.237 53.0196 50.9862 53.1664 50.9862 53.4601C50.9862 53.5885 51.029 53.6888 51.1146 53.7611C51.2001 53.8334 51.3101 53.8696 51.4444 53.8696Z" fill="#01CFA7"></path><path d="M53.0138 52.9642C53.0138 52.5909 53.1002 52.2942 53.2728 52.0744C53.4455 51.853 53.6742 51.7423 53.9591 51.7423C54.2513 51.7423 54.4793 51.8456 54.6431 52.0522L54.663 51.7866H55.0371V54.1242C55.0371 54.4341 54.9449 54.6783 54.7604 54.8569C54.5774 55.0354 54.3309 55.1247 54.021 55.1247C53.8484 55.1247 53.6794 55.0878 53.5141 55.014C53.3488 54.9403 53.2227 54.8392 53.1356 54.7108L53.3481 54.4651C53.5237 54.682 53.7384 54.7905 53.9923 54.7905C54.1915 54.7905 54.3464 54.7344 54.4571 54.6222C54.5693 54.5101 54.6254 54.3522 54.6254 54.1485V53.9427C54.4615 54.1315 54.238 54.226 53.9546 54.226C53.6742 54.226 53.447 54.1131 53.2728 53.8873C53.1002 53.6615 53.0138 53.3538 53.0138 52.9642ZM53.4256 53.0107C53.4256 53.2808 53.4809 53.4933 53.5916 53.6482C53.7023 53.8017 53.8572 53.8785 54.0565 53.8785C54.3147 53.8785 54.5043 53.7611 54.6254 53.5265V52.433C54.4999 52.2042 54.3118 52.0899 54.0609 52.0899C53.8617 52.0899 53.706 52.1673 53.5938 52.3223C53.4816 52.4772 53.4256 52.7067 53.4256 53.0107Z" fill="#01CFA7"></path><path d="M55.5484 52.962C55.5484 52.7274 55.5942 52.5163 55.6857 52.3289C55.7786 52.1415 55.907 51.9969 56.0708 51.8951C56.2361 51.7932 56.4243 51.7423 56.6353 51.7423C56.9615 51.7423 57.2249 51.8552 57.4256 52.081C57.6278 52.3068 57.7288 52.6071 57.7288 52.9819V53.0107C57.7288 53.2439 57.6838 53.4534 57.5938 53.6394C57.5053 53.8239 57.3776 53.9677 57.2109 54.071C57.0456 54.1743 56.8552 54.226 56.6397 54.226C56.3151 54.226 56.0517 54.1131 55.8495 53.8873C55.6488 53.6615 55.5484 53.3627 55.5484 52.9908V52.962ZM55.9602 53.0107C55.9602 53.2764 56.0214 53.4896 56.1439 53.6505C56.2679 53.8113 56.4331 53.8917 56.6397 53.8917C56.8478 53.8917 57.0131 53.8106 57.1356 53.6482C57.2581 53.4844 57.3193 53.2557 57.3193 52.962C57.3193 52.6993 57.2566 52.4868 57.1312 52.3245C57.0072 52.1607 56.8419 52.0788 56.6353 52.0788C56.4331 52.0788 56.2701 52.1592 56.1461 52.3201C56.0221 52.4809 55.9602 52.7111 55.9602 53.0107Z" fill="#01CFA7"></path></g><g id="Group 1533"><g id="2019"><path d="M42.7104 68.9481H39.2216V68.4617L41.0647 66.4138C41.3378 66.1042 41.5255 65.8531 41.6279 65.6605C41.7327 65.4654 41.7852 65.2643 41.7852 65.057C41.7852 64.7791 41.7011 64.5512 41.5328 64.3732C41.3646 64.1952 41.1403 64.1062 40.8599 64.1062C40.5235 64.1062 40.2614 64.2025 40.0737 64.3951C39.8884 64.5853 39.7957 64.851 39.7957 65.1924H39.1192C39.1192 64.7023 39.2765 64.3061 39.591 64.0038C39.9079 63.7015 40.3309 63.5504 40.8599 63.5504C41.3549 63.5504 41.7462 63.6808 42.0338 63.9417C42.3215 64.2001 42.4654 64.5451 42.4654 64.9766C42.4654 65.5008 42.1314 66.1249 41.4633 66.849L40.0371 68.3959H42.7104V68.9481Z" fill="#074873"></path><path d="M46.766 66.6771C46.766 67.4695 46.6307 68.0582 46.3601 68.4434C46.0895 68.8286 45.6665 69.0213 45.0911 69.0213C44.5231 69.0213 44.1025 68.8335 43.8294 68.4581C43.5564 68.0802 43.415 67.517 43.4052 66.7685V65.8652C43.4052 65.0826 43.5405 64.5012 43.8112 64.1208C44.0818 63.7405 44.506 63.5504 45.0838 63.5504C45.6567 63.5504 46.0785 63.7344 46.3491 64.1026C46.6197 64.4683 46.7587 65.0339 46.766 65.7994V66.6771ZM46.0895 65.7519C46.0895 65.1789 46.009 64.762 45.8481 64.5012C45.6872 64.2379 45.4324 64.1062 45.0838 64.1062C44.7376 64.1062 44.4853 64.2367 44.3268 64.4975C44.1683 64.7584 44.0866 65.1594 44.0818 65.7007V66.7832C44.0818 67.3585 44.1647 67.784 44.3305 68.0595C44.4987 68.3325 44.7522 68.469 45.0911 68.469C45.4251 68.469 45.6726 68.3398 45.8335 68.0814C45.9968 67.823 46.0822 67.4158 46.0895 66.86V65.7519Z" fill="#074873"></path></g><path id="2020" d="M51.1912 68.9481H47.7024V68.4617L49.5455 66.4138C49.8186 66.1042 50.0063 65.8531 50.1087 65.6605C50.2135 65.4654 50.2659 65.2643 50.2659 65.057C50.2659 64.7791 50.1818 64.5512 50.0136 64.3732C49.8454 64.1952 49.6211 64.1062 49.3407 64.1062C49.0043 64.1062 48.7422 64.2025 48.5545 64.3951C48.3692 64.5853 48.2765 64.851 48.2765 65.1924H47.6C47.6 64.7023 47.7572 64.3061 48.0717 64.0038C48.3887 63.7015 48.8117 63.5504 49.3407 63.5504C49.8356 63.5504 50.2269 63.6808 50.5146 63.9417C50.8023 64.2001 50.9461 64.5451 50.9461 64.9766C50.9461 65.5008 50.6121 66.1249 49.9441 66.849L48.5179 68.3959H51.1912V68.9481Z" fill="#074873"></path><path id="2021" d="M55.1912 68.9481H51.7024V68.4617L53.5455 66.4138C53.8186 66.1042 54.0063 65.8531 54.1087 65.6605C54.2135 65.4654 54.2659 65.2643 54.2659 65.057C54.2659 64.7791 54.1818 64.5512 54.0136 64.3732C53.8454 64.1952 53.6211 64.1062 53.3407 64.1062C53.0043 64.1062 52.7422 64.2025 52.5545 64.3951C52.3692 64.5853 52.2765 64.851 52.2765 65.1924H51.6C51.6 64.7023 51.7572 64.3061 52.0717 64.0038C52.3887 63.7015 52.8117 63.5504 53.3407 63.5504C53.8356 63.5504 54.2269 63.6808 54.5146 63.9417C54.8023 64.2001 54.9461 64.5451 54.9461 64.9766C54.9461 65.5008 54.6121 66.1249 53.9441 66.849L52.5179 68.3959H55.1912V68.9481Z" fill="#074873"></path></g></g></svg> 