<svg width="47" height="45" viewBox="0 0 47 45" fill="none" xmlns="http://www.w3.org/2000/svg">
<g clip-path="url(#clip0_2171_16)">
<path d="M37.4258 23.8828L39.1758 25.6328V41.1328C39.1758 42.2161 38.8216 43.112 38.1133 43.8203C37.4049 44.5286 36.5091 44.8828 35.4258 44.8828H4.42578C3.34245 44.8828 2.44661 44.5286 1.73828 43.8203C1.02995 43.112 0.675781 42.2161 0.675781 41.1328V10.1328C0.675781 9.04948 1.02995 8.15365 1.73828 7.44531C2.44661 6.73698 3.34245 6.38281 4.42578 6.38281H17.7383C17.6549 6.75781 17.6029 7.08073 17.582 7.35156C17.5612 7.6224 17.5299 7.88281 17.4883 8.13281H4.42578C3.92578 8.13281 3.46745 8.34115 3.05078 8.75781C2.63411 9.17448 2.42578 9.63281 2.42578 10.1328V41.1328C2.42578 41.6328 2.63411 42.0911 3.05078 42.5078C3.46745 42.9245 3.92578 43.1328 4.42578 43.1328H35.4258C35.9258 43.1328 36.3841 42.9245 36.8008 42.5078C37.2174 42.0911 37.4258 41.6328 37.4258 41.1328V23.8828ZM37.9258 14.8828L46.3008 23.2578L45.0508 24.5078L36.6758 16.1328C35.9674 16.8411 35.1237 17.3516 34.1445 17.6641C33.1654 17.9766 32.1758 18.1328 31.1758 18.1328C28.7174 18.1328 26.6445 17.2891 24.957 15.6016C23.2695 13.9141 22.4258 11.8411 22.4258 9.38281C22.4258 6.92448 23.2695 4.85156 24.957 3.16406C26.6445 1.47656 28.7174 0.632812 31.1758 0.632812C33.6341 0.632812 35.707 1.47656 37.3945 3.16406C39.082 4.85156 39.9258 6.92448 39.9258 9.38281C39.9258 10.5078 39.7487 11.5286 39.3945 12.4453C39.0404 13.362 38.5508 14.1745 37.9258 14.8828ZM31.1758 16.3828C33.1341 16.3828 34.7904 15.7057 36.1445 14.3516C37.4987 12.9974 38.1758 11.3411 38.1758 9.38281C38.1758 7.42448 37.4987 5.76823 36.1445 4.41406C34.7904 3.0599 33.1341 2.38281 31.1758 2.38281C29.2174 2.38281 27.5612 3.0599 26.207 4.41406C24.8529 5.76823 24.1758 7.42448 24.1758 9.38281C24.1758 11.3411 24.8529 12.9974 26.207 14.3516C27.5612 15.7057 29.2174 16.3828 31.1758 16.3828ZM2.42578 43.1328V8.13281V23.1328V22.4453V43.1328Z" fill="#ED1E3A"/>
</g>
<defs>
<clipPath id="clip0_2171_16">
<rect width="47" height="45" fill="white"/>
</clipPath>
</defs>
</svg>
