<svg width="511" height="184" viewBox="0 0 511 184" fill="none" xmlns="http://www.w3.org/2000/svg">
<path fill-rule="evenodd" clip-rule="evenodd" d="M91.6349 183.387C41.0288 183.387 0 142.332 0 91.6937C0 41.0505 41.0288 0 91.6349 0C142.243 0 183.27 41.0505 183.27 91.6937C183.27 142.332 142.243 183.387 91.6349 183.387Z" fill="#23D000"/>
<path fill-rule="evenodd" clip-rule="evenodd" d="M172.488 91.6931C172.488 47.0083 136.29 10.7852 91.6343 10.7852C46.9827 10.7852 10.785 47.0083 10.785 91.6931C10.785 136.373 46.9827 172.601 91.6343 172.601C136.29 172.601 172.488 136.373 172.488 91.6931Z" fill="#FEFEFE"/>
<path fill-rule="evenodd" clip-rule="evenodd" d="M96.1959 32.038V72.4438C96.1959 77.4891 101.653 80.6392 106.016 78.1154L140.987 57.916C145.871 55.0939 146.781 48.4885 142.959 44.338C133.446 34.0272 120.872 26.5935 106.679 23.4755C101.284 22.2893 96.1959 26.5063 96.1959 32.038Z" fill="#BEF000"/>
<path fill-rule="evenodd" clip-rule="evenodd" d="M106.68 159.908C120.87 156.79 133.447 149.359 142.958 139.046C146.782 134.896 145.872 128.295 140.988 125.47L106.017 105.269C101.654 102.749 96.1966 105.897 96.1966 110.94V151.348C96.1966 156.88 101.282 161.092 106.68 159.908Z" fill="#BEF000"/>
<path fill-rule="evenodd" clip-rule="evenodd" d="M37.7142 65.8089C32.8372 62.9892 26.6648 65.4877 24.9818 70.8749C22.932 77.4482 21.8154 84.4436 21.8154 91.6938C21.8154 98.9462 22.932 105.935 24.9818 112.51C26.6648 117.895 32.8372 120.396 37.7142 117.574L72.6989 97.3654C77.06 94.8416 77.06 88.539 72.6989 86.0198L37.7142 65.8089Z" fill="#BEF000"/>
<path fill-rule="evenodd" clip-rule="evenodd" d="M158.294 70.8748C156.609 65.4877 150.439 62.9914 145.557 65.8089L110.572 86.0198C106.209 88.539 106.209 94.8416 110.572 97.3677L145.557 117.576C150.439 120.396 156.609 117.895 158.287 112.51C160.344 105.935 161.456 98.9462 161.456 91.6937C161.456 84.4436 160.344 77.4481 158.294 70.8748Z" fill="#BEF000"/>
<path fill-rule="evenodd" clip-rule="evenodd" d="M42.2864 57.913L77.2597 78.117C81.6185 80.6385 87.0778 77.4884 87.0778 72.4431V32.035C87.0778 26.5079 81.9876 22.2909 76.5925 23.4748C62.3996 26.5951 49.8208 34.0265 40.3168 44.3373C36.4877 48.4878 37.4026 55.0932 42.2864 57.913Z" fill="#BEF000"/>
<path fill-rule="evenodd" clip-rule="evenodd" d="M77.2574 105.269L42.2864 125.47C37.4026 128.295 36.4877 134.896 40.3168 139.046C49.8208 149.359 62.3973 156.79 76.5925 159.909C81.9876 161.092 87.0778 156.88 87.0778 151.346V110.94C87.0778 105.897 81.6253 102.749 77.2574 105.269Z" fill="#BEF000"/>
<path fill-rule="evenodd" clip-rule="evenodd" d="M100.038 91.6933C100.038 96.3348 96.278 100.102 91.6349 100.102C86.9941 100.102 83.2315 96.3348 83.2315 91.6933C83.2315 87.0518 86.9941 83.2822 91.6349 83.2822C96.278 83.2822 100.038 87.0518 100.038 91.6933Z" fill="#23D000"/>
<path fill-rule="evenodd" clip-rule="evenodd" d="M286.18 34.3389C291.399 34.3389 295.638 38.5765 295.638 43.8031C295.638 49.0296 291.399 53.2695 286.18 53.2695C280.955 53.2695 276.722 49.0296 276.722 43.8031C276.722 38.5765 280.955 34.3389 286.18 34.3389Z" fill="white"/>
<path fill-rule="evenodd" clip-rule="evenodd" d="M286.234 34.3486C291.46 34.3486 295.692 38.5886 295.692 43.8128C295.692 49.0416 291.46 53.2793 286.234 53.2793C281.011 53.2793 276.776 49.0416 276.776 43.8128C276.776 38.5886 281.011 34.3486 286.234 34.3486Z" fill="#23D000"/>
<path fill-rule="evenodd" clip-rule="evenodd" d="M278.619 140.706V64.7305H293.697V143.475H278.619V140.706Z" fill="#23D000"/>
<path fill-rule="evenodd" clip-rule="evenodd" d="M420.372 143.475H408.057V99.8178C408.057 95.7454 407.738 92.2396 407.105 89.3005C406.5 86.5083 405.617 84.253 404.462 82.5322C403.37 80.917 402.031 79.7079 400.465 78.9232C398.858 78.1202 396.925 77.7118 394.68 77.7118C393.437 77.7118 392.241 77.8242 391.103 78.0422C389.966 78.267 388.865 78.5997 387.806 79.0425C386.694 79.5014 385.637 80.052 384.63 80.6898C383.631 81.3231 382.652 82.0619 381.698 82.9085C380.728 83.7757 379.827 84.7027 379.013 85.6869C378.174 86.6942 377.385 87.7931 376.66 88.9701C375.959 90.1058 375.317 91.3494 374.748 92.6686C374.23 93.8778 373.79 95.1098 373.427 96.3579V143.475H358.345V99.8178C358.345 95.6215 358.04 92.0423 357.432 89.0917C356.85 86.3018 356.002 84.0602 354.883 82.3831C353.86 80.8321 352.553 79.6734 350.985 78.9094C349.361 78.1133 347.399 77.7118 345.11 77.7118C340.282 77.7118 335.978 79.4004 332.199 82.7754C330.243 84.5145 328.565 86.5335 327.173 88.821C325.82 91.0305 324.713 93.5198 323.865 96.2777V143.475H308.777V64.7303H323.016V75.1582L323.397 74.7291C325.518 72.3636 327.912 70.3217 330.555 68.6147C333.203 66.9077 336.012 65.6228 338.966 64.7625C341.93 63.8998 345.012 63.4639 348.194 63.4639C351.588 63.4639 354.667 63.9526 357.442 64.9277C360.269 65.9165 362.752 67.417 364.891 69.42C366.996 71.3794 368.684 73.6485 369.963 76.209C370.272 76.8583 370.573 77.5236 370.848 78.2074C373.703 74.2037 376.91 71.0123 380.471 68.6399C385.637 65.1915 391.498 63.4639 398.048 63.4639C400.284 63.4639 402.38 63.6727 404.326 64.0925C406.298 64.5147 408.119 65.1709 409.786 66.0404C411.443 66.9123 412.934 67.9608 414.252 69.1837C415.566 70.4066 416.729 71.8176 417.721 73.403C418.696 74.9677 419.526 76.6518 420.216 78.4643C420.888 80.2333 421.45 82.188 421.881 84.3011C422.298 86.3293 422.612 88.486 422.816 90.7689C423.032 93.0931 423.142 95.4563 423.142 97.8493V143.475H420.372Z" fill="#23D000"/>
<path fill-rule="evenodd" clip-rule="evenodd" d="M495.011 97.4704H447.448C447.567 96.7431 447.709 96.0295 447.879 95.3343C448.269 93.7398 448.801 92.1819 449.463 90.6722C450.775 87.7148 452.494 85.1864 454.627 83.094C456.755 81.0061 459.252 79.3725 462.099 78.2001C464.931 77.0323 467.951 76.4495 471.165 76.4495C472.77 76.4495 474.32 76.5964 475.806 76.8855C477.306 77.1814 478.757 77.6197 480.14 78.2001C481.541 78.7852 482.868 79.4896 484.097 80.3086C485.342 81.1277 486.493 82.0615 487.548 83.094C488.619 84.1448 489.605 85.3034 490.494 86.5653C491.395 87.8502 492.203 89.2222 492.9 90.6768C493.576 92.097 494.129 93.6365 494.546 95.2816C494.729 95.9951 494.883 96.727 495.011 97.4704ZM471.165 144.879C477.485 144.879 483.776 143.116 489.35 140.047C492.826 138.133 496.039 135.697 498.804 132.868C500.888 130.736 502.731 128.378 504.247 125.833C505.364 123.963 506.313 121.995 507.065 119.946H491.246C490.565 121.123 489.756 122.242 488.855 123.286C486.633 125.877 483.799 128.031 480.823 129.545C477.757 131.11 474.518 132.007 471.58 132.035C468.389 132.035 465.401 131.436 462.636 130.224C461.203 129.61 459.873 128.878 458.653 128.045C457.404 127.189 456.227 126.216 455.138 125.12C454.019 123.998 453.02 122.798 452.137 121.52C451.236 120.223 450.435 118.803 449.732 117.275C449.028 115.772 448.468 114.196 448.055 112.549C447.872 111.817 447.716 111.074 447.585 110.312H507.569H509.583C510.344 106.074 510.147 100.467 509.294 95.8758C508.812 93.2855 508.097 90.7892 507.15 88.4031C506.212 86.0101 505.068 83.741 503.733 81.6004C502.401 79.4666 500.881 77.4682 499.171 75.6052C497.444 73.7216 495.55 72.0421 493.496 70.5783C491.428 69.0893 489.197 67.8067 486.83 66.7353C484.439 65.6523 481.898 64.831 479.243 64.2872C476.588 63.7411 473.846 63.4658 471.019 63.4658C468.237 63.4658 465.529 63.7411 462.886 64.2872C460.251 64.8264 457.711 65.65 455.294 66.7353C452.875 67.8205 450.63 69.0893 448.56 70.5416C446.508 71.9916 444.595 73.6504 442.821 75.5135C441.081 77.3535 439.533 79.345 438.182 81.4742C436.834 83.5918 435.667 85.877 434.683 88.3205C433.709 90.7617 432.971 93.2855 432.482 95.8827C431.992 98.4937 431.744 101.164 431.744 103.895C431.744 106.655 431.992 109.364 432.482 112.012C432.966 114.639 433.704 117.193 434.683 119.661C435.662 122.123 436.836 124.436 438.203 126.597C439.567 128.779 441.133 130.81 442.883 132.682C444.637 134.565 446.565 136.261 448.656 137.757C450.74 139.25 452.974 140.533 455.351 141.609C457.743 142.692 460.277 143.511 462.936 144.059C465.594 144.605 468.334 144.879 471.165 144.879Z" fill="#23D000"/>
<path fill-rule="evenodd" clip-rule="evenodd" d="M243.478 129.226H266.856V143.474H243.478C231.321 143.474 221.961 134.921 221.961 122.607V38.1748H237.324V85.1149V122.607C237.324 126.053 240.034 129.226 243.478 129.226Z" fill="#23D000"/>
</svg>
