<svg xmlns="http://www.w3.org/2000/svg" width="538" height="379" viewBox="0 0 538 379" fill="none"><g clip-path="url(#clip0_3474_31339)"><path opacity="0.8" d="M848.58 198.373C856.263 280.903 1107.98 316.957 1124.74 496.478C1136.42 621.512 1063.86 635.484 1026.35 633.888M824.653 197.363C832.336 279.893 1084.06 315.947 1100.82 495.469C1112.49 620.534 1039.93 634.474 1002.42 632.878M800.726 196.353C808.41 278.884 1060.13 314.938 1076.89 494.459C1088.56 619.525 1016 633.464 978.492 631.868M776.799 195.344C784.515 277.874 1036.2 313.928 1052.96 493.45C1064.63 618.483 992.076 632.455 954.565 630.859M752.872 194.334C760.588 276.864 1012.27 312.919 1029.04 492.44C1040.71 617.473 968.149 631.445 930.638 629.849M728.945 193.324C736.661 275.855 988.348 311.909 1005.11 491.43C1016.78 616.463 944.222 630.435 906.711 628.84M705.018 192.315C712.702 274.845 964.421 310.899 981.183 490.421C992.854 615.486 920.295 629.426 882.784 627.83M681.091 191.305C688.775 273.835 940.494 309.89 957.256 489.411C968.927 614.477 896.369 628.416 858.857 626.82M657.164 190.296C664.848 272.826 916.567 308.88 933.329 488.401C945 613.434 872.442 627.407 834.93 625.811M633.238 189.286C640.921 271.816 892.64 307.87 909.402 487.392C921.074 612.425 848.515 626.397 811.003 624.801M609.311 188.276C617.027 270.807 868.713 306.861 885.475 486.382C897.147 611.415 824.588 625.387 787.076 623.791M763.15 622.782C800.661 624.378 873.22 610.438 861.548 485.372C844.786 305.851 593.068 269.797 585.384 187.267C577.7 104.736 824.653 89.8847 807.891 -89.6366C796.219 -214.67 720.483 -234.96 682.972 -236.556M739.223 621.772C776.734 623.368 849.293 609.396 837.621 484.363C820.859 304.841 569.173 268.787 561.457 186.257C553.741 103.727 800.726 88.8751 783.964 -90.6462C772.292 -215.679 696.556 -235.97 659.045 -237.566M715.296 620.762C752.807 622.358 825.366 608.386 813.694 483.353C796.932 303.832 545.214 267.778 537.53 185.247C529.814 102.717 776.799 87.8654 760.037 -91.6559C748.365 -216.689 672.629 -236.98 635.118 -238.575M691.369 619.753C728.88 621.349 801.439 607.376 789.767 482.343C773.006 302.822 521.287 266.768 513.603 184.238C505.887 101.707 752.872 86.8558 736.11 -92.6655C724.439 -217.699 648.702 -237.989 611.191 -239.585M489.676 183.228C497.392 265.758 749.079 301.812 765.84 481.334C777.512 606.399 704.953 620.339 667.442 618.743M848.482 198.47C840.766 115.94 1087.75 101.089 1070.99 -78.4328C1059.32 -203.466 983.582 -223.757 946.07 -225.352M824.555 197.428C816.839 114.898 1063.82 100.046 1047.06 -79.475C1035.39 -204.508 959.655 -224.799 922.143 -226.395M800.628 196.419C792.912 113.888 1039.9 99.0367 1023.14 -80.4847C1011.46 -205.518 935.728 -225.808 898.217 -227.404M776.702 195.409C769.018 112.879 1015.97 98.027 999.241 -81.4943C987.569 -206.56 911.833 -226.818 874.322 -228.414M752.807 194.399C745.123 111.869 992.076 97.0174 975.347 -82.504C963.675 -207.537 887.939 -227.828 850.428 -229.424M728.913 193.39C721.229 110.859 968.182 96.0077 951.42 -83.5136C939.748 -208.547 864.012 -228.837 826.501 -230.433M704.986 192.347C697.269 109.817 944.255 94.9655 927.493 -84.5558C915.821 -209.589 840.085 -229.88 802.574 -231.475M681.059 191.338C673.343 108.807 920.328 93.9559 903.566 -85.5655C891.894 -210.599 816.158 -230.889 778.647 -232.485M657.132 190.328C649.416 107.798 896.401 92.9462 879.639 -86.5751C867.967 -211.641 792.231 -231.899 754.72 -233.495M633.205 189.318C625.489 106.788 872.474 91.9366 855.712 -87.5848C844.041 -212.618 768.305 -232.908 730.793 -234.504M609.278 188.276C601.594 105.746 848.547 90.8944 831.818 -88.627C820.146 -213.66 744.41 -233.951 706.899 -235.547M489.676 183.195C481.992 100.665 728.945 85.8136 712.183 -93.7077C700.512 -218.741 624.776 -239.031 587.264 -240.627M460.918 183.13C468.635 265.661 720.321 301.715 737.083 481.236C748.754 606.302 676.196 620.241 638.684 618.645M436.992 182.121C444.708 264.651 696.394 300.705 713.156 480.226C724.828 605.26 652.269 619.232 614.757 617.636M413.065 181.111C420.781 263.641 672.467 299.695 689.229 479.217C700.901 604.25 628.342 618.222 590.83 616.626M389.138 180.101C396.822 262.632 648.54 298.686 665.302 478.207C676.974 603.24 604.415 617.212 566.904 615.616M365.211 179.092C372.895 261.622 624.613 297.676 641.375 477.197C653.047 602.231 580.488 616.203 542.977 614.607M341.284 178.082C348.968 260.612 600.687 296.666 617.448 476.188C629.12 601.253 556.561 615.193 519.05 613.597M317.357 177.072C325.073 259.603 576.76 295.657 593.521 475.178C605.193 600.211 532.634 614.183 495.123 612.588M293.43 176.063C301.146 258.593 552.833 294.647 569.595 474.169C581.266 599.202 508.707 613.174 471.196 611.578M269.503 175.053C277.187 257.583 528.906 293.638 545.668 473.159C557.339 598.192 484.781 612.164 447.269 610.568M245.576 174.043C253.26 256.574 504.979 292.628 521.741 472.149C533.412 597.215 460.854 611.155 423.342 609.559M221.65 173.034C229.333 255.564 481.052 291.618 497.814 471.14C509.486 596.205 436.927 610.145 399.415 608.549M375.651 607.409C413.162 609.005 485.721 595.033 474.049 470C457.287 290.478 205.569 254.424 197.885 171.894C190.168 89.3636 437.154 74.5121 420.392 -105.009C408.72 -230.075 332.984 -250.333 295.473 -251.929M351.724 606.367C389.235 607.963 461.794 593.991 450.122 468.957C433.36 289.436 181.642 253.382 173.958 170.852C166.242 88.3214 413.227 73.4699 396.465 -106.051C384.826 -231.085 309.057 -251.343 271.546 -252.938M327.797 605.357C365.308 606.953 437.867 592.981 426.195 467.948C409.434 288.426 157.747 252.372 150.031 169.842C142.347 87.3118 389.3 72.4602 372.571 -107.061C360.899 -232.094 285.13 -252.385 247.651 -253.981M303.87 604.348C341.381 605.943 413.94 592.004 402.268 466.938C385.507 287.417 133.82 251.363 126.104 168.832C118.42 86.3021 365.373 71.4506 348.611 -108.071C336.972 -233.104 261.236 -253.394 223.725 -254.99M279.943 603.338C317.454 604.934 390.013 590.962 378.342 465.929C361.58 286.407 109.893 250.353 102.177 167.823C94.4609 85.2925 341.446 70.4409 324.684 -109.08C313.045 -234.146 237.309 -254.404 199.798 -256M460.983 183.065C453.299 100.535 700.252 85.6833 683.523 -93.838C671.851 -218.871 596.115 -239.162 558.604 -240.758M437.089 182.056C429.405 99.5252 676.358 84.6737 659.596 -94.8477C647.924 -219.881 572.188 -240.171 534.677 -241.767M413.162 181.046C405.478 98.5156 652.431 83.664 635.669 -95.8573C623.997 -220.923 548.261 -241.181 510.75 -242.777M389.235 180.036C381.519 97.5059 628.504 82.6544 611.742 -96.867C600.071 -221.9 524.334 -242.191 486.823 -243.787M365.308 178.994C357.592 96.4637 604.577 81.6122 587.815 -97.9092C576.144 -222.942 500.408 -243.233 462.896 -244.829M341.381 177.984C333.665 95.4541 580.65 80.6025 563.888 -98.9188C552.249 -223.952 476.513 -244.243 439.002 -245.838M317.487 176.975C309.803 94.4444 556.756 79.5929 539.994 -99.9285C528.322 -224.994 452.586 -245.252 415.075 -246.848M293.56 175.933C285.876 93.4022 532.829 78.5507 516.099 -100.971C504.428 -226.004 428.659 -246.262 391.148 -247.858M269.633 174.955C261.949 92.4252 508.902 77.5736 492.14 -101.948C480.501 -227.013 404.732 -247.304 367.253 -248.867M245.739 173.913C238.022 91.3829 485.007 76.5314 468.246 -102.99C456.574 -228.023 380.838 -248.314 343.327 -249.91M221.812 172.904C214.095 90.3733 461.081 75.5217 444.319 -104C432.647 -229.065 356.911 -249.323 319.4 -250.919" stroke="#92CECE" stroke-miterlimit="10"></path></g><defs><clipPath id="clip0_3474_31339"><rect width="538" height="379" fill="white"></rect></clipPath></defs></svg>