<svg width="42" height="40" viewBox="0 0 42 40" fill="none" xmlns="http://www.w3.org/2000/svg">
<g clip-path="url(#clip0_2172_31)">
<path d="M0.705078 36.6328V34.8828H8.70508L5.58008 31.7578C3.70508 29.8828 2.34049 27.8516 1.48633 25.6641C0.632161 23.4766 0.205078 21.2578 0.205078 19.0078C0.205078 15.1745 1.27799 11.6849 3.42383 8.53906C5.56966 5.39323 8.41341 3.09115 11.9551 1.63281V3.50781C8.91341 4.84115 6.48633 6.91406 4.67383 9.72656C2.86133 12.5391 1.95508 15.6328 1.95508 19.0078C1.95508 21.0911 2.35091 23.112 3.14258 25.0703C3.93425 27.0286 5.16341 28.8411 6.83008 30.5078L9.95508 33.6328V25.6328H11.7051V36.6328H0.705078ZM38.5801 15.1953H36.8301C36.4967 13.737 35.9655 12.3099 35.2363 10.9141C34.5072 9.51823 33.5384 8.21615 32.3301 7.00781L29.2051 3.88281V11.8828H27.4551V0.882812H38.4551V2.63281H30.4551L33.5801 5.75781C34.9551 7.17448 36.0488 8.67448 36.8613 10.2578C37.6738 11.8411 38.2467 13.487 38.5801 15.1953ZM32.0801 39.1328L31.9551 37.4453C30.8717 37.237 29.9967 36.9245 29.3301 36.5078C28.6634 36.0911 28.0384 35.5703 27.4551 34.9453L25.9551 35.7578L24.8301 34.2578L26.2676 33.1328C25.8926 32.1328 25.7051 31.1745 25.7051 30.2578C25.7051 29.3411 25.8926 28.3828 26.2676 27.3828L24.8301 26.2578L25.9551 24.7578L27.4551 25.5703C28.0384 24.9453 28.6634 24.4245 29.3301 24.0078C29.9967 23.5911 30.8717 23.2786 31.9551 23.0703L32.0801 21.3828H33.8301L33.9551 23.0703C35.0384 23.2786 35.9134 23.5911 36.5801 24.0078C37.2467 24.4245 37.8717 24.9453 38.4551 25.5703L39.9551 24.7578L41.0801 26.2578L39.6426 27.3828C40.0176 28.3828 40.2051 29.3411 40.2051 30.2578C40.2051 31.1745 40.0176 32.1328 39.6426 33.1328L41.0801 34.2578L39.9551 35.7578L38.4551 34.9453C37.8717 35.5703 37.2467 36.0911 36.5801 36.5078C35.9134 36.9245 35.0384 37.237 33.9551 37.4453L33.8301 39.1328H32.0801ZM32.9551 35.7578C34.4551 35.7578 35.7467 35.2161 36.8301 34.1328C37.9134 33.0495 38.4551 31.7578 38.4551 30.2578C38.4551 28.7578 37.9134 27.4661 36.8301 26.3828C35.7467 25.2995 34.4551 24.7578 32.9551 24.7578C31.4551 24.7578 30.1634 25.2995 29.0801 26.3828C27.9967 27.4661 27.4551 28.7578 27.4551 30.2578C27.4551 31.7578 27.9967 33.0495 29.0801 34.1328C30.1634 35.2161 31.4551 35.7578 32.9551 35.7578Z" fill="#ED1E3A"/>
</g>
<defs>
<clipPath id="clip0_2172_31">
<rect width="42" height="40" fill="white"/>
</clipPath>
</defs>
</svg>
