<svg width="47" height="45" viewBox="0 0 47 45" fill="none" xmlns="http://www.w3.org/2000/svg">
<g clip-path="url(#clip0_2171_25)">
<path d="M16.3008 44.8828L12.3008 38.1328L4.67578 36.5078L5.42578 28.6328L0.300781 22.7578L5.42578 16.8828L4.67578 9.00781L12.3008 7.38281L16.3008 0.632812L23.4258 3.63281L30.5508 0.632812L34.5508 7.38281L42.1758 9.00781L41.4258 16.8828L46.5508 22.7578L41.4258 28.6328L42.1758 36.5078L34.5508 38.1328L30.5508 44.8828L23.4258 41.8828L16.3008 44.8828ZM17.0508 42.6328L23.4258 40.0078L29.8008 42.6328L33.4258 36.6328L40.3008 35.1328L39.6758 28.0078L44.3008 22.7578L39.6758 17.5078L40.3008 10.3828L33.4258 8.88281L29.8008 2.88281L23.4258 5.50781L17.0508 2.88281L13.4258 8.88281L6.55078 10.3828L7.17578 17.5078L2.55078 22.7578L7.17578 28.0078L6.55078 35.1328L13.4258 36.6328L17.0508 42.6328ZM20.8008 29.3828L32.6758 17.5078L31.4258 16.2578L20.8008 26.8828L15.4258 21.5078L14.1758 22.7578L20.8008 29.3828Z" fill="#ED1E3A"/>
</g>
<defs>
<clipPath id="clip0_2171_25">
<rect width="47" height="45" fill="white"/>
</clipPath>
</defs>
</svg>
