<svg xmlns="http://www.w3.org/2000/svg" width="390" height="272" viewBox="0 0 390 272" fill="none"><g clip-path="url(#clip0_379_195)"><path d="M162.295 29.675C174.873 16.6176 192.384 8.51906 211.75 8.51906C237.495 8.51906 259.955 22.8219 271.917 44.0549C282.312 39.4278 293.817 36.8537 305.922 36.8537C352.355 36.8537 390 74.6871 390 121.354C390 168.027 352.355 205.86 305.922 205.86C300.361 205.863 294.813 205.312 289.361 204.216C278.828 222.936 258.756 235.584 235.717 235.584C226.072 235.584 216.95 233.365 208.828 229.418C198.15 254.442 173.272 271.989 144.278 271.989C114.083 271.989 88.35 252.953 78.4724 226.257C74.1558 227.17 69.6835 227.646 65.0945 227.646C29.1446 227.647 0 198.31 0 162.116C0 137.86 13.0945 116.682 32.55 105.352C28.5446 96.1693 26.3166 86.0342 26.3166 75.3786C26.3166 33.754 60.2333 0.0117188 102.067 0.0117188C126.628 0.0117188 148.456 11.6467 162.295 29.675Z" fill="#00A1E0"></path><path d="M56.4879 141.052C56.2436 141.689 56.5769 141.822 56.6546 141.932C57.3878 142.463 58.1327 142.846 58.8826 143.272C62.8603 145.375 66.6162 145.989 70.5439 145.989C78.5438 145.989 83.5104 141.749 83.5104 134.924V134.792C83.5104 128.481 77.9051 126.19 72.6439 124.535L71.9607 124.313C67.9939 123.029 64.5718 121.922 64.5718 119.321V119.183C64.5718 116.957 66.5717 115.319 69.6718 115.319C73.1162 115.319 77.2052 116.459 79.8384 117.909C79.8384 117.909 80.6105 118.407 80.894 117.66C81.0493 117.262 82.3829 113.686 82.5219 113.298C82.6718 112.878 82.4052 112.568 82.1331 112.402C79.1275 110.58 74.9718 109.335 70.672 109.335L69.8721 109.34C62.5499 109.34 57.4389 113.747 57.4389 120.062V120.195C57.4389 126.854 63.0777 129.012 68.3613 130.518L69.2112 130.778C73.0612 131.957 76.3779 132.97 76.3779 135.671V135.804C76.3779 138.273 74.2226 140.111 70.7446 140.111C69.3946 140.111 65.089 140.083 60.4391 137.155C59.8777 136.828 59.5502 136.59 59.1168 136.33C58.8892 136.186 58.3169 135.937 58.0671 136.69L56.4879 141.052ZM173.604 141.052C173.36 141.689 173.693 141.822 173.771 141.932C174.504 142.463 175.249 142.846 175.999 143.272C179.976 145.375 183.733 145.989 187.66 145.989C195.66 145.989 200.627 141.749 200.627 134.924V134.792C200.627 128.481 195.021 126.19 189.76 124.535L189.077 124.313C185.11 123.029 181.687 121.922 181.687 119.321V119.183C181.687 116.957 183.687 115.319 186.787 115.319C190.232 115.319 194.321 116.459 196.954 117.909C196.954 117.909 197.727 118.407 198.01 117.66C198.165 117.262 199.498 113.686 199.637 113.298C199.788 112.878 199.521 112.568 199.249 112.402C196.243 110.58 192.087 109.335 187.788 109.335L186.987 109.34C179.665 109.34 174.554 113.747 174.554 120.062V120.195C174.554 126.854 180.193 129.012 185.476 130.518L186.326 130.778C190.176 131.957 193.499 132.97 193.499 135.671V135.804C193.499 138.273 191.338 140.111 187.86 140.111C186.51 140.111 182.205 140.083 177.555 137.155C176.993 136.828 176.66 136.601 176.238 136.33C176.093 136.236 175.416 135.976 175.182 136.69L173.604 141.052ZM253.557 127.683C253.557 131.541 252.834 134.58 251.412 136.728C250.006 138.854 247.879 139.889 244.913 139.889C241.941 139.889 239.824 138.859 238.44 136.728C237.04 134.586 236.329 131.541 236.329 127.683C236.329 123.831 237.04 120.798 238.44 118.672C239.824 116.569 241.941 115.545 244.913 115.545C247.879 115.545 250.007 116.569 251.418 118.672C252.835 120.797 253.557 123.831 253.557 127.683ZM260.235 120.532C259.579 118.323 258.557 116.375 257.196 114.753C255.835 113.126 254.113 111.82 252.068 110.867C250.029 109.921 247.618 109.44 244.913 109.44C242.201 109.44 239.79 109.921 237.751 110.867C235.707 111.82 233.985 113.126 232.618 114.753C231.263 116.381 230.24 118.329 229.579 120.532C228.929 122.729 228.601 125.131 228.601 127.683C228.601 130.235 228.929 132.643 229.579 134.835C230.24 137.038 231.257 138.987 232.624 140.614C233.985 142.241 235.713 143.542 237.752 144.466C239.796 145.39 242.201 145.861 244.913 145.861C247.618 145.861 250.024 145.39 252.068 144.466C254.107 143.542 255.835 142.241 257.196 140.614C258.557 138.992 259.579 137.043 260.235 134.835C260.891 132.638 261.218 130.23 261.218 127.683C261.218 125.137 260.89 122.729 260.235 120.532ZM315.072 138.858C314.849 138.211 314.222 138.454 314.222 138.454C313.25 138.825 312.216 139.168 311.116 139.34C309.999 139.511 308.771 139.6 307.455 139.6C304.222 139.6 301.655 138.642 299.816 136.749C297.972 134.856 296.938 131.795 296.949 127.655C296.961 123.886 297.871 121.051 299.511 118.893C301.139 116.745 303.616 115.644 306.922 115.644C309.678 115.644 311.777 115.959 313.977 116.651C313.977 116.651 314.505 116.878 314.755 116.192C315.338 114.575 315.771 113.418 316.393 111.642C316.571 111.138 316.138 110.922 315.982 110.861C315.116 110.523 313.071 109.976 311.527 109.743C310.082 109.522 308.394 109.405 306.516 109.405C303.71 109.405 301.21 109.881 299.071 110.834C296.938 111.78 295.127 113.086 293.694 114.714C292.26 116.341 291.172 118.289 290.444 120.492C289.722 122.69 289.355 125.103 289.355 127.655C289.355 133.174 290.849 137.635 293.8 140.901C296.755 144.178 301.194 145.844 306.983 145.844C310.405 145.844 313.916 145.152 316.439 144.161C316.439 144.161 316.922 143.928 316.711 143.37L315.072 138.858ZM326.756 123.987C327.072 121.845 327.667 120.063 328.583 118.674C329.967 116.565 332.078 115.408 335.045 115.408C338.012 115.408 339.973 116.57 341.378 118.674C342.311 120.063 342.717 121.923 342.878 123.987H326.756ZM349.239 119.277C348.673 117.146 347.267 114.992 346.345 114.007C344.889 112.446 343.467 111.356 342.056 110.747C340.211 109.961 338 109.441 335.578 109.441C332.756 109.441 330.195 109.911 328.117 110.885C326.034 111.86 324.284 113.188 322.911 114.843C321.539 116.493 320.506 118.458 319.85 120.688C319.189 122.908 318.856 125.327 318.856 127.878C318.856 130.475 319.2 132.894 319.884 135.069C320.573 137.261 321.672 139.192 323.161 140.792C324.644 142.403 326.556 143.665 328.845 144.544C331.117 145.419 333.878 145.873 337.05 145.867C343.578 145.845 347.017 144.395 348.434 143.614C348.684 143.476 348.923 143.233 348.622 142.535L347.145 138.411C346.923 137.797 346.295 138.024 346.295 138.024C344.678 138.622 342.378 139.696 337.017 139.685C333.511 139.679 330.911 138.65 329.283 137.039C327.611 135.389 326.794 132.965 326.65 129.544L349.255 129.566C349.255 129.566 349.85 129.555 349.911 128.979C349.933 128.737 350.689 124.353 349.239 119.277ZM145.718 123.987C146.04 121.845 146.629 120.063 147.546 118.674C148.929 116.565 151.04 115.408 154.007 115.408C156.973 115.408 158.935 116.57 160.345 118.674C161.273 120.063 161.679 121.923 161.84 123.987H145.718ZM168.195 119.277C167.629 117.146 166.229 114.992 165.307 114.007C163.851 112.446 162.429 111.356 161.018 110.747C159.173 109.961 156.963 109.441 154.54 109.441C151.724 109.441 149.157 109.911 147.079 110.885C144.996 111.86 143.246 113.188 141.874 114.843C140.502 116.493 139.468 118.458 138.813 120.688C138.157 122.908 137.818 125.327 137.818 127.878C137.818 130.475 138.163 132.894 138.846 135.069C139.535 137.261 140.635 139.192 142.124 140.792C143.607 142.403 145.518 143.665 147.807 144.544C150.08 145.419 152.841 145.873 156.013 145.867C162.541 145.845 165.98 144.395 167.396 143.614C167.647 143.476 167.885 143.233 167.585 142.535L166.113 138.411C165.885 137.797 165.258 138.024 165.258 138.024C163.641 138.622 161.346 139.696 155.974 139.685C152.474 139.679 149.874 138.65 148.246 137.039C146.574 135.389 145.758 132.965 145.613 129.544L168.218 129.566C168.218 129.566 168.813 129.555 168.874 128.979C168.895 128.737 169.651 124.353 168.195 119.277ZM96.8563 138.735C95.9728 138.032 95.8506 137.855 95.5508 137.401C95.1061 136.709 94.8785 135.724 94.8785 134.473C94.8785 132.491 95.534 131.069 96.8953 130.111C96.8789 130.117 98.8398 128.423 103.451 128.483C106.689 128.528 109.584 129.004 109.584 129.004V139.244H109.589C109.589 139.244 106.717 139.858 103.484 140.052C98.8839 140.329 96.8395 138.729 96.8563 138.735ZM105.85 122.91C104.934 122.843 103.745 122.804 102.323 122.804C100.384 122.804 98.5115 123.048 96.7559 123.518C94.9894 123.989 93.4005 124.725 92.0338 125.699C90.6691 126.669 89.5474 127.94 88.756 129.413C87.9561 130.897 87.5505 132.646 87.5505 134.605C87.5505 136.598 87.8948 138.33 88.5839 139.748C89.2729 141.17 90.2672 142.355 91.5337 143.268C92.7892 144.182 94.3394 144.851 96.1391 145.255C97.9115 145.659 99.9224 145.864 102.123 145.864C104.439 145.864 106.75 145.676 108.989 145.294C111.206 144.917 113.928 144.369 114.683 144.198C115.213 144.071 115.741 143.936 116.267 143.794C116.828 143.656 116.784 143.057 116.784 143.057L116.772 122.461C116.772 117.944 115.561 114.595 113.178 112.52C110.806 110.45 107.311 109.403 102.795 109.403C101.1 109.403 98.3725 109.636 96.7391 109.962C96.7391 109.962 91.8003 110.915 89.7668 112.498C89.7668 112.498 89.3225 112.775 89.5669 113.395L91.1671 117.679C91.367 118.232 91.9061 118.044 91.9061 118.044C91.9061 118.044 92.0783 117.978 92.2785 117.861C96.6287 115.503 102.128 115.575 102.128 115.575C104.573 115.575 106.451 116.062 107.717 117.031C108.951 117.972 109.578 119.394 109.578 122.394V123.346C107.634 123.07 105.85 122.91 105.85 122.91ZM288.174 111.305C288.346 110.795 287.985 110.552 287.835 110.496C287.452 110.347 285.53 109.943 284.046 109.849C281.208 109.677 279.63 110.153 278.218 110.784C276.818 111.415 275.263 112.433 274.396 113.591V110.851C274.396 110.469 274.124 110.164 273.746 110.164H267.951C267.574 110.164 267.302 110.468 267.302 110.851V144.444C267.302 144.82 267.613 145.13 267.991 145.13H273.93C274.111 145.129 274.285 145.056 274.414 144.928C274.542 144.799 274.613 144.625 274.613 144.444V127.661C274.613 125.408 274.863 123.161 275.363 121.75C275.852 120.355 276.519 119.237 277.341 118.434C278.168 117.637 279.107 117.078 280.135 116.763C281.185 116.441 282.346 116.336 283.169 116.336C284.352 116.336 285.652 116.64 285.652 116.64C286.085 116.69 286.329 116.425 286.474 116.032C286.863 115.002 287.963 111.919 288.174 111.305Z" fill="white"></path><path d="M232.428 95.7356C231.706 95.5143 231.051 95.3645 230.195 95.2043C229.328 95.0495 228.295 94.9717 227.123 94.9717C223.034 94.9717 219.811 96.123 217.551 98.3922C215.3 100.651 213.772 104.088 213.006 108.611L212.728 110.133H207.595C207.595 110.133 206.972 110.11 206.839 110.786L206 115.474C205.939 115.917 206.134 116.199 206.734 116.199H211.728L206.661 144.384C206.267 146.654 205.811 148.519 205.306 149.936C204.811 151.331 204.328 152.377 203.728 153.141C203.15 153.872 202.606 154.414 201.661 154.73C200.883 154.99 199.983 155.112 199 155.112C198.455 155.112 197.728 155.022 197.189 154.912C196.656 154.807 196.372 154.691 195.967 154.519C195.967 154.519 195.383 154.298 195.15 154.879C194.966 155.36 193.633 159.008 193.472 159.457C193.317 159.905 193.539 160.254 193.822 160.359C194.489 160.591 194.983 160.746 195.889 160.962C197.144 161.256 198.205 161.272 199.199 161.272C201.277 161.272 203.177 160.979 204.75 160.414C206.328 159.844 207.705 158.853 208.927 157.514C210.244 156.063 211.072 154.547 211.861 152.471C212.644 150.423 213.317 147.877 213.85 144.91L218.944 116.199H226.389C226.389 116.199 227.016 116.221 227.144 115.541L227.988 110.858C228.044 110.41 227.855 110.133 227.249 110.133H220.022C220.061 109.973 220.388 107.437 221.216 105.052C221.572 104.039 222.238 103.214 222.8 102.649C223.356 102.096 223.994 101.703 224.695 101.476C225.411 101.243 226.228 101.133 227.123 101.133C227.8 101.133 228.472 101.21 228.978 101.315C229.678 101.465 229.95 101.542 230.134 101.598C230.873 101.819 230.972 101.603 231.117 101.249L232.845 96.5225C233.022 96.0121 232.584 95.7963 232.428 95.7356ZM131.442 144.445C131.442 144.822 131.17 145.127 130.792 145.127H124.798C124.42 145.127 124.153 144.822 124.153 144.445V96.3778C124.153 96.0016 124.42 95.6971 124.798 95.6971H130.792C131.17 95.6971 131.442 96.0016 131.442 96.3778V144.445Z" fill="white"></path></g><defs><clipPath id="clip0_379_195"><rect width="390" height="272" fill="white"></rect></clipPath></defs></svg>