<svg width="627" height="90" viewBox="0 0 627 90" fill="none" xmlns="http://www.w3.org/2000/svg">
<path d="M65.9 79.2996C65.9 76.6996 68 74.5996 70.6 74.5996C73.2 74.5996 75.3 76.6996 75.3 79.2996C75.3 81.8996 73.2 83.9996 70.6 83.9996C68 83.9996 65.9 81.8996 65.9 79.2996ZM74.6 79.2996C74.6 77.0996 72.9 75.2996 70.7 75.2996H70.6C68.4 75.2996 66.6 77.0996 66.6 79.2996C66.6 81.4996 68.4 83.2996 70.6 83.2996C72.9 83.2996 74.6 81.4996 74.6 79.2996ZM68.8 76.7996H71C72.1 76.7996 72.9 77.2996 72.9 78.2996C72.9 78.9996 72.5 79.5996 71.9 79.6996L73.1 81.3996H71.7L70.7 79.8996H70V81.2996H68.9V76.7996H68.8ZM70.9 79.0996C71.4 79.0996 71.7 78.7996 71.7 78.4996C71.7 78.0996 71.4 77.8996 70.9 77.8996H69.9V79.1996H70.9V79.0996Z" fill="#0B4C8C"/>
<path d="M47.5 0C31.4 0 15.3 2.59998 0 7.69998C6.4 39.5 23.1 68.4 47.5 89.9C71.9 68.4 88.5 39.5 95 7.69998C79.7 2.59998 63.7 0 47.5 0ZM74.7 47.4L74.5 47.2C74 46.6 73.5 46 72.9 45.5C72.3 44.9 71.6 44.3 71 43.8L63.7 42.5C64 42.8 64.2 43.1 64.4 43.4C64.7 43.8 64.9 44.3 65.1 44.7C65.3 45.1 65.3 45.6 65.3 46C65.3 46.3 65.2 46.6 65.1 46.8L72.9 50.7L72 52.3L63.9 48.2C63.4 48.6 62.9 48.8 62.4 49.1C61.6 49.4 60.7 49.7 59.9 49.8C58.7 50 57.6 50.1 56.4 50.1C55 50.1 53.5 50.1 52.1 50L57.3 61.8C60.3 61.9 63.2 61.7 66.1 61.3C60.7 69 54.4 76.2 47.6 82.7C38.2 73.8 30 63.7 23.3 52.5C25.7 53.8 28.2 55 30.8 56.1C34.2 57.5 37.7 58.6 41.2 59.5C44.8 60.4 48.5 61.1 52.2 61.5L48.3 49.6C46.7 49.3 45 49 43.4 48.6C41.8 48.2 40.2 47.7 38.6 47.1C37 46.5 35.7 46 34.4 45.4C33.3 44.9 32.2 44.3 31.1 43.7L19.8 46.6L18.6 44.3L28.7 42C28 41.5 27.3 40.8 26.7 40.2C26.3 39.7 25.9 39.1 25.6 38.5C25.4 38 25.3 37.5 25.3 37C25.3 36.7 25.4 36.3 25.5 36L13.7 33.9C10.7 26.7 8.3 19.3 6.5 11.7C33.3 3.69998 61.8 3.69998 88.5 11.7C85.6 24.1 80.9 36.1 74.7 47.4Z" fill="#0B4C8C"/>
<path d="M52.9 40.5C52.9 40.6 52.9 40.8 52.8 40.9C52.6 41.2 52.3 41.4 52 41.5C51.5 41.7 51 41.8 50.5 41.8C49.8 41.9 49.1 41.9 48.4 41.8L50.4 46.3C52.3 46.5 54.2 46.5 56.1 46.3C57.3 46.2 58.4 45.8 59.4 45.2C60 44.8 60.4 44.2 60.4 43.5C60.4 42.9 60.2 42.4 59.8 41.9L52.9 40.5Z" fill="#0B4C8C"/>
<path d="M49.7 39.8012C49.8 39.6012 49.8 39.4012 49.7 39.2012C49.5 39.0012 49.3 38.8012 49.1 38.6012C48.8 38.4012 48.5 38.2012 48.1 38.0012L47.5 37.7012V36.8012L48 36.9012C48.6 37.1012 49.2 37.3012 49.7 37.6012C50.2 37.8012 50.7 38.1012 51.1 38.4012C51.4 38.6012 51.7 38.8012 51.9 39.0012L58.2 40.1012C57.5 39.5012 56.7 38.9012 55.8 38.4012C54.8 37.8012 53.7 37.3012 52.6 36.8012C51.5 36.3012 50.3 35.9012 49.1 35.5012C48.6 35.3012 48 35.2012 47.5 35.0012V34.1012L49.2 34.6012C49.9 34.8012 50.6 35.1012 51.3 35.3012C52 35.5012 52.7 35.8012 53.4 36.0012L56.1 35.4012C55.1 35.0012 54.2 34.7012 53.2 34.4012C52.2 34.1012 51.2 33.8012 50.3 33.5012C49.3 33.2012 48.5 33.0012 47.5 32.7012V20.4012C52.1 18.0012 57.1 21.7012 60.4 15.0012C56 16.4012 53.3 12.7012 47.5 12.7012H44.8V37.1012H44.1C43.7 37.1012 43.4 37.1012 43 37.1012C42.7 37.1012 42.5 37.2012 42.3 37.4012C42.1 37.5012 42.1 37.7012 42.1 37.9012C42.2 38.1012 42.3 38.4012 42.5 38.5012C42.8 38.8012 43.1 39.0012 43.5 39.2012C44 39.4012 44.4 39.6012 44.9 39.8012C45.5 40.0012 46.1 40.1012 46.6 40.2012C47.1 40.3012 47.6 40.3012 48.1 40.3012C48.5 40.3012 48.8 40.3012 49.2 40.1012C49.6 40.0012 49.7 39.9012 49.7 39.8012Z" fill="#0B4C8C"/>
<path d="M63.4 38.7996C62.5 38.2996 61.5 37.7996 60.5 37.3996C59.9 37.0996 59.2 36.7996 58.6 36.5996L55.9 37.2996L57 37.7996C57.6 38.0996 58.3 38.3996 58.8 38.7996C59.4 39.0996 60 39.4996 60.5 39.8996C61 40.2996 61.4 40.4996 61.8 40.7996L68.6 41.9996C67.8 41.3996 67 40.8996 66.2 40.3996C65.4 39.8996 64.4 39.2996 63.4 38.7996Z" fill="#0B4C8C"/>
<path d="M32.8 32.5012L28.3 30.2012C27.2 30.2012 26.2 30.3012 25.2 30.4012C24.1 30.5012 23 30.6012 22 30.8012C20.9 31.0012 19.9 31.2012 18.8 31.5012C17.9 31.8012 17 32.1012 16.1 32.5012L26.5 34.4012C26.8 34.1012 27.2 33.9012 27.6 33.7012C28.1 33.5012 28.6 33.3012 29.2 33.1012C29.8 32.9012 30.4 32.8012 30.9 32.7012C31.5 32.6012 32.1 32.5012 32.8 32.5012Z" fill="#0B4C8C"/>
<path d="M36.6 32.4008C37.3 32.4008 38 32.4008 38.7 32.5008L40.9 32.8008C41.6 32.9008 42.3 33.0008 43 33.1008L42.5 31.5008C41.5 31.3008 40.5 31.1008 39.5 31.0008L36.3 30.6008C35.2 30.5008 34.2 30.4008 33.1 30.3008H31.8L36.1 32.4008H36.6Z" fill="#0B4C8C"/>
<path d="M36.2 33.7C35.2 33.8 34.2 33.9 33.3 34.2C32.6 34.4 32 34.8 31.5 35.3L39.2 36.7C39.3 36.5 39.5 36.4 39.7 36.3C40.1 36.1 40.5 36 40.9 36C41.4 35.9 41.9 35.9 42.4 35.9C42.9 35.9 43.4 35.9 44 36L43.4 34.1C42.2 33.9 41 33.7 39.8 33.7C38.5 33.6 37.3 33.6 36.2 33.7Z" fill="#0B4C8C"/>
<path d="M43.3 40.5996C42.6 40.2996 41.9 39.9996 41.2 39.6996C40.7 39.3996 40.2 39.0996 39.7 38.6996C39.5 38.4996 39.3 38.2996 39.1 38.0996L30.7 36.5996C30.7 37.2996 31 37.9996 31.5 38.5996C32.4 39.6996 33.5 40.5996 34.7 41.2996C36.4 42.3996 38.3 43.1996 40.2 43.8996C42.4 44.6996 44.7 45.3996 47.1 45.7996L45.6 41.2996C44.8 41.0996 44.1 40.8996 43.3 40.5996Z" fill="#0B4C8C"/>
<path d="M585.7 71.9012C585.7 69.3012 587.8 67.2012 590.4 67.2012C593 67.2012 595.1 69.3012 595.1 71.8012C595.3 74.4012 593.3 76.6012 590.7 76.8012C588.1 77.0012 585.9 75.0012 585.7 72.4012C585.7 72.3012 585.7 72.1012 585.7 71.9012ZM594.4 71.9012C594.4 69.7012 592.6 67.9012 590.4 67.9012C588.2 67.9012 586.4 69.7012 586.4 71.9012C586.4 74.1012 588.1 75.9012 590.3 75.9012H590.4C592.6 75.9012 594.4 74.1012 594.4 71.9012ZM588.6 69.5012H590.8C591.9 69.5012 592.7 70.0012 592.7 71.0012C592.7 71.7012 592.3 72.3012 591.7 72.4012L592.9 74.1012H591.5L590.5 72.6012H589.7V74.1012H588.6V69.5012ZM590.7 71.8012C591.2 71.8012 591.5 71.5012 591.5 71.2012C591.5 70.8012 591.2 70.6012 590.7 70.6012H589.7V71.9012H590.7V71.8012Z" fill="#0B4C8C"/>
<path d="M107.3 11.5996L105.9 28.0996H130.1L125.9 76.5996H142.3L146.6 28.0996H170.9L172.3 11.5996H107.3Z" fill="#0B4C8C"/>
<path d="M470.3 11.5996H437.9C427.2 11.7996 418.3 19.9996 417.2 30.5996L414.8 57.5996C413.8 66.9996 420.6 75.4996 430 76.4996C430.7 76.5996 431.5 76.5996 432.2 76.5996H464.5C475.2 76.3996 484.1 68.1996 485.2 57.5996L487.6 30.5996C488.6 21.1996 481.8 12.6996 472.4 11.6996C471.6 11.5996 470.9 11.5996 470.3 11.5996ZM468.8 57.5996C468.7 58.9996 467.5 60.0996 466 60.0996H433.7C432.4 60.0996 431.4 59.0996 431.4 57.7996C431.4 57.6996 431.4 57.5996 431.4 57.4996L433.7 30.4996C433.9 29.0996 435 27.9996 436.5 27.9996H468.9C470.2 27.9996 471.2 28.9996 471.2 30.2996C471.2 30.3996 471.2 30.4996 471.2 30.5996L468.8 57.5996Z" fill="#0B4C8C"/>
<path d="M228.8 11.5996H196.4C185.7 11.7996 176.8 19.9996 175.7 30.5996L173.3 57.5996C172.3 66.9996 179.1 75.4996 188.6 76.4996C189.3 76.5996 190 76.5996 190.8 76.5996H223.2C233.9 76.3996 242.8 68.1996 243.9 57.5996L246.3 30.5996C247.3 21.1996 240.5 12.6996 231.1 11.6996C230.3 11.5996 229.5 11.5996 228.8 11.5996ZM227.3 57.5996C227.2 58.9996 226 60.0996 224.5 60.0996H192.1C190.8 60.0996 189.8 59.0996 189.8 57.8996C189.8 57.7996 189.8 57.6996 189.8 57.5996L192.2 30.5996C192.3 29.1996 193.5 28.0996 195 28.0996H227.4C228.7 28.0996 229.7 29.0996 229.7 30.3996C229.7 30.4996 229.7 30.5996 229.7 30.6996L227.3 57.5996Z" fill="#0B4C8C"/>
<path d="M516.4 11.5996H500L494.3 76.5996H553.9L555.3 60.0996H512.2L516.4 11.5996Z" fill="#0B4C8C"/>
<path d="M309.6 11.5996H258.2L252.5 76.5996H269L270.4 60.3996H305.2C315.9 60.1996 324.8 51.9996 325.9 41.3996L326.8 30.5996C327.8 21.1996 321 12.6996 311.6 11.6996C311 11.5996 310.3 11.5996 309.6 11.5996ZM309.6 41.3996C309.4 42.7996 308.3 43.8996 306.8 43.8996H272L273.4 27.9996H308.2C309.5 27.9996 310.5 28.9996 310.5 30.2996C310.5 30.3996 310.5 30.4996 310.5 30.5996L309.6 41.3996Z" fill="#0B4C8C"/>
<path d="M388.5 49.5L387.8 57.6C387.7 59 386.5 60.1 385 60.1H352.7C351.4 60.1 350.4 59.1 350.4 57.8C350.4 57.7 350.4 57.6 350.4 57.5L352.8 30.5C352.9 29.1 354.1 28 355.6 28H407L408.4 11.5H357.1C346.4 11.7 337.5 19.9 336.4 30.5L334 57.5C333 66.9 339.8 75.4 349.3 76.4C350 76.5 350.7 76.5 351.5 76.5H392C398.1 76.4 403.2 71.7 403.9 65.6L406.3 38.5H375.8L388.8 49.5" fill="#0B4C8C"/>
<path d="M625.5 28.0996L627 11.5996H567.4L561.7 76.5996H578.1L580 54.9996H617.8L619.2 38.5996H581.5L582.4 28.0996H625.5Z" fill="#0B4C8C"/>
</svg>
