<?xml version="1.0" encoding="UTF-8"?> <svg xmlns="http://www.w3.org/2000/svg" width="137" height="37" viewBox="0 0 137 37" fill="none"><g clip-path="url(#clip0_3342_4919)"><path d="M15.4509 3.73653C17.9469 4.22391 20.1259 5.64542 21.6314 7.63555C23.0576 9.50382 23.9293 11.9001 23.9293 14.4588C23.9293 16.124 23.018 18.6827 21.3541 21.8101C21.8691 22.7036 22.4238 23.6784 23.0577 24.7343C25.1574 20.9978 26.7422 17.2206 26.7422 14.4588C26.7422 11.3315 25.7913 8.44784 24.167 6.1328C22.6218 3.93961 20.5221 2.19318 18.0261 1.25904C16.6791 0.690431 15.1736 0.406128 13.5889 0.406128C6.29912 0.406128 0.395996 6.70141 0.395996 14.4588C0.395996 20.1043 7.01225 29.8924 10.9345 35.2129C11.5684 36.1065 12.5588 36.5938 13.5889 36.5938C14.619 36.5938 15.6094 36.1065 16.2433 35.2129C17.0753 34.1163 17.9865 32.8167 18.977 31.3952C18.3827 30.5016 17.828 29.6081 17.2734 28.7146C16.2829 30.1767 15.2132 31.6795 14.0643 33.2634C13.8662 33.5477 13.3908 33.5477 13.1531 33.2634C6.93301 24.8562 3.24851 17.8298 3.24851 14.4588C3.24851 8.44784 7.88385 3.53346 13.5889 3.53346C14.2228 3.53346 14.817 3.61469 15.4509 3.73653Z" fill="#D37728"></path><path d="M21.4729 31.3952C22.4237 32.8167 23.3746 34.1163 24.2066 35.2129C24.8405 36.1065 25.8309 36.5938 26.861 36.5938C27.8911 36.5938 28.8815 36.1065 29.5154 35.2129C33.398 29.8924 40.0143 20.0636 40.0143 14.4588C40.0143 6.70141 34.1111 0.406128 26.8214 0.406128C25.2366 0.406128 23.7311 0.690431 22.3445 1.25904C23.2953 1.9901 24.2066 2.8024 24.9593 3.73653C25.5536 3.61469 26.1875 3.53346 26.8214 3.53346C32.5264 3.53346 37.1617 8.40723 37.1617 14.4588C37.1617 17.8298 33.4772 24.8562 27.2572 33.2634C27.0591 33.5477 26.5837 33.5477 26.346 33.2634C25.197 31.6795 24.1273 30.1767 23.1369 28.7146C21.4729 26.1965 20.0466 23.8814 18.977 21.8101C17.313 18.6421 16.4414 16.0834 16.4414 14.4588C16.4414 11.8595 17.313 9.50382 18.7392 7.63555C17.9865 6.98571 17.1149 6.49833 16.1641 6.1328C14.5397 8.44784 13.5889 11.3315 13.5889 14.4588C13.5889 17.2206 15.1736 20.9978 17.2734 24.7343C18.5808 27.0494 20.0466 29.3238 21.4729 31.3952Z" fill="#D37728"></path><path d="M61.2897 11.6564V23.1097C61.2897 28.3897 58.556 31.1515 53.2868 31.1515C47.978 31.1515 45.4424 28.4303 45.4424 23.0691V11.4939C45.4424 10.7629 45.997 10.113 46.829 10.113C47.7006 10.113 48.2949 10.7629 48.2949 11.4939V22.9879C48.2949 26.9275 49.8796 28.5521 53.2868 28.5521C56.6544 28.5521 58.4372 27.0088 58.4372 23.0691V11.6564C58.4372 10.8035 59.0315 10.113 59.8238 10.113C60.6954 10.113 61.2897 10.8035 61.2897 11.6564Z" fill="#394053"></path><path d="M77.5728 23.719C77.5728 28.5522 74.9976 31.1515 70.4019 31.1515C69.2133 31.1515 68.2229 30.9484 67.4305 30.6641V34.9287C67.4305 35.6597 66.9155 36.269 66.0439 36.269C65.2119 36.269 64.6572 35.6597 64.6572 34.9287V17.9517C64.6572 17.2207 65.1723 16.7333 65.8458 16.7333C66.5985 16.7333 66.9551 17.2207 67.0343 17.9517L67.1136 19.0483C67.9455 17.708 69.3718 16.7333 71.5112 16.7333C75.2749 16.7333 77.5728 18.9671 77.5728 23.719ZM74.7995 23.8815C74.7995 20.5917 73.3733 19.1702 71.0358 19.1702C68.936 19.1702 67.4305 20.6729 67.4305 22.6224H67.3909V28.146C68.1436 28.4709 69.0549 28.7958 70.2434 28.7958C73.0563 28.7552 74.7995 27.3337 74.7995 23.8815Z" fill="#394053"></path><path d="M97.1838 15.596C97.1838 16.3677 96.6292 16.7738 95.9953 16.7738C95.2822 16.7738 94.9652 16.5302 94.7671 15.8803C94.3313 14.865 93.4597 12.6718 90.0129 12.6718C86.1303 12.6718 83.5948 15.1899 83.5948 20.3886C83.5948 25.8309 86.3284 28.5115 90.7657 28.5115C93.0239 28.5115 94.4502 27.8211 95.1237 27.5774C95.401 27.4961 95.6387 27.4149 95.9557 27.4149C96.6292 27.4149 97.065 27.9429 97.065 28.5927C97.065 29.2832 96.7877 29.6081 96.2726 29.933C95.0048 30.6641 92.6277 31.1515 90.4487 31.1515C84.4268 31.1515 80.7026 27.4961 80.7026 20.5916C80.7026 13.809 84.3475 10.113 89.9337 10.113C94.9652 10.113 97.1838 13.1591 97.1838 15.596Z" fill="#394053"></path><path d="M100.155 12.4281C100.155 11.3315 100.908 10.5192 101.938 10.5192C103.007 10.5192 103.72 11.3315 103.72 12.4281C103.72 13.5247 103.007 14.3369 101.938 14.3369C100.908 14.3369 100.155 13.5247 100.155 12.4281ZM103.245 17.9923V29.7705C103.245 30.5016 102.73 31.1108 101.858 31.1108C101.026 31.1108 100.472 30.5016 100.472 29.7705V17.9923C100.472 17.2612 101.026 16.652 101.858 16.652C102.69 16.6926 103.245 17.2612 103.245 17.9923Z" fill="#394053"></path><path d="M111.01 19.292V26.8463C111.01 28.2679 111.644 28.6334 112.595 28.6334C112.833 28.6334 113.07 28.5928 113.546 28.5522C114.338 28.4303 114.734 29.0395 114.734 29.6488C114.734 30.2174 114.417 30.786 113.744 30.9078C113.189 30.989 112.555 31.0703 111.922 31.0703C109.505 31.0703 108.316 30.1767 108.316 27.0494V19.292H106.93C106.335 19.292 105.82 18.8046 105.82 18.1142C105.82 17.3831 106.335 16.9363 106.93 16.9363H108.316V14.2152C108.316 13.4841 108.871 12.8749 109.703 12.8749C110.535 12.8749 111.05 13.4841 111.05 14.2152V16.9363H113.665C114.299 16.9363 114.774 17.3831 114.774 18.1142C114.774 18.8046 114.299 19.292 113.665 19.292H111.01Z" fill="#394053"></path><path d="M129.195 17.8704C129.195 18.1141 129.116 18.3984 128.997 18.6421L123.134 32.9791C122.143 35.3754 120.677 36.1877 118.538 36.1877C118.063 36.1877 117.825 36.147 117.627 36.147C116.914 36.0658 116.478 35.619 116.478 34.9286C116.478 34.2788 116.874 33.7102 117.587 33.7508C117.785 33.7508 117.983 33.7914 118.419 33.7914C119.766 33.7914 120.559 33.3446 120.955 32.248L121.549 30.7047L116.478 18.6827C116.359 18.439 116.28 18.1547 116.28 17.911C116.28 17.0987 116.914 16.652 117.587 16.652C118.102 16.652 118.657 16.9769 118.895 17.5861L122.856 27.3743L126.66 17.5455C126.897 16.9363 127.373 16.6926 127.967 16.6926C128.522 16.652 129.195 17.0581 129.195 17.8704Z" fill="#394053"></path><path d="M136.604 18.4797C136.604 18.6828 136.485 18.8046 136.287 18.8046C136.089 18.8046 135.97 18.6828 135.97 18.4797L135.93 16.6521L135.217 18.2766C135.138 18.4391 135.019 18.5203 134.9 18.5203C134.782 18.5203 134.663 18.4391 134.583 18.3173L133.831 16.6114L133.791 18.4797C133.791 18.6828 133.672 18.8046 133.474 18.8046C133.276 18.8046 133.157 18.6828 133.157 18.4797L133.197 16.4084H132.206V18.4797C132.206 18.6828 132.088 18.8046 131.889 18.8046C131.691 18.8046 131.572 18.6828 131.572 18.4797V16.4084H130.859C130.701 16.4084 130.582 16.2865 130.582 16.1241C130.582 15.9616 130.701 15.8804 130.859 15.8804H133.514C133.831 15.8804 134.068 16.0428 134.227 16.2865L134.861 17.7486L135.534 16.2459C135.653 16.0022 135.851 15.8804 136.049 15.8804C136.327 15.8804 136.525 16.0834 136.525 16.4084L136.604 18.4797Z" fill="#394053"></path></g><defs><clipPath id="clip0_3342_4919"><rect width="137" height="37" fill="white"></rect></clipPath></defs></svg> 