<?xml version="1.0" encoding="UTF-8"?> <svg xmlns="http://www.w3.org/2000/svg" width="95" height="21" viewBox="0 0 95 21" fill="none"><path id="Vector" d="M86.3881 8.36955C88.4677 8.36955 90.4005 8.36955 92.3577 8.36955C94.0214 8.36955 95 9.1826 95 10.4978C95 11.8369 94.0214 12.6261 92.3577 12.6261C90.4249 12.6261 88.4677 12.6261 86.3881 12.6261C86.3881 14.6108 86.3881 16.5 86.3881 18.3891C86.3881 20.2782 85.6786 20.9717 83.7458 20.9717C78.29 20.9717 72.8342 20.9717 67.3783 20.9717C65.4455 20.9717 64.736 20.2782 64.736 18.3891C64.736 15.9021 64.736 13.3913 64.736 10.9043C64.736 9.08694 65.5189 8.34564 67.4272 8.34564C72.2225 8.34564 77.0178 8.34564 81.9354 8.34564C81.9354 7.00651 81.9354 5.6913 81.9354 4.25652C81.5439 4.2326 81.1769 4.18478 80.7855 4.18478C75.5743 4.18478 70.3631 4.20869 65.1519 4.16086C64.3201 4.16086 63.8553 4.39999 63.4638 5.16521C61.0907 9.87607 58.6441 14.563 56.2465 19.2739C55.7816 20.2065 55.2189 20.9717 53.9956 20.9717C52.7723 20.9717 52.2096 20.2304 51.7448 19.2978C49.8365 15.5435 47.9037 11.813 45.9709 8.05868C45.7996 7.7239 45.6039 7.38912 45.3348 6.91086C43.1818 11.0956 41.1022 15.113 39.0716 19.1304C38.5578 20.1348 38.0196 20.9956 36.674 20.9717C35.3773 20.9478 34.888 20.063 34.3987 19.1304C32.001 14.4913 29.6034 9.82825 27.1568 5.16521C26.9611 4.7826 26.4718 4.25652 26.1048 4.25652C21.7989 4.18478 17.4929 4.20869 13.0646 4.20869C13.0646 5.61956 13.0646 6.93477 13.0646 8.36955C15.0219 8.36955 16.9791 8.36955 18.9119 8.36955C20.5022 8.36955 22.0925 8.34564 23.6827 8.36955C25.0773 8.39347 25.9091 9.25433 25.9091 10.5217C25.9091 11.7891 25.0528 12.6261 23.6338 12.6261C20.5756 12.65 17.5418 12.6261 14.4836 12.6261C14.0433 12.6261 13.6029 12.6261 12.9668 12.6261C12.9668 14.7304 12.9912 16.763 12.9668 18.8195C12.9423 20.2543 12.0616 21.0674 10.667 20.9956C9.44373 20.9239 8.6853 20.1108 8.66083 18.7717C8.63636 16.7869 8.66083 14.8261 8.66083 12.65C7.43755 12.65 6.2632 12.65 5.11331 12.65C4.42828 12.65 3.71877 12.65 3.03374 12.65C1.07649 12.65 0 11.9087 0 10.5217C0 9.13477 1.05202 8.36955 3.00927 8.36955C4.84419 8.36955 6.65465 8.36955 8.66083 8.36955C8.66083 6.38477 8.66083 4.51956 8.66083 2.63043C8.66083 0.669564 9.3214 0.023913 11.3765 0.023913C16.7834 0.023913 22.1903 0.047826 27.6217 0C28.9428 0 29.7257 0.47826 30.2884 1.62608C32.1723 5.40434 34.1295 9.13477 36.0623 12.8652C36.2336 13.2239 36.4293 13.5587 36.6984 14.0608C36.9676 13.5826 37.1633 13.2239 37.359 12.8652C39.2429 9.23042 41.1022 5.59564 42.9616 1.93695C43.4509 0.95652 43.9647 0.023913 45.3103 0.023913C46.6559 0.023913 47.1697 0.908694 47.6835 1.88913C49.5184 5.49999 51.3778 9.11086 53.2372 12.7217C53.4329 13.1043 53.6531 13.4869 53.9467 14.0369C54.2158 13.5587 54.436 13.2239 54.6317 12.8413C56.5401 9.13477 58.4728 5.42825 60.3322 1.69782C60.9439 0.526086 61.7268 0 63.1213 0C69.9961 0.047826 76.871 0.023913 83.7458 0.023913C85.6786 0.023913 86.3881 0.71739 86.3881 2.60652C86.3881 4.47173 86.3881 6.31303 86.3881 8.36955ZM69.1888 12.6978C69.1888 14.013 69.1888 15.3522 69.1888 16.7152C73.4703 16.7152 77.7028 16.7152 81.9598 16.7152C81.9598 15.3282 81.9598 14.0608 81.9598 12.6978C77.7028 12.6978 73.4947 12.6978 69.1888 12.6978Z" fill="#191919"></path></svg> 