<?xml version="1.0" encoding="UTF-8"?> <svg xmlns="http://www.w3.org/2000/svg" width="100" height="49" viewBox="0 0 100 49" fill="none"><path d="M69.1978 22.0207C68.6051 22.9696 68.3571 25.9511 68.5621 27.9324C68.6328 28.5857 68.7494 29.1309 68.9254 29.4545C69.1618 29.9058 69.5588 30.1751 70.0121 30.1901C70.2994 30.2047 70.4821 30.1571 75.9464 28.3954C75.9464 28.3954 78.375 27.6238 78.388 27.6188C78.989 27.4629 79.3997 26.9079 79.439 26.1971C79.4784 25.4665 79.099 24.8246 78.4817 24.5917L76.7674 23.8921C70.8924 21.4692 70.6311 21.3772 70.3324 21.3739C69.8808 21.3525 69.4784 21.5838 69.1978 22.0204V22.0207ZM82.3324 40.0668C82.429 39.7908 82.439 39.6022 82.4537 33.8625C82.4537 33.8625 82.4683 31.3262 82.4737 31.2982C82.5097 30.681 82.109 30.1127 81.4487 29.8585C80.7707 29.5955 80.04 29.7565 79.6277 30.2687C79.6277 30.2687 78.4324 31.6872 78.4277 31.6888C74.3144 36.5237 74.1417 36.744 74.0434 37.0329C73.9801 37.2003 73.957 37.3802 73.9761 37.5582C74.0024 37.8125 74.1154 38.0704 74.3111 38.3001C75.2634 39.4379 79.8397 41.1206 81.2977 40.8713C81.805 40.7793 82.1764 40.4904 82.3324 40.0668ZM91.6096 38.0684C92.9923 37.5185 96.0036 33.6902 96.2136 32.2194C96.2859 31.7052 96.1269 31.2652 95.7719 30.9813C95.5439 30.8073 95.3616 30.74 89.9053 28.9473C89.9053 28.9473 87.5063 28.1557 87.48 28.1427C86.897 27.9161 86.2367 28.1247 85.792 28.6747C85.3287 29.2379 85.2567 29.9781 85.6293 30.541L86.5933 32.1091C89.8363 37.3759 90.081 37.7468 90.314 37.9308C90.6753 38.2114 91.1366 38.2624 91.6096 38.0688V38.0684ZM88.7936 24.5143C95.0003 23.0139 95.2383 22.9349 95.4846 22.7743C95.8606 22.518 96.0463 22.0977 96.0149 21.5775C96.0149 21.5592 96.0166 21.5445 96.0149 21.5265C95.8543 20.0044 93.1859 16.0397 91.8706 15.3962C91.4026 15.1745 90.9363 15.1895 90.552 15.4455C90.3123 15.6061 90.1333 15.8361 86.8133 20.3837C86.8133 20.3837 85.3107 22.4293 85.2927 22.4473C84.897 22.9269 84.892 23.6182 85.276 24.2104C85.6753 24.823 86.355 25.1219 86.976 24.9496C86.976 24.9496 86.948 24.9923 86.9427 25.0019C87.2467 24.8853 87.7983 24.751 88.7936 24.5143ZM82.5603 19.3905C82.452 16.9309 81.7147 5.98239 81.6277 5.47681C81.501 5.01355 81.1417 4.68694 80.6244 4.55729C79.0434 4.16336 72.9857 5.86241 71.8644 7.02022C71.5064 7.39416 71.3718 7.85875 71.4784 8.26935C71.6541 8.63062 79.1564 20.433 79.1564 20.433C80.2664 22.2324 81.1714 21.9518 81.4667 21.8594C81.7624 21.7678 82.6623 21.4872 82.5603 19.3905Z" fill="#E9E9E9"></path><path d="M69.6933 20.7792C69.102 21.7267 68.8523 24.7095 69.0577 26.6895C69.13 27.3428 69.2483 27.888 69.4207 28.2133C69.6573 28.6632 70.0543 28.9305 70.5073 28.9472C70.7983 28.9618 70.979 28.9125 76.4436 27.1558C76.4436 27.1558 78.8719 26.3809 78.8819 26.3759C79.4879 26.2216 79.8953 25.665 79.9343 24.9541C79.9739 24.2253 79.5976 23.5817 78.9773 23.3487C78.9773 23.3487 77.2646 22.6509 77.2613 22.6509C71.3893 20.2293 71.125 20.1343 70.8293 20.1309C70.376 20.1126 69.974 20.3409 69.6933 20.7792ZM82.8292 38.8222C82.9246 38.5462 82.9359 38.3576 82.9526 32.6179C82.9526 32.6179 82.9656 30.0816 82.9672 30.057C83.0066 29.4347 82.6042 28.8682 81.9459 28.6155C81.2676 28.3542 80.5369 28.5156 80.1266 29.0258C80.1266 29.0258 78.9279 30.4476 78.9246 30.4476C74.8113 35.2791 74.639 35.5024 74.5386 35.7884C74.4768 35.9566 74.4543 36.1367 74.473 36.3149C74.4976 36.5716 74.6143 36.8242 74.8063 37.0605C75.7603 38.1936 80.3349 39.876 81.7962 39.6267C82.3039 39.5347 82.6732 39.2491 82.8296 38.8222H82.8292ZM92.1098 36.8242C93.4892 36.2743 96.4975 32.4472 96.7091 30.9745C96.7831 30.4622 96.6225 30.0206 96.2691 29.7384C96.0375 29.5644 95.8618 29.4971 90.4005 27.7044C90.4005 27.7044 88.0049 26.9128 87.9739 26.8978C87.3939 26.6732 86.7322 26.8818 86.2872 27.4301C85.8242 27.9933 85.7552 28.7369 86.1249 29.2984L87.0885 30.8682C90.3298 36.1313 90.5778 36.5039 90.8112 36.6862C91.1722 36.9702 91.6322 37.0162 92.1098 36.8242ZM89.2872 23.2731C95.4938 21.7693 95.7338 21.6903 95.9785 21.5297C96.3545 21.2768 96.5435 20.8532 96.5105 20.3376C96.5105 20.3212 96.5138 20.3032 96.5105 20.2852C96.3511 18.7615 93.6812 14.7985 92.3662 14.1549C91.8995 13.9316 91.4335 13.9463 91.0462 14.2056C90.8062 14.3616 90.6305 14.5982 87.3069 19.1424C87.3069 19.1424 85.8062 21.1864 85.7882 21.2061C85.3925 21.6873 85.3859 22.3769 85.7736 22.9678C86.1742 23.58 86.8505 23.879 87.4712 23.7067C87.4712 23.7067 87.4465 23.751 87.4402 23.759C87.7455 23.644 88.2922 23.5097 89.2872 23.2731ZM83.0576 18.1493C82.9509 15.6897 82.2102 4.73948 82.1232 4.23223C81.9986 3.77231 81.6389 3.44403 81.1232 3.31438C79.5386 2.92211 73.483 4.61783 72.3613 5.77531C72.0003 6.15125 71.8673 6.61417 71.9757 7.02477C72.153 7.38771 79.6553 19.1901 79.6553 19.1901C80.7636 20.9878 81.6686 20.7088 81.9656 20.6152C82.2596 20.5249 83.1592 20.2456 83.0576 18.1489" fill="#BF2519"></path><path d="M6.20829 44.1054C6.98995 44.8293 8.47094 45.0346 10.2706 44.6686C11.9573 44.3353 13.0029 43.5818 14.0096 40.382L19.0225 24.6339C19.2819 23.7981 19.2625 23.0725 18.9652 22.5343C18.7235 22.1007 18.3215 21.8067 17.7532 21.6558C16.8599 21.4111 15.7452 21.4358 15.0422 23.8361L12.4119 32.7693C12.4119 32.7693 7.05395 22.6493 7.05062 22.6476C6.71229 21.971 5.72063 21.4871 4.71063 21.8877C3.39398 22.3883 2.95531 23.5721 3.48064 25.0972C3.48064 25.0972 9.99793 38.3577 10.0129 38.3937C10.0129 38.3937 10.1903 38.8666 10.1903 38.9436C10.1903 38.9436 10.2493 39.3035 10.2493 39.3165C10.2359 39.8271 10.0653 40.257 9.75993 40.5443C9.4596 40.8269 9.04227 40.9746 8.55461 40.9549C8.55461 40.9549 7.53828 40.9316 7.46128 40.9316C6.41696 41.0599 5.75996 41.6591 5.65463 42.585C5.58129 43.1812 5.77329 43.7048 6.20829 44.1054ZM31.8878 29.1735H24.9092C24.7202 29.0359 24.6285 28.8042 24.7695 28.108C24.8582 27.7421 24.9535 27.4138 25.2328 26.9539C25.3228 26.8162 25.4165 26.6749 25.5068 26.534C26.0175 25.8884 26.7088 25.4748 27.4955 25.2908C29.9488 24.6916 31.6595 25.9377 31.9371 28.0637C32.0701 28.9915 31.9828 29.1735 31.8878 29.1735ZM36.1768 27.9587C35.9518 25.6834 35.0734 23.9071 33.6334 22.8186C32.0995 21.6544 29.9288 21.2835 27.3591 21.7431C24.1375 22.3013 22.2032 24.6029 21.7599 28.4086C21.2145 32.9579 21.9632 36.386 23.9322 38.3247C25.4165 39.7911 27.6122 40.3737 30.2821 40.0124C34.0898 39.4771 35.8021 37.3875 35.8021 36.0657C35.8021 35.0939 35.2144 34.3287 34.3508 34.2123C33.8564 34.1137 33.4394 34.2123 32.5164 35.0379C31.1865 36.197 29.6448 36.6633 28.2785 36.317C27.2375 36.0527 26.4248 35.3352 26.0568 34.3517C26.0568 34.3517 25.8928 33.7018 25.9025 33.7738C25.7908 33.1879 25.7402 32.6066 26.1012 32.37L26.1978 32.3043H34.5624C35.3344 32.3043 35.7251 32.2043 35.9501 31.9611C36.4101 31.4508 36.3734 29.993 36.1768 27.9587ZM43.7594 15.9247C43.0977 15.6554 42.3507 15.7277 41.6954 16.1183C41.0651 16.4913 40.8021 17.0592 40.8021 18.0853V38.0261C40.8021 38.0261 40.9121 38.7386 40.9237 38.7696C41.0651 39.2672 41.4327 39.6908 41.9434 39.9221C42.5101 40.185 43.1634 40.18 43.748 39.9057C44.4754 39.5905 44.904 38.8632 44.904 37.9621V17.9834C44.904 17.9834 44.7774 17.0182 44.7774 17.0002C44.6607 16.5369 44.2784 16.1367 43.7594 15.9247ZM59.5426 36.179C56.7806 36.179 56.3406 33.7278 56.2536 31.8777C56.2486 31.8727 56.2173 30.7939 56.2173 30.7939C56.2173 30.7939 56.2486 29.993 56.2486 29.9617C56.4276 26.7602 57.0893 25.4978 58.7789 25.1465C59.9136 24.8839 60.7806 25.0119 61.4309 25.5354C62.4076 26.322 62.8379 27.9867 62.7986 30.7646C62.7706 34.0167 62.2043 36.179 59.5426 36.179ZM59.7476 21.5381C57.8973 21.1602 56.3143 21.4771 54.792 22.508C54.792 22.508 54.6213 22.6459 54.5556 22.6856L54.4193 22.7546L54.0026 22.9415L53.884 22.4736L53.784 22.3047L53.7493 22.1997L53.738 22.1683C53.738 22.1683 53.6363 22.032 53.6213 22.0107C53.1847 21.3308 51.9973 21.0192 50.927 21.6298C50.403 21.927 50.1027 22.3456 50.1027 23.5951V43.1662C50.1027 44.2384 50.4393 44.9049 51.1747 45.2562C51.7953 45.5681 52.4933 45.5928 53.0926 45.3352C53.6016 45.1119 53.976 44.7176 54.1156 44.2384L54.239 43.3995V40.0124L54.2026 39.4675L54.2173 39.3065L54.2386 39.2295L54.4406 38.5843L55.0533 38.9912C55.0533 38.9912 55.2076 39.0932 55.2733 39.1622L55.4573 39.2835C55.4586 39.2852 55.6706 39.4085 55.6706 39.4085C55.674 39.4085 55.8676 39.5035 55.8676 39.5035C57.5096 40.2783 59.7066 40.188 61.4753 39.2768C63.7019 38.1147 64.8019 36.0527 65.0562 32.5903C65.5882 25.6701 63.9956 22.3636 59.7476 21.5378V21.5381ZM68.3289 37.7108H68.5572C68.7425 37.7108 68.9169 37.7008 68.9169 37.4925C68.9169 37.3052 68.7575 37.2858 68.6145 37.2858H68.3289V37.7108ZM68.1415 37.1182H68.6309C68.9512 37.1182 69.1009 37.2348 69.1009 37.5005C69.1009 37.7404 68.9479 37.8404 68.7476 37.8617L69.1335 38.4513H68.9315L68.5669 37.8781H68.3289V38.4513H68.1415V37.1182ZM68.5735 38.7599C69.1135 38.7599 69.5489 38.3347 69.5489 37.7714C69.5489 37.2182 69.1139 36.7916 68.5735 36.7916C68.0316 36.7916 67.5966 37.2182 67.5966 37.7831C67.5954 37.9117 67.6199 38.0392 67.6686 38.1582C67.7173 38.2772 67.7892 38.3854 67.8802 38.4763C67.9711 38.5672 68.0793 38.6391 68.1983 38.6877C68.3174 38.7364 68.4449 38.7608 68.5735 38.7596V38.7599ZM68.5735 36.6256C69.2042 36.6256 69.7345 37.1215 69.7345 37.7714C69.7345 38.433 69.2042 38.9272 68.5735 38.9272C67.9412 38.9272 67.4126 38.433 67.4126 37.7831C67.4126 37.1215 67.9412 36.6256 68.5735 36.6256Z" fill="#231F20"></path></svg> 